<svg xmlns="http://www.w3.org/2000/svg" xmlns:xlink="http://www.w3.org/1999/xlink" width="2000" zoomAndPan="magnify" viewBox="0 0 1500 1499.999933" height="2000" preserveAspectRatio="xMidYMid meet" version="1.0"><defs><clipPath id="3e52fb9661"><path d="M 897 975.144531 L 1182 975.144531 L 1182 1179.65625 L 897 1179.65625 Z M 897 975.144531 " clip-rule="nonzero"/></clipPath><clipPath id="d5811c8a07"><path d="M 693 873.152344 L 979.777344 873.152344 L 979.777344 1179.65625 L 693 1179.65625 Z M 693 873.152344 " clip-rule="nonzero"/></clipPath><clipPath id="1f3a8adf41"><path d="M 956 478 L 1182.078125 478 L 1182.078125 823.734375 L 956 823.734375 Z M 956 478 " clip-rule="nonzero"/></clipPath><clipPath id="d7101095e6"><path d="M 365.582031 402 L 656 402 L 656 474 L 365.582031 474 Z M 365.582031 402 " clip-rule="nonzero"/></clipPath><clipPath id="07437759af"><path d="M 365.582031 499 L 656 499 L 656 571 L 365.582031 571 Z M 365.582031 499 " clip-rule="nonzero"/></clipPath><clipPath id="7f02b05b51"><path d="M 653 368 L 675.332031 368 L 675.332031 390 L 653 390 Z M 653 368 " clip-rule="nonzero"/></clipPath><clipPath id="f06c7a7bb1"><path d="M 599 358.164062 L 614 358.164062 L 614 373 L 599 373 Z M 599 358.164062 " clip-rule="nonzero"/></clipPath><clipPath id="8d18072ab3"><path d="M 438 596 L 454 596 L 454 610.914062 L 438 610.914062 Z M 438 596 " clip-rule="nonzero"/></clipPath></defs><path fill="#545454" d="M 897.613281 640.664062 C 909.050781 646.292969 921.347656 651.484375 933.605469 656.042969 C 937.070312 651.523438 957.214844 633.648438 978.613281 628.019531 C 995.757812 623.511719 1015.144531 630.5625 1016.636719 631.09375 C 1011.6875 630.378906 996.269531 630.414062 981.195312 634.289062 C 972.292969 636.582031 957.71875 647.761719 949.972656 654.617188 C 946.488281 657.699219 868.121094 729.265625 852.210938 744.988281 C 832.085938 738.765625 797.273438 732.652344 741.121094 717.019531 C 741.121094 717.019531 730.839844 713.144531 722.300781 715.550781 C 719.03125 716.472656 698.089844 721.117188 692.78125 718.902344 C 691.289062 716.785156 687.742188 710.203125 687.691406 707.613281 C 687.664062 706.015625 691.234375 702.964844 692.558594 701.410156 C 690.570312 696.539062 690.570312 696.761719 688.136719 692.777344 C 682.101562 697.191406 674.152344 702.183594 675.082031 709.605469 C 675.472656 712.738281 681.445312 734.597656 683.933594 736.804688 C 686.605469 739.171875 718.183594 738.746094 730.003906 740.730469 C 736.777344 743.636719 747.011719 750.140625 751.917969 752.945312 C 794.367188 777.191406 817.320312 791.277344 849.78125 795.972656 C 858.527344 797.238281 868.539062 794.019531 874.820312 790.144531 C 891.0625 782.429688 928.835938 756.046875 969.949219 721.507812 C 969.949219 721.507812 989.199219 704.542969 994.109375 702.789062 C 1003.988281 699.183594 1014.804688 700.15625 1024.105469 703.855469 C 1014.523438 700.945312 1003.90625 704.695312 995.097656 708.820312 C 990.671875 710.863281 959.933594 739.996094 952.835938 747.230469 C 952.792969 747.277344 952.742188 747.324219 952.695312 747.367188 C 958.707031 757.890625 977.878906 760.851562 978.441406 761.1875 C 978.441406 761.1875 981.535156 796.117188 982.183594 802.730469 C 987.472656 811.082031 999.699219 825.25 1027.34375 841.851562 C 1053.839844 857.753906 1070.445312 868.277344 1080.945312 881.238281 C 1080.933594 880.855469 1080.925781 880.484375 1080.910156 880.097656 C 1080.871094 878.960938 1080.820312 877.796875 1080.769531 876.644531 C 1080.726562 875.59375 1080.6875 874.550781 1080.636719 873.484375 C 1080.585938 872.339844 1080.515625 871.167969 1080.453125 870.015625 C 1080.394531 868.917969 1080.34375 867.835938 1080.277344 866.730469 C 1080.203125 865.5 1080.113281 864.246094 1080.03125 863.003906 C 1079.957031 861.941406 1079.894531 860.894531 1079.816406 859.820312 C 1079.722656 858.519531 1079.613281 857.191406 1079.503906 855.878906 C 1079.417969 854.839844 1079.34375 853.808594 1079.253906 852.761719 C 1079.140625 851.449219 1079.007812 850.117188 1078.886719 848.789062 C 1078.785156 847.710938 1078.691406 846.644531 1078.582031 845.558594 C 1078.449219 844.253906 1078.304688 842.925781 1078.160156 841.609375 C 1078.039062 840.488281 1077.925781 839.375 1077.796875 838.242188 C 1077.640625 836.878906 1077.464844 835.492188 1077.292969 834.117188 C 1077.160156 833.011719 1077.035156 831.925781 1076.890625 830.816406 C 1076.671875 829.117188 1076.429688 827.40625 1076.1875 825.699219 C 1076.078125 824.890625 1075.980469 824.09375 1075.859375 823.285156 C 1075.496094 820.757812 1075.109375 818.214844 1074.695312 815.65625 C 1074.695312 815.65625 1080.277344 786.316406 1083.101562 766.03125 C 1086.609375 740.824219 1058.53125 685.769531 1051.429688 660.125 C 1039.941406 618.636719 1048.679688 588.542969 997.789062 556.074219 C 981.785156 545.859375 978.984375 545.375 966.742188 534.1875 C 963.757812 545.550781 961.292969 555.800781 960.101562 559.878906 C 957.78125 568.554688 968.882812 564.511719 969.59375 569.460938 C 970.296875 574.40625 970.539062 589.097656 971.628906 593.972656 C 973.574219 602.71875 989.078125 600.457031 995.933594 599.003906 C 999.664062 597.089844 1007.867188 590.328125 1008.859375 591.15625 C 1009.839844 591.976562 1009.96875 593.4375 1009.148438 594.425781 C 1006.550781 597.535156 1003.265625 600.1875 999.597656 602.277344 C 1000.398438 607.320312 1003.550781 623.046875 1003.691406 623.921875 C 1002.417969 623.5 947.839844 604.09375 926.886719 596.128906 C 921.972656 614.824219 911.265625 629.605469 897.613281 640.664062 " fill-opacity="1" fill-rule="nonzero"/><path fill="#545454" d="M 706.484375 706.203125 C 708.351562 709.285156 712.246094 709.867188 714.992188 708.199219 C 715.640625 707.808594 716.164062 707.316406 716.589844 706.800781 C 717.925781 705.167969 718.042969 702.90625 716.992188 701.164062 L 658.757812 605.058594 C 657.703125 603.320312 655.640625 602.378906 653.574219 602.8125 C 652.917969 602.949219 652.242188 603.1875 651.597656 603.574219 C 648.847656 605.242188 647.5625 608.972656 649.429688 612.054688 L 706.484375 706.203125 " fill-opacity="1" fill-rule="nonzero"/><path fill="#545454" d="M 708.917969 622.550781 C 708.597656 622.648438 708.273438 622.699219 707.949219 622.699219 C 706.566406 622.699219 705.277344 621.804688 704.84375 620.40625 C 704.308594 618.6875 705.269531 616.863281 706.988281 616.328125 C 710.453125 615.253906 713.644531 613.824219 716.46875 612.078125 C 729.191406 604.226562 734.761719 593.894531 740.234375 582.1875 C 741 580.558594 742.941406 579.855469 744.566406 580.617188 C 746.195312 581.382812 746.898438 583.320312 746.132812 584.949219 C 740.429688 597.15625 734.125 608.835938 719.886719 617.628906 C 716.597656 619.65625 712.910156 621.316406 708.917969 622.550781 Z M 758.859375 549.019531 C 769.238281 533.589844 783.503906 520.359375 799.011719 511.773438 C 813.402344 503.820312 828.582031 499.996094 843.492188 500.460938 C 847.320312 500.585938 851.132812 500.972656 854.910156 501.667969 C 856.644531 501.988281 857.800781 503.660156 857.480469 505.394531 C 857.160156 507.136719 855.484375 508.277344 853.753906 507.972656 C 850.542969 507.382812 847.09375 507.035156 843.46875 506.953125 C 819.46875 506.394531 787.617188 517.746094 764.175781 552.601562 C 763.558594 553.519531 762.546875 554.011719 761.515625 554.011719 C 760.898438 554.011719 760.277344 553.835938 759.730469 553.472656 C 758.257812 552.480469 757.875 550.488281 758.859375 549.019531 Z M 723.226562 690.609375 C 727.71875 681.0625 734.332031 671.394531 743.949219 665.5625 C 767.433594 651.316406 788.039062 660.628906 818.40625 659.453125 C 841.410156 658.554688 867.0625 650.632812 886.886719 635.101562 C 900.46875 624.460938 911.292969 610.238281 916.664062 592.242188 C 919.25 583.578125 920.589844 574.054688 920.328125 563.613281 C 920.285156 561.753906 919.769531 559.953125 918.820312 558.378906 L 878.613281 492.023438 C 877.621094 490.425781 876.277344 489.15625 874.671875 488.265625 C 818.914062 457.382812 765.648438 494.078125 742.613281 534.375 C 727.527344 560.769531 726.257812 583.359375 702.773438 597.605469 C 691.367188 604.523438 677.132812 605.214844 665.25 604.003906 L 720.933594 695.890625 C 721.628906 694.152344 722.394531 692.382812 723.226562 690.609375 " fill-opacity="1" fill-rule="nonzero"/><path fill="#545454" d="M 609.347656 865.058594 C 617.625 903.105469 616.511719 921.277344 614.882812 932.726562 C 613.398438 944.214844 608.417969 954.84375 601.996094 964.027344 C 607.511719 954.230469 611.277344 943.433594 611.617188 932.40625 C 612.09375 921.390625 609.980469 910.480469 607.5 899.621094 C 602.273438 877.941406 596.386719 855.785156 593.636719 832.996094 L 593.382812 824.40625 L 593.453125 815.824219 C 593.519531 812.949219 593.433594 810.152344 593.632812 807.21875 L 594.304688 798.425781 C 595.738281 786.78125 598.714844 775.480469 602.90625 764.769531 C 607.101562 754.054688 612.484375 743.921875 618.730469 734.433594 C 625 724.976562 631.988281 716.011719 639.957031 708.054688 C 632.804688 716.738281 626.789062 726.265625 621.558594 736.105469 C 616.363281 745.972656 612.121094 756.292969 609.128906 766.882812 C 606.132812 777.464844 598.085938 813.332031 609.347656 865.058594 Z M 683.710938 685.472656 L 669.769531 659.566406 C 524.394531 717.351562 545.097656 884.644531 550.28125 936.535156 C 558.246094 1016.242188 494.523438 1083.992188 422.832031 1054.101562 C 432.785156 1097.9375 679.046875 1092.320312 633.921875 862.8125 C 610.027344 741.265625 683.710938 685.472656 683.710938 685.472656 " fill-opacity="1" fill-rule="nonzero"/><g clip-path="url(#3e52fb9661)"><path fill="#545454" d="M 1172.996094 1078.386719 C 1168.097656 1076.820312 1162.289062 1078.027344 1149.269531 1084.210938 C 1126.792969 1092.050781 1073.667969 1092.171875 1043.707031 1091.492188 C 1010.699219 1094.75 992.757812 1112.121094 976.09375 1123.039062 C 984.757812 1114.023438 994.59375 1103.464844 1004.707031 1091.984375 C 1009.621094 1086.402344 1014.597656 1080.601562 1019.535156 1074.664062 C 1028.382812 1064.019531 1037.089844 1052.921875 1045.058594 1041.785156 C 1042.011719 1030.542969 1033.554688 1012.699219 1010.519531 992.640625 C 1001.375 984.679688 990.230469 979.355469 978.304688 977.183594 C 975.414062 976.65625 972.515625 976.117188 969.621094 975.574219 C 944.242188 1023.601562 907.46875 1096.601562 900.011719 1128.605469 C 890.921875 1167.613281 907.304688 1176.996094 915.167969 1178.972656 C 919.5 1180.058594 923.988281 1179.738281 928.074219 1178.851562 C 928.074219 1178.851562 1126.640625 1126.828125 1139.050781 1122.402344 C 1145.1875 1120.222656 1143.574219 1130.449219 1141.03125 1141.78125 C 1138.710938 1152.113281 1137.113281 1164.941406 1131.210938 1165.949219 C 1126.980469 1166.671875 1120.21875 1166.929688 1119.242188 1168.9375 C 1118.019531 1171.441406 1118.648438 1173.632812 1119.84375 1175.371094 C 1121.738281 1178.105469 1125.023438 1179.523438 1128.339844 1179.375 L 1147.644531 1178.480469 C 1159.171875 1177.960938 1173.4375 1174.355469 1176.613281 1159.386719 C 1176.738281 1158.800781 1181.726562 1099.949219 1181.765625 1096.726562 C 1181.910156 1084.398438 1176.984375 1079.660156 1172.996094 1078.386719 " fill-opacity="1" fill-rule="nonzero"/></g><g clip-path="url(#d5811c8a07)"><path fill="#545454" d="M 842.5625 952.355469 C 843.1875 952.480469 879.054688 961.183594 940.613281 964.921875 C 954.21875 965.746094 977.289062 969.925781 979.476562 970.28125 C 978.902344 969.933594 978.363281 969.585938 977.78125 969.238281 C 976.550781 968.503906 975.351562 967.757812 974.167969 967.003906 C 926.972656 936.988281 920.621094 895.136719 920.800781 873.90625 C 919.449219 874.015625 918.101562 874.128906 916.742188 874.25 C 884.734375 877.546875 856.347656 883.683594 826.238281 889.777344 C 797.933594 895.511719 790.160156 909.953125 789.378906 911.871094 C 786.128906 917.734375 786.75 941.570312 787.796875 951.203125 C 790.253906 973.824219 793.03125 1077.460938 791.855469 1114.949219 C 791.652344 1121.285156 788.355469 1127.097656 783.035156 1130.542969 C 776.726562 1134.628906 769.453125 1139.328125 761.058594 1144.925781 C 730.394531 1165.386719 706.546875 1163.339844 697.683594 1166.0625 C 693.996094 1167.199219 693.261719 1169.640625 693.660156 1172.101562 C 694.320312 1176.160156 698.019531 1179.035156 702.132812 1179.074219 C 724.96875 1179.316406 816.601562 1180.269531 823.753906 1179.074219 C 831.929688 1177.710938 829.171875 1164.195312 828.523438 1159.925781 C 827.558594 1153.558594 827.851562 1131.570312 828.054688 1127.449219 C 830.15625 1085.765625 847.042969 1047.929688 850.707031 1026.117188 C 854.628906 1002.699219 850.050781 978.160156 844.429688 959.191406 C 844.242188 958.554688 842.898438 953.859375 842.5625 952.355469 " fill-opacity="1" fill-rule="nonzero"/></g><path fill="#545454" d="M 734.449219 864.722656 C 763.078125 847.460938 764.542969 799.339844 732.660156 780.285156 C 692.296875 756.15625 658.554688 811.066406 700.117188 819.527344 C 691.171875 817.460938 688.507812 803.449219 694.476562 798.132812 C 705.082031 791.144531 719.269531 799.210938 720.296875 809.261719 C 722.511719 830.933594 703.421875 835.511719 699.480469 835.804688 C 669.847656 838.019531 638.425781 791.082031 659.8125 741.265625 C 642.410156 759.199219 634.621094 795.238281 641.523438 819.421875 C 658.34375 878.3125 716.3125 875.65625 734.449219 864.722656 " fill-opacity="1" fill-rule="nonzero"/><path fill="#545454" d="M 1089.394531 944.230469 C 1091.035156 934.542969 1091.589844 931.285156 1090.515625 923.210938 C 1089.511719 915.679688 1088.152344 909.273438 1086.257812 903.589844 C 1084.878906 899.457031 1083.21875 895.703125 1081.195312 892.214844 C 1071.992188 876.355469 1055.335938 865.691406 1024.246094 847.023438 C 1003.359375 834.484375 990.847656 823.1875 983.355469 814.414062 C 980.972656 811.613281 979.082031 809.066406 977.609375 806.824219 C 977.605469 806.828125 977.609375 806.824219 977.601562 806.828125 C 976.96875 811.519531 976.003906 819.734375 976.003906 819.734375 C 975.941406 824.375 976.792969 829.128906 978.277344 833.847656 C 979.160156 836.660156 980.289062 839.460938 981.578125 842.226562 C 982.367188 843.90625 983.191406 845.574219 984.09375 847.21875 C 984.699219 848.332031 985.335938 849.449219 985.984375 850.542969 L 987.976562 853.679688 C 989.425781 855.734375 990.875 857.816406 992.53125 859.796875 C 993.617188 861.167969 994.753906 862.507812 995.917969 863.835938 C 996.78125 864.824219 997.652344 865.800781 998.542969 866.769531 C 998.582031 866.8125 998.617188 866.851562 998.65625 866.894531 C 1000.0625 868.417969 1001.488281 869.929688 1002.941406 871.421875 C 1017.703125 886.414062 1034.335938 899.859375 1051.023438 913.070312 C 1033.03125 901.65625 1015.105469 890.074219 998.410156 876.347656 C 995.371094 873.808594 992.359375 871.214844 989.449219 868.457031 C 988.371094 867.441406 987.324219 866.421875 986.304688 865.375 C 985.941406 865.023438 985.605469 864.644531 985.253906 864.285156 C 983.675781 862.664062 982.152344 860.960938 980.644531 859.234375 L 978.472656 856.496094 L 977.988281 855.886719 C 977.152344 854.769531 976.347656 853.648438 975.5625 852.496094 C 975.199219 851.976562 974.859375 851.433594 974.511719 850.90625 C 971.769531 846.773438 969.238281 842.40625 967.207031 837.65625 C 966.996094 837.15625 966.8125 836.632812 966.609375 836.121094 C 964.367188 839.378906 961.925781 842.273438 959.375 844.851562 C 954.550781 849.734375 952.167969 856.53125 953.242188 863.316406 C 953.417969 864.429688 953.597656 865.402344 953.75 866.097656 C 954.144531 867.789062 954.59375 869.472656 955.097656 871.140625 C 955.121094 871.234375 955.144531 871.328125 955.171875 871.421875 C 955.683594 873.097656 956.253906 874.765625 956.878906 876.410156 C 958.019531 879.773438 959.683594 882.914062 961.226562 886.132812 C 962.730469 888.644531 964.140625 891.234375 965.816406 893.664062 C 966.171875 894.191406 966.53125 894.714844 966.921875 895.222656 C 967.925781 896.566406 968.8125 898.011719 969.910156 899.292969 C 969.988281 899.378906 970.042969 899.476562 970.121094 899.5625 L 973.632812 903.699219 C 974.757812 905.109375 976.085938 906.414062 977.359375 907.75 C 978.644531 909.078125 979.898438 910.433594 981.246094 911.710938 C 986.230469 916.652344 991.460938 921.375 996.808594 926 C 1002.769531 931.148438 1008.878906 936.167969 1015.027344 941.164062 C 1020.847656 945.917969 1026.707031 950.65625 1032.347656 955.671875 C 1032.984375 956.242188 1033.617188 956.824219 1034.253906 957.402344 C 1036.457031 959.421875 1038.628906 961.5 1040.671875 963.691406 C 1042.171875 965.292969 1043.59375 966.964844 1044.914062 968.707031 C 1045.144531 969.015625 1045.382812 969.324219 1045.605469 969.636719 C 1046.261719 970.535156 1046.890625 971.457031 1047.480469 972.40625 C 1046.804688 971.480469 1046.089844 970.597656 1045.359375 969.730469 C 1045.101562 969.421875 1044.835938 969.125 1044.574219 968.824219 C 1042.878906 966.914062 1041.054688 965.125 1039.144531 963.417969 C 1036.621094 961.160156 1033.957031 959.035156 1031.285156 956.960938 C 1031.214844 956.910156 1031.148438 956.863281 1031.078125 956.8125 C 1025.195312 952.324219 1019.097656 948.09375 1013.011719 943.835938 C 1006.691406 939.433594 1000.371094 934.996094 994.144531 930.386719 C 988.214844 926.003906 982.375 921.46875 976.71875 916.640625 C 973.835938 914.21875 970.988281 911.652344 968.230469 908.9375 C 966.746094 907.476562 965.304688 905.96875 963.886719 904.421875 C 957.367188 897.316406 951.628906 889.304688 947.636719 880.316406 C 946.398438 877.664062 945.332031 874.921875 944.355469 872.152344 C 944.324219 872.050781 944.285156 871.957031 944.253906 871.859375 C 943.683594 870.222656 943.15625 868.574219 942.679688 866.902344 C 941.878906 864.074219 941.195312 861.21875 940.675781 858.3125 C 938.566406 859.382812 936.359375 859.875 934.761719 861 C 926.625 866.734375 927.96875 891.976562 929.4375 898.101562 C 935.691406 924.117188 951.703125 945.46875 977.027344 961.65625 C 978.296875 962.464844 979.558594 963.273438 980.871094 964.058594 C 985.578125 966.867188 989.949219 969.664062 994.0625 972.445312 C 994.238281 972.570312 994.417969 972.6875 994.589844 972.808594 C 998.800781 975.667969 1002.703125 978.507812 1006.328125 981.316406 C 1033.429688 1002.359375 1044.839844 1021.761719 1049.566406 1035.371094 C 1051.207031 1040.101562 1052.042969 1044.136719 1052.453125 1047.289062 C 1061.183594 1037.617188 1079.359375 1015.042969 1086.625 987.792969 C 1088.972656 978.96875 1088.765625 965.53125 1088.625 956.636719 C 1088.554688 951.933594 1088.523438 949.417969 1088.761719 948 L 1089.394531 944.230469 " fill-opacity="1" fill-rule="nonzero"/><g clip-path="url(#1f3a8adf41)"><path fill="#545454" d="M 1046.464844 605.652344 C 1047.671875 609.917969 1049.730469 614.214844 1049.628906 618.703125 C 1050.742188 567.058594 1021.703125 541.046875 1001.570312 529.253906 C 1079.640625 557.28125 1050 635.832031 1073.6875 694.089844 C 1091.085938 736.859375 1106.9375 770.804688 1085.550781 823.566406 C 1086.238281 823.355469 1086.949219 823.144531 1087.675781 822.933594 C 1106.789062 817.40625 1120.929688 800.878906 1122.429688 781.023438 C 1126.859375 722.457031 1074.339844 684.273438 1077.351562 625.027344 C 1080.871094 671.636719 1108.332031 695.808594 1124.988281 726.539062 C 1144.183594 761.949219 1132.386719 795.527344 1118.757812 812.933594 C 1160.234375 793.828125 1178.867188 740.011719 1159.273438 695.664062 C 1178.5 714.511719 1172.796875 755.433594 1170.1875 765.785156 C 1196.339844 719.203125 1175.597656 696.53125 1144.265625 660.082031 C 1126.289062 639.167969 1114.558594 613.59375 1110.476562 586.3125 C 1105.144531 550.679688 1103.097656 516.734375 1073.144531 495.894531 C 1053.640625 482.464844 1029.449219 476.867188 1001.40625 479.257812 C 960.785156 472.980469 953.183594 493.863281 957.597656 507 C 972.347656 551.648438 1031.292969 548.324219 1046.464844 605.652344 " fill-opacity="1" fill-rule="nonzero"/></g><path fill="#545454" d="M 477.191406 1004.660156 C 492.28125 1002.46875 540.625 987.242188 535.234375 936.535156 C 532.097656 907.011719 524.316406 840.050781 544.816406 777.203125 C 500.226562 831.363281 535.246094 897.910156 501.292969 947.921875 C 486.390625 969.863281 452.1875 965.964844 443.921875 940.757812 C 441.511719 933.417969 441.792969 925.441406 446.007812 917.773438 C 456.539062 896.910156 482.0625 912.355469 480.074219 922.441406 C 478.847656 928.671875 472.238281 932.5625 466.136719 930.804688 C 460.925781 929.300781 456.152344 925.007812 456.144531 919.453125 C 451.230469 932.335938 463.621094 945.175781 479.085938 942.460938 C 515.304688 934.722656 509.644531 865.472656 456.167969 861.730469 C 432.121094 860.050781 408.726562 879.875 403.878906 906.675781 C 396.355469 948.273438 431.316406 982.8125 478.226562 977.941406 C 443.265625 991.226562 414.496094 971.742188 407.859375 960.230469 C 409.191406 990.78125 447.691406 1008.933594 477.191406 1004.660156 " fill-opacity="1" fill-rule="nonzero"/><path fill="#545454" d="M 505.542969 997.839844 C 504.753906 998.238281 506.367188 997.476562 505.542969 997.839844 " fill-opacity="1" fill-rule="nonzero"/><g clip-path="url(#d7101095e6)"><path fill="#545454" d="M 441.75 424.621094 C 443.890625 426.835938 448.761719 436.34375 451.832031 461.132812 C 451.988281 462.414062 452.316406 463.652344 452.816406 464.84375 C 453.320312 466.035156 453.976562 467.132812 454.785156 468.140625 C 455.597656 469.148438 456.53125 470.023438 457.589844 470.769531 C 458.644531 471.515625 459.785156 472.101562 461.007812 472.527344 C 462.226562 472.957031 463.484375 473.214844 464.777344 473.296875 C 466.066406 473.375 467.347656 473.277344 468.609375 473 C 469.875 472.726562 471.078125 472.28125 472.214844 471.667969 C 473.355469 471.054688 474.390625 470.296875 475.316406 469.394531 C 509.003906 436.855469 526.511719 424.53125 532.726562 421.699219 C 534.65625 425.421875 537.902344 436.273438 538.957031 459.863281 C 539.015625 461.175781 539.257812 462.453125 539.679688 463.695312 C 540.101562 464.941406 540.6875 466.101562 541.441406 467.175781 C 542.191406 468.253906 543.078125 469.207031 544.101562 470.035156 C 545.125 470.859375 546.242188 471.527344 547.457031 472.035156 C 548.667969 472.546875 549.925781 472.878906 551.234375 473.03125 C 552.539062 473.183594 553.84375 473.152344 555.140625 472.9375 C 556.4375 472.71875 557.679688 472.328125 558.867188 471.757812 C 560.054688 471.191406 561.136719 470.46875 562.117188 469.59375 C 597.019531 438.578125 620.265625 424.691406 627.820312 424.691406 C 628.390625 424.691406 628.9375 424.769531 629.832031 425.722656 C 635.964844 432.246094 637.441406 454.796875 636.527344 468.714844 L 655.152344 469.949219 C 655.617188 463.011719 657.242188 427.671875 643.464844 412.996094 C 639.210938 408.460938 633.792969 406.0625 627.820312 406.0625 C 614.023438 406.0625 590.226562 420.59375 557.015625 449.285156 C 554.527344 417 547.34375 402.464844 534.128906 402.464844 C 529.839844 402.464844 518.753906 402.464844 469.03125 449.59375 C 463.359375 414.710938 453.46875 408.128906 446.285156 406.339844 C 430.300781 402.355469 393.578125 432.738281 365.582031 458.9375 L 378.347656 472.527344 C 402.035156 450.367188 432.511719 426.425781 441.75 424.621094 Z M 441.75 424.621094 " fill-opacity="1" fill-rule="nonzero"/></g><g clip-path="url(#07437759af)"><path fill="#545454" d="M 627.820312 503.175781 C 614.023438 503.175781 590.226562 517.710938 557.015625 546.402344 C 554.527344 514.113281 547.34375 499.582031 534.128906 499.582031 C 529.839844 499.582031 518.753906 499.582031 469.03125 546.707031 C 463.359375 511.828125 453.46875 505.242188 446.285156 503.457031 C 430.300781 499.472656 393.578125 529.855469 365.582031 556.050781 L 378.347656 569.648438 C 402.035156 547.484375 432.511719 523.535156 441.75 521.734375 C 443.890625 523.949219 448.761719 533.457031 451.832031 558.242188 C 451.988281 559.523438 452.320312 560.761719 452.820312 561.953125 C 453.324219 563.144531 453.980469 564.242188 454.789062 565.25 C 455.597656 566.257812 456.53125 567.136719 457.585938 567.882812 C 458.644531 568.632812 459.78125 569.21875 461 569.648438 C 462.222656 570.082031 463.480469 570.335938 464.769531 570.414062 C 466.0625 570.496094 467.339844 570.394531 468.605469 570.121094 C 469.871094 569.84375 471.070312 569.398438 472.210938 568.785156 C 473.351562 568.175781 474.386719 567.417969 475.3125 566.515625 C 509.003906 533.980469 526.507812 521.65625 532.726562 518.824219 C 534.652344 522.542969 537.898438 533.398438 538.957031 556.988281 C 539.015625 558.300781 539.253906 559.578125 539.675781 560.820312 C 540.097656 562.066406 540.683594 563.226562 541.4375 564.304688 C 542.191406 565.378906 543.078125 566.332031 544.097656 567.160156 C 545.121094 567.984375 546.238281 568.652344 547.453125 569.164062 C 548.664062 569.671875 549.925781 570.003906 551.230469 570.15625 C 552.539062 570.308594 553.839844 570.277344 555.136719 570.0625 C 556.4375 569.84375 557.679688 569.453125 558.863281 568.886719 C 560.050781 568.316406 561.132812 567.59375 562.117188 566.71875 C 597.019531 535.695312 620.265625 521.804688 627.820312 521.804688 C 628.390625 521.804688 628.9375 521.882812 629.832031 522.835938 C 635.964844 529.375 637.441406 551.910156 636.527344 565.832031 L 655.152344 567.066406 C 655.617188 560.128906 657.242188 524.792969 643.464844 510.109375 C 639.210938 505.574219 633.816406 503.175781 627.820312 503.175781 Z M 627.820312 503.175781 " fill-opacity="1" fill-rule="nonzero"/></g><path fill="#545454" d="M 665.710938 406.914062 C 665.710938 406.574219 665.679688 406.238281 665.613281 405.90625 C 665.546875 405.574219 665.449219 405.25 665.316406 404.933594 C 665.1875 404.621094 665.027344 404.324219 664.835938 404.042969 C 664.648438 403.757812 664.433594 403.496094 664.191406 403.257812 C 663.953125 403.015625 663.691406 402.804688 663.40625 402.613281 C 663.125 402.425781 662.824219 402.265625 662.511719 402.136719 C 662.195312 402.007812 661.871094 401.910156 661.539062 401.84375 C 661.203125 401.777344 660.867188 401.742188 660.527344 401.742188 C 660.1875 401.742188 659.847656 401.777344 659.515625 401.84375 C 659.179688 401.910156 658.859375 402.007812 658.542969 402.136719 C 658.230469 402.265625 657.929688 402.425781 657.648438 402.617188 C 657.363281 402.804688 657.101562 403.019531 656.863281 403.257812 C 656.621094 403.5 656.40625 403.761719 656.21875 404.042969 C 656.027344 404.324219 655.867188 404.625 655.738281 404.9375 C 655.609375 405.25 655.511719 405.574219 655.445312 405.910156 C 655.378906 406.242188 655.34375 406.578125 655.34375 406.917969 C 655.34375 407.257812 655.378906 407.59375 655.445312 407.925781 C 655.511719 408.261719 655.609375 408.585938 655.738281 408.898438 C 655.867188 409.210938 656.027344 409.511719 656.21875 409.792969 C 656.40625 410.074219 656.621094 410.335938 656.863281 410.578125 C 657.101562 410.816406 657.367188 411.03125 657.648438 411.21875 C 657.929688 411.410156 658.230469 411.570312 658.542969 411.699219 C 658.859375 411.828125 659.183594 411.925781 659.515625 411.992188 C 659.851562 412.058594 660.1875 412.09375 660.527344 412.09375 C 660.867188 412.09375 661.207031 412.058594 661.539062 411.992188 C 661.875 411.925781 662.199219 411.828125 662.511719 411.699219 C 662.828125 411.566406 663.125 411.410156 663.410156 411.21875 C 663.691406 411.03125 663.953125 410.816406 664.195312 410.574219 C 664.4375 410.335938 664.652344 410.074219 664.839844 409.792969 C 665.027344 409.507812 665.1875 409.210938 665.320312 408.894531 C 665.449219 408.582031 665.546875 408.257812 665.613281 407.925781 C 665.679688 407.59375 665.710938 407.253906 665.710938 406.914062 Z M 665.710938 406.914062 " fill-opacity="1" fill-rule="nonzero"/><path fill="#545454" d="M 532.597656 376.757812 C 532.597656 376.316406 532.515625 375.890625 532.34375 375.480469 C 532.175781 375.074219 531.933594 374.710938 531.621094 374.398438 C 531.308594 374.085938 530.945312 373.84375 530.535156 373.675781 C 530.128906 373.507812 529.703125 373.421875 529.257812 373.421875 C 528.816406 373.421875 528.390625 373.507812 527.980469 373.675781 C 527.570312 373.84375 527.210938 374.085938 526.894531 374.398438 C 526.582031 374.710938 526.339844 375.074219 526.171875 375.480469 C 526.003906 375.890625 525.917969 376.316406 525.917969 376.757812 C 525.917969 377.199219 526.003906 377.625 526.171875 378.035156 C 526.339844 378.441406 526.582031 378.804688 526.894531 379.117188 C 527.210938 379.429688 527.570312 379.667969 527.980469 379.839844 C 528.390625 380.007812 528.816406 380.09375 529.257812 380.09375 C 529.703125 380.09375 530.128906 380.007812 530.535156 379.839844 C 530.945312 379.667969 531.308594 379.429688 531.621094 379.117188 C 531.933594 378.804688 532.175781 378.441406 532.34375 378.035156 C 532.515625 377.625 532.597656 377.199219 532.597656 376.757812 Z M 532.597656 376.757812 " fill-opacity="1" fill-rule="nonzero"/><path fill="#545454" d="M 443.023438 387.160156 C 443.023438 386.714844 442.9375 386.292969 442.769531 385.882812 C 442.601562 385.472656 442.359375 385.113281 442.046875 384.800781 C 441.730469 384.488281 441.371094 384.246094 440.960938 384.078125 C 440.550781 383.910156 440.125 383.824219 439.683594 383.824219 C 439.238281 383.824219 438.8125 383.910156 438.402344 384.078125 C 437.996094 384.246094 437.632812 384.488281 437.320312 384.800781 C 437.007812 385.113281 436.765625 385.472656 436.59375 385.882812 C 436.425781 386.292969 436.339844 386.714844 436.339844 387.160156 C 436.339844 387.601562 436.425781 388.027344 436.59375 388.433594 C 436.765625 388.84375 437.007812 389.203125 437.320312 389.515625 C 437.632812 389.828125 437.996094 390.070312 438.402344 390.238281 C 438.8125 390.410156 439.238281 390.492188 439.683594 390.492188 C 440.125 390.492188 440.550781 390.410156 440.960938 390.238281 C 441.371094 390.070312 441.730469 389.828125 442.046875 389.515625 C 442.359375 389.203125 442.601562 388.84375 442.769531 388.433594 C 442.9375 388.027344 443.023438 387.601562 443.023438 387.160156 Z M 443.023438 387.160156 " fill-opacity="1" fill-rule="nonzero"/><path fill="#545454" d="M 404.828125 372.863281 C 404.828125 372.421875 404.742188 371.996094 404.574219 371.585938 C 404.402344 371.179688 404.164062 370.820312 403.847656 370.503906 C 403.535156 370.191406 403.175781 369.953125 402.765625 369.78125 C 402.355469 369.613281 401.929688 369.527344 401.488281 369.527344 C 401.042969 369.527344 400.617188 369.613281 400.207031 369.78125 C 399.796875 369.953125 399.4375 370.191406 399.125 370.503906 C 398.8125 370.820312 398.570312 371.179688 398.398438 371.585938 C 398.230469 371.996094 398.144531 372.421875 398.144531 372.863281 C 398.144531 373.304688 398.230469 373.730469 398.398438 374.140625 C 398.570312 374.546875 398.8125 374.910156 399.125 375.222656 C 399.4375 375.535156 399.796875 375.777344 400.207031 375.945312 C 400.617188 376.113281 401.042969 376.199219 401.488281 376.199219 C 401.929688 376.199219 402.355469 376.113281 402.765625 375.945312 C 403.175781 375.777344 403.535156 375.535156 403.847656 375.222656 C 404.164062 374.910156 404.402344 374.546875 404.574219 374.140625 C 404.742188 373.730469 404.828125 373.304688 404.828125 372.863281 Z M 404.828125 372.863281 " fill-opacity="1" fill-rule="nonzero"/><path fill="#545454" d="M 436.207031 568.34375 C 436.207031 567.902344 436.125 567.476562 435.953125 567.066406 C 435.785156 566.660156 435.542969 566.296875 435.230469 565.984375 C 434.917969 565.671875 434.554688 565.433594 434.144531 565.261719 C 433.734375 565.09375 433.308594 565.007812 432.867188 565.007812 C 432.421875 565.007812 431.996094 565.09375 431.589844 565.261719 C 431.179688 565.433594 430.816406 565.671875 430.503906 565.984375 C 430.191406 566.296875 429.949219 566.660156 429.78125 567.066406 C 429.609375 567.476562 429.527344 567.902344 429.527344 568.34375 C 429.527344 568.785156 429.609375 569.210938 429.78125 569.621094 C 429.949219 570.027344 430.191406 570.390625 430.503906 570.703125 C 430.816406 571.015625 431.179688 571.253906 431.589844 571.425781 C 431.996094 571.59375 432.421875 571.679688 432.867188 571.679688 C 433.308594 571.679688 433.734375 571.59375 434.144531 571.425781 C 434.554688 571.253906 434.917969 571.015625 435.230469 570.703125 C 435.542969 570.390625 435.785156 570.027344 435.953125 569.621094 C 436.125 569.210938 436.207031 568.785156 436.207031 568.34375 Z M 436.207031 568.34375 " fill-opacity="1" fill-rule="nonzero"/><path fill="#545454" d="M 506.757812 561.667969 C 506.757812 561.222656 506.675781 560.796875 506.503906 560.390625 C 506.335938 559.980469 506.09375 559.621094 505.78125 559.308594 C 505.46875 558.992188 505.109375 558.753906 504.699219 558.582031 C 504.289062 558.414062 503.863281 558.328125 503.417969 558.328125 C 502.976562 558.328125 502.550781 558.414062 502.140625 558.582031 C 501.730469 558.75 501.371094 558.992188 501.054688 559.304688 C 500.742188 559.617188 500.5 559.976562 500.332031 560.386719 C 500.160156 560.792969 500.078125 561.21875 500.078125 561.664062 C 500.078125 562.105469 500.160156 562.53125 500.332031 562.9375 C 500.5 563.347656 500.742188 563.707031 501.054688 564.019531 C 501.367188 564.335938 501.730469 564.574219 502.140625 564.746094 C 502.546875 564.914062 502.976562 565 503.417969 565 C 503.859375 565 504.285156 564.914062 504.695312 564.746094 C 505.105469 564.574219 505.464844 564.335938 505.78125 564.023438 C 506.09375 563.710938 506.335938 563.351562 506.503906 562.941406 C 506.671875 562.535156 506.757812 562.109375 506.757812 561.667969 Z M 506.757812 561.667969 " fill-opacity="1" fill-rule="nonzero"/><path fill="#545454" d="M 386.585938 406.75 C 386.585938 406.410156 386.550781 406.070312 386.484375 405.738281 C 386.417969 405.40625 386.320312 405.082031 386.191406 404.769531 C 386.058594 404.453125 385.898438 404.15625 385.710938 403.875 C 385.523438 403.589844 385.308594 403.328125 385.066406 403.089844 C 384.824219 402.847656 384.5625 402.632812 384.28125 402.445312 C 383.996094 402.257812 383.699219 402.097656 383.382812 401.96875 C 383.070312 401.835938 382.746094 401.738281 382.410156 401.671875 C 382.078125 401.605469 381.742188 401.574219 381.398438 401.574219 C 381.058594 401.574219 380.722656 401.605469 380.390625 401.671875 C 380.054688 401.738281 379.730469 401.835938 379.417969 401.96875 C 379.101562 402.097656 378.804688 402.257812 378.519531 402.445312 C 378.238281 402.632812 377.976562 402.847656 377.734375 403.089844 C 377.492188 403.328125 377.277344 403.589844 377.089844 403.875 C 376.902344 404.15625 376.742188 404.453125 376.609375 404.769531 C 376.480469 405.082031 376.382812 405.40625 376.316406 405.738281 C 376.25 406.070312 376.214844 406.410156 376.214844 406.75 C 376.214844 407.089844 376.25 407.425781 376.316406 407.757812 C 376.382812 408.089844 376.480469 408.414062 376.609375 408.730469 C 376.742188 409.042969 376.902344 409.339844 377.089844 409.625 C 377.277344 409.90625 377.492188 410.167969 377.734375 410.40625 C 377.976562 410.648438 378.238281 410.863281 378.519531 411.050781 C 378.804688 411.238281 379.101562 411.398438 379.417969 411.527344 C 379.730469 411.660156 380.054688 411.757812 380.390625 411.824219 C 380.722656 411.890625 381.058594 411.921875 381.398438 411.921875 C 381.742188 411.921875 382.078125 411.890625 382.410156 411.824219 C 382.746094 411.757812 383.070312 411.660156 383.382812 411.527344 C 383.699219 411.398438 383.996094 411.238281 384.28125 411.050781 C 384.5625 410.863281 384.824219 410.648438 385.066406 410.40625 C 385.308594 410.167969 385.523438 409.90625 385.710938 409.625 C 385.898438 409.339844 386.058594 409.042969 386.191406 408.730469 C 386.320312 408.414062 386.417969 408.089844 386.484375 407.757812 C 386.550781 407.425781 386.585938 407.089844 386.585938 406.75 Z M 386.585938 406.75 " fill-opacity="1" fill-rule="nonzero"/><path fill="#545454" d="M 376.199219 380.460938 C 376.199219 380.101562 376.128906 379.753906 375.992188 379.421875 C 375.855469 379.085938 375.65625 378.792969 375.402344 378.539062 C 375.148438 378.28125 374.851562 378.085938 374.519531 377.949219 C 374.183594 377.808594 373.839844 377.742188 373.476562 377.742188 C 373.117188 377.742188 372.769531 377.808594 372.433594 377.949219 C 372.101562 378.085938 371.808594 378.28125 371.550781 378.535156 C 371.296875 378.792969 371.101562 379.085938 370.960938 379.417969 C 370.824219 379.75 370.753906 380.097656 370.753906 380.457031 C 370.753906 380.820312 370.824219 381.164062 370.960938 381.5 C 371.101562 381.832031 371.296875 382.125 371.554688 382.378906 C 371.808594 382.632812 372.101562 382.832031 372.4375 382.96875 C 372.769531 383.105469 373.117188 383.175781 373.480469 383.175781 C 373.839844 383.171875 374.1875 383.105469 374.519531 382.96875 C 374.851562 382.828125 375.144531 382.632812 375.402344 382.378906 C 375.65625 382.125 375.851562 381.832031 375.988281 381.5 C 376.128906 381.167969 376.199219 380.820312 376.199219 380.460938 Z M 376.199219 380.460938 " fill-opacity="1" fill-rule="nonzero"/><path fill="#545454" d="M 526.640625 546.683594 C 526.640625 546.324219 526.574219 545.976562 526.433594 545.644531 C 526.296875 545.3125 526.097656 545.019531 525.84375 544.765625 C 525.589844 544.507812 525.292969 544.3125 524.960938 544.175781 C 524.628906 544.039062 524.28125 543.96875 523.917969 543.96875 C 523.558594 543.96875 523.210938 544.039062 522.878906 544.175781 C 522.546875 544.3125 522.25 544.507812 521.996094 544.765625 C 521.738281 545.019531 521.542969 545.3125 521.40625 545.644531 C 521.265625 545.976562 521.199219 546.324219 521.199219 546.683594 C 521.199219 547.046875 521.265625 547.390625 521.40625 547.722656 C 521.542969 548.058594 521.738281 548.351562 521.996094 548.605469 C 522.25 548.859375 522.546875 549.058594 522.878906 549.195312 C 523.210938 549.332031 523.558594 549.402344 523.917969 549.402344 C 524.28125 549.402344 524.628906 549.332031 524.960938 549.195312 C 525.292969 549.058594 525.589844 548.859375 525.84375 548.605469 C 526.097656 548.351562 526.296875 548.058594 526.433594 547.722656 C 526.574219 547.390625 526.640625 547.046875 526.640625 546.683594 Z M 526.640625 546.683594 " fill-opacity="1" fill-rule="nonzero"/><path fill="#545454" d="M 398.871094 512.589844 C 398.871094 512.230469 398.800781 511.882812 398.664062 511.550781 C 398.523438 511.214844 398.328125 510.921875 398.070312 510.667969 C 397.816406 510.414062 397.523438 510.21875 397.1875 510.078125 C 396.855469 509.941406 396.507812 509.871094 396.148438 509.871094 C 395.785156 509.871094 395.4375 509.941406 395.105469 510.078125 C 394.773438 510.21875 394.476562 510.414062 394.222656 510.667969 C 393.96875 510.925781 393.769531 511.21875 393.632812 511.550781 C 393.496094 511.882812 393.425781 512.230469 393.425781 512.589844 C 393.425781 512.953125 393.496094 513.296875 393.632812 513.628906 C 393.773438 513.964844 393.96875 514.257812 394.226562 514.511719 C 394.480469 514.765625 394.773438 514.960938 395.109375 515.101562 C 395.441406 515.238281 395.789062 515.304688 396.152344 515.304688 C 396.511719 515.304688 396.859375 515.238281 397.191406 515.097656 C 397.523438 514.960938 397.820312 514.765625 398.074219 514.511719 C 398.328125 514.253906 398.527344 513.960938 398.664062 513.628906 C 398.800781 513.296875 398.871094 512.949219 398.871094 512.589844 Z M 398.871094 512.589844 " fill-opacity="1" fill-rule="nonzero"/><path fill="#545454" d="M 669.570312 434.308594 C 669.570312 433.949219 669.503906 433.601562 669.363281 433.269531 C 669.226562 432.9375 669.027344 432.644531 668.773438 432.386719 C 668.519531 432.132812 668.222656 431.9375 667.890625 431.800781 C 667.558594 431.660156 667.210938 431.59375 666.847656 431.59375 C 666.488281 431.59375 666.140625 431.664062 665.808594 431.800781 C 665.472656 431.9375 665.179688 432.136719 664.925781 432.390625 C 664.667969 432.644531 664.472656 432.9375 664.335938 433.273438 C 664.195312 433.605469 664.128906 433.953125 664.128906 434.3125 C 664.128906 434.671875 664.199219 435.019531 664.335938 435.351562 C 664.472656 435.683594 664.671875 435.976562 664.925781 436.230469 C 665.183594 436.488281 665.476562 436.683594 665.808594 436.820312 C 666.144531 436.957031 666.492188 437.027344 666.851562 437.027344 C 667.214844 437.027344 667.558594 436.957031 667.894531 436.820312 C 668.226562 436.679688 668.519531 436.484375 668.777344 436.230469 C 669.03125 435.976562 669.226562 435.683594 669.363281 435.347656 C 669.503906 435.015625 669.570312 434.667969 669.570312 434.308594 Z M 669.570312 434.308594 " fill-opacity="1" fill-rule="nonzero"/><path fill="#545454" d="M 634.097656 575.296875 C 634.097656 574.9375 634.027344 574.589844 633.890625 574.257812 C 633.753906 573.925781 633.554688 573.632812 633.300781 573.375 C 633.046875 573.121094 632.753906 572.925781 632.417969 572.785156 C 632.085938 572.648438 631.738281 572.578125 631.378906 572.578125 C 631.015625 572.578125 630.667969 572.648438 630.335938 572.785156 C 630 572.921875 629.707031 573.117188 629.453125 573.375 C 629.195312 573.628906 629 573.921875 628.863281 574.253906 C 628.722656 574.585938 628.652344 574.933594 628.652344 575.292969 C 628.652344 575.65625 628.722656 576 628.859375 576.335938 C 629 576.667969 629.195312 576.960938 629.449219 577.214844 C 629.707031 577.472656 630 577.667969 630.332031 577.804688 C 630.667969 577.941406 631.015625 578.011719 631.375 578.011719 C 631.734375 578.011719 632.082031 577.941406 632.417969 577.804688 C 632.75 577.667969 633.042969 577.472656 633.300781 577.21875 C 633.554688 576.960938 633.75 576.667969 633.890625 576.335938 C 634.027344 576.003906 634.097656 575.65625 634.097656 575.296875 Z M 634.097656 575.296875 " fill-opacity="1" fill-rule="nonzero"/><path fill="#545454" d="M 398.453125 567.96875 C 398.449219 567.609375 398.382812 567.265625 398.242188 566.933594 C 398.105469 566.597656 397.90625 566.304688 397.652344 566.050781 C 397.394531 565.796875 397.101562 565.601562 396.769531 565.464844 C 396.433594 565.328125 396.085938 565.257812 395.726562 565.257812 C 395.367188 565.261719 395.019531 565.328125 394.683594 565.46875 C 394.351562 565.605469 394.058594 565.800781 393.804688 566.058594 C 393.546875 566.3125 393.351562 566.605469 393.214844 566.9375 C 393.078125 567.269531 393.007812 567.617188 393.007812 567.976562 C 393.007812 568.335938 393.078125 568.683594 393.214844 569.015625 C 393.355469 569.347656 393.550781 569.644531 393.804688 569.898438 C 394.0625 570.152344 394.355469 570.347656 394.6875 570.484375 C 395.023438 570.625 395.367188 570.691406 395.730469 570.691406 C 396.089844 570.691406 396.4375 570.625 396.773438 570.484375 C 397.105469 570.347656 397.402344 570.148438 397.65625 569.894531 C 397.910156 569.640625 398.109375 569.34375 398.246094 569.011719 C 398.382812 568.679688 398.453125 568.332031 398.453125 567.96875 Z M 398.453125 567.96875 " fill-opacity="1" fill-rule="nonzero"/><path fill="#545454" d="M 567.152344 418.558594 C 567.152344 418.199219 567.082031 417.851562 566.945312 417.519531 C 566.808594 417.1875 566.609375 416.890625 566.355469 416.636719 C 566.101562 416.382812 565.804688 416.183594 565.472656 416.046875 C 565.136719 415.910156 564.792969 415.839844 564.429688 415.839844 C 564.070312 415.839844 563.722656 415.910156 563.386719 416.046875 C 563.054688 416.183594 562.761719 416.378906 562.503906 416.636719 C 562.25 416.890625 562.054688 417.183594 561.914062 417.515625 C 561.777344 417.851562 561.707031 418.195312 561.707031 418.558594 C 561.707031 418.917969 561.777344 419.265625 561.914062 419.597656 C 562.054688 419.929688 562.25 420.222656 562.507812 420.476562 C 562.761719 420.734375 563.054688 420.929688 563.390625 421.066406 C 563.722656 421.203125 564.070312 421.273438 564.433594 421.273438 C 564.792969 421.273438 565.140625 421.203125 565.472656 421.066406 C 565.804688 420.925781 566.097656 420.730469 566.355469 420.476562 C 566.609375 420.222656 566.804688 419.929688 566.941406 419.597656 C 567.082031 419.265625 567.152344 418.917969 567.152344 418.558594 Z M 567.152344 418.558594 " fill-opacity="1" fill-rule="nonzero"/><path fill="#545454" d="M 605.53125 459.597656 C 605.53125 459.234375 605.464844 458.890625 605.328125 458.554688 C 605.1875 458.222656 604.992188 457.929688 604.738281 457.675781 C 604.480469 457.417969 604.1875 457.222656 603.855469 457.085938 C 603.519531 456.945312 603.171875 456.875 602.8125 456.875 C 602.453125 456.875 602.105469 456.945312 601.769531 457.082031 C 601.4375 457.21875 601.144531 457.417969 600.886719 457.671875 C 600.632812 457.925781 600.433594 458.21875 600.296875 458.550781 C 600.160156 458.886719 600.089844 459.230469 600.089844 459.59375 C 600.089844 459.953125 600.160156 460.300781 600.296875 460.632812 C 600.433594 460.964844 600.632812 461.257812 600.886719 461.515625 C 601.140625 461.769531 601.4375 461.964844 601.769531 462.101562 C 602.101562 462.242188 602.449219 462.308594 602.8125 462.308594 C 603.171875 462.308594 603.519531 462.242188 603.851562 462.101562 C 604.183594 461.964844 604.480469 461.769531 604.734375 461.515625 C 604.988281 461.261719 605.1875 460.96875 605.324219 460.632812 C 605.460938 460.300781 605.53125 459.957031 605.53125 459.597656 Z M 605.53125 459.597656 " fill-opacity="1" fill-rule="nonzero"/><path fill="#545454" d="M 649.542969 585.734375 C 649.542969 585.375 649.472656 585.027344 649.335938 584.695312 C 649.199219 584.359375 649.003906 584.066406 648.746094 583.8125 C 648.492188 583.554688 648.199219 583.359375 647.863281 583.222656 C 647.53125 583.082031 647.183594 583.015625 646.824219 583.015625 C 646.460938 583.015625 646.113281 583.082031 645.78125 583.21875 C 645.449219 583.359375 645.152344 583.554688 644.898438 583.808594 C 644.640625 584.0625 644.445312 584.359375 644.308594 584.691406 C 644.167969 585.023438 644.101562 585.371094 644.101562 585.730469 C 644.097656 586.089844 644.167969 586.4375 644.304688 586.769531 C 644.445312 587.101562 644.640625 587.398438 644.894531 587.652344 C 645.152344 587.90625 645.445312 588.101562 645.78125 588.242188 C 646.113281 588.378906 646.460938 588.449219 646.820312 588.449219 C 647.183594 588.449219 647.527344 588.378906 647.863281 588.242188 C 648.195312 588.101562 648.488281 587.90625 648.746094 587.652344 C 649 587.398438 649.195312 587.105469 649.335938 586.773438 C 649.472656 586.441406 649.542969 586.09375 649.542969 585.734375 Z M 649.542969 585.734375 " fill-opacity="1" fill-rule="nonzero"/><path fill="#545454" d="M 476.523438 420.738281 C 476.523438 420.378906 476.457031 420.03125 476.316406 419.699219 C 476.179688 419.363281 475.984375 419.070312 475.726562 418.816406 C 475.472656 418.5625 475.179688 418.363281 474.847656 418.226562 C 474.511719 418.089844 474.164062 418.019531 473.804688 418.019531 C 473.441406 418.019531 473.097656 418.085938 472.761719 418.226562 C 472.429688 418.363281 472.132812 418.558594 471.878906 418.8125 C 471.625 419.066406 471.425781 419.363281 471.289062 419.695312 C 471.148438 420.027344 471.082031 420.375 471.082031 420.734375 C 471.082031 421.09375 471.148438 421.441406 471.289062 421.773438 C 471.425781 422.105469 471.621094 422.402344 471.878906 422.65625 C 472.132812 422.910156 472.425781 423.105469 472.761719 423.246094 C 473.09375 423.382812 473.441406 423.453125 473.800781 423.453125 C 474.164062 423.453125 474.511719 423.382812 474.84375 423.246094 C 475.175781 423.109375 475.472656 422.910156 475.726562 422.65625 C 475.980469 422.402344 476.179688 422.109375 476.316406 421.777344 C 476.453125 421.445312 476.523438 421.097656 476.523438 420.738281 Z M 476.523438 420.738281 " fill-opacity="1" fill-rule="nonzero"/><path fill="#545454" d="M 468.503906 365.417969 C 468.109375 365.734375 467.730469 366.070312 467.375 366.429688 C 467.015625 366.789062 466.679688 367.164062 466.363281 367.5625 C 466.050781 367.960938 465.757812 368.375 465.492188 368.804688 C 465.222656 369.234375 464.984375 369.679688 464.765625 370.136719 C 464.550781 370.59375 464.359375 371.0625 464.199219 371.542969 C 464.035156 372.023438 463.902344 372.507812 463.796875 373.003906 C 463.6875 373.5 463.609375 374 463.5625 374.503906 C 463.511719 375.007812 463.492188 375.511719 463.503906 376.015625 C 463.511719 376.523438 463.550781 377.027344 463.617188 377.527344 C 463.683594 378.03125 463.777344 378.527344 463.902344 379.019531 C 464.027344 379.507812 464.175781 379.992188 464.355469 380.464844 C 464.535156 380.9375 464.742188 381.398438 464.972656 381.851562 C 465.207031 382.300781 465.464844 382.734375 465.746094 383.15625 C 466.027344 383.574219 466.332031 383.980469 466.664062 384.363281 C 466.992188 384.75 467.339844 385.117188 467.710938 385.460938 C 468.082031 385.808594 468.472656 386.128906 468.878906 386.429688 C 469.285156 386.730469 469.710938 387.007812 470.148438 387.261719 C 470.589844 387.515625 471.042969 387.742188 471.507812 387.941406 C 471.972656 388.140625 472.449219 388.316406 472.933594 388.460938 C 473.417969 388.609375 473.910156 388.726562 474.410156 388.816406 C 474.910156 388.90625 475.414062 388.96875 475.917969 389 C 476.425781 389.035156 476.929688 389.035156 477.4375 389.011719 C 477.945312 388.984375 478.445312 388.933594 478.949219 388.847656 C 479.449219 388.765625 479.941406 388.65625 480.429688 388.515625 C 480.917969 388.375 481.394531 388.207031 481.863281 388.015625 C 482.332031 387.820312 482.785156 387.601562 483.230469 387.351562 C 483.671875 387.105469 484.101562 386.835938 484.511719 386.539062 C 484.925781 386.246094 485.316406 385.925781 485.691406 385.585938 C 486.070312 385.246094 486.421875 384.886719 486.757812 384.503906 C 487.089844 384.125 487.402344 383.726562 487.691406 383.308594 C 487.980469 382.890625 488.242188 382.460938 488.480469 382.015625 C 488.71875 381.566406 488.929688 381.109375 489.117188 380.636719 C 488.542969 380.722656 487.96875 380.769531 487.386719 380.78125 C 486.808594 380.792969 486.230469 380.761719 485.652344 380.699219 C 485.078125 380.632812 484.507812 380.53125 483.945312 380.390625 C 483.382812 380.25 482.832031 380.074219 482.292969 379.863281 C 481.75 379.648438 481.226562 379.402344 480.722656 379.121094 C 480.214844 378.84375 479.726562 378.53125 479.261719 378.183594 C 478.792969 377.839844 478.351562 377.46875 477.933594 377.066406 C 477.519531 376.664062 477.128906 376.238281 476.769531 375.785156 C 476.40625 375.332031 476.078125 374.855469 475.777344 374.359375 C 475.480469 373.863281 475.214844 373.351562 474.984375 372.820312 C 474.75 372.289062 474.554688 371.746094 474.394531 371.1875 C 474.234375 370.632812 474.113281 370.066406 474.027344 369.496094 C 473.941406 368.921875 473.890625 368.347656 473.882812 367.769531 C 473.871094 367.191406 473.898438 366.613281 473.964844 366.039062 C 474.03125 365.460938 474.132812 364.894531 474.273438 364.332031 C 474.414062 363.769531 474.589844 363.21875 474.800781 362.683594 C 472.457031 363.03125 470.359375 363.941406 468.503906 365.417969 Z M 468.503906 365.417969 " fill-opacity="1" fill-rule="nonzero"/><path fill="#545454" d="M 437.683594 545.835938 L 431.664062 544.121094 L 429.945312 538.113281 L 428.226562 544.121094 L 422.207031 545.835938 L 428.226562 547.554688 L 429.945312 553.5625 L 431.664062 547.554688 Z M 437.683594 545.835938 " fill-opacity="1" fill-rule="nonzero"/><path fill="#545454" d="M 625.761719 565.453125 L 610.183594 561.855469 L 605.015625 546.753906 L 601.410156 562.304688 L 586.273438 567.460938 L 601.855469 571.058594 L 607.023438 586.164062 L 610.628906 570.613281 Z M 625.761719 565.453125 " fill-opacity="1" fill-rule="nonzero"/><path fill="#545454" d="M 586.195312 394.761719 L 577.859375 392.386719 L 575.476562 384.0625 L 573.09375 392.386719 L 564.757812 394.761719 L 573.09375 397.144531 L 575.476562 405.464844 L 577.859375 397.144531 Z M 586.195312 394.761719 " fill-opacity="1" fill-rule="nonzero"/><g clip-path="url(#7f02b05b51)"><path fill="#545454" d="M 675.34375 378.921875 L 667.007812 376.542969 L 664.625 368.21875 L 662.242188 376.542969 L 653.902344 378.921875 L 662.242188 381.296875 L 664.625 389.621094 L 667.007812 381.296875 Z M 675.34375 378.921875 " fill-opacity="1" fill-rule="nonzero"/></g><path fill="#545454" d="M 514.535156 594.511719 L 506.199219 592.132812 L 503.816406 583.808594 L 501.433594 592.132812 L 493.097656 594.511719 L 501.433594 596.890625 L 503.816406 605.210938 L 506.199219 596.890625 Z M 514.535156 594.511719 " fill-opacity="1" fill-rule="nonzero"/><path fill="#545454" d="M 511.355469 397.804688 L 505.882812 396.246094 L 504.324219 390.785156 L 502.757812 396.246094 L 497.289062 397.804688 L 502.757812 399.363281 L 504.324219 404.824219 L 505.882812 399.363281 Z M 511.355469 397.804688 " fill-opacity="1" fill-rule="nonzero"/><g clip-path="url(#f06c7a7bb1)"><path fill="#545454" d="M 613.347656 365.300781 L 607.878906 363.738281 L 606.3125 358.28125 L 604.75 363.738281 L 599.28125 365.300781 L 604.75 366.859375 L 606.3125 372.320312 L 607.878906 366.859375 Z M 613.347656 365.300781 " fill-opacity="1" fill-rule="nonzero"/></g><g clip-path="url(#8d18072ab3)"><path fill="#545454" d="M 453.035156 603.785156 L 447.566406 602.222656 L 446.003906 596.765625 L 444.441406 602.222656 L 438.972656 603.785156 L 444.441406 605.34375 L 446.003906 610.804688 L 447.566406 605.34375 Z M 453.035156 603.785156 " fill-opacity="1" fill-rule="nonzero"/></g><path fill="#545454" d="M 386.183594 434.398438 L 380.710938 432.839844 L 379.152344 427.382812 L 377.589844 432.839844 L 372.121094 434.398438 L 377.589844 435.957031 L 379.152344 441.421875 L 380.710938 435.957031 Z M 386.183594 434.398438 " fill-opacity="1" fill-rule="nonzero"/><path fill="#545454" d="M 533.722656 566.632812 L 528.25 565.074219 L 526.6875 559.613281 L 525.125 565.074219 L 519.65625 566.632812 L 525.125 568.195312 L 526.6875 573.652344 L 528.25 568.195312 Z M 533.722656 566.632812 " fill-opacity="1" fill-rule="nonzero"/><path fill="#545454" d="M 627.867188 542.195312 L 622.398438 540.632812 L 620.835938 535.175781 L 619.273438 540.632812 L 613.800781 542.195312 L 619.273438 543.75 L 620.835938 549.214844 L 622.398438 543.75 Z M 627.867188 542.195312 " fill-opacity="1" fill-rule="nonzero"/><path fill="#545454" d="M 620.289062 391.582031 L 614.820312 390.019531 L 613.253906 384.5625 L 611.691406 390.019531 L 606.222656 391.582031 L 611.691406 393.140625 L 613.253906 398.601562 L 614.820312 393.140625 Z M 620.289062 391.582031 " fill-opacity="1" fill-rule="nonzero"/><path fill="#545454" d="M 407.234375 572.96875 L 404.304688 583.796875 L 393.082031 584.398438 L 402.496094 590.527344 L 399.597656 601.363281 L 408.347656 594.324219 L 417.777344 600.425781 L 413.773438 589.941406 L 422.5 582.875 L 411.277344 583.4375 Z M 407.234375 572.96875 " fill-opacity="1" fill-rule="nonzero"/><path fill="#545454" d="M 625.304688 589.195312 L 623.859375 594.535156 L 618.324219 594.832031 L 622.964844 597.855469 L 621.539062 603.203125 L 625.855469 599.726562 L 630.503906 602.738281 L 628.53125 597.566406 L 632.835938 594.078125 L 627.296875 594.359375 Z M 625.304688 589.195312 " fill-opacity="1" fill-rule="nonzero"/><path fill="#545454" d="M 572.644531 586.179688 L 571.199219 591.519531 L 565.664062 591.816406 L 570.304688 594.839844 L 568.875 600.1875 L 573.191406 596.714844 L 577.847656 599.722656 L 575.871094 594.550781 L 580.171875 591.066406 L 574.636719 591.34375 Z M 572.644531 586.179688 " fill-opacity="1" fill-rule="nonzero"/><path fill="#545454" d="M 619.34375 458.636719 L 617.898438 463.980469 L 612.363281 464.273438 L 617.003906 467.300781 L 615.578125 472.644531 L 619.894531 469.171875 L 624.542969 472.179688 L 622.570312 467.011719 L 626.875 463.523438 L 621.335938 463.800781 Z M 619.34375 458.636719 " fill-opacity="1" fill-rule="nonzero"/><path fill="#545454" d="M 382.777344 500.574219 L 381.328125 505.914062 L 375.792969 506.210938 L 380.4375 509.234375 L 379.007812 514.582031 L 383.320312 511.105469 L 387.976562 514.117188 L 386 508.945312 L 390.304688 505.457031 L 384.769531 505.738281 Z M 382.777344 500.574219 " fill-opacity="1" fill-rule="nonzero"/></svg>