<svg xmlns="http://www.w3.org/2000/svg" xmlns:xlink="http://www.w3.org/1999/xlink" width="2000" zoomAndPan="magnify" viewBox="0 0 1500 1499.999933" height="2000" preserveAspectRatio="xMidYMid meet" version="1.0"><defs><clipPath id="6adac0d4e2"><path d="M 783 579.621094 L 1149.59375 579.621094 L 1149.59375 1137 L 783 1137 Z M 783 579.621094 " clip-rule="nonzero"/></clipPath><clipPath id="89fb32b63b"><path d="M 405 393.105469 L 932.960938 393.105469 L 932.960938 1156.917969 L 405 1156.917969 Z M 405 393.105469 " clip-rule="nonzero"/></clipPath><clipPath id="ddc8912e4a"><path d="M 476 343.203125 L 821 343.203125 L 821 480 L 476 480 Z M 476 343.203125 " clip-rule="nonzero"/></clipPath></defs><path fill="#545454" d="M 1208.59375 506.71875 C 1207.742188 466.914062 1154.933594 436.140625 1117.871094 467.4375 C 1103.035156 480.007812 1105.257812 485.441406 1104.472656 478.304688 C 1101.140625 446.484375 1107.414062 430.773438 1107.023438 362.09375 C 1106.957031 347.429688 1103.691406 327.265625 1088.527344 319.800781 C 1068.132812 309.785156 1049.179688 324.515625 1034.277344 337.804688 C 1018.789062 351.621094 1001.335938 384.222656 995.128906 403.210938 C 991.730469 413.554688 993.949219 400.65625 991.859375 384.945312 C 990.550781 374.335938 989.898438 367.921875 986.695312 357.773438 C 978.917969 333.289062 975.910156 331.324219 974.410156 327.855469 C 970.355469 318.492188 959.375 322.289062 959.964844 329.882812 C 959.507812 332.503906 965.257812 346.710938 970.8125 375.1875 C 980.945312 426.320312 969.769531 506.390625 980.09375 513.199219 C 983.820312 515.621094 990.945312 510.777344 991.53125 505.476562 C 996.5 471.824219 990.421875 459.515625 1010.160156 411.851562 C 1013.167969 405.042969 1025.847656 381.210938 1034.867188 369.363281 C 1045.976562 354.828125 1058.460938 339.246094 1076.566406 341.078125 C 1095.847656 344.351562 1078.003906 438.300781 1082.1875 484.328125 C 1083.953125 504.035156 1087.871094 511.628906 1087.613281 512.285156 C 1074.734375 541.417969 1053.363281 575.199219 1001.207031 581.160156 C 993.820312 581.355469 992.839844 589.539062 1002.644531 592.8125 C 1005.910156 593.925781 1016.433594 594.578125 1029.703125 592.15625 C 1061.269531 586.527344 1088.132812 564.789062 1100.550781 538.277344 C 1105.257812 544.167969 1113.886719 550.847656 1120.03125 554.707031 C 1135.519531 564.265625 1145.585938 565.511719 1157.351562 565.707031 C 1188.59375 566.425781 1209.179688 535.722656 1208.59375 506.71875 Z M 1187.023438 514.507812 C 1186.632812 549.535156 1135.78125 558.242188 1112.972656 512.742188 C 1112.054688 510.84375 1121.011719 489.957031 1139.898438 478.109375 C 1158.332031 469.597656 1187.351562 482.167969 1187.023438 514.507812 Z M 1187.023438 514.507812 " fill-opacity="1" fill-rule="nonzero"/><path fill="#545454" d="M 959.636719 512.808594 C 961.140625 513.265625 962.839844 512.152344 963.429688 511.300781 C 965.324219 508.421875 959.898438 504.296875 957.675781 508.878906 C 957.023438 510.320312 958.265625 512.347656 959.636719 512.808594 Z M 959.636719 512.808594 " fill-opacity="1" fill-rule="nonzero"/><path fill="#545454" d="M 1017.351562 554.96875 C 1016.695312 556.410156 1017.9375 558.441406 1019.3125 558.898438 C 1020.8125 559.355469 1022.511719 558.242188 1023.101562 557.394531 C 1024.929688 554.511719 1019.507812 550.386719 1017.351562 554.96875 Z M 1017.351562 554.96875 " fill-opacity="1" fill-rule="nonzero"/><path fill="#545454" d="M 1039.703125 487.730469 C 1039.050781 489.171875 1040.289062 491.203125 1041.664062 491.660156 C 1043.167969 492.117188 1044.867188 491.003906 1045.453125 490.15625 C 1047.351562 487.273438 1041.925781 483.148438 1039.703125 487.730469 Z M 1039.703125 487.730469 " fill-opacity="1" fill-rule="nonzero"/><path fill="#545454" d="M 1004.929688 332.042969 C 1004.277344 333.484375 1005.519531 335.515625 1006.890625 335.972656 C 1008.394531 336.429688 1010.09375 335.316406 1010.683594 334.464844 C 1012.511719 331.652344 1007.089844 327.460938 1004.929688 332.042969 Z M 1004.929688 332.042969 " fill-opacity="1" fill-rule="nonzero"/><path fill="#545454" d="M 1041.730469 297.148438 C 1041.074219 298.589844 1042.316406 300.617188 1043.691406 301.078125 C 1045.191406 301.535156 1046.890625 300.421875 1047.480469 299.570312 C 1049.3125 296.691406 1043.886719 292.566406 1041.730469 297.148438 Z M 1041.730469 297.148438 " fill-opacity="1" fill-rule="nonzero"/><path fill="#545454" d="M 1127.546875 362.878906 C 1129.441406 360 1124.015625 355.875 1121.792969 360.457031 C 1121.140625 361.898438 1122.382812 363.929688 1123.753906 364.386719 C 1125.257812 364.84375 1127.023438 363.730469 1127.546875 362.878906 Z M 1127.546875 362.878906 " fill-opacity="1" fill-rule="nonzero"/><path fill="#545454" d="M 1131.730469 435.421875 C 1131.074219 436.863281 1132.316406 438.890625 1133.691406 439.351562 C 1135.191406 439.808594 1136.890625 438.695312 1137.480469 437.84375 C 1139.3125 434.964844 1133.886719 430.839844 1131.730469 435.421875 Z M 1131.730469 435.421875 " fill-opacity="1" fill-rule="nonzero"/><path fill="#545454" d="M 1204.015625 370.800781 C 1205.519531 371.261719 1207.21875 370.148438 1207.808594 369.296875 C 1209.703125 366.414062 1204.277344 362.292969 1202.054688 366.875 C 1201.402344 368.316406 1202.644531 370.34375 1204.015625 370.800781 Z M 1204.015625 370.800781 " fill-opacity="1" fill-rule="nonzero"/><path fill="#545454" d="M 1123.035156 583.382812 C 1122.382812 584.824219 1123.625 586.855469 1124.996094 587.3125 C 1126.5 587.769531 1128.199219 586.65625 1128.789062 585.808594 C 1130.617188 582.925781 1125.257812 578.800781 1123.035156 583.382812 Z M 1123.035156 583.382812 " fill-opacity="1" fill-rule="nonzero"/><path fill="#545454" d="M 1087.742188 593.53125 C 1087.089844 594.972656 1088.332031 597.003906 1089.703125 597.460938 C 1091.207031 597.917969 1092.90625 596.804688 1093.492188 595.953125 C 1095.324219 593.074219 1089.898438 588.949219 1087.742188 593.53125 Z M 1087.742188 593.53125 " fill-opacity="1" fill-rule="nonzero"/><path fill="#545454" d="M 990.03125 324.320312 C 989.375 325.757812 990.617188 327.789062 991.992188 328.246094 C 993.492188 328.703125 995.191406 327.59375 995.78125 326.742188 C 997.609375 323.925781 992.1875 319.800781 990.03125 324.320312 Z M 990.03125 324.320312 " fill-opacity="1" fill-rule="nonzero"/><path fill="#545454" d="M 968.984375 538.996094 C 968.394531 536.179688 968.003906 535.328125 967.285156 532.1875 C 966.433594 528.519531 966.171875 526.03125 964.867188 525.3125 C 961.792969 523.609375 961.402344 527.277344 957.546875 539.648438 C 946.238281 542.921875 943.429688 543.710938 942.839844 545.410156 C 941.792969 548.554688 948.394531 549.601562 957.609375 550.714844 L 960.8125 563.351562 C 961.664062 566.035156 964.539062 566.953125 966.109375 561.386719 C 966.109375 561.320312 968.722656 552.089844 968.917969 552.023438 C 973.492188 550.714844 981.859375 547.636719 982.839844 546.984375 C 989.898438 542.335938 969.179688 539.914062 968.984375 538.996094 Z M 968.984375 538.996094 " fill-opacity="1" fill-rule="nonzero"/><path fill="#545454" d="M 1206.5 435.226562 C 1206.109375 433.328125 1205.847656 432.738281 1205.324219 430.640625 C 1204.734375 428.15625 1204.539062 426.453125 1203.691406 425.992188 C 1201.597656 424.816406 1201.335938 427.304688 1198.722656 435.75 C 1191.074219 437.976562 1189.113281 438.5 1188.722656 439.675781 C 1188.003906 441.835938 1192.511719 442.558594 1198.722656 443.277344 L 1200.878906 451.855469 C 1201.46875 453.6875 1203.429688 454.34375 1204.472656 450.546875 C 1204.472656 450.480469 1206.238281 444.195312 1206.371094 444.195312 C 1209.441406 443.34375 1215.128906 441.183594 1215.78125 440.789062 C 1220.683594 437.453125 1206.566406 435.8125 1206.5 435.226562 Z M 1206.5 435.226562 " fill-opacity="1" fill-rule="nonzero"/><path fill="#545454" d="M 1142.839844 345.136719 L 1144.996094 353.714844 C 1145.585938 355.546875 1147.546875 356.203125 1148.59375 352.40625 C 1148.59375 352.339844 1150.355469 346.054688 1150.488281 346.054688 C 1153.558594 345.203125 1159.246094 343.042969 1159.898438 342.648438 C 1164.671875 339.441406 1150.617188 337.804688 1150.488281 337.214844 C 1150.09375 335.316406 1149.832031 334.726562 1149.3125 332.632812 C 1148.722656 330.144531 1148.527344 328.441406 1147.675781 327.984375 C 1145.585938 326.804688 1145.324219 329.292969 1142.710938 337.738281 C 1135.0625 339.964844 1133.101562 340.488281 1132.710938 341.667969 C 1132.121094 343.699219 1136.566406 344.351562 1142.839844 345.136719 Z M 1142.839844 345.136719 " fill-opacity="1" fill-rule="nonzero"/><path fill="#545454" d="M 1034.929688 522.105469 C 1034.539062 520.207031 1034.277344 519.617188 1033.753906 517.519531 C 1033.167969 515.035156 1032.972656 513.332031 1032.121094 512.871094 C 1030.03125 511.695312 1029.769531 514.183594 1027.152344 522.628906 C 1019.507812 524.855469 1017.546875 525.378906 1017.152344 526.554688 C 1016.433594 528.714844 1020.945312 529.4375 1027.152344 530.15625 L 1029.3125 538.734375 C 1029.898438 540.566406 1031.859375 541.222656 1032.90625 537.425781 C 1032.90625 537.359375 1034.671875 531.074219 1034.800781 531.074219 C 1037.871094 530.222656 1043.558594 528.0625 1044.210938 527.667969 C 1049.113281 524.332031 1034.996094 522.695312 1034.929688 522.105469 Z M 1034.929688 522.105469 " fill-opacity="1" fill-rule="nonzero"/><path fill="#545454" d="M 938.851562 498.730469 C 938.460938 496.832031 938.199219 496.242188 937.675781 494.148438 C 937.089844 491.660156 936.890625 489.957031 936.042969 489.5 C 933.949219 488.320312 933.691406 490.808594 931.074219 499.253906 C 923.429688 501.480469 921.46875 502.003906 921.074219 503.183594 C 920.355469 505.34375 924.867188 506.0625 931.074219 506.785156 L 933.230469 515.359375 C 933.820312 517.195312 935.78125 517.847656 936.828125 514.050781 C 936.828125 513.984375 938.589844 507.699219 938.722656 507.699219 C 941.792969 506.851562 947.480469 504.6875 948.132812 504.296875 C 953.035156 500.957031 938.984375 499.320312 938.851562 498.730469 Z M 938.851562 498.730469 " fill-opacity="1" fill-rule="nonzero"/><path fill="#545454" d="M 1019.769531 309.652344 L 1021.925781 318.230469 C 1022.511719 320.0625 1024.472656 320.71875 1025.519531 316.921875 C 1025.519531 316.855469 1027.285156 310.570312 1027.414062 310.570312 C 1030.488281 309.71875 1036.171875 307.558594 1036.828125 307.164062 C 1041.597656 303.957031 1027.546875 302.320312 1027.414062 301.730469 C 1027.023438 299.832031 1026.761719 299.242188 1026.238281 297.148438 C 1025.652344 294.660156 1025.453125 292.957031 1024.605469 292.5 C 1022.511719 291.320312 1022.25 293.808594 1019.636719 302.253906 C 1011.992188 304.480469 1010.03125 305.003906 1009.636719 306.183594 C 1009.050781 308.148438 1013.492188 308.867188 1019.769531 309.652344 Z M 1019.769531 309.652344 " fill-opacity="1" fill-rule="nonzero"/><path fill="#545454" d="M 1111.335938 601.453125 C 1110.945312 599.554688 1110.683594 598.964844 1110.160156 596.871094 C 1109.570312 594.382812 1109.375 592.679688 1108.527344 592.222656 C 1106.433594 591.042969 1106.171875 593.53125 1103.558594 601.976562 C 1095.910156 604.203125 1093.953125 604.726562 1093.558594 605.90625 C 1092.839844 608.066406 1097.351562 608.785156 1103.558594 609.507812 L 1105.714844 618.082031 C 1106.304688 619.917969 1108.265625 620.570312 1109.3125 616.773438 C 1109.3125 616.707031 1111.074219 610.421875 1111.207031 610.421875 C 1114.277344 609.574219 1119.964844 607.410156 1120.617188 607.019531 C 1125.585938 603.679688 1111.46875 602.109375 1111.335938 601.453125 Z M 1111.335938 601.453125 " fill-opacity="1" fill-rule="nonzero"/><path fill="#545454" d="M 1173.558594 401.378906 C 1183.363281 398.039062 1195.390625 393.519531 1195.78125 393.257812 C 1196.894531 392.539062 1196.957031 390.574219 1194.539062 390.445312 C 1193.886719 390.445312 1181.011719 390.3125 1169.832031 390.769531 C 1169.3125 386.121094 1170.03125 365.566406 1170.03125 365.367188 C 1170.03125 364.191406 1169.246094 363.667969 1168.460938 363.667969 C 1167.414062 363.667969 1166.894531 364.777344 1166.433594 365.761719 C 1162.773438 373.355469 1158.199219 382.652344 1156.304688 389.265625 C 1139.113281 373.355469 1139.898438 371.914062 1137.871094 373.160156 C 1136.238281 374.140625 1137.675781 376.890625 1141.273438 384.027344 C 1147.808594 397.1875 1146.109375 393.914062 1146.695312 394.960938 C 1147.808594 397.1875 1148.003906 396.53125 1146.890625 397.1875 C 1129.636719 407.269531 1125.0625 407.597656 1125.519531 410.085938 C 1125.847656 411.851562 1128.003906 411.460938 1129.832031 411.394531 C 1139.964844 410.871094 1150.945312 409.234375 1153.296875 408.710938 C 1154.34375 417.613281 1155.714844 434.375 1156.890625 435.09375 C 1157.742188 435.617188 1158.789062 435.488281 1159.3125 434.113281 C 1159.636719 433.261719 1165.257812 411.199219 1165.519531 410.476562 C 1166.761719 411.199219 1170.878906 413.816406 1172.1875 414.472656 C 1186.238281 421.871094 1186.109375 422.261719 1187.351562 422.066406 C 1188.070312 421.933594 1188.59375 421.148438 1188.527344 420.496094 C 1188.460938 419.511719 1189.050781 420.625 1178.851562 407.464844 C 1175.847656 403.667969 1174.800781 402.816406 1173.558594 401.378906 Z M 1173.558594 401.378906 " fill-opacity="1" fill-rule="nonzero"/><g clip-path="url(#6adac0d4e2)"><path fill="#545454" d="M 1015.628906 1135.546875 C 1121.902344 1121.28125 1179.332031 1000.160156 1133.898438 903.644531 C 1127.671875 890.421875 1097.1875 824.710938 1007.945312 796.484375 C 1004.105469 871.804688 986.4375 913.28125 980.859375 924.65625 C 980.984375 924.679688 981.097656 924.710938 981.21875 924.738281 C 983.308594 925.167969 985.320312 925.660156 987.277344 926.195312 C 988.082031 926.417969 988.902344 926.625 989.691406 926.863281 C 990.867188 927.21875 992.023438 927.59375 993.160156 927.984375 C 993.921875 928.25 994.648438 928.546875 995.390625 928.832031 C 996.34375 929.1875 997.28125 929.5625 998.203125 929.945312 C 998.894531 930.234375 999.574219 930.527344 1000.246094 930.832031 C 1000.765625 931.066406 1001.28125 931.304688 1001.792969 931.546875 C 1002.523438 931.898438 1003.242188 932.261719 1003.949219 932.628906 C 1005.421875 933.398438 1006.871094 934.191406 1008.242188 935.03125 C 1010.601562 936.484375 1012.757812 938.0625 1014.816406 939.691406 C 1017.300781 941.660156 1019.578125 943.746094 1021.652344 945.921875 C 1022.617188 946.945312 1023.566406 947.976562 1024.441406 949.039062 C 1027.664062 952.949219 1030.277344 957.125 1032.320312 961.421875 C 1033.679688 964.289062 1034.789062 967.207031 1035.652344 970.152344 C 1036.519531 973.09375 1037.144531 976.058594 1037.527344 979 C 1037.917969 981.945312 1038.074219 984.871094 1038.011719 987.742188 C 1037.976562 989.183594 1037.890625 990.601562 1037.746094 992.003906 C 1037.175781 997.621094 1035.742188 1002.9375 1033.523438 1007.660156 C 1032.96875 1008.84375 1032.367188 1009.988281 1031.714844 1011.085938 C 1029.761719 1014.390625 1027.378906 1017.324219 1024.605469 1019.75 C 1020.910156 1022.984375 1016.511719 1025.332031 1011.503906 1026.472656 C 1008.039062 1027.269531 1004.523438 1027.582031 1001.019531 1027.453125 C 999.859375 1027.40625 998.691406 1027.3125 997.527344 1027.167969 C 995.214844 1026.882812 992.914062 1026.398438 990.648438 1025.726562 C 988.390625 1025.054688 986.167969 1024.203125 984.011719 1023.164062 C 983.042969 1022.695312 982.085938 1022.179688 981.140625 1021.644531 C 980.863281 1021.484375 980.59375 1021.320312 980.316406 1021.15625 C 979.621094 1020.738281 978.9375 1020.304688 978.257812 1019.847656 C 977.992188 1019.671875 977.722656 1019.492188 977.457031 1019.308594 C 976.554688 1018.675781 975.664062 1018.019531 974.792969 1017.320312 C 973.832031 1016.542969 972.898438 1015.722656 971.988281 1014.863281 C 969.347656 1012.371094 966.9375 1009.527344 964.804688 1006.382812 C 964.609375 1006.09375 964.417969 1005.800781 964.230469 1005.5 C 963.753906 1004.765625 963.289062 1004.007812 962.839844 1003.242188 C 962.667969 1002.933594 962.484375 1002.628906 962.308594 1002.316406 C 961.074219 1000.085938 959.96875 997.730469 959.023438 995.242188 C 958.554688 994.011719 958.132812 992.746094 957.742188 991.453125 C 957.617188 991.035156 957.515625 990.59375 957.394531 990.171875 C 957.148438 989.28125 956.910156 988.390625 956.703125 987.480469 C 956.582031 986.957031 956.488281 986.429688 956.382812 985.90625 C 956.210938 985.050781 956.046875 984.191406 955.914062 983.316406 C 955.828125 982.75 955.75 982.175781 955.675781 981.601562 C 955.566406 980.734375 955.46875 979.855469 955.390625 978.96875 C 955.339844 978.375 955.296875 977.78125 955.257812 977.183594 C 955.203125 976.265625 955.175781 975.335938 955.15625 974.398438 C 955.144531 973.808594 955.125 973.21875 955.132812 972.628906 C 955.140625 971.59375 955.183594 970.542969 955.238281 969.492188 C 955.257812 969.0625 955.265625 968.648438 955.296875 968.21875 C 955.304688 968.082031 955.308594 967.941406 955.320312 967.800781 C 955.429688 966.332031 955.574219 964.84375 955.773438 963.328125 C 955.8125 963.039062 955.863281 962.746094 955.902344 962.457031 C 956.058594 961.359375 956.242188 960.257812 956.449219 959.140625 C 956.496094 958.875 956.546875 958.617188 956.597656 958.351562 C 956.660156 958.027344 956.734375 957.695312 956.800781 957.367188 C 957.007812 956.367188 957.226562 955.363281 957.472656 954.351562 C 957.605469 953.785156 957.761719 953.214844 957.910156 952.648438 C 958.160156 951.699219 958.425781 950.75 958.710938 949.789062 C 958.890625 949.191406 959.074219 948.589844 959.265625 947.984375 C 959.574219 947.019531 959.902344 946.050781 960.25 945.070312 C 960.457031 944.476562 960.660156 943.882812 960.882812 943.292969 C 961.28125 942.21875 961.714844 941.144531 962.15625 940.0625 C 962.367188 939.550781 962.558594 939.039062 962.78125 938.527344 C 964.136719 935.347656 965.691406 932.113281 967.445312 928.816406 C 968.464844 926.910156 969.539062 924.988281 970.699219 923.046875 C 970.699219 923.046875 971.53125 921.582031 972.914062 918.621094 C 973.371094 917.632812 973.890625 916.480469 974.464844 915.15625 C 974.75 914.496094 975.050781 913.792969 975.359375 913.046875 C 975.976562 911.558594 976.636719 909.898438 977.335938 908.070312 C 978.035156 906.238281 978.769531 904.238281 979.519531 902.070312 C 980.277344 899.898438 981.054688 897.554688 981.851562 895.042969 C 985.015625 884.980469 988.398438 872.15625 991.300781 856.476562 C 994.527344 839.085938 997.167969 818.175781 998.316406 793.644531 C 998.328125 793.285156 998.355469 792.945312 998.367188 792.585938 C 998.425781 791.273438 998.511719 789.96875 998.617188 788.664062 C 998.707031 787.609375 998.820312 786.550781 998.9375 785.5 C 998.960938 785.285156 998.980469 785.070312 999.003906 784.855469 C 999.304688 782.328125 999.699219 779.828125 1000.171875 777.355469 C 1000.171875 777.34375 1000.175781 777.335938 1000.175781 777.324219 C 1007.3125 740.1875 1033.890625 708.902344 1069.726562 694.730469 C 1070.339844 694.488281 1070.953125 694.25 1071.570312 694.007812 C 1151.996094 662.738281 1141.5625 579.914062 1141.5625 579.914062 C 1131.449219 593.636719 1094.867188 620.203125 1038.339844 629.917969 C 967.355469 642.113281 972.195312 680.523438 972.195312 680.523438 C 972.195312 680.523438 967.355469 642.113281 895.566406 647.910156 C 838.402344 652.523438 796.371094 635.863281 783.167969 625.078125 C 783.167969 625.078125 789 679.390625 836.136719 704.445312 C 876.015625 725.640625 937.355469 725.191406 942.359375 784.414062 C 942.21875 784.402344 942.078125 784.394531 941.9375 784.382812 C 942.488281 788.9375 942.691406 793.589844 942.511719 798.300781 C 942.460938 799.714844 942.382812 801.128906 942.261719 802.550781 C 942.261719 802.554688 942.261719 802.554688 942.261719 802.554688 C 942.261719 802.566406 942.257812 802.574219 942.257812 802.585938 C 942.035156 805.171875 941.742188 807.777344 941.375 810.402344 C 936.230469 847.238281 916.992188 888.183594 889.316406 929.445312 C 889.523438 929.398438 889.734375 929.34375 889.941406 929.296875 C 803.996094 1047.882812 904.527344 1150.46875 1015.628906 1135.546875 " fill-opacity="1" fill-rule="nonzero"/></g><g clip-path="url(#89fb32b63b)"><path fill="#545454" d="M 485.203125 584.765625 C 479.78125 584.765625 475.386719 580.367188 475.386719 574.945312 C 475.386719 569.519531 479.78125 565.121094 485.203125 565.121094 C 490.625 565.121094 495.019531 569.519531 495.019531 574.945312 C 495.019531 580.367188 490.625 584.765625 485.203125 584.765625 Z M 553.027344 487.054688 C 553.640625 486.328125 554.269531 485.628906 554.933594 484.980469 C 561.21875 478.757812 569.230469 474.394531 578.355469 473.21875 C 576.894531 473.566406 568.386719 479.832031 559.789062 487.679688 C 553.253906 493.648438 546.671875 500.539062 543.117188 506.441406 C 545.214844 499.695312 548.433594 492.480469 553.027344 487.054688 Z M 699.398438 947.59375 C 698.296875 954.855469 696.917969 962.089844 695.265625 969.273438 C 694.621094 972.019531 693.941406 974.730469 693.242188 977.441406 C 696.855469 977.890625 700.492188 978.269531 704.144531 978.550781 C 783.015625 984.691406 831.378906 948.59375 874.542969 933.671875 C 908.238281 885.839844 929.246094 840.167969 932.53125 801.722656 C 933.058594 795.550781 932.863281 789.542969 932.050781 783.785156 C 794.949219 775.96875 773.695312 770.09375 744.765625 732.71875 C 752.46875 735.710938 760.457031 739.714844 768.546875 745.074219 C 787.5 757.625 800.921875 762.953125 816.070312 761.925781 C 801.410156 757.847656 785.15625 745.523438 772.402344 733.621094 C 757.875 720.058594 743.359375 711.464844 730.113281 706.089844 C 725.554688 704.238281 721.804688 700.757812 719.605469 696.355469 L 719.566406 696.28125 C 730.523438 699.527344 742.3125 704.78125 754.265625 713.023438 C 772.921875 725.894531 786.207031 731.453125 801.332031 730.714844 C 786.789062 726.378906 770.8125 713.78125 758.3125 701.675781 C 743.820312 687.632812 729.257812 678.738281 715.957031 673.148438 C 711.226562 671.15625 707.503906 667.355469 705.609375 662.582031 L 705.578125 662.503906 C 715.785156 666.007812 726.625 671.296875 737.558594 679.191406 C 755.917969 692.445312 769.066406 698.289062 784.179688 697.871094 C 769.75 693.226562 754.0625 680.304688 741.84375 667.941406 C 729.257812 655.214844 716.519531 646.523438 704.609375 640.628906 C 698.125 637.414062 693.101562 631.867188 690.242188 625.21875 L 690.195312 625.105469 C 699.398438 628.941406 709.015625 634.3125 718.636719 641.816406 C 736.503906 655.75 749.425781 662.074219 764.542969 662.230469 C 750.292969 657.042969 735.089844 643.546875 723.328125 630.738281 C 711.179688 617.507812 698.730469 608.335938 687.015625 601.996094 C 680.875 598.671875 675.832031 593.644531 672.652344 587.421875 C 672.507812 587.136719 672.363281 586.855469 672.214844 586.570312 C 681.058594 590.71875 690.226562 596.34375 699.324219 603.996094 C 716.691406 618.605469 729.394531 625.421875 744.515625 626.132812 C 730.449219 620.417969 715.726562 606.347656 704.425781 593.085938 C 693.859375 580.691406 682.929688 571.621094 672.425781 564.988281 C 660.597656 557.507812 649.914062 548.398438 640.84375 537.738281 C 640.667969 537.53125 640.488281 537.320312 640.308594 537.113281 C 650.875 541.804688 662.011719 548.589844 672.914062 558.367188 C 689.96875 573.652344 702.578125 580.953125 717.867188 582.234375 C 703.828125 575.984375 690.113281 560.765625 678.480469 547.625 C 650.023438 515.484375 618.929688 500.160156 589.527344 492.804688 C 581.550781 506.070312 570.140625 514.714844 555.761719 519.375 C 547.464844 522.0625 538.683594 522.945312 529.96875 522.535156 L 525.679688 522.332031 L 529.949219 521.894531 C 538.628906 520.992188 547.175781 518.808594 554.980469 514.910156 C 566.09375 509.355469 574.804688 501.433594 580.847656 490.855469 C 584.042969 485.25 586.484375 478.894531 588.121094 471.738281 C 588.660156 469.371094 589.136719 466.941406 589.5 464.398438 C 573.324219 459.179688 553.136719 469.003906 545 479.308594 C 543.242188 481.535156 541.65625 483.894531 540.140625 486.300781 C 537.667969 486.203125 535.222656 486.128906 532.824219 486.070312 C 531.371094 486.035156 529.921875 486.039062 528.464844 486.058594 C 528.402344 484.871094 528.371094 483.636719 528.386719 482.359375 C 528.425781 478.355469 528.917969 473.957031 530.191406 469.476562 C 531.585938 464.554688 533.914062 459.542969 537.667969 454.847656 C 544.953125 445.730469 557.535156 437.832031 578.773438 434.234375 C 578.816406 434.222656 578.855469 434.214844 578.890625 434.210938 C 579.074219 434.1875 579.269531 434.171875 579.445312 434.140625 C 581.164062 433.902344 582.902344 433.695312 584.667969 433.53125 C 585.175781 433.480469 585.699219 433.449219 586.214844 433.410156 C 587.707031 433.289062 589.199219 433.195312 590.714844 433.140625 C 591.425781 433.109375 592.136719 433.09375 592.855469 433.082031 C 594.320312 433.050781 595.796875 433.046875 597.28125 433.078125 C 597.816406 433.085938 598.347656 433.09375 598.882812 433.109375 C 600.917969 433.183594 602.964844 433.292969 605.027344 433.488281 C 607.902344 433.734375 610.796875 434.078125 613.710938 434.519531 C 618.070312 435.183594 622.460938 436.0625 626.839844 437.15625 C 631.222656 438.257812 635.597656 439.574219 639.929688 441.113281 C 651.542969 445.289062 662.316406 450.914062 673.734375 458.007812 C 679.378906 461.511719 685.003906 465.199219 690.625 468.984375 C 693.429688 470.875 696.238281 472.789062 699.046875 474.714844 C 701.851562 476.640625 704.65625 478.574219 707.464844 480.515625 C 708.332031 481.117188 709.203125 481.71875 710.078125 482.316406 C 718.417969 488.082031 726.773438 493.804688 735.167969 499.300781 C 737.191406 500.625 739.214844 501.957031 741.25 503.257812 C 746.921875 506.859375 752.621094 510.328125 758.351562 513.605469 C 758.75 513.832031 759.15625 514.039062 759.554688 514.269531 C 762.015625 515.664062 764.480469 517.039062 766.953125 518.351562 C 767.898438 518.855469 768.84375 519.308594 769.789062 519.796875 C 771.71875 520.792969 773.640625 521.808594 775.578125 522.75 C 775.585938 522.753906 775.597656 522.757812 775.605469 522.761719 C 775.585938 522.761719 775.570312 522.75 775.558594 522.714844 C 775.664062 522.730469 775.761719 522.699219 775.855469 522.6875 C 775.835938 522.695312 775.8125 522.699219 775.792969 522.710938 C 775.734375 522.730469 775.683594 522.753906 775.621094 522.769531 C 777.167969 523.535156 778.722656 524.273438 780.273438 524.988281 C 785.519531 527.414062 790.800781 529.578125 796.058594 531.457031 C 798.464844 532.316406 800.867188 533.113281 803.261719 533.851562 C 807.210938 535.070312 811.144531 536.148438 815.023438 537.027344 C 816.46875 534.933594 817.027344 532.441406 817.480469 529.976562 C 817.59375 529.359375 817.703125 528.742188 817.816406 528.132812 C 818.105469 526.277344 818.300781 524.382812 818.359375 522.511719 C 818.414062 520.820312 818.363281 519.140625 818.152344 517.515625 C 809.8125 514.363281 801.238281 510.15625 792.5625 505.078125 C 792.445312 505.011719 792.324219 504.949219 792.210938 504.882812 C 788.546875 511.429688 784.007812 519.941406 776.144531 522.585938 C 781.929688 517.679688 784.632812 508.933594 785.6875 502.0625 L 785.699219 502.050781 L 785.6875 502.035156 C 785.742188 501.785156 785.9375 501.34375 786.023438 501.125 C 780.628906 497.726562 775.195312 494.011719 769.71875 490.078125 C 767.105469 488.195312 764.480469 486.28125 761.847656 484.296875 C 760.300781 486.527344 758.605469 488.964844 756.71875 491.320312 C 756.71875 491.320312 756.714844 491.320312 756.714844 491.324219 C 756.34375 491.792969 755.957031 492.253906 755.566406 492.714844 C 755.472656 492.828125 755.375 492.933594 755.277344 493.046875 C 754.980469 493.394531 754.679688 493.742188 754.371094 494.078125 C 754.234375 494.226562 754.089844 494.375 753.953125 494.523438 C 753.675781 494.816406 753.402344 495.117188 753.117188 495.402344 C 753.019531 495.503906 752.914062 495.59375 752.8125 495.695312 C 752.484375 496.019531 752.15625 496.339844 751.820312 496.65625 C 751.667969 496.796875 751.511719 496.921875 751.359375 497.054688 C 751.0625 497.320312 750.765625 497.585938 750.464844 497.835938 C 750.269531 497.996094 750.074219 498.140625 749.875 498.296875 C 749.605469 498.507812 749.335938 498.726562 749.054688 498.929688 C 748.839844 499.085938 748.617188 499.226562 748.394531 499.375 C 748.125 499.558594 747.859375 499.75 747.582031 499.921875 C 747.382812 500.046875 747.164062 500.160156 746.960938 500.277344 C 746.65625 500.453125 746.363281 500.636719 746.054688 500.796875 C 745.8125 500.914062 745.5625 501.023438 745.316406 501.136719 C 745.03125 501.269531 744.757812 501.414062 744.46875 501.535156 C 744.207031 501.640625 743.9375 501.726562 743.671875 501.824219 C 743.386719 501.925781 743.101562 502.039062 742.8125 502.132812 C 742.542969 502.214844 742.269531 502.273438 741.992188 502.339844 C 741.699219 502.417969 741.410156 502.503906 741.105469 502.566406 C 741.09375 502.566406 741.085938 502.570312 741.078125 502.570312 C 741.082031 502.589844 741.101562 502.582031 741.113281 502.546875 C 742.085938 502.058594 742.996094 501.480469 743.855469 500.824219 C 744.289062 500.496094 744.703125 500.144531 745.109375 499.78125 C 745.914062 499.046875 746.667969 498.246094 747.375 497.394531 C 748.4375 496.109375 749.394531 494.710938 750.25 493.238281 C 751.109375 491.765625 751.878906 490.226562 752.5625 488.675781 C 753.015625 487.640625 753.433594 486.601562 753.820312 485.566406 C 754.40625 484.023438 754.910156 482.492188 755.359375 481.046875 C 755.355469 481.046875 755.363281 481.042969 755.363281 481.042969 C 755.363281 481.023438 755.40625 481.003906 755.4375 480.984375 C 755.519531 480.929688 755.5625 480.898438 755.578125 480.867188 C 755.597656 480.84375 755.585938 480.824219 755.566406 480.808594 C 755.507812 480.761719 755.308594 480.761719 755.433594 480.640625 L 755.445312 480.652344 L 755.433594 480.640625 L 755.425781 480.640625 C 755.472656 480.570312 755.523438 480.480469 755.578125 480.398438 C 755.6875 480.214844 755.824219 480.023438 755.996094 479.832031 C 750.203125 475.351562 744.355469 470.671875 738.421875 465.867188 C 736.445312 464.265625 734.457031 462.648438 732.460938 461.023438 C 726.816406 468.675781 719.296875 478.601562 709.203125 480.558594 C 709.199219 480.5625 709.191406 480.5625 709.183594 480.5625 C 717.835938 476.386719 723.199219 465.761719 725.953125 457.148438 C 725.9375 457.136719 725.988281 457.121094 726.03125 457.105469 C 726.039062 457.101562 726.050781 457.101562 726.054688 457.09375 C 726.078125 457.074219 726.121094 457.054688 726.160156 457.039062 C 726.199219 457.019531 726.238281 457 726.257812 456.984375 C 726.277344 456.964844 726.253906 456.957031 726.226562 456.945312 C 726.222656 456.941406 726.226562 456.9375 726.222656 456.9375 C 726.195312 456.921875 726.152344 456.910156 726.113281 456.90625 C 726.050781 456.886719 725.988281 456.875 725.964844 456.855469 C 725.949219 456.839844 725.964844 456.820312 726.027344 456.796875 L 726.027344 456.800781 L 726.03125 456.808594 C 726.191406 456.632812 726.242188 456.476562 726.550781 456.21875 C 719.398438 450.414062 712.066406 444.511719 704.4375 438.671875 C 703.710938 438.117188 702.992188 437.558594 702.257812 437 C 701.167969 438.625 700 440.34375 698.757812 442.070312 C 697.925781 443.222656 697.058594 444.386719 696.152344 445.53125 C 695.308594 446.597656 694.429688 447.648438 693.523438 448.675781 C 692.96875 449.296875 692.402344 449.910156 691.828125 450.507812 C 691.824219 450.507812 691.820312 450.515625 691.820312 450.519531 C 690.851562 451.511719 689.851562 452.464844 688.8125 453.351562 C 685.476562 456.222656 681.765625 458.464844 677.640625 459.453125 C 677.640625 459.453125 677.640625 459.453125 677.636719 459.453125 C 687.125 454.832031 693.03125 442.542969 695.433594 432.78125 C 695.410156 432.765625 695.511719 432.75 695.558594 432.730469 C 695.582031 432.710938 695.628906 432.691406 695.679688 432.671875 C 695.726562 432.652344 695.773438 432.636719 695.800781 432.617188 C 695.894531 432.546875 695.152344 432.570312 695.476562 432.472656 C 695.476562 432.472656 695.480469 432.488281 695.480469 432.496094 C 695.480469 432.503906 695.480469 432.503906 695.480469 432.503906 C 695.519531 432.472656 695.527344 432.453125 695.546875 432.429688 C 695.605469 432.355469 695.628906 432.292969 695.765625 432.175781 C 693.632812 430.617188 691.46875 429.078125 689.273438 427.546875 C 687.074219 426.023438 684.84375 424.511719 682.578125 423.019531 C 681.886719 422.558594 681.144531 422.109375 680.414062 421.660156 C 679.5625 421.128906 678.726562 420.597656 677.855469 420.078125 C 677.046875 419.589844 676.238281 419.101562 675.445312 418.617188 C 674.261719 417.863281 673.039062 417.160156 671.804688 416.476562 C 670.574219 415.792969 669.324219 415.136719 668.078125 414.476562 C 667.503906 415.746094 666.898438 417.0625 666.257812 418.414062 C 664.34375 422.457031 662.117188 426.742188 659.4375 430.621094 C 658.585938 431.851562 657.6875 433.011719 656.753906 434.136719 C 655.886719 435.191406 654.988281 436.207031 654.039062 437.144531 C 653.386719 437.789062 652.71875 438.402344 652.023438 438.980469 C 650.261719 440.464844 648.375 441.726562 646.347656 442.707031 C 649.722656 440.109375 652.484375 436.597656 654.632812 432.539062 C 655.351562 431.191406 656.003906 429.769531 656.582031 428.3125 C 657.164062 426.851562 657.667969 425.359375 658.101562 423.859375 C 658.960938 420.855469 659.519531 417.804688 659.816406 414.882812 C 659.960938 413.417969 660.042969 411.992188 660.058594 410.617188 C 660.023438 410.609375 660.140625 410.574219 660.199219 410.546875 C 660.199219 410.546875 660.222656 410.535156 660.238281 410.527344 L 660.234375 410.527344 L 660 410.417969 C 659.976562 410.417969 659.976562 410.410156 659.976562 410.410156 C 654.835938 407.980469 649.578125 405.777344 644.222656 403.835938 C 638.867188 401.898438 633.421875 400.222656 627.90625 398.855469 C 627.40625 401.777344 626.851562 404.945312 626.140625 408.167969 C 625.433594 411.394531 624.570312 414.671875 623.441406 417.804688 C 622.316406 420.945312 620.957031 423.929688 619.292969 426.625 C 618.871094 427.308594 618.4375 427.972656 617.984375 428.613281 C 616.621094 430.542969 615.085938 432.273438 613.359375 433.738281 C 614.757812 431.996094 615.941406 430.03125 616.914062 427.902344 C 617.484375 426.667969 617.964844 425.367188 618.394531 424.035156 C 618.523438 423.632812 618.644531 423.234375 618.761719 422.828125 C 619.363281 420.710938 619.8125 418.507812 620.089844 416.261719 C 620.503906 412.96875 620.5625 409.59375 620.367188 406.300781 C 620.175781 403.015625 619.730469 399.8125 619.136719 396.878906 C 616.351562 396.328125 613.550781 395.855469 610.75 395.441406 C 609.835938 395.3125 608.921875 395.21875 608.003906 395.097656 C 606.113281 394.851562 604.222656 394.617188 602.328125 394.433594 C 601.230469 394.332031 600.132812 394.269531 599.035156 394.1875 C 597.320312 394.054688 595.601562 393.9375 593.890625 393.863281 C 592.722656 393.816406 591.558594 393.796875 590.398438 393.777344 C 588.230469 393.734375 586.070312 393.683594 583.914062 393.734375 C 584.28125 396.695312 584.671875 399.917969 584.957031 403.234375 C 585.265625 406.890625 585.441406 410.664062 585.265625 414.371094 C 584.96875 421.480469 583.449219 428.078125 580.203125 433.476562 C 580.386719 433 580.542969 432.496094 580.707031 432.003906 C 580.851562 431.5625 580.992188 431.113281 581.117188 430.652344 C 581.445312 429.449219 581.710938 428.203125 581.898438 426.929688 C 582.15625 425.171875 582.296875 423.363281 582.300781 421.519531 C 582.300781 420.605469 582.269531 419.683594 582.210938 418.75 C 582.105469 417.097656 581.910156 415.425781 581.621094 413.757812 C 581.042969 410.273438 580.070312 406.8125 578.871094 403.507812 C 577.976562 401.027344 576.953125 398.640625 575.882812 396.398438 C 575.523438 395.648438 575.164062 394.921875 574.796875 394.207031 C 567.566406 394.804688 560.4375 395.957031 553.496094 397.652344 C 550.949219 398.273438 548.429688 398.964844 545.941406 399.730469 C 543.449219 400.503906 540.996094 401.347656 538.582031 402.273438 C 539.390625 403.746094 540.234375 405.285156 541.082031 406.875 C 543.628906 411.652344 546.214844 416.90625 548.039062 422.238281 C 548.96875 424.914062 549.703125 427.566406 550.242188 430.195312 C 550.417969 431.074219 550.574219 431.945312 550.707031 432.820312 C 550.832031 433.636719 550.9375 434.441406 551.019531 435.238281 C 551.085938 435.921875 551.128906 436.597656 551.167969 437.269531 C 551.167969 437.355469 551.179688 437.441406 551.183594 437.53125 C 551.25 439.042969 551.226562 440.515625 551.101562 441.929688 C 551.101562 441.933594 551.101562 441.933594 551.101562 441.933594 L 550.972656 442.003906 C 550.8125 439.710938 550.386719 437.332031 549.722656 434.929688 C 549.71875 434.910156 549.710938 434.890625 549.707031 434.875 C 549.492188 434.097656 549.25 433.324219 548.984375 432.546875 C 548.949219 432.445312 548.910156 432.347656 548.878906 432.25 C 548.632812 431.546875 548.371094 430.847656 548.089844 430.148438 C 548.003906 429.933594 547.902344 429.726562 547.816406 429.515625 C 547.566406 428.925781 547.316406 428.332031 547.039062 427.746094 C 546.867188 427.375 546.667969 427.011719 546.484375 426.640625 C 546.269531 426.210938 546.066406 425.777344 545.835938 425.347656 C 545.425781 424.589844 544.996094 423.832031 544.542969 423.089844 C 544.515625 423.046875 544.496094 423.007812 544.472656 422.96875 C 543.507812 421.351562 542.4375 419.769531 541.292969 418.238281 C 537.871094 413.644531 533.789062 409.488281 529.90625 406.011719 C 517.503906 411.996094 506.601562 420.445312 498.472656 430.199219 C 500.386719 431.328125 502.355469 432.550781 504.335938 433.816406 C 508.925781 436.753906 513.5625 440.027344 517.714844 443.695312 C 519.210938 445 520.648438 446.339844 522.019531 447.707031 C 523.386719 449.070312 524.691406 450.457031 525.917969 451.84375 C 527.835938 454.023438 529.640625 456.261719 531.242188 458.429688 C 531.21875 458.460938 531.1875 458.484375 531.160156 458.511719 C 526.234375 453.867188 520.664062 449.3125 514.390625 445.78125 C 510.222656 443.40625 505.734375 441.496094 501.078125 440.097656 C 498.292969 439.261719 495.449219 438.609375 492.582031 438.152344 C 491.421875 439.730469 490.605469 441.476562 489.65625 443.117188 C 488.804688 444.753906 487.820312 446.3125 487.148438 447.964844 C 487.132812 448.003906 487.113281 448.046875 487.09375 448.085938 C 486.832031 448.71875 486.566406 449.339844 486.300781 449.96875 C 486.011719 450.640625 485.738281 451.308594 485.464844 451.976562 C 484.625 453.992188 483.847656 455.984375 483.332031 457.984375 C 482.859375 459.613281 482.394531 461.214844 481.9375 462.785156 C 481.542969 464.363281 481.308594 465.914062 481.011719 467.445312 C 480.742188 468.96875 480.480469 470.46875 480.222656 471.933594 C 480.097656 473.390625 479.976562 474.8125 479.863281 476.207031 C 480.789062 476.164062 481.742188 476.160156 482.6875 476.128906 C 489.78125 475.925781 497.195312 476.152344 504.421875 477.21875 C 508.515625 477.804688 512.542969 478.621094 516.410156 479.613281 C 518.335938 480.105469 520.230469 480.640625 522.0625 481.210938 C 523.214844 481.566406 524.363281 481.949219 525.5 482.335938 C 525.5 482.378906 525.5 482.417969 525.507812 482.460938 C 525.496094 482.457031 510.199219 480.4375 502.359375 480.796875 C 496.011719 481.082031 489.808594 482.160156 483.835938 484.050781 C 483.679688 484.101562 483.519531 484.164062 483.355469 484.214844 C 483.355469 484.210938 483.355469 484.207031 483.355469 484.203125 C 483.21875 484.246094 483.085938 484.296875 482.953125 484.34375 C 482.960938 484.34375 482.964844 484.347656 482.96875 484.347656 C 482.910156 484.367188 482.851562 484.390625 482.796875 484.410156 C 482.789062 484.40625 482.785156 484.398438 482.78125 484.398438 C 482.542969 484.476562 482.3125 484.570312 482.082031 484.644531 C 481.25 484.917969 480.421875 485.179688 479.605469 485.503906 C 479.769531 490.058594 480.117188 493.886719 480.542969 497.167969 C 480.582031 497.476562 480.613281 497.8125 480.660156 498.113281 C 480.777344 498.984375 480.898438 499.8125 481.023438 500.597656 C 481.40625 502.957031 481.8125 504.964844 482.179688 506.695312 C 482.429688 507.84375 482.640625 508.890625 482.914062 509.789062 C 483.199219 510.636719 483.484375 511.375 483.773438 512.027344 C 483.785156 512.050781 483.796875 512.085938 483.808594 512.109375 C 484.417969 513.449219 485.058594 514.386719 485.847656 514.996094 C 486.691406 515.636719 487.710938 515.917969 489.039062 515.917969 C 491.257812 515.917969 507.402344 517.234375 524.996094 508.695312 C 524.996094 508.695312 495.414062 525.601562 481.246094 520.394531 C 479.492188 519.746094 478.507812 517.925781 477.5625 515.867188 C 477.410156 515.535156 477.257812 515.203125 477.101562 514.863281 C 476.71875 514.011719 476.339844 513.046875 475.964844 511.917969 L 475.925781 511.816406 L 475.898438 511.714844 C 475.582031 510.675781 475.355469 509.632812 475.121094 508.535156 L 475.019531 508.070312 C 474.589844 505.375 474.234375 502.835938 473.933594 500.449219 C 473.007812 493.066406 472.652344 487.1875 472.542969 482.871094 C 467.703125 482.574219 462.824219 482.636719 458 483.257812 C 450.273438 484.234375 442.691406 486.527344 435.691406 490.113281 C 436.828125 501.195312 438.574219 508.804688 440.023438 514.082031 C 440.378906 515.410156 445.09375 528.808594 445.960938 529.519531 C 446.214844 529.722656 446.683594 529.785156 447.292969 529.746094 C 443.296875 537.851562 439.738281 546.523438 437.585938 552.972656 C 434.246094 562.988281 439.804688 577.757812 439.476562 584.914062 C 439.101562 593.15625 437.386719 601.707031 416.621094 632.667969 C 406.285156 648.078125 402.507812 659.015625 407.367188 670.296875 C 414.148438 670.328125 421.730469 667.808594 424.613281 659.671875 C 431.5 643.253906 440.929688 675.867188 409.902344 675.160156 C 425.011719 696.160156 439.890625 694.714844 454.359375 686.007812 C 462.539062 690.894531 465.054688 700.433594 456.785156 714.605469 C 447.542969 730.4375 457.867188 748.273438 475.203125 749.25 C 467.558594 740.707031 465.875 729.214844 478.28125 716.519531 C 487.695312 706.878906 493.003906 690.4375 483.707031 680.128906 C 479.847656 675.855469 475.722656 673.761719 471.515625 673.03125 C 477.519531 667.875 483.4375 662.5 489.25 658.070312 C 498.882812 651.980469 511.382812 650.171875 521.46875 645.960938 C 559.820312 629.9375 566.753906 585.855469 556.875 561.195312 C 580.4375 585.742188 565.59375 633.40625 543.160156 648.136719 C 547.941406 650.125 557.792969 654.257812 560.800781 664.796875 C 563.75 675.109375 559.851562 703.921875 546.078125 751.332031 C 525.519531 822.078125 538.90625 877.015625 570.6875 915.21875 C 573.523438 913.847656 576.011719 912.15625 577.816406 910.050781 C 579.390625 908.214844 580.472656 906.101562 580.996094 903.667969 C 581.53125 901.238281 581.472656 898.503906 580.996094 895.703125 L 580.566406 893.585938 L 579.972656 891.171875 C 579.585938 889.550781 579.152344 887.9375 578.800781 886.308594 C 578.042969 883.066406 577.328125 879.8125 576.679688 876.554688 C 574.058594 863.519531 572.039062 850.382812 571.082031 837.136719 C 570.636719 830.515625 570.355469 823.882812 570.730469 817.246094 C 571.121094 810.648438 571.90625 803.933594 574.425781 797.820312 C 572.5 804.136719 572.359375 810.753906 572.582031 817.257812 C 572.828125 823.777344 573.722656 830.265625 574.769531 836.703125 C 576.917969 849.574219 580.117188 862.269531 583.871094 874.742188 C 584.804688 877.859375 585.804688 880.957031 586.832031 884.039062 C 587.320312 885.574219 587.878906 887.085938 588.398438 888.609375 C 588.40625 888.617188 588.410156 888.632812 588.414062 888.644531 L 589.21875 890.960938 L 590.035156 893.613281 C 591.003906 897.210938 591.546875 901.136719 591.078125 905.21875 C 590.644531 909.28125 589.074219 913.394531 586.671875 916.792969 C 584.527344 919.886719 581.792969 922.320312 578.929688 924.339844 C 578.617188 924.558594 578.308594 924.800781 577.988281 925.015625 C 574.769531 927.148438 571.386719 928.761719 567.964844 930.085938 C 565.574219 931.011719 563.15625 931.726562 560.726562 932.371094 C 531.371094 941.714844 488.601562 941.027344 467.039062 945.164062 C 433.167969 943.691406 424.140625 970.4375 431.695312 981.992188 C 467.746094 1037.054688 484.289062 1069.757812 526.773438 1122.039062 C 565.144531 1152.007812 646.859375 1161.949219 644.59375 1154.597656 C 645.503906 1151.679688 642.492188 1144.421875 642.183594 1141.753906 C 637.804688 1138.335938 629.957031 1135.582031 613.691406 1128.910156 C 613.691406 1128.910156 632.148438 1131.71875 640.570312 1131.90625 C 628.171875 1080.027344 624.117188 1089.878906 568.117188 1088.714844 C 594.941406 1065.460938 547.207031 1091.25 538.921875 1077.570312 C 530.835938 1069.027344 460.484375 991.289062 489.183594 984.878906 C 502.121094 984.199219 556.132812 986.558594 619.710938 989.847656 C 648.183594 991.320312 666.835938 991.8125 678.617188 977.082031 C 679.027344 976.570312 679.449219 975.988281 679.886719 975.382812 C 680.058594 975.417969 680.238281 975.445312 680.410156 975.472656 C 680.84375 974.550781 681.261719 973.617188 681.679688 972.691406 C 682.703125 970.417969 683.707031 968.140625 684.664062 965.863281 C 687.421875 959.320312 689.921875 952.652344 692.179688 945.886719 C 694.539062 938.730469 696.582031 931.445312 698.167969 924.039062 C 699.585938 917.433594 700.640625 910.726562 701.195312 903.917969 C 701.800781 911.121094 701.96875 918.433594 701.605469 925.734375 C 701.203125 933.023438 700.515625 940.34375 699.398438 947.59375 " fill-opacity="1" fill-rule="nonzero"/></g><path fill="#545454" d="M 853.363281 524.867188 C 844.644531 524.582031 834.945312 523.035156 824.761719 519.804688 C 824.332031 521.539062 823.816406 523.289062 823.203125 525.015625 C 822.417969 527.21875 821.460938 529.378906 820.25 531.398438 C 818.988281 533.507812 817.457031 535.46875 815.578125 537.15625 C 821.761719 538.535156 827.820312 539.355469 833.652344 539.753906 C 834 539.769531 834.339844 539.785156 834.683594 539.808594 C 836.867188 539.933594 839.015625 540.003906 841.117188 540.007812 C 841.132812 540.007812 841.148438 540.007812 841.164062 540.007812 C 841.441406 540.007812 841.730469 540.015625 842.015625 540.015625 C 847.414062 539.988281 852.53125 539.582031 857.226562 538.851562 C 857.210938 538.148438 857.148438 537.449219 857.058594 536.746094 C 856.8125 534.902344 856.34375 533.070312 855.839844 531.28125 C 855.160156 529.046875 854.441406 526.851562 853.363281 524.867188 " fill-opacity="1" fill-rule="nonzero"/><path fill="#545454" d="M 876.101562 533.832031 C 878.515625 532.824219 880.753906 531.964844 882.707031 531 C 884.636719 529.976562 886.367188 529.027344 887.890625 528.148438 C 889.433594 527.3125 890.707031 526.410156 891.785156 525.582031 C 892.863281 524.761719 893.753906 524.03125 894.453125 523.390625 C 895.851562 522.101562 896.492188 521.160156 896.394531 520.5625 C 896.207031 519.371094 893.066406 519.535156 887.152344 521.023438 C 881.113281 522.125 872.117188 524.476562 859.875 524.886719 C 860.265625 528.964844 860.128906 533.019531 859 537.027344 C 858.847656 537.566406 858.679688 538.105469 858.488281 538.648438 C 860.179688 538.339844 861.808594 538 863.382812 537.648438 C 868.191406 536.5625 872.4375 535.265625 876.101562 533.832031 " fill-opacity="1" fill-rule="nonzero"/><path fill="#545454" d="M 866.386719 486.144531 C 866.605469 483.59375 866.113281 481.023438 865.542969 478.488281 C 864.964844 476.203125 864.332031 473.949219 863.226562 471.875 C 852.667969 470.796875 840.929688 468.070312 828.566406 463.546875 C 826.632812 469.746094 823.515625 475.894531 817.558594 480.039062 C 835.070312 485.179688 852.054688 486.957031 866.386719 486.144531 " fill-opacity="1" fill-rule="nonzero"/><path fill="#545454" d="M 502.441406 415.929688 C 499.925781 410.535156 495.535156 405.734375 490.140625 401.890625 C 483.910156 397.398438 476.25 394.253906 469.46875 392.023438 C 459.160156 403.277344 451.351562 415.59375 445.960938 427.800781 C 453.164062 429.78125 461.164062 432.207031 468.3125 435.855469 C 471.898438 437.667969 475.28125 439.765625 478.285156 442.128906 C 479.167969 442.816406 480.03125 443.546875 480.875 444.292969 C 481.351562 443.277344 481.859375 442.3125 482.332031 441.457031 C 482.597656 440.984375 482.859375 440.515625 483.109375 440.035156 L 483.179688 439.894531 L 483.257812 439.757812 C 483.519531 439.316406 483.765625 438.855469 484.011719 438.402344 C 484.714844 437.105469 485.515625 435.636719 486.605469 434.15625 L 488.035156 432.226562 L 487.652344 432 L 492.75 425.878906 C 495.679688 422.363281 498.945312 419.050781 502.441406 415.929688 " fill-opacity="1" fill-rule="nonzero"/><g clip-path="url(#ddc8912e4a)"><path fill="#545454" d="M 816.914062 479.859375 C 819.039062 477.375 819.566406 474.140625 820.226562 471.125 C 820.882812 467.597656 821.132812 463.953125 820.539062 460.355469 C 810.265625 456.023438 799.65625 450.558594 788.824219 444.21875 C 785.105469 450.773438 780.546875 459.152344 771.765625 461.371094 C 777.988281 456.644531 780.367188 447.828125 780.898438 440.601562 L 780.90625 440.589844 L 780.894531 440.578125 C 780.9375 440.320312 781.113281 439.871094 781.195312 439.644531 C 771.332031 433.582031 761.304688 426.875 751.058594 419.757812 C 746.402344 427.078125 740.265625 436.53125 730 438.070312 C 730.015625 438.089844 730.03125 438.078125 730.042969 438.046875 C 738.234375 434.304688 741.597656 424.011719 743.125 415.859375 C 743.113281 415.839844 743.179688 415.816406 743.207031 415.796875 C 743.691406 415.523438 742.953125 415.621094 743.15625 415.429688 L 743.167969 415.441406 L 743.152344 415.429688 C 743.257812 415.199219 743.425781 414.882812 743.675781 414.597656 C 733.832031 407.628906 723.769531 400.511719 713.578125 393.300781 C 708.597656 401.386719 701.816406 411.75 690.871094 413.746094 C 699.796875 409.371094 703.996094 398.191406 705.398438 388.972656 C 705.375 388.957031 705.460938 388.9375 705.503906 388.917969 C 705.546875 388.878906 705.671875 388.839844 705.710938 388.800781 C 705.792969 388.714844 705.128906 388.691406 705.414062 388.59375 L 705.417969 388.609375 C 705.5625 388.421875 705.589844 388.257812 705.894531 387.988281 C 695.636719 381.015625 685.042969 373.960938 673.195312 367.664062 C 669.023438 377.128906 662.664062 389.304688 651.558594 393 C 656.097656 390.148438 659.332031 385.457031 661.316406 380.136719 C 663.316406 374.820312 664.042969 368.851562 663.914062 363.589844 C 663.878906 363.578125 663.992188 363.546875 664.039062 363.523438 C 664.085938 363.484375 664.242188 363.433594 664.285156 363.394531 C 664.375 363.3125 663.519531 363.382812 663.863281 363.261719 C 663.863281 363.261719 663.875 363.28125 663.882812 363.292969 C 664.019531 363.15625 663.945312 363.109375 664.105469 362.921875 C 651.984375 357.261719 639.253906 352.441406 625.984375 349.019531 C 625.132812 354.515625 624.054688 360.910156 621.792969 366.703125 C 619.542969 372.492188 616.128906 377.886719 611.074219 381.382812 C 614.96875 377.125 617.105469 371.273438 617.679688 365.097656 C 618.273438 358.921875 617.25 352.398438 615.375 346.902344 C 615.335938 346.902344 615.457031 346.84375 615.511719 346.804688 C 615.511719 346.804688 615.535156 346.789062 615.542969 346.78125 L 615.234375 346.714844 C 615.210938 346.71875 615.207031 346.707031 615.207031 346.707031 C 601.597656 344.214844 587.644531 343.207031 573.835938 343.925781 C 574.875 349.75 576.027344 356.582031 575.777344 363.242188 C 575.542969 369.90625 573.992188 376.410156 570.210938 381.464844 C 572.726562 375.960938 572.902344 369.367188 571.355469 362.878906 C 569.847656 356.417969 566.535156 349.90625 562.953125 344.859375 C 548.59375 346.539062 534.667969 350.292969 521.816406 355.617188 C 525.0625 361.101562 528.890625 367.550781 531.21875 374.265625 C 532.394531 377.621094 533.207031 381.007812 533.519531 384.363281 C 533.859375 387.785156 533.703125 391.160156 532.867188 394.371094 C 533.25 387.941406 530.933594 381.285156 526.964844 375.335938 C 523.027344 369.371094 517.347656 364.140625 511.980469 360.097656 C 498.695312 366.714844 486.847656 375.09375 476.867188 384.511719 C 482.273438 388.71875 488.671875 393.679688 493.6875 399.457031 C 496.207031 402.332031 498.40625 405.394531 500.066406 408.566406 C 501.226562 410.792969 502.203125 413.160156 502.859375 415.550781 C 507.984375 411.03125 513.660156 406.972656 519.746094 403.46875 C 521.40625 402.210938 523.105469 400.96875 524.882812 399.792969 C 535.230469 392.925781 547.386719 387.460938 560.703125 384.121094 C 574.042969 380.859375 588.507812 379.914062 603.160156 381.261719 C 617.820312 382.613281 632.660156 386.332031 646.902344 392.003906 C 654.011719 394.902344 660.980469 398.070312 668 401.808594 C 675.003906 405.488281 681.988281 409.570312 688.941406 413.679688 C 702.832031 421.953125 716.605469 430.617188 730.285156 438.804688 C 743.980469 447 757.621094 454.746094 771.15625 461.515625 C 771.140625 461.515625 771.121094 461.5 771.101562 461.460938 C 771.222656 461.484375 771.328125 461.460938 771.433594 461.457031 C 771.351562 461.476562 771.269531 461.503906 771.175781 461.523438 C 786.65625 469.148438 801.949219 475.628906 816.914062 479.859375 " fill-opacity="1" fill-rule="nonzero"/></g><path fill="#545454" d="M 472.945312 471.378906 L 472.96875 471.082031 L 473.023438 470.789062 L 473.4375 468.425781 L 473.808594 466.300781 L 473.816406 466.234375 L 473.832031 466.171875 C 473.914062 465.738281 473.992188 465.300781 474.074219 464.863281 C 474.277344 463.742188 474.507812 462.476562 474.839844 461.15625 L 474.898438 460.9375 L 476.269531 456.222656 C 477.070312 453.164062 478.289062 450.285156 479.472656 447.507812 C 479.742188 446.871094 480.015625 446.230469 480.28125 445.582031 C 480.292969 445.5625 480.296875 445.550781 480.304688 445.53125 C 475.695312 442.867188 470.667969 440.761719 465.390625 439.371094 C 457.902344 437.378906 449.894531 436.835938 442.136719 437.460938 C 436.683594 452.917969 434.972656 467.605469 435.15625 479.835938 C 443.027344 478.769531 451.472656 478.136719 459.722656 478.804688 C 464.09375 479.144531 468.351562 479.855469 472.511719 480.898438 C 472.472656 476.410156 472.714844 474.101562 472.714844 474.101562 L 472.945312 471.378906 " fill-opacity="1" fill-rule="nonzero"/><path fill="#545454" d="M 912.238281 470.941406 C 913.988281 469.5 914.820312 468.476562 914.765625 467.863281 C 914.628906 466.585938 911.03125 467.140625 903.953125 468.871094 C 902.152344 469.21875 900.132812 469.65625 897.90625 470.167969 C 895.65625 470.605469 893.125 470.914062 890.425781 471.402344 C 887.699219 471.8125 884.683594 471.960938 881.5 472.328125 C 879.886719 472.367188 878.214844 472.410156 876.476562 472.453125 C 875.621094 472.480469 874.742188 472.507812 873.847656 472.535156 C 872.953125 472.496094 872.039062 472.453125 871.113281 472.414062 C 871.113281 477.0625 870.308594 481.625 867.910156 485.996094 C 884.5625 484.707031 896.617188 480.148438 904.0625 476.199219 C 907.867188 474.328125 910.488281 472.378906 912.238281 470.941406 " fill-opacity="1" fill-rule="nonzero"/><path fill="#545454" d="M 415.082031 831.644531 C 421.839844 826.257812 431.628906 833.464844 437.695312 837.792969 C 483.230469 870.261719 527.007812 891.433594 550.984375 903.917969 C 533.3125 872.984375 524.082031 846.144531 521.308594 811.605469 C 484.335938 807.121094 398.742188 744.785156 380.199219 798.558594 C 346.960938 897.613281 322.34375 885.835938 321.273438 935.078125 C 323.414062 957.558594 314.851562 1005.730469 322.34375 1020.71875 C 322.503906 1021.042969 334.382812 1018.511719 335.988281 1015.902344 C 335.1875 997.972656 334.382812 992.941406 334.117188 986.195312 C 333.679688 975.125 339.351562 1004.933594 344.015625 1014.695312 C 397.132812 985.757812 378.605469 978.097656 364.085938 932.9375 C 373.875 939.601562 381.09375 944.464844 377.003906 935.316406 C 371.234375 922.417969 368.84375 914.785156 368.84375 914.785156 C 368.84375 914.785156 368.605469 914.746094 368.199219 914.6875 C 380.964844 877.074219 406.125 838.792969 415.082031 831.644531 " fill-opacity="1" fill-rule="nonzero"/></svg>