<svg xmlns="http://www.w3.org/2000/svg" xmlns:xlink="http://www.w3.org/1999/xlink" width="2000" zoomAndPan="magnify" viewBox="0 0 1500 1499.999933" height="2000" preserveAspectRatio="xMidYMid meet" version="1.0"><defs><clipPath id="1b6c47e800"><path d="M 751 921 L 906.773438 921 L 906.773438 1111.039062 L 751 1111.039062 Z M 751 921 " clip-rule="nonzero"/></clipPath><clipPath id="315fce671e"><path d="M 291.972656 515.546875 L 1208.238281 515.546875 L 1208.238281 1111.039062 L 291.972656 1111.039062 Z M 291.972656 515.546875 " clip-rule="nonzero"/></clipPath></defs><path fill="#545454" d="M 991.15625 637.3125 C 985.246094 649.300781 979.019531 663.574219 965.226562 667.753906 C 950.332031 672.25 934.726562 664.679688 926.921875 651.667969 C 909.03125 621.777344 950.015625 562.628906 966.566406 532.265625 C 983.277344 501.746094 1000.929688 465.15625 995.335938 429.113281 C 992.574219 411.132812 985.402344 389.917969 971.847656 377.851562 C 964.203125 367.441406 931.179688 350.25 907.21875 350.25 C 834.234375 350.25 787.578125 420.910156 822.808594 485.660156 C 824.304688 488.339844 810.511719 482.582031 793.253906 487.15625 C 747.617188 499.144531 734.300781 566.335938 771.894531 595.042969 C 808.070312 622.566406 865.839844 602.613281 872.226562 556.476562 C 880.027344 499.855469 839.675781 484.554688 839.675781 439.996094 C 839.675781 390.390625 902.804688 364.367188 939.613281 395.519531 C 961.679688 414.128906 970.824219 440.550781 962.941406 468.308594 C 949.859375 514.050781 906.429688 556.476562 897.210938 612.472656 C 893.03125 637.472656 897.210938 663.96875 918.570312 677.535156 C 960.578125 704.347656 999.433594 682.421875 1007.078125 644.964844 C 1009.914062 630.453125 995.570312 628.164062 991.15625 637.3125 Z M 811.144531 581.558594 C 754.398438 581.476562 772.289062 491.652344 831.714844 512.394531 C 848.582031 520.832031 850.234375 545.199219 844.089844 561.050781 C 836.523438 577.613281 825.332031 581.558594 811.144531 581.558594 Z M 811.144531 581.558594 " fill-opacity="1" fill-rule="nonzero"/><path fill="#545454" d="M 1009.125 529.429688 C 1011.175781 530.058594 1013.539062 528.5625 1014.25 527.378906 C 1016.773438 523.511719 1009.441406 517.914062 1006.445312 524.066406 C 1005.582031 526.039062 1007.234375 528.875 1009.125 529.429688 Z M 1009.125 529.429688 " fill-opacity="1" fill-rule="nonzero"/><path fill="#545454" d="M 970.980469 605.296875 C 970.035156 607.265625 971.769531 610.027344 973.660156 610.65625 C 975.710938 611.289062 978.074219 609.789062 978.78125 608.605469 C 981.304688 604.742188 973.898438 599.144531 970.980469 605.296875 Z M 970.980469 605.296875 " fill-opacity="1" fill-rule="nonzero"/><path fill="#545454" d="M 1035.214844 583.292969 C 1034.269531 585.261719 1036.003906 588.023438 1037.894531 588.65625 C 1039.945312 589.285156 1042.308594 587.789062 1043.015625 586.605469 C 1045.539062 582.738281 1038.132812 577.140625 1035.214844 583.292969 Z M 1035.214844 583.292969 " fill-opacity="1" fill-rule="nonzero"/><path fill="#545454" d="M 780.957031 434.398438 C 780.011719 436.371094 781.746094 439.128906 783.636719 439.761719 C 785.6875 440.390625 788.050781 438.894531 788.761719 437.710938 C 791.28125 433.84375 783.953125 428.167969 780.957031 434.398438 Z M 780.957031 434.398438 " fill-opacity="1" fill-rule="nonzero"/><path fill="#545454" d="M 753.921875 351.828125 C 755.972656 352.457031 758.335938 350.960938 759.046875 349.777344 C 761.570312 345.914062 754.238281 340.3125 751.242188 346.464844 C 750.296875 348.4375 751.953125 351.277344 753.921875 351.828125 Z M 753.921875 351.828125 " fill-opacity="1" fill-rule="nonzero"/><path fill="#545454" d="M 739.421875 481.792969 C 738.476562 483.765625 740.210938 486.527344 742.101562 487.15625 C 744.152344 487.789062 746.515625 486.289062 747.222656 485.105469 C 749.746094 481.242188 742.339844 475.644531 739.421875 481.792969 Z M 739.421875 481.792969 " fill-opacity="1" fill-rule="nonzero"/><path fill="#545454" d="M 840.855469 332.980469 C 839.910156 334.949219 841.644531 337.710938 843.535156 338.34375 C 845.585938 338.972656 847.949219 337.472656 848.660156 336.292969 C 851.101562 332.425781 843.773438 326.75 840.855469 332.980469 Z M 840.855469 332.980469 " fill-opacity="1" fill-rule="nonzero"/><path fill="#545454" d="M 1005.894531 562.15625 C 1005.105469 558.292969 1004.554688 557.1875 1003.609375 552.929688 C 1002.507812 547.960938 1002.113281 544.570312 1000.378906 543.542969 C 996.203125 541.179688 995.648438 546.226562 990.449219 563.023438 C 975.078125 567.441406 971.21875 568.542969 970.507812 570.832031 C 969.089844 575.089844 978.074219 576.511719 990.605469 578.085938 L 994.941406 595.199219 C 996.121094 598.828125 999.984375 600.089844 1002.113281 592.519531 C 1002.113281 592.441406 1005.660156 579.902344 1005.972656 579.820312 C 1012.199219 578.085938 1023.550781 573.828125 1024.890625 572.960938 C 1034.269531 566.652344 1006.054688 563.339844 1005.894531 562.15625 Z M 1005.894531 562.15625 " fill-opacity="1" fill-rule="nonzero"/><path fill="#545454" d="M 800.425781 348.988281 C 799.871094 346.386719 799.480469 345.597656 798.847656 342.757812 C 798.058594 339.367188 797.824219 337.078125 796.640625 336.371094 C 793.804688 334.792969 793.410156 338.183594 789.863281 349.621094 C 779.460938 352.617188 776.859375 353.324219 776.308594 354.902344 C 775.363281 357.820312 781.429688 358.765625 789.941406 359.792969 L 792.9375 371.386719 C 793.726562 373.832031 796.40625 374.699219 797.824219 369.570312 C 797.824219 369.492188 800.265625 360.976562 800.425781 360.898438 C 804.601562 359.714844 812.40625 356.796875 813.273438 356.242188 C 819.734375 351.984375 800.582031 349.777344 800.425781 348.988281 Z M 800.425781 348.988281 " fill-opacity="1" fill-rule="nonzero"/><path fill="#545454" d="M 704.429688 495.515625 C 703.875 492.914062 703.480469 492.125 702.851562 489.285156 C 702.0625 485.894531 701.828125 483.609375 700.644531 482.898438 C 697.808594 481.320312 697.414062 484.710938 693.867188 496.148438 C 683.464844 499.144531 680.863281 499.855469 680.308594 501.433594 C 679.363281 504.351562 685.433594 505.296875 693.945312 506.320312 L 696.941406 517.914062 C 697.730469 520.359375 700.410156 521.226562 701.828125 516.101562 C 701.828125 516.019531 704.269531 507.503906 704.429688 507.425781 C 708.605469 506.242188 716.40625 503.324219 717.273438 502.773438 C 723.738281 498.515625 704.585938 496.304688 704.429688 495.515625 Z M 704.429688 495.515625 " fill-opacity="1" fill-rule="nonzero"/><path fill="#545454" d="M 1059.015625 521.464844 C 1058.464844 518.859375 1058.070312 518.070312 1057.441406 515.234375 C 1056.652344 511.839844 1056.414062 509.554688 1055.234375 508.84375 C 1052.394531 507.269531 1052.003906 510.660156 1048.457031 522.09375 C 1038.050781 525.089844 1035.449219 525.800781 1034.898438 527.378906 C 1033.953125 530.296875 1040.023438 531.242188 1048.535156 532.265625 L 1051.53125 543.859375 C 1052.316406 546.304688 1054.996094 547.171875 1056.414062 542.046875 C 1056.414062 541.96875 1058.859375 533.449219 1059.015625 533.371094 C 1063.195312 532.1875 1070.996094 529.269531 1071.863281 528.71875 C 1078.328125 524.539062 1059.175781 522.332031 1059.015625 521.464844 Z M 1059.015625 521.464844 " fill-opacity="1" fill-rule="nonzero"/><path fill="#545454" d="M 773.15625 407.664062 C 772.207031 407.585938 754.710938 407.503906 739.578125 408.136719 C 738.949219 401.828125 739.816406 373.832031 739.816406 373.59375 C 739.816406 372.015625 738.792969 371.226562 737.6875 371.226562 C 736.269531 371.226562 735.558594 372.804688 734.929688 374.066406 C 729.886719 384.398438 723.738281 396.9375 721.136719 406.007812 C 697.808594 384.476562 698.910156 382.425781 696.074219 384.082031 C 693.867188 385.421875 695.835938 389.128906 700.644531 398.910156 C 709.472656 416.8125 707.1875 412.316406 707.976562 413.734375 C 709.472656 416.730469 709.707031 415.945312 708.210938 416.8125 C 684.722656 430.535156 678.578125 430.847656 679.207031 434.320312 C 679.679688 436.761719 682.597656 436.210938 685.117188 436.054688 C 698.832031 435.265625 713.886719 433.136719 717.039062 432.425781 C 718.457031 444.492188 720.347656 467.285156 721.925781 468.230469 C 723.027344 468.941406 724.527344 468.703125 725.234375 466.890625 C 725.628906 465.785156 733.195312 435.894531 733.511719 434.871094 C 735.164062 435.894531 740.839844 439.445312 742.574219 440.3125 C 761.648438 450.40625 761.488281 450.960938 763.222656 450.566406 C 764.167969 450.40625 764.957031 449.382812 764.878906 448.433594 C 764.800781 447.09375 765.667969 448.59375 751.71875 430.769531 C 747.699219 425.644531 746.277344 424.460938 744.625 422.410156 C 758.023438 417.914062 774.335938 411.683594 774.808594 411.371094 C 776.386719 410.582031 776.386719 407.898438 773.15625 407.664062 Z M 773.15625 407.664062 " fill-opacity="1" fill-rule="nonzero"/><g clip-path="url(#1b6c47e800)"><path fill="#545454" d="M 790.070312 1083.710938 C 781.105469 1085.65625 771.53125 1085.257812 763.15625 1088.996094 C 754.785156 1092.738281 748.164062 1103.136719 752.816406 1111.039062 C 768.402344 1110.796875 783.984375 1110.558594 799.570312 1110.320312 C 804.648438 1110.242188 809.808594 1110.148438 814.648438 1108.613281 C 820.949219 1106.605469 826.21875 1102.3125 831.324219 1098.109375 C 840.964844 1090.164062 850.613281 1082.226562 860.261719 1074.28125 C 866.617188 1069.050781 873.332031 1063.269531 875.347656 1055.289062 C 876.65625 1050.125 875.796875 1044.699219 875.207031 1039.410156 C 871.519531 1006.421875 879.628906 998.433594 895.453125 969.253906 C 901.621094 957.886719 908.007812 946.148438 906.5625 945.1875 C 868.515625 920.015625 839.464844 917.078125 807.863281 925.785156 C 807.09375 925.996094 806.339844 926.210938 805.609375 926.425781 C 802.144531 960.976562 813.332031 980.589844 819.941406 998.914062 C 824.113281 1010.460938 829.183594 1022.015625 829.554688 1034.28125 C 830.25 1057.148438 812.433594 1078.855469 790.070312 1083.710938 " fill-opacity="1" fill-rule="nonzero"/></g><g clip-path="url(#315fce671e)"><path fill="#545454" d="M 508.730469 707.953125 C 528.308594 724.441406 552.570312 730.523438 552.570312 730.523438 C 542.742188 722.988281 535.289062 702.25 529.65625 672.972656 C 524.019531 643.699219 488.824219 630.972656 488.824219 630.972656 C 526.933594 636.488281 542.949219 670.992188 547.398438 691.628906 C 556.269531 732.75 585.808594 749.375 585.808594 749.375 C 537.5 750.886719 508.730469 707.953125 508.730469 707.953125 Z M 449.605469 750.789062 C 449.605469 750.789062 455.902344 767.378906 464.878906 785.417969 L 484.378906 731.425781 C 484.378906 731.425781 472.496094 803.417969 486.40625 838.003906 C 486.40625 838.003906 448.066406 798.53125 449.605469 750.789062 Z M 433.273438 645.960938 C 433.273438 645.960938 448.441406 633.527344 455.828125 620.617188 C 457.976562 616.855469 432.925781 623.9375 433.304688 622.679688 C 433.6875 621.417969 449.554688 608.011719 445.546875 606.804688 C 442.121094 604.382812 408.234375 612.828125 416.117188 602.011719 C 416.117188 602.011719 449.210938 593.113281 461.855469 591.164062 C 474.5 589.210938 481.859375 623.917969 433.273438 645.960938 Z M 366 653.109375 C 354.945312 653.269531 354.945312 635.910156 366.003906 636.074219 C 377.054688 635.914062 377.054688 653.269531 366 653.109375 Z M 1207.898438 920.546875 C 1207.449219 884.820312 1174.058594 855.035156 1152.359375 826.949219 C 1141.824219 813.320312 1145.605469 793.53125 1160.554688 784.960938 C 1163.496094 783.277344 1166.820312 781.597656 1170.5625 779.929688 C 1193.464844 769.722656 1189.164062 740.871094 1186.957031 731.074219 C 1187.113281 738.484375 1179.574219 746.675781 1146.769531 766.773438 C 1121.691406 782.140625 1124.359375 808.855469 1143.597656 832.359375 C 1176.929688 873.085938 1193.179688 896.472656 1193.617188 915.203125 C 1200.226562 972.007812 1138.457031 992.460938 1098.449219 958.578125 C 1062.046875 931.808594 1050.15625 886.914062 1029.640625 849.3125 C 1012.164062 820.539062 982.765625 799.355469 950.617188 791.269531 C 885.8125 742.394531 795.625 770.445312 691.011719 746.441406 C 615.203125 729.046875 584.4375 695.007812 584.515625 694.84375 C 601.089844 695.550781 614.585938 713.097656 634.25 716.707031 C 643.828125 718.460938 661.054688 716 667.054688 706.480469 C 630.777344 713.273438 607.1875 652.015625 566.3125 646.25 C 584.050781 647.171875 616.992188 648.109375 629.597656 629.652344 C 598.421875 645.40625 562.40625 588.988281 526.511719 583.507812 C 547.359375 585.054688 582.550781 592.699219 592.273438 571.082031 C 549.667969 582.027344 523.734375 533.894531 472.503906 544.929688 C 488.609375 540.140625 508.523438 532.21875 500.742188 515.546875 C 490.832031 538.417969 411.082031 520.523438 391.125 560.085938 C 383.609375 547.820312 365.820312 544.636719 365.820312 544.636719 C 381.171875 560.15625 373.167969 583.183594 364.605469 596.828125 C 336.625 613.6875 343.078125 622.777344 328.609375 643.265625 C 310.796875 661.46875 275.042969 670.945312 301.273438 698.015625 C 301.273438 698.015625 304.441406 718.09375 320.292969 724.449219 C 324.40625 724.335938 334.613281 723.660156 342.410156 719.933594 C 344.273438 719.039062 345.980469 718.808594 347.351562 718.703125 C 354.554688 718.167969 355.769531 728.40625 348.59375 729.179688 C 347.796875 729.265625 346.851562 729.445312 345.878906 729.121094 C 338.855469 726.753906 330.8125 724.566406 321.085938 725.960938 C 322.507812 728.890625 325.355469 735.515625 324.550781 740.328125 C 328.78125 748.25 342.492188 752.476562 348.847656 751.425781 C 353.167969 743.460938 367.402344 730.925781 385.925781 726.578125 C 410.585938 721.042969 428.722656 692.179688 417.785156 667.144531 C 437.160156 689.851562 429.582031 711.472656 414.625 729.320312 C 411.097656 733.53125 407.039062 737.25 402.84375 740.792969 C 382.964844 757.574219 373.976562 785.191406 374.777344 810.71875 C 376.003906 830.332031 380.683594 849.851562 374.011719 869.179688 C 390.257812 849.613281 388.875 821.644531 400.246094 799.777344 C 380.164062 891.320312 469.144531 917.921875 446.367188 960.804688 C 447.042969 960.09375 447.714844 959.359375 448.375 958.605469 C 446.480469 961.695312 441.894531 968.109375 439.539062 970.578125 C 449.242188 954.734375 439.652344 940.398438 429.664062 927.5625 C 405.363281 1000.71875 381.25 1047.84375 377.078125 1052.851562 C 369.144531 1062.371094 327.871094 1065.542969 319.933594 1073.480469 C 316.546875 1076.34375 302 1105.839844 309.386719 1105.210938 C 317.042969 1103.476562 369.226562 1109.867188 372.933594 1100.285156 C 375.292969 1096.890625 380.089844 1092.691406 389.777344 1090.929688 C 407.234375 1087.757812 415.171875 1082.996094 424.695312 1065.542969 C 432.328125 1051.554688 478.5625 1015.726562 512.203125 971.285156 C 494.566406 952.242188 430.371094 916.277344 448.863281 840.070312 C 445.171875 942.925781 546.097656 946.332031 534.207031 994.71875 C 544.195312 980.039062 538.589844 962.015625 529.394531 948.363281 C 518.894531 929.359375 511.5 907.816406 511.851562 885.25 C 527.722656 936.730469 544.65625 955.066406 554.441406 973.8125 C 578.269531 1019.457031 597.226562 1041.007812 597.566406 1048.445312 C 596.585938 1056.78125 589.609375 1068.21875 581.433594 1072.84375 C 559.898438 1079.539062 537.140625 1073.167969 533.734375 1103.671875 C 553.898438 1105.691406 580.863281 1104.5625 601.707031 1103.992188 C 622.105469 1101.058594 625.421875 1075.582031 635.664062 1051.617188 C 638.292969 1046.164062 620.292969 989.964844 637.246094 943.957031 C 633.550781 937.25 623.125 923.949219 614.046875 906.9375 C 624.558594 918.3125 640.625 929.925781 650.273438 942.351562 C 649.90625 950.347656 640.246094 969.703125 648.359375 969.875 C 709.15625 971.164062 732.683594 954.394531 790.25 925.945312 C 803.550781 919.371094 817.75 914.6875 832.425781 912.492188 C 856.023438 908.957031 875.039062 912.421875 902.605469 934.679688 C 963.019531 982.128906 1023.589844 997.667969 1036.394531 1072.007812 C 1036.253906 1076.8125 1029.222656 1082.816406 1025.519531 1083.710938 C 1010.304688 1085.152344 980.050781 1089.40625 988.265625 1111.039062 C 1008.777344 1109.871094 1029.886719 1112.304688 1050.097656 1108.613281 C 1066.335938 1098.144531 1072.367188 1081.277344 1068.648438 1064.214844 C 1065.488281 1038.710938 1062.332031 1038.828125 1059.171875 1013.324219 C 1058.996094 1005.492188 1054.847656 999.300781 1047.539062 996.46875 C 988.289062 962.417969 1001.175781 877.824219 974.65625 823.078125 C 1022.808594 848.058594 1026.902344 906.769531 1060.273438 945.609375 C 1078.160156 968.070312 1102.695312 987.226562 1131.972656 991.148438 C 1173.140625 998.492188 1212.335938 961.914062 1207.898438 920.546875 " fill-opacity="1" fill-rule="nonzero"/></g></svg>