<svg xmlns="http://www.w3.org/2000/svg" xmlns:xlink="http://www.w3.org/1999/xlink" width="2000" zoomAndPan="magnify" viewBox="0 0 1500 1499.999933" height="2000" preserveAspectRatio="xMidYMid meet" version="1.0"><defs><clipPath id="1859367965"><path d="M 310.609375 1124.253906 L 631.945312 1124.253906 L 631.945312 1334.195312 L 310.609375 1334.195312 Z M 310.609375 1124.253906 " clip-rule="nonzero"/></clipPath><clipPath id="fedd933e8f"><path d="M 929.820312 761.105469 L 1149.859375 761.105469 L 1149.859375 1046.726562 L 929.820312 1046.726562 Z M 929.820312 761.105469 " clip-rule="nonzero"/></clipPath><clipPath id="b79bb1050c"><path d="M 384.054688 583 L 1016 583 L 1016 1334.195312 L 384.054688 1334.195312 Z M 384.054688 583 " clip-rule="nonzero"/></clipPath></defs><path fill="#545454" d="M 1136.023438 527.023438 C 1132.855469 521.632812 1125.25 522.742188 1103.078125 521.398438 C 1092.226562 520.683594 914.828125 513.394531 863.90625 520.367188 C 858.125 521.160156 852.820312 526.308594 855.035156 532.410156 C 858.285156 541.367188 869.210938 540.179688 876.738281 540.96875 C 919.421875 545.804688 1101.886719 545.804688 1131.347656 539.941406 C 1136.972656 538.832031 1138.316406 530.828125 1136.023438 527.023438 Z M 1136.023438 527.023438 " fill-opacity="1" fill-rule="nonzero"/><path fill="#545454" d="M 856.304688 462.203125 C 861.925781 467.433594 943.339844 473.535156 967.96875 466.480469 C 971.691406 465.449219 973.195312 459.109375 973.277344 455.226562 C 973.355469 449.679688 968.445312 446.433594 964.328125 443.660156 C 910.234375 407.285156 919.976562 338.660156 978.660156 319.167969 C 1001.46875 311.558594 1027.050781 313.777344 1045.976562 329.46875 C 1062.609375 343.335938 1071.320312 365.207031 1069.339844 386.683594 C 1068.308594 397.378906 1064.746094 407.761719 1059.125 416.953125 C 1053.738281 425.671875 1045.582031 436.289062 1036.550781 441.519531 C 1031.878906 444.214844 1025.703125 443.816406 1021.664062 447.621094 C 1018.734375 450.394531 1017.625 455.070312 1018.574219 458.953125 C 1021.585938 470.996094 1041.859375 469.332031 1050.964844 470.207031 C 1063.242188 471.394531 1120.339844 472.980469 1132.0625 469.730469 C 1138.476562 467.988281 1141.328125 459.03125 1136.023438 454.277344 C 1133.011719 451.582031 1129.605469 451.265625 1125.09375 450.554688 C 1122.796875 450.234375 1078.683594 447.699219 1067.121094 447.621094 C 1057.144531 447.542969 1059.441406 448.570312 1061.894531 446.511719 C 1079 431.613281 1090.167969 419.015625 1094.683594 396.429688 C 1098.722656 375.90625 1094.285156 351.496094 1086.683594 336.441406 C 1045.738281 255.851562 889.089844 283.425781 906.515625 400.707031 C 908.097656 411.484375 913.085938 420.203125 919.265625 429 C 930.589844 447.859375 937.320312 445.796875 924.015625 445.558594 C 868.894531 444.847656 864.539062 444.925781 858.679688 447.382812 C 850.996094 450.234375 850.996094 459.585938 856.304688 462.203125 Z M 856.304688 462.203125 " fill-opacity="1" fill-rule="nonzero"/><path fill="#545454" d="M 1137.050781 358.867188 C 1141.25 358.472656 1138.792969 359.34375 1134.597656 355.699219 C 1126.753906 348.960938 1126.992188 336.601562 1129.605469 332.003906 C 1130.714844 330.101562 1133.726562 327.882812 1132.695312 328.753906 C 1140.378906 322.496094 1147.1875 326.140625 1138.636719 322.890625 C 1131.269531 320.511719 1125.964844 321.78125 1121.371094 323.761719 C 1102.601562 332.003906 1110.046875 361.324219 1137.050781 358.867188 Z M 1137.050781 358.867188 " fill-opacity="1" fill-rule="nonzero"/><path fill="#545454" d="M 1095.078125 308.390625 C 1094.207031 310.210938 1095.789062 312.746094 1097.53125 313.300781 C 1099.433594 313.855469 1101.570312 312.429688 1102.285156 311.398438 C 1104.660156 307.835938 1097.847656 302.683594 1095.078125 308.390625 Z M 1095.078125 308.390625 " fill-opacity="1" fill-rule="nonzero"/><path fill="#545454" d="M 1114.558594 425.433594 C 1113.6875 427.253906 1115.273438 429.789062 1117.015625 430.34375 C 1118.914062 430.898438 1121.054688 429.472656 1121.765625 428.445312 C 1124.140625 424.878906 1117.332031 419.726562 1114.558594 425.433594 Z M 1114.558594 425.433594 " fill-opacity="1" fill-rule="nonzero"/><path fill="#545454" d="M 1193.042969 349.277344 C 1192.171875 351.101562 1193.753906 353.636719 1195.496094 354.191406 C 1197.398438 354.746094 1199.535156 353.320312 1200.25 352.289062 C 1202.625 348.722656 1195.734375 343.574219 1193.042969 349.277344 Z M 1193.042969 349.277344 " fill-opacity="1" fill-rule="nonzero"/><path fill="#545454" d="M 879.191406 372.8125 C 878.320312 374.636719 879.902344 377.171875 881.644531 377.726562 C 883.546875 378.28125 885.683594 376.855469 886.398438 375.824219 C 888.773438 372.339844 881.964844 367.109375 879.191406 372.8125 Z M 879.191406 372.8125 " fill-opacity="1" fill-rule="nonzero"/><path fill="#545454" d="M 840.070312 293.808594 C 841.96875 294.363281 844.109375 292.9375 844.820312 291.90625 C 847.195312 288.261719 840.304688 283.109375 837.613281 288.816406 C 836.742188 290.636719 838.328125 293.253906 840.070312 293.808594 Z M 840.070312 293.808594 " fill-opacity="1" fill-rule="nonzero"/><path fill="#545454" d="M 812.507812 382.246094 C 811.636719 384.066406 813.222656 386.601562 814.964844 387.15625 C 816.863281 387.710938 819.003906 386.285156 819.714844 385.253906 C 822.089844 381.769531 815.28125 376.539062 812.507812 382.246094 Z M 812.507812 382.246094 " fill-opacity="1" fill-rule="nonzero"/><path fill="#545454" d="M 971.929688 570.925781 C 973.828125 571.480469 975.96875 570.054688 976.679688 569.023438 C 979.058594 565.378906 972.167969 560.226562 969.472656 565.933594 C 968.601562 567.753906 970.109375 570.371094 971.929688 570.925781 Z M 971.929688 570.925781 " fill-opacity="1" fill-rule="nonzero"/><path fill="#545454" d="M 1054.925781 566.722656 C 1054.054688 568.546875 1055.636719 571.082031 1057.378906 571.636719 C 1059.28125 572.191406 1061.417969 570.765625 1062.132812 569.734375 C 1064.507812 566.167969 1057.699219 561.019531 1054.925781 566.722656 Z M 1054.925781 566.722656 " fill-opacity="1" fill-rule="nonzero"/><path fill="#545454" d="M 1160.253906 386.207031 C 1159.464844 382.640625 1158.988281 381.53125 1158.117188 377.648438 C 1157.085938 373.050781 1156.691406 369.882812 1155.109375 368.929688 C 1151.226562 366.792969 1150.671875 371.386719 1145.84375 387.078125 C 1131.585938 391.199219 1128.023438 392.148438 1127.308594 394.367188 C 1126.042969 398.332031 1134.28125 399.679688 1145.921875 401.105469 L 1149.960938 417.03125 C 1151.070312 420.441406 1154.632812 421.628906 1156.613281 414.574219 C 1156.613281 414.496094 1159.9375 402.847656 1160.175781 402.769531 C 1165.957031 401.183594 1176.492188 397.222656 1177.757812 396.429688 C 1186.628906 390.328125 1160.492188 387.316406 1160.253906 386.207031 Z M 1160.253906 386.207031 " fill-opacity="1" fill-rule="nonzero"/><path fill="#545454" d="M 837.851562 341.433594 C 837.058594 337.867188 836.585938 336.757812 835.714844 332.875 C 834.683594 328.277344 834.289062 325.109375 832.703125 324.160156 C 828.824219 322.019531 828.269531 326.613281 823.4375 342.304688 C 809.183594 346.425781 805.617188 347.378906 804.90625 349.597656 C 803.640625 353.558594 811.875 354.90625 823.515625 356.332031 L 827.554688 372.257812 C 828.664062 375.667969 832.230469 376.855469 834.207031 369.804688 C 834.207031 369.722656 837.535156 358.074219 837.773438 357.996094 C 843.554688 356.410156 854.085938 352.449219 855.355469 351.65625 C 864.222656 345.554688 838.011719 342.542969 837.851562 341.433594 Z M 837.851562 341.433594 " fill-opacity="1" fill-rule="nonzero"/><path fill="#545454" d="M 1174.351562 292.539062 C 1173.796875 290.082031 1173.480469 289.371094 1172.925781 286.753906 C 1172.214844 283.585938 1171.976562 281.445312 1170.867188 280.890625 C 1168.253906 279.386719 1167.859375 282.554688 1164.609375 293.175781 C 1154.949219 295.949219 1152.496094 296.660156 1152.019531 298.085938 C 1151.148438 300.78125 1156.769531 301.652344 1164.691406 302.605469 L 1167.460938 313.382812 C 1168.175781 315.679688 1170.628906 316.472656 1171.976562 311.71875 C 1171.976562 311.636719 1174.195312 303.714844 1174.351562 303.714844 C 1178.234375 302.605469 1185.441406 299.910156 1186.3125 299.355469 C 1192.328125 295.394531 1174.511719 293.332031 1174.351562 292.539062 Z M 1174.351562 292.539062 " fill-opacity="1" fill-rule="nonzero"/><path fill="#545454" d="M 871.113281 395.003906 C 870.558594 392.546875 870.242188 391.832031 869.6875 389.21875 C 868.976562 386.046875 868.738281 383.910156 867.628906 383.355469 C 865.015625 381.847656 864.621094 385.019531 861.371094 395.636719 C 851.710938 398.410156 849.253906 399.125 848.78125 400.550781 C 847.910156 403.242188 853.53125 404.117188 861.453125 405.066406 L 864.222656 415.84375 C 864.9375 418.140625 867.390625 418.933594 868.738281 414.179688 C 868.738281 414.101562 870.957031 406.175781 871.113281 406.175781 C 874.992188 405.066406 882.199219 402.371094 883.070312 401.816406 C 889.011719 397.777344 871.273438 395.714844 871.113281 395.003906 Z M 871.113281 395.003906 " fill-opacity="1" fill-rule="nonzero"/><path fill="#545454" d="M 891.941406 298.960938 C 891.386719 296.503906 891.070312 295.789062 890.515625 293.175781 C 889.804688 290.003906 889.566406 287.863281 888.457031 287.308594 C 885.84375 285.804688 885.449219 288.972656 882.199219 299.59375 C 872.539062 302.367188 870.082031 303.078125 869.609375 304.507812 C 868.738281 307.199219 874.359375 308.070312 882.28125 309.023438 L 885.050781 319.800781 C 885.765625 322.097656 888.21875 322.890625 889.566406 318.136719 C 889.566406 318.058594 891.785156 310.132812 891.941406 310.132812 C 895.824219 309.023438 903.027344 306.328125 903.898438 305.773438 C 909.839844 301.8125 892.019531 299.75 891.941406 298.960938 Z M 891.941406 298.960938 " fill-opacity="1" fill-rule="nonzero"/><path fill="#545454" d="M 967.574219 590.417969 C 967.019531 587.960938 966.703125 587.25 966.148438 584.632812 C 965.433594 581.464844 965.199219 579.324219 964.089844 578.769531 C 961.476562 577.265625 961.078125 580.433594 957.832031 591.050781 C 948.171875 593.824219 945.714844 594.539062 945.242188 595.964844 C 944.367188 598.660156 949.992188 599.53125 957.910156 600.484375 L 960.683594 611.257812 C 961.394531 613.558594 963.851562 614.351562 965.199219 609.59375 C 965.199219 609.515625 967.414062 601.59375 967.574219 601.59375 C 971.453125 600.484375 978.660156 597.789062 979.53125 597.234375 C 985.550781 593.269531 967.730469 591.210938 967.574219 590.417969 Z M 967.574219 590.417969 " fill-opacity="1" fill-rule="nonzero"/><path fill="#545454" d="M 1019.050781 569.816406 C 1018.496094 567.359375 1018.179688 566.644531 1017.625 564.03125 C 1016.910156 560.859375 1016.675781 558.722656 1015.566406 558.167969 C 1012.953125 556.660156 1012.554688 559.832031 1009.308594 570.449219 C 999.648438 573.222656 997.191406 573.9375 996.71875 575.363281 C 995.847656 578.054688 1001.46875 578.929688 1009.386719 579.878906 L 1012.160156 590.65625 C 1012.871094 592.953125 1015.328125 593.746094 1016.675781 588.992188 C 1016.675781 588.914062 1018.890625 580.988281 1019.128906 580.988281 C 1023.011719 579.878906 1030.21875 577.183594 1031.089844 576.628906 C 1036.949219 572.589844 1019.128906 570.609375 1019.050781 569.816406 Z M 1019.050781 569.816406 " fill-opacity="1" fill-rule="nonzero"/><g clip-path="url(#1859367965)"><path fill="#545454" d="M 354.875 1274.347656 C 369.785156 1278.464844 574.085938 1318.136719 579.761719 1318.945312 C 591.449219 1326.476562 600.539062 1327.25 607.128906 1325.8125 C 608.003906 1325.714844 608.886719 1325.558594 609.78125 1325.320312 C 619.050781 1322.871094 638.597656 1310.460938 628.636719 1264.226562 C 617.472656 1212.414062 607.386719 1183.324219 583.875 1128.132812 C 559.265625 1127.03125 538.640625 1125.703125 534.03125 1126.441406 C 502.246094 1126.953125 467.9375 1131.382812 439.757812 1124.730469 C 452.011719 1142.734375 467.636719 1161.5625 479.382812 1178.03125 C 486.867188 1188.53125 493.226562 1197.828125 499.328125 1206.777344 C 516.699219 1232.246094 537.445312 1255.265625 561.148438 1274.964844 C 564.179688 1277.484375 566.890625 1279.640625 569.050781 1281.191406 C 569.050781 1281.191406 549.167969 1279.679688 525.292969 1252.753906 C 497.433594 1221.324219 462.074219 1229.683594 461.996094 1229.691406 C 442.25 1232 376.433594 1240.5625 345.03125 1232.105469 C 330.421875 1226.433594 324.027344 1225.582031 318.839844 1227.664062 C 313.507812 1229.800781 306.992188 1238.035156 313.03125 1260.378906 C 316.929688 1274.796875 321.113281 1315.132812 321.292969 1315.753906 C 325.914062 1331.730469 341.671875 1334.515625 354.222656 1334.167969 L 375.226562 1333.617188 C 378.835938 1333.515625 382.289062 1331.722656 384.125 1328.609375 C 385.289062 1326.636719 385.796875 1324.203125 384.273438 1321.585938 C 383.054688 1319.492188 375.699219 1319.742188 371.058594 1319.292969 C 364.578125 1318.660156 357.585938 1306.527344 354.253906 1295.511719 C 350.605469 1283.425781 348.050781 1272.464844 354.875 1274.347656 " fill-opacity="1" fill-rule="nonzero"/></g><path fill="#545454" d="M 808.875 998.929688 L 746.746094 998.929688 L 746.746094 844.90625 Z M 740.855469 998.929688 L 678.726562 998.929688 L 740.855469 844.90625 Z M 768.695312 826.003906 L 770.378906 825.039062 C 770.949219 824.714844 771.5 824.394531 771.964844 824.097656 L 774.886719 822.269531 C 776.832031 821.050781 778.777344 819.835938 780.710938 818.625 C 788.4375 813.773438 796.039062 809 803.398438 804.382812 C 810.746094 799.75 817.855469 795.269531 824.59375 791.023438 C 827.960938 788.894531 831.238281 786.824219 834.40625 784.824219 L 835.570312 784.089844 L 836.59375 783.46875 C 837.273438 783.050781 837.964844 782.675781 838.648438 782.300781 C 840.03125 781.574219 841.414062 780.917969 842.796875 780.34375 C 848.339844 778.046875 853.808594 776.992188 858.648438 776.757812 C 859.253906 776.730469 859.851562 776.6875 860.441406 776.695312 C 861.0625 776.691406 861.679688 776.691406 862.28125 776.6875 C 863.597656 776.695312 864.867188 776.707031 866.085938 776.714844 C 868.527344 776.730469 870.765625 776.746094 872.792969 776.757812 C 874.90625 776.769531 879.351562 776.777344 884.886719 776.785156 C 884.28125 774.296875 883.929688 771.699219 883.929688 769.039062 C 883.929688 767.820312 884.011719 766.535156 884.179688 765.125 C 884.222656 763.859375 884.285156 762.535156 884.355469 761.179688 C 879.0625 761.183594 874.839844 761.195312 872.792969 761.203125 C 870.765625 761.21875 868.527344 761.238281 866.085938 761.25 C 864.867188 761.257812 863.597656 761.265625 862.28125 761.277344 C 861.566406 761.289062 860.835938 761.300781 860.097656 761.3125 C 859.320312 761.324219 858.53125 761.375 857.730469 761.421875 C 851.324219 761.835938 844.132812 763.335938 836.886719 766.484375 C 835.078125 767.269531 833.273438 768.160156 831.476562 769.152344 C 830.589844 769.65625 829.6875 770.175781 828.808594 770.726562 L 827.480469 771.574219 L 826.292969 772.351562 C 823.171875 774.402344 819.945312 776.523438 816.628906 778.707031 C 810 783.078125 803.007812 787.691406 795.777344 792.460938 C 788.550781 797.242188 781.085938 802.183594 773.496094 807.207031 C 771.605469 808.46875 769.699219 809.730469 767.796875 810.996094 L 764.925781 812.898438 C 764.433594 813.242188 763.996094 813.503906 763.570312 813.757812 L 762.277344 814.554688 C 758.769531 816.601562 754.96875 818.207031 751.109375 819.253906 C 747.253906 820.289062 743.320312 820.769531 739.628906 820.414062 C 739.511719 820.402344 739.386719 820.378906 739.269531 820.363281 C 736.910156 820.167969 724.609375 818.332031 723.832031 806.945312 C 723.785156 806.296875 723.835938 805.394531 724.414062 805.097656 C 725.542969 804.511719 726.671875 805.75 726.75 806.394531 C 727.136719 809.574219 727.238281 811.519531 729.226562 813.21875 C 735.273438 818.378906 744.625 813.859375 743.714844 805.960938 C 743.707031 805.878906 743.695312 805.804688 743.6875 805.726562 C 742.820312 799.066406 737.375 793.730469 730.695312 792.996094 C 721.773438 792.015625 714.222656 798.976562 714.222656 807.699219 C 714.222656 807.699219 714.214844 808.046875 714.257812 808.65625 C 714.277344 808.921875 714.308594 809.179688 714.335938 809.4375 C 714.347656 809.53125 714.355469 809.617188 714.371094 809.71875 C 714.390625 809.867188 714.40625 810.011719 714.433594 810.160156 C 714.671875 811.746094 715.191406 813.964844 716.296875 816.429688 C 718.261719 820.785156 722.074219 825.886719 729.5 829.523438 C 732.652344 831.066406 736.03125 832.054688 739.492188 832.53125 L 672.371094 998.929688 L 664.84375 998.929688 C 679.941406 1027.066406 709.632812 1046.203125 743.796875 1046.203125 C 777.96875 1046.203125 807.65625 1027.066406 822.757812 998.929688 L 815.230469 998.929688 L 748.144531 832.621094 C 750.203125 832.394531 752.226562 832.046875 754.203125 831.585938 C 759.316406 830.363281 764.167969 828.46875 768.695312 826.003906 " fill-opacity="1" fill-rule="nonzero"/><g clip-path="url(#fedd933e8f)"><path fill="#545454" d="M 1067.992188 998.929688 L 1005.867188 998.929688 L 1067.992188 844.90625 Z M 1073.890625 844.90625 L 1136.019531 998.929688 L 1073.890625 998.929688 Z M 941.949219 776.757812 C 943.972656 776.746094 946.214844 776.730469 948.65625 776.714844 C 949.875 776.707031 951.144531 776.695312 952.464844 776.6875 C 953.0625 776.691406 953.675781 776.691406 954.300781 776.695312 C 954.886719 776.6875 955.484375 776.730469 956.089844 776.757812 C 960.9375 776.992188 966.398438 778.046875 971.941406 780.34375 C 973.328125 780.917969 974.710938 781.574219 976.089844 782.300781 C 976.777344 782.675781 977.46875 783.050781 978.148438 783.46875 L 979.171875 784.089844 L 980.335938 784.824219 C 983.503906 786.824219 986.78125 788.894531 990.144531 791.023438 C 996.882812 795.269531 1003.992188 799.75 1011.34375 804.382812 C 1018.703125 809 1026.308594 813.773438 1034.035156 818.625 C 1035.964844 819.835938 1037.90625 821.050781 1039.851562 822.269531 L 1042.777344 824.097656 C 1043.238281 824.394531 1043.796875 824.714844 1044.367188 825.039062 L 1046.042969 826.003906 C 1050.574219 828.46875 1055.425781 830.363281 1060.535156 831.585938 C 1062.511719 832.046875 1064.539062 832.394531 1066.59375 832.621094 L 999.511719 998.929688 L 991.984375 998.929688 C 1007.085938 1027.066406 1036.777344 1046.203125 1070.941406 1046.203125 C 1105.109375 1046.203125 1134.800781 1027.066406 1149.902344 998.929688 L 1142.375 998.929688 L 1075.253906 832.53125 C 1078.707031 832.054688 1082.089844 831.066406 1085.242188 829.523438 C 1092.671875 825.886719 1096.484375 820.785156 1098.445312 816.429688 C 1099.550781 813.964844 1100.066406 811.746094 1100.308594 810.160156 C 1100.332031 810.011719 1100.351562 809.867188 1100.375 809.71875 C 1100.386719 809.617188 1100.398438 809.53125 1100.40625 809.4375 C 1100.4375 809.179688 1100.464844 808.921875 1100.480469 808.65625 C 1100.523438 808.046875 1100.519531 807.699219 1100.519531 807.699219 C 1100.519531 798.976562 1092.964844 792.015625 1084.042969 792.996094 C 1077.367188 793.730469 1071.925781 799.066406 1071.058594 805.726562 C 1071.046875 805.804688 1071.035156 805.878906 1071.027344 805.960938 C 1070.117188 813.859375 1079.46875 818.378906 1085.515625 813.21875 C 1087.507812 811.519531 1087.601562 809.574219 1087.992188 806.394531 C 1088.070312 805.75 1089.195312 804.511719 1090.328125 805.097656 C 1090.910156 805.394531 1090.957031 806.296875 1090.914062 806.945312 C 1090.132812 818.332031 1077.835938 820.167969 1075.476562 820.363281 C 1075.351562 820.378906 1075.234375 820.402344 1075.109375 820.414062 C 1071.421875 820.769531 1067.488281 820.289062 1063.632812 819.253906 C 1059.777344 818.207031 1055.96875 816.601562 1052.464844 814.554688 L 1051.167969 813.757812 C 1050.742188 813.503906 1050.3125 813.242188 1049.8125 812.898438 L 1046.949219 810.996094 C 1045.039062 809.730469 1043.140625 808.46875 1041.242188 807.207031 C 1033.65625 802.183594 1026.191406 797.242188 1018.96875 792.460938 C 1011.734375 787.691406 1004.742188 783.078125 998.113281 778.707031 C 994.796875 776.523438 991.570312 774.402344 988.449219 772.351562 L 987.265625 771.574219 L 985.9375 770.726562 C 985.050781 770.175781 984.15625 769.65625 983.261719 769.152344 C 981.46875 768.160156 979.660156 767.269531 977.855469 766.484375 C 970.613281 763.335938 963.414062 761.835938 957.015625 761.421875 C 956.210938 761.375 955.421875 761.324219 954.648438 761.3125 C 953.902344 761.300781 953.175781 761.289062 952.464844 761.277344 C 951.144531 761.265625 949.875 761.257812 948.65625 761.25 C 946.214844 761.238281 943.972656 761.21875 941.949219 761.203125 C 939.898438 761.195312 935.675781 761.183594 930.386719 761.179688 C 930.460938 762.535156 930.519531 763.859375 930.558594 765.125 C 930.730469 766.535156 930.8125 767.820312 930.8125 769.039062 C 930.8125 771.699219 930.460938 774.296875 929.855469 776.785156 C 935.390625 776.777344 939.832031 776.769531 941.949219 776.757812 " fill-opacity="1" fill-rule="nonzero"/></g><path fill="#545454" d="M 644.371094 635.359375 C 645.097656 637.003906 645.191406 638.917969 644.449219 640.707031 C 643.703125 642.496094 642.28125 643.789062 640.605469 644.429688 L 631.921875 635.507812 Z M 578.023438 708.449219 C 579.671875 705.164062 582.304688 701.484375 585.167969 697.238281 C 585.535156 696.695312 575.28125 679.898438 578.964844 672.035156 C 580.449219 671.71875 581.902344 672.660156 582.226562 674.140625 C 583.691406 680.976562 587.523438 687.566406 592.710938 692.773438 C 599.261719 698.214844 614.726562 709.492188 621.796875 701.167969 C 625.730469 696.527344 628.617188 682.234375 632.1875 677.308594 C 635.757812 672.378906 645.433594 683.035156 647.855469 672.371094 C 650.476562 659.472656 652.035156 653.664062 654.65625 640.761719 C 657.375 640.359375 659.847656 637.640625 661.902344 634.117188 C 663.851562 630.773438 664.144531 625.4375 665.515625 621.738281 C 668.738281 613.023438 671.519531 602.5 669.652344 596.160156 C 664.078125 596.980469 658.757812 596.78125 653.972656 594.894531 C 645.59375 603.988281 632.726562 600.074219 630.851562 599.246094 C 625.101562 612.667969 616.070312 614.167969 606.53125 614.558594 C 605.277344 614.609375 603.859375 616.328125 602.425781 618.203125 C 595.609375 627.117188 585.777344 624.582031 584.046875 622.824219 C 585.167969 618.722656 586.472656 615.363281 586.671875 608.457031 C 586.78125 604.839844 585.289062 599.753906 582.105469 598.265625 C 580.957031 597.738281 579.777344 597.375 578.609375 597.152344 C 575.773438 596.609375 572.984375 596.953125 570.847656 598.21875 C 565.941406 601.136719 565.066406 608.109375 564.59375 611.96875 C 563.714844 619.09375 566.511719 629.167969 576.652344 626.257812 C 577.160156 627.683594 576.414062 629.25 574.988281 629.761719 C 573.820312 630.175781 572.59375 630.378906 571.371094 630.378906 C 569.152344 630.378906 566.960938 629.695312 565.148438 628.457031 C 564.679688 628.136719 564.222656 627.804688 563.8125 627.410156 C 560.285156 623.996094 558.703125 618.691406 559.117188 611.648438 C 559.625 603.070312 563.625 594.585938 568.792969 591.328125 C 577.703125 585.710938 594.304688 591.867188 592.113281 609.167969 C 591.4375 614.492188 589.320312 619.238281 589.226562 619.574219 C 589.765625 619.652344 590.90625 619.683594 593.039062 619.21875 C 594.9375 618.808594 596.488281 616.855469 598.128906 614.792969 C 600.203125 612.183594 602.546875 609.230469 606.304688 609.078125 C 615.253906 608.714844 623.773438 604.550781 627.5 592.800781 C 632.351562 595.039062 647.273438 593.917969 652.125 587.761719 C 654.578125 589.140625 660.648438 591.117188 664.34375 591.128906 C 665.519531 591.128906 666.707031 591.140625 667.867188 590.953125 C 676.179688 589.628906 683.707031 584.746094 682.996094 575.9375 C 681.773438 560.875 668.390625 560.226562 662.453125 558.394531 C 657.171875 556.769531 655.453125 555.984375 653.1875 552.417969 C 647.195312 542.984375 636.785156 541.957031 630.925781 542.179688 C 626.5 542.347656 622.148438 541.082031 618.457031 538.738281 C 613.375 535.507812 607.835938 531.941406 597.222656 534.5 C 594.972656 535.042969 589.6875 538.648438 587.5625 539.523438 C 584.566406 540.769531 583.394531 540.769531 580.160156 540.34375 C 571.054688 539.148438 564.363281 540.460938 558.199219 544.777344 C 554.328125 547.484375 551.617188 551.496094 547.765625 554.226562 C 544.265625 556.710938 539.996094 558.023438 536.453125 560.449219 C 529.9375 564.910156 526.796875 573.265625 528.328125 580.746094 C 527.640625 582.296875 526.914062 583.886719 526.101562 585.53125 C 523.324219 591.195312 519.359375 601.160156 521.625 607.027344 C 522.3125 608.824219 523.46875 610.5 523.585938 612.40625 C 523.777344 615.515625 521.1875 618.125 520.433594 621.160156 C 519.011719 626.902344 524.359375 632.691406 523.03125 638.453125 C 522.480469 640.835938 520.847656 642.847656 519.894531 645.109375 C 516.421875 653.351562 520.132812 658.746094 526.386719 661.148438 C 516.421875 677.449219 509.332031 688.226562 500.195312 700.023438 C 525.757812 693.128906 554.066406 700.613281 578.023438 708.449219 " fill-opacity="1" fill-rule="nonzero"/><g clip-path="url(#b79bb1050c)"><path fill="#545454" d="M 907.371094 618.441406 C 913.746094 618.441406 918.917969 623.609375 918.917969 629.984375 C 918.917969 632.507812 918.097656 634.832031 916.726562 636.730469 C 915.644531 638.230469 914.214844 639.453125 912.546875 640.292969 C 911.167969 639.738281 909.277344 639.453125 907.371094 639.453125 C 905.464844 639.453125 903.574219 639.738281 902.191406 640.292969 C 900.527344 639.453125 899.09375 638.230469 898.015625 636.730469 C 896.640625 634.832031 895.824219 632.507812 895.824219 629.984375 C 895.824219 623.609375 900.992188 618.441406 907.371094 618.441406 Z M 914.484375 771.082031 C 914.425781 771.371094 914.332031 771.644531 914.246094 771.917969 C 914.203125 772.046875 914.171875 772.183594 914.121094 772.308594 C 913.988281 772.648438 913.824219 772.972656 913.644531 773.28125 C 913.605469 773.351562 913.570312 773.414062 913.527344 773.480469 C 913.328125 773.804688 913.105469 774.113281 912.859375 774.40625 C 912.492188 774.824219 912.121094 775.167969 911.726562 775.476562 C 911.472656 775.671875 911.1875 775.824219 910.90625 775.988281 C 910.722656 776.089844 910.554688 776.210938 910.363281 776.296875 C 909.992188 776.46875 909.597656 776.597656 909.195312 776.707031 C 909.105469 776.734375 909.019531 776.773438 908.925781 776.792969 C 908.425781 776.902344 907.90625 776.96875 907.371094 776.96875 C 906.917969 776.96875 906.480469 776.914062 906.054688 776.835938 C 905.925781 776.8125 905.800781 776.78125 905.679688 776.75 C 905.367188 776.671875 905.066406 776.582031 904.773438 776.464844 C 904.65625 776.421875 904.539062 776.382812 904.421875 776.332031 C 904.035156 776.160156 903.664062 775.964844 903.320312 775.734375 C 902.933594 775.46875 902.570312 775.171875 902.242188 774.84375 C 902.113281 774.710938 902.007812 774.554688 901.886719 774.410156 C 901.707031 774.203125 901.515625 774 901.359375 773.773438 C 900.578125 772.617188 900.121094 771.222656 900.121094 769.71875 C 900.121094 768.21875 900.578125 766.824219 901.359375 765.667969 C 901.515625 765.4375 901.707031 765.238281 901.886719 765.027344 C 902.007812 764.886719 902.113281 764.726562 902.242188 764.59375 C 902.570312 764.265625 902.933594 763.964844 903.320312 763.707031 C 903.667969 763.472656 904.039062 763.28125 904.421875 763.109375 C 904.539062 763.058594 904.65625 763.011719 904.773438 762.96875 C 905.066406 762.859375 905.367188 762.761719 905.679688 762.691406 C 905.800781 762.660156 905.925781 762.628906 906.054688 762.601562 C 906.480469 762.523438 906.917969 762.472656 907.371094 762.472656 C 907.90625 762.472656 908.425781 762.535156 908.925781 762.648438 C 909.019531 762.667969 909.105469 762.707031 909.195312 762.730469 C 909.597656 762.839844 909.992188 762.964844 910.363281 763.140625 C 910.554688 763.230469 910.726562 763.347656 910.90625 763.457031 C 911.1875 763.617188 911.472656 763.761719 911.726562 763.960938 C 912.128906 764.273438 912.503906 764.625 912.839844 765.011719 C 913.105469 765.320312 913.324219 765.636719 913.527344 765.957031 C 913.570312 766.023438 913.605469 766.089844 913.644531 766.152344 C 913.824219 766.464844 913.988281 766.785156 914.121094 767.125 C 914.171875 767.253906 914.203125 767.390625 914.246094 767.519531 C 914.332031 767.796875 914.425781 768.066406 914.484375 768.351562 C 914.570312 768.796875 914.621094 769.25 914.621094 769.71875 C 914.621094 770.1875 914.570312 770.640625 914.484375 771.082031 Z M 882.367188 586.921875 C 880.945312 587.894531 845.566406 624.871094 837.667969 630.171875 C 772.066406 682.8125 734.40625 705.238281 719.746094 722.097656 C 692.609375 718.625 658.070312 718.058594 627.398438 731.453125 C 625.582031 732.246094 623.777344 733.074219 621.988281 733.964844 C 621.027344 734.445312 618.667969 733.671875 615.152344 732.179688 C 615.113281 732.164062 615.070312 732.144531 615.027344 732.128906 C 612.085938 730.769531 609.0625 729.414062 605.976562 728.082031 C 605.941406 728.066406 605.898438 728.050781 605.863281 728.035156 C 605.410156 727.839844 604.953125 727.648438 604.496094 727.453125 C 604.351562 727.390625 604.21875 727.332031 604.070312 727.265625 C 599.644531 725.332031 594.542969 723.207031 588.921875 721.222656 C 587.746094 720.789062 586.621094 720.375 585.492188 719.96875 C 584.335938 719.546875 583.21875 719.152344 582.097656 718.757812 C 581.996094 718.722656 581.886719 718.6875 581.785156 718.652344 C 580.726562 718.285156 579.671875 717.921875 578.613281 717.5625 C 578.496094 717.527344 578.378906 717.488281 578.269531 717.449219 C 577.171875 717.082031 576.074219 716.71875 574.972656 716.363281 C 574.917969 716.34375 574.859375 716.324219 574.796875 716.308594 C 570.113281 714.796875 565.386719 713.394531 560.660156 712.132812 C 560.496094 712.089844 560.328125 712.050781 560.164062 712.003906 C 559.175781 711.742188 558.191406 711.488281 557.210938 711.242188 C 556.984375 711.183594 556.761719 711.128906 556.539062 711.074219 C 555.59375 710.839844 554.652344 710.609375 553.707031 710.386719 C 553.480469 710.335938 553.253906 710.28125 553.023438 710.226562 C 552.046875 710 551.074219 709.777344 550.097656 709.566406 C 549.921875 709.527344 549.746094 709.488281 549.566406 709.449219 C 546.085938 708.695312 542.625 708.03125 539.199219 707.476562 C 538.976562 707.4375 538.761719 707.40625 538.542969 707.375 C 537.65625 707.230469 536.765625 707.097656 535.882812 706.96875 C 535.5625 706.925781 535.246094 706.882812 534.925781 706.835938 C 534.136719 706.726562 533.347656 706.625 532.558594 706.527344 C 532.210938 706.484375 531.863281 706.441406 531.515625 706.398438 C 530.757812 706.3125 530 706.230469 529.25 706.15625 C 528.898438 706.117188 528.539062 706.082031 528.183594 706.046875 C 527.414062 705.972656 526.648438 705.910156 525.882812 705.847656 C 525.566406 705.820312 525.246094 705.792969 524.929688 705.773438 C 524.027344 705.707031 523.128906 705.652344 522.238281 705.605469 C 522.066406 705.597656 521.890625 705.582031 521.71875 705.574219 C 520.65625 705.523438 519.597656 705.488281 518.546875 705.460938 C 518.289062 705.453125 518.035156 705.453125 517.777344 705.449219 C 517.015625 705.4375 516.25 705.429688 515.492188 705.433594 C 514.882812 705.433594 514.285156 705.445312 513.683594 705.457031 C 513.191406 705.472656 512.699219 705.476562 512.210938 705.492188 C 511.585938 705.511719 510.964844 705.546875 510.34375 705.578125 C 509.894531 705.601562 509.4375 705.617188 508.988281 705.644531 C 508.339844 705.691406 507.699219 705.746094 507.054688 705.800781 C 506.644531 705.835938 506.226562 705.867188 505.816406 705.910156 C 505.152344 705.972656 504.496094 706.054688 503.839844 706.136719 C 503.460938 706.183594 503.078125 706.222656 502.703125 706.277344 C 502.023438 706.371094 501.355469 706.480469 500.683594 706.589844 C 500.339844 706.644531 499.996094 706.695312 499.65625 706.753906 C 498.960938 706.878906 498.28125 707.015625 497.601562 707.160156 C 497.292969 707.222656 496.976562 707.277344 496.671875 707.347656 C 495.957031 707.503906 495.257812 707.683594 494.558594 707.863281 C 494.296875 707.925781 494.027344 707.984375 493.765625 708.054688 C 492.808594 708.3125 491.871094 708.585938 490.941406 708.882812 C 489.773438 709.257812 488.65625 709.695312 487.527344 710.117188 C 486.339844 710.558594 485.167969 711.019531 484.023438 711.515625 C 479.421875 713.5 475.117188 715.855469 471.136719 718.589844 C 462.265625 724.683594 454.886719 732.492188 448.75 741.324219 C 439.546875 754.574219 433.132812 770.128906 428.683594 785.671875 C 427.691406 789.125 426.796875 792.578125 425.992188 796.007812 C 425.1875 799.433594 424.46875 802.832031 423.828125 806.183594 C 422.867188 811.207031 422.082031 816.117188 421.441406 820.824219 C 420.164062 830.238281 419.464844 838.847656 419.089844 845.953125 C 418.671875 854.019531 418.09375 861.953125 417.410156 869.664062 C 417.066406 873.515625 416.695312 877.316406 416.300781 881.046875 C 415.320312 890.375 414.207031 899.285156 413.039062 907.589844 C 412.570312 910.910156 412.097656 914.132812 411.625 917.25 C 411.144531 920.363281 410.671875 923.375 410.195312 926.261719 C 409.722656 929.148438 409.253906 931.917969 408.789062 934.550781 C 408.101562 938.503906 407.425781 942.160156 406.796875 945.480469 C 406.589844 946.589844 406.382812 947.65625 406.183594 948.6875 C 405.582031 951.78125 405.027344 954.523438 404.542969 956.875 C 403.238281 963.152344 402.40625 966.667969 402.40625 966.667969 C 401.765625 968.058594 401.140625 969.433594 400.539062 970.800781 C 400.351562 971.226562 400.175781 971.644531 399.992188 972.066406 C 399.585938 973.003906 399.179688 973.9375 398.792969 974.859375 C 398.542969 975.453125 398.308594 976.035156 398.070312 976.625 C 397.769531 977.371094 397.457031 978.113281 397.164062 978.851562 C 396.90625 979.5 396.667969 980.144531 396.417969 980.789062 C 396.164062 981.449219 395.898438 982.121094 395.652344 982.777344 C 395.417969 983.40625 395.203125 984.019531 394.976562 984.644531 C 394.734375 985.308594 394.484375 985.976562 394.253906 986.632812 C 394.042969 987.230469 393.851562 987.820312 393.648438 988.414062 C 393.421875 989.082031 393.183594 989.757812 392.964844 990.417969 C 392.765625 991.019531 392.585938 991.613281 392.394531 992.210938 C 392.191406 992.855469 391.980469 993.5 391.785156 994.136719 C 391.609375 994.726562 391.441406 995.308594 391.269531 995.890625 C 391.082031 996.523438 390.886719 997.160156 390.710938 997.789062 C 390.546875 998.355469 390.402344 998.917969 390.25 999.480469 C 390.078125 1000.109375 389.898438 1000.746094 389.738281 1001.371094 C 389.585938 1001.941406 389.457031 1002.503906 389.3125 1003.070312 C 389.164062 1003.671875 389.003906 1004.28125 388.867188 1004.875 C 388.730469 1005.445312 388.609375 1006.003906 388.484375 1006.566406 C 388.347656 1007.152344 388.207031 1007.746094 388.085938 1008.324219 C 387.964844 1008.878906 387.863281 1009.425781 387.75 1009.976562 C 387.628906 1010.550781 387.511719 1011.128906 387.398438 1011.699219 C 387.296875 1012.253906 387.199219 1012.800781 387.101562 1013.351562 C 387.003906 1013.90625 386.898438 1014.460938 386.804688 1015.003906 C 386.714844 1015.5625 386.632812 1016.109375 386.546875 1016.660156 C 386.464844 1017.183594 386.375 1017.71875 386.300781 1018.242188 C 386.21875 1018.777344 386.15625 1019.308594 386.085938 1019.84375 C 386.011719 1020.367188 385.9375 1020.898438 385.878906 1021.417969 C 385.8125 1021.929688 385.761719 1022.4375 385.707031 1022.945312 C 385.648438 1023.472656 385.585938 1024.003906 385.535156 1024.519531 C 385.488281 1025.027344 385.445312 1025.519531 385.402344 1026.019531 C 385.359375 1026.53125 385.3125 1027.050781 385.273438 1027.5625 C 385.234375 1028.058594 385.207031 1028.550781 385.175781 1029.042969 C 385.148438 1029.539062 385.109375 1030.035156 385.085938 1030.523438 C 385.058594 1031.019531 385.042969 1031.5 385.027344 1031.988281 C 385.007812 1032.46875 384.984375 1032.957031 384.972656 1033.429688 C 384.957031 1033.917969 384.957031 1034.390625 384.949219 1034.871094 C 384.941406 1035.335938 384.929688 1035.804688 384.929688 1036.261719 C 384.925781 1036.75 384.933594 1037.222656 384.9375 1037.703125 C 384.941406 1038.144531 384.941406 1038.589844 384.949219 1039.027344 C 384.960938 1039.503906 384.980469 1039.96875 384.992188 1040.433594 C 385.007812 1040.871094 385.019531 1041.304688 385.035156 1041.734375 C 385.054688 1042.1875 385.089844 1042.628906 385.113281 1043.082031 C 385.136719 1043.511719 385.15625 1043.945312 385.183594 1044.367188 C 385.214844 1044.8125 385.253906 1045.253906 385.292969 1045.691406 C 385.324219 1046.105469 385.355469 1046.523438 385.390625 1046.933594 C 385.429688 1047.371094 385.484375 1047.800781 385.527344 1048.230469 C 385.570312 1048.632812 385.605469 1049.039062 385.652344 1049.4375 C 385.707031 1049.863281 385.761719 1050.277344 385.816406 1050.699219 C 385.867188 1051.089844 385.914062 1051.488281 385.96875 1051.875 C 386.027344 1052.285156 386.09375 1052.691406 386.15625 1053.097656 C 386.214844 1053.480469 386.273438 1053.867188 386.332031 1054.246094 C 386.402344 1054.65625 386.476562 1055.054688 386.550781 1055.457031 C 386.613281 1055.820312 386.675781 1056.1875 386.742188 1056.542969 C 386.820312 1056.953125 386.90625 1057.347656 386.984375 1057.75 C 387.039062 1058.007812 387.09375 1058.269531 387.148438 1058.53125 C 388.707031 1069.085938 392.253906 1078.097656 397.523438 1085.710938 C 397.625 1085.773438 417.121094 1119.292969 471.066406 1119.402344 C 484.125 1119.429688 497.277344 1119.605469 509.503906 1119.25 C 516.671875 1118.371094 529.699219 1118.773438 545.785156 1119.527344 C 556.421875 1120.03125 568.390625 1120.679688 580.921875 1121.230469 C 580.878906 1121.121094 580.832031 1121.011719 580.785156 1120.90625 C 604.613281 1121.886719 630.511719 1122.625 660.203125 1120.792969 C 660.238281 1120.789062 660.277344 1120.785156 660.308594 1120.785156 C 667.355469 1120.351562 674.613281 1119.769531 682.109375 1119.011719 C 686.3125 1124.078125 690.488281 1130.21875 693.640625 1137.3125 C 703.300781 1159.046875 718.597656 1185.816406 741.144531 1204.332031 C 763.6875 1222.851562 816.441406 1246.332031 851.460938 1290.003906 C 857.914062 1298.050781 857.90625 1306.105469 856.292969 1310.941406 C 854.683594 1315.769531 852.265625 1331.871094 861.929688 1333.480469 C 870.382812 1334.886719 978.640625 1333.832031 1005.617188 1333.546875 C 1010.480469 1333.492188 1014.847656 1330.101562 1015.628906 1325.308594 C 1016.097656 1322.402344 1015.234375 1319.527344 1010.871094 1318.183594 C 1000.40625 1314.964844 972.230469 1317.378906 936 1293.226562 C 899.769531 1269.074219 881.046875 1259.011719 871.390625 1246.933594 C 861.730469 1234.859375 760.46875 1114.765625 741.949219 1090.613281 C 727.601562 1071.902344 716.644531 1061.917969 707.570312 1057.605469 C 703.070312 1055.023438 697.859375 1052.492188 691.757812 1050.074219 C 658.015625 1036.707031 625.261719 1026.332031 588.332031 1017.320312 C 572.261719 1013.65625 556.550781 1010.457031 542.507812 1007.550781 C 540.417969 1007.117188 538.359375 1006.683594 536.347656 1006.265625 C 532.265625 1005.410156 528.359375 1004.582031 524.65625 1003.769531 C 515.453125 1001.75 507.523438 999.855469 501.46875 998.003906 C 494.4375 995.5 487.023438 993.101562 479.40625 991.125 C 472.28125 989.277344 464.972656 987.800781 457.6875 987.015625 C 457.695312 986.96875 457.699219 986.914062 457.703125 986.863281 C 458.308594 986.3125 470.835938 983.519531 502.222656 991.257812 C 518.90625 995.367188 534.757812 994.777344 534.671875 994.175781 C 534.640625 993.976562 534.609375 993.777344 534.582031 993.578125 C 534.0625 990.089844 533.53125 986.710938 533.011719 983.503906 C 532.480469 980.210938 531.953125 977.101562 531.460938 974.242188 C 531.277344 973.183594 531.097656 972.160156 530.921875 971.175781 C 530.8125 970.5625 530.707031 969.957031 530.601562 969.375 C 529.964844 965.824219 529.402344 962.839844 528.976562 960.605469 C 528.855469 959.96875 528.746094 959.390625 528.644531 958.878906 C 528.300781 957.089844 528.101562 956.101562 528.101562 956.101562 C 549.167969 907.425781 553.554688 880.546875 553.660156 880.511719 C 552.742188 877.875 552.1875 875.175781 552.003906 872.488281 C 551.902344 870.949219 551.910156 869.421875 552.023438 867.910156 C 552.160156 866.371094 552.363281 865.015625 552.535156 863.566406 L 553.597656 855.003906 L 554.664062 863.566406 C 554.851562 864.972656 555 866.476562 555.214844 867.789062 C 555.453125 869.132812 555.777344 870.445312 556.191406 871.714844 C 556.945312 874.019531 558.015625 876.167969 559.316406 878.082031 C 561.851562 877.027344 568.574219 874.984375 575.09375 864.34375 C 578.179688 859.3125 581.121094 846.796875 582.941406 832.320312 C 583.1875 830.390625 583.414062 828.398438 583.621094 826.355469 C 583.824219 824.300781 584.015625 822.199219 584.183594 820.046875 C 584.679688 813.582031 584.980469 802.867188 584.980469 802.800781 C 580.6875 802.339844 576.398438 801.855469 572.113281 801.382812 C 570.59375 801.171875 569.269531 801.191406 567.832031 801.078125 C 567.128906 801.050781 566.417969 800.960938 565.710938 800.984375 L 563.597656 801.128906 L 561.46875 801.265625 C 560.765625 801.351562 560.078125 801.519531 559.375 801.636719 L 557.277344 802.03125 C 556.570312 802.15625 555.910156 802.433594 555.21875 802.625 C 544.21875 805.921875 534.875 810.648438 528.71875 820.742188 C 534.007812 810.167969 542.785156 800.808594 554.316406 796.210938 C 555.039062 795.9375 555.734375 795.585938 556.480469 795.382812 L 558.71875 794.753906 C 559.464844 794.558594 560.210938 794.316406 560.964844 794.15625 L 563.269531 793.804688 L 565.585938 793.457031 C 566.355469 793.363281 567.136719 793.390625 567.914062 793.351562 C 569.441406 793.328125 571.09375 793.210938 572.539062 793.289062 C 576.347656 793.382812 580.152344 793.480469 583.964844 793.570312 C 584.335938 793.582031 584.710938 793.589844 585.085938 793.597656 C 586.835938 793.632812 588.585938 793.679688 590.339844 793.703125 C 590.574219 793.707031 590.808594 793.710938 591.042969 793.714844 C 602.671875 793.921875 614.292969 794.003906 625.863281 793.78125 C 631.761719 793.640625 637.664062 793.496094 643.496094 793.144531 C 646.417969 792.976562 649.320312 792.765625 652.183594 792.503906 C 653.597656 792.351562 655.035156 792.21875 656.402344 792.023438 C 657.105469 791.9375 657.761719 791.832031 658.417969 791.722656 C 658.761719 791.675781 659.042969 791.613281 659.347656 791.554688 C 659.507812 791.523438 659.652344 791.496094 659.753906 791.46875 C 659.796875 791.457031 659.867188 791.441406 659.910156 791.429688 L 659.996094 791.78125 C 691.082031 788.660156 722.808594 782.65625 745.988281 773.226562 C 749.175781 771.925781 754.148438 769.507812 757.734375 765.816406 C 787.265625 745.738281 810.382812 716.878906 842.65625 674.1875 C 848.121094 666.945312 861.125 647.671875 866.15625 646.613281 C 870.730469 645.648438 879.289062 646.363281 886.136719 639.515625 C 887.359375 638.292969 888.539062 636.878906 889.714844 635.34375 C 890.6875 638.546875 892.519531 641.371094 894.929688 643.578125 C 896.449219 644.96875 898.191406 646.121094 900.113281 646.949219 C 900.113281 646.949219 900.113281 701.472656 900.113281 701.472656 C 894.636719 715.46875 890.582031 742.375 889.546875 761.175781 C 889.464844 762.675781 889.398438 764.136719 889.351562 765.523438 C 889.210938 766.671875 889.113281 767.839844 889.113281 769.039062 C 889.113281 771.765625 889.507812 774.371094 890.21875 776.789062 C 891.914062 782.59375 895.457031 787.296875 899.96875 789.789062 C 900.097656 790.621094 900.15625 791.410156 900.167969 792.179688 C 900.171875 792.4375 900.152344 792.679688 900.144531 792.933594 C 900.132812 793.453125 900.105469 793.960938 900.042969 794.460938 C 900.011719 794.742188 899.960938 795.015625 899.914062 795.289062 C 899.832031 795.746094 899.738281 796.195312 899.621094 796.628906 C 899.546875 796.898438 899.472656 797.167969 899.386719 797.429688 C 899.242188 797.863281 899.078125 798.285156 898.90625 798.699219 C 898.804688 798.933594 898.714844 799.175781 898.601562 799.40625 C 898.375 799.867188 898.125 800.3125 897.855469 800.753906 C 897.761719 800.90625 897.679688 801.070312 897.582031 801.222656 C 897.207031 801.796875 896.796875 802.351562 896.355469 802.871094 C 896.242188 803.007812 896.113281 803.128906 896 803.257812 C 895.65625 803.640625 895.300781 804.015625 894.925781 804.371094 C 894.746094 804.546875 894.550781 804.707031 894.359375 804.867188 C 894.027344 805.160156 893.6875 805.441406 893.335938 805.707031 C 893.121094 805.867188 892.902344 806.019531 892.683594 806.175781 C 892.324219 806.417969 891.964844 806.648438 891.597656 806.871094 C 891.367188 807.007812 891.144531 807.144531 890.914062 807.273438 C 890.511719 807.488281 890.101562 807.6875 889.683594 807.878906 C 889.476562 807.972656 889.273438 808.078125 889.066406 808.167969 C 888.476562 808.414062 887.875 808.632812 887.269531 808.820312 C 887.230469 808.832031 887.1875 808.851562 887.148438 808.867188 C 886.503906 809.0625 885.847656 809.214844 885.191406 809.34375 C 884.984375 809.382812 884.777344 809.40625 884.566406 809.4375 C 884.113281 809.511719 883.664062 809.574219 883.207031 809.609375 C 882.960938 809.632812 882.71875 809.636719 882.476562 809.648438 C 882.234375 809.660156 882 809.6875 881.765625 809.6875 C 881.523438 809.6875 881.285156 809.671875 881.039062 809.660156 C 880.929688 809.65625 880.816406 809.65625 880.707031 809.644531 C 880.105469 809.605469 879.507812 809.53125 878.921875 809.425781 C 878.796875 809.402344 878.679688 809.375 878.5625 809.351562 C 877.957031 809.226562 877.363281 809.078125 876.785156 808.878906 C 880.09375 812.609375 884.910156 814.976562 890.292969 814.976562 C 894.476562 814.976562 898.320312 813.539062 901.382812 811.152344 C 900.539062 813.609375 900.070312 816.242188 900.070312 818.984375 C 900.070312 825.742188 902.859375 831.859375 907.371094 836.296875 C 911.878906 831.859375 914.671875 825.742188 914.671875 818.984375 C 914.671875 816.242188 914.207031 813.609375 913.355469 811.152344 C 916.421875 813.539062 920.261719 814.976562 924.445312 814.976562 C 929.832031 814.976562 934.648438 812.609375 937.960938 808.878906 C 937.378906 809.078125 936.785156 809.226562 936.183594 809.351562 C 936.0625 809.375 935.941406 809.402344 935.820312 809.425781 C 935.234375 809.53125 934.636719 809.605469 934.035156 809.644531 C 933.921875 809.65625 933.8125 809.65625 933.699219 809.660156 C 933.460938 809.671875 933.21875 809.6875 932.976562 809.6875 C 932.738281 809.6875 932.503906 809.660156 932.269531 809.648438 C 932.023438 809.636719 931.777344 809.628906 931.53125 809.609375 C 931.078125 809.574219 930.625 809.511719 930.167969 809.4375 C 929.960938 809.40625 929.757812 809.382812 929.550781 809.34375 C 928.894531 809.214844 928.238281 809.0625 927.585938 808.863281 C 926.890625 808.640625 926.277344 808.417969 925.675781 808.164062 C 925.472656 808.082031 925.277344 807.976562 925.074219 807.886719 C 924.648438 807.695312 924.230469 807.492188 923.816406 807.261719 C 923.59375 807.144531 923.378906 807.011719 923.160156 806.882812 C 922.78125 806.652344 922.410156 806.417969 922.046875 806.167969 C 921.832031 806.019531 921.621094 805.867188 921.414062 805.714844 C 921.050781 805.441406 920.707031 805.152344 920.367188 804.855469 C 920.183594 804.699219 919.996094 804.546875 919.820312 804.378906 C 919.433594 804.011719 919.066406 803.625 918.71875 803.230469 C 918.609375 803.113281 918.492188 803 918.394531 802.878906 C 917.949219 802.351562 917.535156 801.796875 917.15625 801.214844 C 917.0625 801.074219 916.992188 800.925781 916.902344 800.78125 C 916.628906 800.335938 916.371094 799.875 916.140625 799.398438 C 916.03125 799.175781 915.941406 798.945312 915.84375 798.714844 C 915.664062 798.292969 915.496094 797.863281 915.355469 797.421875 C 915.269531 797.167969 915.195312 796.902344 915.121094 796.640625 C 915.003906 796.195312 914.90625 795.742188 914.828125 795.28125 C 914.78125 795.011719 914.730469 794.742188 914.695312 794.464844 C 914.636719 793.960938 914.609375 793.445312 914.597656 792.917969 C 914.589844 792.675781 914.570312 792.4375 914.574219 792.183594 C 914.589844 791.40625 914.644531 790.609375 914.773438 789.789062 C 919.285156 787.296875 922.824219 782.59375 924.527344 776.789062 C 925.234375 774.371094 925.628906 771.765625 925.628906 769.039062 C 925.628906 767.839844 925.53125 766.671875 925.386719 765.523438 C 925.34375 764.136719 925.277344 762.675781 925.191406 761.175781 C 924.15625 742.375 920.109375 715.46875 914.628906 701.472656 L 914.628906 646.949219 C 916.550781 646.121094 918.289062 644.96875 919.8125 643.578125 C 923.5 640.199219 925.824219 635.363281 925.824219 629.984375 C 925.824219 625.152344 923.945312 620.761719 920.894531 617.464844 C 926.460938 618.882812 930.667969 613.292969 925.15625 607.820312 C 921.984375 605.738281 905.078125 596.378906 904.113281 595.675781 C 901.199219 593.824219 896.535156 593.835938 892.816406 595.960938 C 889.640625 597.777344 892.441406 593.148438 896.828125 590.832031 C 899.09375 589.636719 901.824219 589.738281 904.078125 590.972656 C 907.960938 593.089844 915.046875 597.351562 921.902344 601.609375 C 924.726562 600.054688 901.15625 585.339844 900.300781 584.945312 C 893.171875 581.667969 888.105469 583.015625 882.367188 586.921875 " fill-opacity="1" fill-rule="nonzero"/></g></svg>