<svg xmlns="http://www.w3.org/2000/svg" xmlns:xlink="http://www.w3.org/1999/xlink" width="2000" zoomAndPan="magnify" viewBox="0 0 1500 1499.999933" height="2000" preserveAspectRatio="xMidYMid meet" version="1.0"><defs><clipPath id="e4073f26e0"><path d="M 566 495 L 1204.535156 495 L 1204.535156 1021.980469 L 566 1021.980469 Z M 566 495 " clip-rule="nonzero"/></clipPath><clipPath id="065e3f0e7a"><path d="M 346.21875 1017.183594 L 635.355469 1017.183594 L 635.355469 1210.617188 L 346.21875 1210.617188 Z M 346.21875 1017.183594 " clip-rule="nonzero"/></clipPath><clipPath id="90fcef9f2f"><path d="M 685 741 L 822 741 L 822 911 L 685 911 Z M 685 741 " clip-rule="nonzero"/></clipPath><clipPath id="8d8973400b"><path d="M 674.484375 733.980469 L 831.90625 738.996094 L 825.742188 932.398438 L 668.320312 927.378906 Z M 674.484375 733.980469 " clip-rule="nonzero"/></clipPath><clipPath id="aabf740a27"><path d="M 674.484375 733.980469 L 831.90625 738.996094 L 825.742188 932.398438 L 668.320312 927.378906 Z M 674.484375 733.980469 " clip-rule="nonzero"/></clipPath><clipPath id="0405cb2a91"><path d="M 736 887 L 741 887 L 741 892 L 736 892 Z M 736 887 " clip-rule="nonzero"/></clipPath><clipPath id="96f0822da2"><path d="M 674.484375 733.980469 L 831.90625 738.996094 L 825.742188 932.398438 L 668.320312 927.378906 Z M 674.484375 733.980469 " clip-rule="nonzero"/></clipPath><clipPath id="d453c98261"><path d="M 674.484375 733.980469 L 831.90625 738.996094 L 825.742188 932.398438 L 668.320312 927.378906 Z M 674.484375 733.980469 " clip-rule="nonzero"/></clipPath><clipPath id="017fe9cf8e"><path d="M 755 848 L 760 848 L 760 854 L 755 854 Z M 755 848 " clip-rule="nonzero"/></clipPath><clipPath id="5c258d09fb"><path d="M 674.484375 733.980469 L 831.90625 738.996094 L 825.742188 932.398438 L 668.320312 927.378906 Z M 674.484375 733.980469 " clip-rule="nonzero"/></clipPath><clipPath id="97b08a89eb"><path d="M 674.484375 733.980469 L 831.90625 738.996094 L 825.742188 932.398438 L 668.320312 927.378906 Z M 674.484375 733.980469 " clip-rule="nonzero"/></clipPath><clipPath id="a4c4cae7fb"><path d="M 692 842 L 698 842 L 698 847 L 692 847 Z M 692 842 " clip-rule="nonzero"/></clipPath><clipPath id="2cff71955e"><path d="M 674.484375 733.980469 L 831.90625 738.996094 L 825.742188 932.398438 L 668.320312 927.378906 Z M 674.484375 733.980469 " clip-rule="nonzero"/></clipPath><clipPath id="07552ea00f"><path d="M 674.484375 733.980469 L 831.90625 738.996094 L 825.742188 932.398438 L 668.320312 927.378906 Z M 674.484375 733.980469 " clip-rule="nonzero"/></clipPath><clipPath id="f22c1b2322"><path d="M 693 869 L 698 869 L 698 874 L 693 874 Z M 693 869 " clip-rule="nonzero"/></clipPath><clipPath id="9dec333b8e"><path d="M 674.484375 733.980469 L 831.90625 738.996094 L 825.742188 932.398438 L 668.320312 927.378906 Z M 674.484375 733.980469 " clip-rule="nonzero"/></clipPath><clipPath id="6b515d7717"><path d="M 674.484375 733.980469 L 831.90625 738.996094 L 825.742188 932.398438 L 668.320312 927.378906 Z M 674.484375 733.980469 " clip-rule="nonzero"/></clipPath><clipPath id="f8115236f1"><path d="M 744 787 L 749 787 L 749 792 L 744 792 Z M 744 787 " clip-rule="nonzero"/></clipPath><clipPath id="76aeee79d7"><path d="M 674.484375 733.980469 L 831.90625 738.996094 L 825.742188 932.398438 L 668.320312 927.378906 Z M 674.484375 733.980469 " clip-rule="nonzero"/></clipPath><clipPath id="df6252ce58"><path d="M 674.484375 733.980469 L 831.90625 738.996094 L 825.742188 932.398438 L 668.320312 927.378906 Z M 674.484375 733.980469 " clip-rule="nonzero"/></clipPath><clipPath id="afe2eb483b"><path d="M 787 739 L 792 739 L 792 744 L 787 744 Z M 787 739 " clip-rule="nonzero"/></clipPath><clipPath id="7f5b0aa71b"><path d="M 674.484375 733.980469 L 831.90625 738.996094 L 825.742188 932.398438 L 668.320312 927.378906 Z M 674.484375 733.980469 " clip-rule="nonzero"/></clipPath><clipPath id="f006b67dd6"><path d="M 674.484375 733.980469 L 831.90625 738.996094 L 825.742188 932.398438 L 668.320312 927.378906 Z M 674.484375 733.980469 " clip-rule="nonzero"/></clipPath><clipPath id="1f19c50144"><path d="M 804 808 L 809 808 L 809 813 L 804 813 Z M 804 808 " clip-rule="nonzero"/></clipPath><clipPath id="dd72d1e107"><path d="M 674.484375 733.980469 L 831.90625 738.996094 L 825.742188 932.398438 L 668.320312 927.378906 Z M 674.484375 733.980469 " clip-rule="nonzero"/></clipPath><clipPath id="55fed80450"><path d="M 674.484375 733.980469 L 831.90625 738.996094 L 825.742188 932.398438 L 668.320312 927.378906 Z M 674.484375 733.980469 " clip-rule="nonzero"/></clipPath><clipPath id="253bd9028c"><path d="M 768 916 L 773 916 L 773 921 L 768 921 Z M 768 916 " clip-rule="nonzero"/></clipPath><clipPath id="af2233d83f"><path d="M 674.484375 733.980469 L 831.90625 738.996094 L 825.742188 932.398438 L 668.320312 927.378906 Z M 674.484375 733.980469 " clip-rule="nonzero"/></clipPath><clipPath id="f35a65e771"><path d="M 674.484375 733.980469 L 831.90625 738.996094 L 825.742188 932.398438 L 668.320312 927.378906 Z M 674.484375 733.980469 " clip-rule="nonzero"/></clipPath><clipPath id="1123479d23"><path d="M 724 743 L 729 743 L 729 748 L 724 748 Z M 724 743 " clip-rule="nonzero"/></clipPath><clipPath id="73bc56284c"><path d="M 674.484375 733.980469 L 831.90625 738.996094 L 825.742188 932.398438 L 668.320312 927.378906 Z M 674.484375 733.980469 " clip-rule="nonzero"/></clipPath><clipPath id="ccfee3571a"><path d="M 674.484375 733.980469 L 831.90625 738.996094 L 825.742188 932.398438 L 668.320312 927.378906 Z M 674.484375 733.980469 " clip-rule="nonzero"/></clipPath><clipPath id="88764b9bb0"><path d="M 733 744 L 762 744 L 762 772 L 733 772 Z M 733 744 " clip-rule="nonzero"/></clipPath><clipPath id="7bb4e3c84b"><path d="M 674.484375 733.980469 L 831.90625 738.996094 L 825.742188 932.398438 L 668.320312 927.378906 Z M 674.484375 733.980469 " clip-rule="nonzero"/></clipPath><clipPath id="a8b91c96a9"><path d="M 674.484375 733.980469 L 831.90625 738.996094 L 825.742188 932.398438 L 668.320312 927.378906 Z M 674.484375 733.980469 " clip-rule="nonzero"/></clipPath><clipPath id="0c94e6e183"><path d="M 756 768 L 775 768 L 775 788 L 756 788 Z M 756 768 " clip-rule="nonzero"/></clipPath><clipPath id="806b8e7c7f"><path d="M 674.484375 733.980469 L 831.90625 738.996094 L 825.742188 932.398438 L 668.320312 927.378906 Z M 674.484375 733.980469 " clip-rule="nonzero"/></clipPath><clipPath id="567b706396"><path d="M 674.484375 733.980469 L 831.90625 738.996094 L 825.742188 932.398438 L 668.320312 927.378906 Z M 674.484375 733.980469 " clip-rule="nonzero"/></clipPath><clipPath id="75032bebe5"><path d="M 728 858 L 748 858 L 748 877 L 728 877 Z M 728 858 " clip-rule="nonzero"/></clipPath><clipPath id="998d5ad804"><path d="M 674.484375 733.980469 L 831.90625 738.996094 L 825.742188 932.398438 L 668.320312 927.378906 Z M 674.484375 733.980469 " clip-rule="nonzero"/></clipPath><clipPath id="2e8c7b8b70"><path d="M 674.484375 733.980469 L 831.90625 738.996094 L 825.742188 932.398438 L 668.320312 927.378906 Z M 674.484375 733.980469 " clip-rule="nonzero"/></clipPath><clipPath id="619ea10ede"><path d="M 720 910 L 740 910 L 740 929 L 720 929 Z M 720 910 " clip-rule="nonzero"/></clipPath><clipPath id="ce3c181777"><path d="M 674.484375 733.980469 L 831.90625 738.996094 L 825.742188 932.398438 L 668.320312 927.378906 Z M 674.484375 733.980469 " clip-rule="nonzero"/></clipPath><clipPath id="b4d8a40375"><path d="M 674.484375 733.980469 L 831.90625 738.996094 L 825.742188 932.398438 L 668.320312 927.378906 Z M 674.484375 733.980469 " clip-rule="nonzero"/></clipPath><clipPath id="34d03839f1"><path d="M 671 845 L 690 845 L 690 864 L 671 864 Z M 671 845 " clip-rule="nonzero"/></clipPath><clipPath id="04d8eec7e2"><path d="M 674.484375 733.980469 L 831.90625 738.996094 L 825.742188 932.398438 L 668.320312 927.378906 Z M 674.484375 733.980469 " clip-rule="nonzero"/></clipPath><clipPath id="23369b2a1b"><path d="M 674.484375 733.980469 L 831.90625 738.996094 L 825.742188 932.398438 L 668.320312 927.378906 Z M 674.484375 733.980469 " clip-rule="nonzero"/></clipPath><clipPath id="2aa94484c4"><path d="M 808 790 L 828 790 L 828 809 L 808 809 Z M 808 790 " clip-rule="nonzero"/></clipPath><clipPath id="cbf62e1776"><path d="M 674.484375 733.980469 L 831.90625 738.996094 L 825.742188 932.398438 L 668.320312 927.378906 Z M 674.484375 733.980469 " clip-rule="nonzero"/></clipPath><clipPath id="f90e7c002e"><path d="M 674.484375 733.980469 L 831.90625 738.996094 L 825.742188 932.398438 L 668.320312 927.378906 Z M 674.484375 733.980469 " clip-rule="nonzero"/></clipPath><clipPath id="f134700a5f"><path d="M 735 873 L 784 873 L 784 921 L 735 921 Z M 735 873 " clip-rule="nonzero"/></clipPath><clipPath id="f8f0d8bcac"><path d="M 674.484375 733.980469 L 831.90625 738.996094 L 825.742188 932.398438 L 668.320312 927.378906 Z M 674.484375 733.980469 " clip-rule="nonzero"/></clipPath><clipPath id="e84024d440"><path d="M 674.484375 733.980469 L 831.90625 738.996094 L 825.742188 932.398438 L 668.320312 927.378906 Z M 674.484375 733.980469 " clip-rule="nonzero"/></clipPath></defs><path fill="#545454" d="M 1014.125 778.234375 C 1023.039062 807.835938 1066.171875 874.628906 1092.289062 891.648438 C 1099.152344 896.117188 1088.847656 874.238281 1099.082031 837.890625 C 1075.550781 812.28125 1047.550781 792.605469 1014.125 778.234375 " fill-opacity="1" fill-rule="nonzero"/><path fill="#545454" d="M 1147.285156 644.871094 C 1149.285156 647.007812 1151.234375 649.203125 1153.160156 651.433594 C 1154.527344 638.046875 1152.335938 621.527344 1141.898438 607.65625 C 1134.589844 597.949219 1123.21875 591.523438 1116.3125 581.613281 C 1109.410156 571.703125 1107.890625 556.59375 1117.792969 549.414062 C 1105.566406 551.796875 1091.992188 545.179688 1086.902344 534.355469 C 1081.816406 523.527344 1085.753906 509.625 1095.863281 502.722656 C 1083.453125 501.292969 1070.738281 498.480469 1060.84375 491.210938 C 1050.957031 483.9375 1044.640625 471.257812 1048.417969 460.019531 C 994.824219 455.410156 926.105469 459.386719 865.355469 493.265625 C 911.382812 502.117188 950.539062 515.304688 976.234375 527.316406 C 1037.023438 555.730469 1100.289062 588.21875 1147.285156 644.871094 " fill-opacity="1" fill-rule="nonzero"/><path fill="#545454" d="M 956.578125 919.160156 C 941.328125 946.441406 946.617188 985.167969 968.507812 1006.46875 C 956.234375 1011.449219 947.964844 1026.132812 949.484375 1040.265625 C 951.003906 1054.394531 962.15625 1066.625 975.15625 1068.40625 C 955.867188 1084.074219 959.324219 1135.355469 985.804688 1153.144531 C 983.058594 1110.285156 1001.382812 1079.222656 1024.894531 1059.621094 L 1018.746094 1061.894531 L 1085.25 1011.371094 C 1110.847656 991.929688 1125.550781 958.773438 1127.664062 924.699219 C 1106.066406 964.910156 1060.308594 981.226562 1027.65625 980.308594 C 994.867188 979.390625 962.042969 954.269531 956.578125 919.160156 " fill-opacity="1" fill-rule="nonzero"/><g clip-path="url(#e4073f26e0)"><path fill="#545454" d="M 696.179688 552.730469 C 705.257812 552.730469 712.609375 560.078125 712.609375 569.144531 C 712.609375 578.21875 705.257812 585.570312 696.179688 585.570312 C 687.105469 585.570312 679.75 578.21875 679.75 569.144531 C 679.75 560.078125 687.105469 552.730469 696.179688 552.730469 Z M 615.304688 648.761719 C 623.160156 656.550781 631.695312 663.757812 640.773438 670.402344 C 646.820312 674.832031 653.121094 679.011719 659.613281 682.949219 C 664.480469 685.902344 669.46875 688.722656 674.542969 691.40625 C 679.28125 693.90625 684.101562 696.292969 688.992188 698.5625 C 715.941406 683.726562 739.3125 661.066406 753.550781 632.769531 C 770.507812 599.308594 773.417969 557.808594 760.019531 520.613281 C 777.855469 555.839844 780.941406 599.371094 766.890625 638.410156 C 757.039062 665.964844 739.460938 690.585938 717.039062 710.164062 C 722.4375 712.132812 727.878906 713.984375 733.351562 715.714844 C 742.582031 718.628906 751.894531 721.207031 761.203125 723.460938 C 776.101562 727.0625 791.007812 729.839844 805.585938 731.84375 C 812.5 732.796875 819.335938 733.5625 826.0625 734.171875 L 826.066406 734.171875 C 829.839844 738.800781 833.792969 743.257812 837.933594 747.519531 C 861.417969 771.714844 890.566406 789.542969 923.632812 795.78125 C 935.191406 797.957031 947.808594 798.539062 958.046875 792.765625 C 957.140625 791.589844 956.15625 790.476562 955.230469 789.320312 C 944.699219 776.171875 932.824219 764.097656 919.734375 753.484375 C 919.664062 753.425781 919.574219 753.351562 919.503906 753.289062 C 915.441406 749.984375 909.480469 744.851562 902.253906 738.734375 C 875.359375 715.976562 830.863281 679.667969 800.589844 673.394531 C 839.277344 672.710938 912.046875 726.410156 937.242188 743.398438 C 940.699219 743.988281 944.132812 744.601562 947.550781 745.269531 C 953.019531 746.332031 958.429688 747.511719 963.796875 748.785156 C 965.105469 749.09375 966.40625 749.414062 967.707031 749.734375 C 972.847656 751.011719 977.941406 752.367188 982.972656 753.851562 C 993.566406 756.972656 1003.898438 760.59375 1013.980469 764.710938 C 1014.875 765.078125 1015.789062 765.425781 1016.683594 765.800781 C 1022.144531 768.09375 1027.523438 770.546875 1032.816406 773.164062 C 1038.105469 775.785156 1043.308594 778.566406 1048.425781 781.527344 C 1056.09375 785.96875 1063.554688 790.800781 1070.789062 796.0625 C 1082.316406 804.429688 1093.265625 813.90625 1103.585938 824.546875 C 1104.0625 825.039062 1104.554688 825.511719 1105.027344 826.007812 C 1109.328125 830.507812 1113.507812 835.214844 1117.574219 840.148438 C 1121.210938 845.289062 1124.402344 850.71875 1127.152344 856.363281 C 1128.992188 860.125 1130.636719 863.984375 1132.082031 867.917969 C 1133.535156 871.851562 1134.796875 875.863281 1135.871094 879.929688 C 1136.9375 884 1137.820312 888.125 1138.519531 892.289062 C 1138.566406 892.5625 1138.59375 892.839844 1138.636719 893.109375 C 1139.601562 899.089844 1140.199219 905.140625 1140.40625 911.21875 C 1140.476562 913.332031 1140.503906 915.449219 1140.488281 917.566406 C 1140.488281 917.628906 1140.480469 917.695312 1140.480469 917.753906 C 1140.441406 921.789062 1140.234375 925.816406 1139.867188 929.828125 C 1139.667969 932.078125 1139.417969 934.320312 1139.113281 936.558594 C 1138.539062 940.746094 1137.789062 944.90625 1136.863281 949.011719 C 1135.941406 953.121094 1134.84375 957.179688 1133.574219 961.167969 C 1132.304688 965.15625 1130.867188 969.078125 1129.253906 972.910156 C 1128.445312 974.824219 1127.605469 976.71875 1126.714844 978.585938 C 1124.046875 984.191406 1121.003906 989.574219 1117.589844 994.667969 C 1116.453125 996.371094 1115.273438 998.035156 1114.058594 999.667969 C 1111.621094 1002.929688 1109.023438 1006.058594 1106.261719 1009.027344 C 1104.386719 1011.046875 1102.410156 1012.96875 1100.382812 1014.835938 C 1097.949219 1017.089844 1095.429688 1019.253906 1092.777344 1021.265625 C 1181.796875 988.355469 1214.859375 888.722656 1201.785156 794.324219 C 1201.148438 789.714844 1200.398438 785.125 1199.546875 780.554688 C 1198.6875 775.976562 1197.722656 771.429688 1196.648438 766.90625 C 1196.117188 764.648438 1195.554688 762.390625 1194.960938 760.148438 C 1193.78125 755.65625 1192.496094 751.195312 1191.101562 746.785156 C 1189.707031 742.367188 1188.210938 737.992188 1186.605469 733.671875 C 1185.003906 729.347656 1183.296875 725.070312 1181.488281 720.855469 C 1179.675781 716.640625 1177.757812 712.484375 1175.742188 708.394531 C 1173.722656 704.304688 1171.605469 700.28125 1169.382812 696.328125 C 1168.273438 694.355469 1167.140625 692.398438 1165.976562 690.464844 C 1161.003906 682.175781 1155.558594 674.261719 1149.671875 666.78125 C 1145.9375 662.035156 1142.039062 657.449219 1137.945312 653.085938 C 1126.738281 639.539062 1114.484375 627.378906 1101.46875 616.3125 C 1094.957031 610.789062 1088.25 605.527344 1081.390625 600.511719 C 1077.960938 598 1074.492188 595.550781 1070.984375 593.160156 C 1066.136719 589.84375 1061.199219 586.671875 1056.226562 583.558594 C 1050.417969 579.917969 1044.554688 576.371094 1038.613281 572.972656 C 1031.257812 568.761719 1023.816406 564.714844 1016.316406 560.800781 C 1001.328125 552.96875 986.113281 545.65625 970.960938 538.574219 C 969.542969 537.910156 968.089844 537.246094 966.605469 536.585938 C 966.144531 536.378906 965.664062 536.171875 965.203125 535.972656 C 964.15625 535.511719 963.117188 535.054688 962.042969 534.601562 C 961.464844 534.351562 960.863281 534.109375 960.273438 533.859375 C 959.292969 533.449219 958.320312 533.039062 957.316406 532.628906 C 956.65625 532.355469 955.96875 532.089844 955.296875 531.816406 C 954.335938 531.433594 953.375 531.050781 952.394531 530.664062 C 951.699219 530.394531 950.988281 530.125 950.28125 529.855469 C 949.289062 529.472656 948.292969 529.09375 947.277344 528.710938 C 946.550781 528.441406 945.808594 528.167969 945.078125 527.902344 C 944.066406 527.527344 943.054688 527.15625 942.023438 526.789062 C 941.265625 526.515625 940.492188 526.25 939.722656 525.976562 C 938.675781 525.605469 937.628906 525.242188 936.570312 524.875 C 935.796875 524.609375 935.011719 524.347656 934.226562 524.082031 C 933.148438 523.71875 932.066406 523.355469 930.964844 522.992188 C 930.175781 522.734375 929.375 522.472656 928.578125 522.214844 C 927.460938 521.859375 926.34375 521.5 925.214844 521.144531 C 924.402344 520.886719 923.585938 520.632812 922.765625 520.378906 C 921.625 520.027344 920.46875 519.679688 919.3125 519.328125 C 918.484375 519.078125 917.660156 518.832031 916.820312 518.582031 C 915.636719 518.230469 914.449219 517.882812 913.25 517.542969 C 912.421875 517.304688 911.597656 517.0625 910.769531 516.832031 C 909.53125 516.480469 908.285156 516.136719 907.035156 515.789062 C 906.214844 515.566406 905.390625 515.335938 904.558594 515.117188 C 903.269531 514.769531 901.976562 514.425781 900.679688 514.085938 C 899.867188 513.875 899.058594 513.660156 898.238281 513.449219 C 896.882812 513.101562 895.519531 512.761719 894.152344 512.417969 C 893.375 512.222656 892.59375 512.023438 891.808594 511.832031 C 890.359375 511.476562 888.898438 511.128906 887.433594 510.785156 C 886.710938 510.613281 885.984375 510.4375 885.25 510.269531 C 883.6875 509.902344 882.105469 509.546875 880.523438 509.195312 C 879.875 509.050781 879.238281 508.90625 878.59375 508.761719 C 876.765625 508.359375 874.917969 507.964844 873.066406 507.574219 C 872.652344 507.492188 872.25 507.402344 871.839844 507.316406 C 867.246094 506.363281 862.59375 505.449219 857.882812 504.59375 C 857.632812 504.546875 857.386719 504.503906 857.140625 504.460938 C 855.066406 504.082031 852.976562 503.710938 850.875 503.355469 C 850.398438 503.269531 849.910156 503.195312 849.429688 503.117188 C 849.246094 503.082031 849.0625 503.054688 848.875 503.023438 C 847.191406 502.742188 845.511719 502.464844 843.8125 502.195312 C 842.976562 502.0625 842.125 501.9375 841.28125 501.808594 C 839.746094 501.574219 838.207031 501.335938 836.667969 501.117188 C 835.734375 500.980469 834.800781 500.851562 833.867188 500.722656 C 832.402344 500.515625 830.941406 500.3125 829.46875 500.113281 C 828.476562 499.984375 827.480469 499.863281 826.484375 499.734375 C 825.058594 499.550781 823.632812 499.375 822.203125 499.203125 C 821.179688 499.078125 820.140625 498.960938 819.117188 498.84375 C 817.710938 498.6875 816.300781 498.527344 814.886719 498.375 C 813.828125 498.265625 812.769531 498.15625 811.707031 498.050781 C 810.324219 497.910156 808.9375 497.773438 807.546875 497.644531 C 806.457031 497.542969 805.371094 497.449219 804.277344 497.355469 C 802.90625 497.234375 801.527344 497.117188 800.144531 497.007812 C 799.042969 496.925781 797.941406 496.839844 796.839844 496.757812 C 795.472656 496.65625 794.105469 496.5625 792.734375 496.476562 C 791.609375 496.398438 790.484375 496.332031 789.355469 496.265625 C 787.996094 496.183594 786.636719 496.113281 785.28125 496.042969 C 784.148438 495.988281 783.023438 495.933594 781.890625 495.878906 C 780.53125 495.820312 779.167969 495.769531 777.808594 495.722656 C 776.671875 495.679688 775.535156 495.636719 774.398438 495.605469 C 773.027344 495.5625 771.65625 495.535156 770.289062 495.503906 C 769.164062 495.480469 768.042969 495.460938 766.917969 495.441406 C 765.535156 495.421875 764.148438 495.417969 762.761719 495.40625 C 761.625 495.402344 760.492188 495.394531 759.359375 495.394531 C 758.3125 495.398438 757.269531 495.40625 756.222656 495.417969 C 754.902344 495.429688 753.582031 495.441406 752.257812 495.464844 C 751.214844 495.480469 750.167969 495.511719 749.117188 495.535156 C 747.800781 495.566406 746.484375 495.597656 745.164062 495.644531 C 744.117188 495.679688 743.078125 495.722656 742.039062 495.761719 C 740.714844 495.816406 739.398438 495.875 738.082031 495.941406 C 737.035156 495.992188 735.992188 496.050781 734.953125 496.109375 C 733.640625 496.183594 732.328125 496.265625 731.019531 496.347656 C 729.980469 496.417969 728.941406 496.492188 727.90625 496.570312 C 726.585938 496.667969 725.265625 496.773438 723.949219 496.886719 C 722.933594 496.972656 721.921875 497.054688 720.910156 497.148438 C 719.5625 497.277344 718.214844 497.40625 716.875 497.546875 C 715.894531 497.644531 714.917969 497.75 713.9375 497.855469 C 712.574219 498.007812 711.210938 498.171875 709.851562 498.335938 C 708.894531 498.453125 707.933594 498.570312 706.980469 498.691406 C 705.589844 498.875 704.203125 499.066406 702.816406 499.261719 C 701.910156 499.386719 700.996094 499.515625 700.09375 499.652344 C 698.636719 499.871094 697.191406 500.101562 695.746094 500.339844 C 694.910156 500.476562 694.070312 500.601562 693.242188 500.746094 C 691.714844 501.003906 690.195312 501.285156 688.671875 501.566406 C 687.925781 501.703125 687.171875 501.832031 686.421875 501.980469 C 684.75 502.300781 683.085938 502.644531 681.421875 502.988281 C 680.839844 503.113281 680.253906 503.222656 679.679688 503.347656 C 677.570312 503.800781 675.46875 504.277344 673.378906 504.773438 C 673.253906 504.804688 673.121094 504.832031 672.992188 504.859375 C 668.484375 505.9375 664.019531 507.113281 659.613281 508.390625 C 659.242188 508.5 658.875 508.613281 658.511719 508.722656 C 656.714844 509.253906 654.921875 509.789062 653.140625 510.359375 C 652.535156 510.550781 651.933594 510.753906 651.335938 510.953125 C 649.808594 511.449219 648.273438 511.949219 646.761719 512.472656 C 646.042969 512.722656 645.339844 512.984375 644.628906 513.238281 C 643.230469 513.734375 641.839844 514.234375 640.460938 514.753906 C 639.699219 515.042969 638.945312 515.339844 638.183594 515.636719 C 636.871094 516.144531 635.554688 516.660156 634.253906 517.195312 C 633.464844 517.519531 632.683594 517.851562 631.894531 518.183594 C 630.644531 518.714844 629.394531 519.246094 628.152344 519.800781 C 627.339844 520.15625 626.539062 520.519531 625.738281 520.890625 C 624.539062 521.4375 623.339844 521.996094 622.152344 522.566406 C 621.332031 522.957031 620.527344 523.355469 619.714844 523.757812 C 618.554688 524.328125 617.398438 524.914062 616.253906 525.507812 C 615.441406 525.925781 614.636719 526.351562 613.828125 526.78125 C 612.699219 527.386719 611.578125 528 610.464844 528.625 C 609.664062 529.074219 608.863281 529.527344 608.066406 529.988281 C 606.96875 530.617188 605.882812 531.265625 604.796875 531.917969 C 604.007812 532.394531 603.214844 532.871094 602.425781 533.363281 C 601.359375 534.027344 600.304688 534.707031 599.253906 535.390625 C 598.476562 535.898438 597.695312 536.398438 596.925781 536.917969 C 595.882812 537.617188 594.855469 538.332031 593.828125 539.054688 C 593.066406 539.582031 592.308594 540.113281 591.558594 540.652344 C 590.542969 541.390625 589.535156 542.148438 588.53125 542.910156 C 587.796875 543.460938 587.058594 544.007812 586.332031 544.574219 C 585.324219 545.359375 584.335938 546.167969 583.34375 546.976562 C 582.648438 547.546875 581.945312 548.101562 581.257812 548.683594 C 580.238281 549.539062 579.238281 550.425781 578.234375 551.304688 C 577.601562 551.863281 576.960938 552.40625 576.335938 552.972656 C 575.246094 553.960938 574.179688 554.984375 573.113281 556 C 572.597656 556.492188 572.074219 556.96875 571.5625 557.46875 C 570 558.996094 568.460938 560.554688 566.949219 562.152344 C 573.542969 592.894531 588.015625 618.945312 607.691406 640.773438 C 610.148438 643.503906 612.691406 646.164062 615.304688 648.761719 " fill-opacity="1" fill-rule="nonzero"/></g><path fill="#545454" d="M 486.238281 890.828125 C 477.324219 861.234375 434.195312 794.4375 408.074219 777.414062 C 401.210938 772.949219 411.519531 794.824219 401.289062 831.179688 C 424.8125 856.785156 452.816406 876.464844 486.238281 890.828125 " fill-opacity="1" fill-rule="nonzero"/><g clip-path="url(#065e3f0e7a)"><path fill="#545454" d="M 353.078125 1024.195312 C 351.082031 1022.058594 349.128906 1019.863281 347.210938 1017.632812 C 345.835938 1031.019531 348.03125 1047.539062 358.46875 1061.410156 C 365.769531 1071.113281 377.148438 1077.539062 384.050781 1087.449219 C 390.953125 1097.363281 392.472656 1112.476562 382.570312 1119.652344 C 394.796875 1117.265625 408.375 1123.882812 413.464844 1134.714844 C 418.546875 1145.542969 414.613281 1159.441406 404.507812 1166.339844 C 416.914062 1167.769531 429.628906 1170.585938 439.519531 1177.855469 C 449.410156 1185.128906 455.726562 1197.804688 451.949219 1209.046875 C 505.542969 1213.65625 574.261719 1209.679688 635.011719 1175.796875 C 588.984375 1166.949219 549.824219 1153.761719 524.132812 1141.753906 C 463.347656 1113.332031 400.074219 1080.851562 353.078125 1024.195312 " fill-opacity="1" fill-rule="nonzero"/></g><path fill="#545454" d="M 372.699219 744.363281 C 394.300781 704.15625 440.054688 687.835938 472.710938 688.753906 C 505.496094 689.679688 538.320312 714.800781 543.785156 749.90625 C 559.035156 722.621094 553.75 683.902344 531.859375 662.597656 C 544.136719 657.613281 552.398438 642.929688 550.878906 628.800781 C 549.363281 614.671875 538.210938 602.445312 525.207031 600.65625 C 544.496094 584.992188 541.039062 533.714844 514.566406 515.921875 C 517.304688 558.78125 498.980469 589.847656 475.46875 609.449219 L 481.617188 607.171875 L 415.113281 657.695312 C 389.515625 677.140625 374.820312 710.289062 372.699219 744.363281 " fill-opacity="1" fill-rule="nonzero"/><path fill="#545454" d="M 804.183594 1083.5 C 813.257812 1083.5 820.617188 1090.847656 820.617188 1099.917969 C 820.617188 1108.984375 813.257812 1116.339844 804.183594 1116.339844 C 795.113281 1116.339844 787.753906 1108.984375 787.753906 1099.917969 C 787.753906 1090.847656 795.113281 1083.5 804.183594 1083.5 Z M 296.996094 860.902344 C 297.417969 865.523438 297.941406 870.140625 298.578125 874.746094 C 299.214844 879.351562 299.964844 883.945312 300.824219 888.515625 C 301.675781 893.085938 302.640625 897.640625 303.714844 902.160156 C 312.445312 938.976562 328.324219 973.839844 350.691406 1002.285156 C 354.425781 1007.035156 358.328125 1011.613281 362.417969 1015.980469 C 368.023438 1022.75 373.890625 1029.183594 379.976562 1035.292969 C 386.070312 1041.410156 392.386719 1047.21875 398.898438 1052.75 C 405.410156 1058.28125 412.113281 1063.535156 418.972656 1068.558594 C 425.835938 1073.574219 432.855469 1078.355469 439.992188 1082.929688 C 450.707031 1089.796875 461.695312 1096.210938 472.847656 1102.292969 C 480.277344 1106.34375 487.785156 1110.25 495.328125 1114.042969 C 502.871094 1117.84375 510.449219 1121.523438 518.03125 1125.128906 C 521.824219 1126.933594 525.617188 1128.71875 529.402344 1130.488281 C 530.820312 1131.152344 532.273438 1131.820312 533.757812 1132.480469 C 534.230469 1132.691406 534.722656 1132.902344 535.199219 1133.113281 C 536.230469 1133.5625 537.261719 1134.015625 538.320312 1134.464844 C 538.902344 1134.71875 539.511719 1134.964844 540.101562 1135.214844 C 541.078125 1135.621094 542.046875 1136.027344 543.042969 1136.433594 C 543.714844 1136.707031 544.410156 1136.980469 545.09375 1137.257812 C 546.042969 1137.636719 546.996094 1138.019531 547.964844 1138.398438 C 548.667969 1138.671875 549.390625 1138.945312 550.097656 1139.21875 C 551.085938 1139.597656 552.074219 1139.976562 553.082031 1140.351562 C 553.8125 1140.625 554.558594 1140.894531 555.300781 1141.167969 C 556.308594 1141.542969 557.316406 1141.90625 558.339844 1142.277344 C 559.101562 1142.546875 559.875 1142.820312 560.640625 1143.09375 C 561.6875 1143.457031 562.738281 1143.828125 563.796875 1144.191406 C 564.574219 1144.453125 565.355469 1144.722656 566.140625 1144.984375 C 567.21875 1145.347656 568.300781 1145.710938 569.390625 1146.070312 C 570.1875 1146.328125 570.988281 1146.589844 571.796875 1146.847656 C 572.90625 1147.207031 574.027344 1147.566406 575.152344 1147.921875 C 575.960938 1148.179688 576.777344 1148.429688 577.597656 1148.683594 C 578.742188 1149.039062 579.898438 1149.390625 581.0625 1149.742188 C 581.882812 1149.992188 582.703125 1150.234375 583.527344 1150.476562 C 584.722656 1150.835938 585.925781 1151.179688 587.136719 1151.53125 C 587.949219 1151.765625 588.773438 1152 589.601562 1152.234375 C 590.832031 1152.585938 592.078125 1152.925781 593.324219 1153.273438 C 594.152344 1153.5 594.976562 1153.730469 595.808594 1153.953125 C 597.097656 1154.300781 598.402344 1154.640625 599.707031 1154.988281 C 600.511719 1155.195312 601.308594 1155.40625 602.113281 1155.617188 C 603.476562 1155.960938 604.855469 1156.308594 606.238281 1156.65625 C 607.011719 1156.847656 607.777344 1157.039062 608.558594 1157.230469 C 610 1157.585938 611.453125 1157.929688 612.910156 1158.277344 C 613.644531 1158.449219 614.378906 1158.628906 615.117188 1158.800781 C 616.683594 1159.160156 618.257812 1159.515625 619.835938 1159.867188 C 620.484375 1160.015625 621.125 1160.164062 621.773438 1160.304688 C 623.597656 1160.707031 625.433594 1161.097656 627.269531 1161.484375 C 627.691406 1161.574219 628.109375 1161.664062 628.53125 1161.75 C 633.128906 1162.707031 637.78125 1163.617188 642.496094 1164.476562 C 642.683594 1164.511719 642.875 1164.542969 643.0625 1164.582031 C 645.191406 1164.964844 647.332031 1165.34375 649.484375 1165.710938 C 649.964844 1165.792969 650.453125 1165.875 650.9375 1165.953125 C 651.113281 1165.980469 651.289062 1166.007812 651.460938 1166.035156 C 653.15625 1166.324219 654.859375 1166.605469 656.570312 1166.871094 C 657.390625 1167 658.21875 1167.125 659.039062 1167.25 C 660.589844 1167.488281 662.140625 1167.726562 663.703125 1167.953125 C 664.621094 1168.082031 665.550781 1168.210938 666.472656 1168.339844 C 667.949219 1168.546875 669.425781 1168.753906 670.910156 1168.949219 C 671.894531 1169.082031 672.878906 1169.203125 673.867188 1169.328125 C 675.296875 1169.511719 676.726562 1169.695312 678.160156 1169.863281 C 679.1875 1169.988281 680.222656 1170.101562 681.257812 1170.222656 C 682.664062 1170.382812 684.070312 1170.539062 685.476562 1170.6875 C 686.53125 1170.800781 687.585938 1170.90625 688.640625 1171.015625 C 690.035156 1171.15625 691.433594 1171.292969 692.832031 1171.421875 C 693.917969 1171.523438 695 1171.621094 696.078125 1171.707031 C 697.460938 1171.832031 698.835938 1171.949219 700.214844 1172.054688 C 701.320312 1172.144531 702.421875 1172.230469 703.527344 1172.308594 C 704.890625 1172.40625 706.261719 1172.5 707.625 1172.589844 C 708.753906 1172.664062 709.878906 1172.734375 711.011719 1172.800781 C 712.367188 1172.878906 713.726562 1172.953125 715.085938 1173.023438 C 716.214844 1173.082031 717.34375 1173.136719 718.472656 1173.183594 C 719.832031 1173.246094 721.195312 1173.296875 722.554688 1173.347656 C 723.695312 1173.386719 724.828125 1173.425781 725.96875 1173.460938 C 727.335938 1173.503906 728.707031 1173.53125 730.078125 1173.558594 C 731.203125 1173.582031 732.320312 1173.605469 733.453125 1173.625 C 734.835938 1173.644531 736.214844 1173.652344 737.605469 1173.65625 C 738.738281 1173.667969 739.871094 1173.675781 741.007812 1173.671875 C 742.054688 1173.671875 743.105469 1173.65625 744.15625 1173.648438 C 745.46875 1173.636719 746.78125 1173.625 748.09375 1173.601562 C 749.15625 1173.582031 750.214844 1173.554688 751.285156 1173.53125 C 752.582031 1173.496094 753.882812 1173.464844 755.183594 1173.421875 C 756.242188 1173.386719 757.300781 1173.34375 758.359375 1173.300781 C 759.664062 1173.25 760.960938 1173.195312 762.265625 1173.128906 C 763.324219 1173.078125 764.378906 1173.015625 765.4375 1172.953125 C 766.738281 1172.878906 768.039062 1172.800781 769.339844 1172.714844 C 770.382812 1172.644531 771.421875 1172.570312 772.460938 1172.496094 C 773.785156 1172.398438 775.101562 1172.289062 776.417969 1172.183594 C 777.433594 1172.09375 778.445312 1172.007812 779.457031 1171.914062 C 780.800781 1171.789062 782.136719 1171.65625 783.46875 1171.523438 C 784.464844 1171.417969 785.453125 1171.316406 786.441406 1171.207031 C 787.800781 1171.058594 789.152344 1170.894531 790.503906 1170.730469 C 791.464844 1170.613281 792.425781 1170.5 793.386719 1170.375 C 794.773438 1170.195312 796.15625 1170 797.542969 1169.800781 C 798.453125 1169.675781 799.367188 1169.550781 800.277344 1169.414062 C 801.71875 1169.199219 803.152344 1168.96875 804.585938 1168.734375 C 805.4375 1168.59375 806.289062 1168.464844 807.136719 1168.316406 C 808.652344 1168.058594 810.160156 1167.785156 811.667969 1167.503906 C 812.429688 1167.363281 813.1875 1167.230469 813.941406 1167.085938 C 815.609375 1166.769531 817.273438 1166.425781 818.933594 1166.078125 C 819.519531 1165.957031 820.105469 1165.839844 820.691406 1165.71875 C 822.753906 1165.273438 824.804688 1164.808594 826.851562 1164.324219 C 827.03125 1164.285156 827.203125 1164.246094 827.382812 1164.207031 C 831.886719 1163.132812 836.339844 1161.957031 840.742188 1160.679688 C 841.148438 1160.5625 841.546875 1160.433594 841.949219 1160.3125 C 843.710938 1159.796875 845.46875 1159.265625 847.214844 1158.710938 C 847.839844 1158.515625 848.453125 1158.304688 849.078125 1158.097656 C 850.589844 1157.605469 852.105469 1157.109375 853.597656 1156.589844 C 854.324219 1156.34375 855.039062 1156.078125 855.753906 1155.820312 C 857.136719 1155.332031 858.523438 1154.832031 859.894531 1154.3125 C 860.671875 1154.023438 861.433594 1153.71875 862.207031 1153.417969 C 863.511719 1152.914062 864.8125 1152.402344 866.101562 1151.875 C 866.898438 1151.546875 867.691406 1151.207031 868.488281 1150.871094 C 869.734375 1150.347656 870.976562 1149.816406 872.214844 1149.269531 C 873.023438 1148.910156 873.824219 1148.542969 874.632812 1148.171875 C 875.832031 1147.625 877.027344 1147.074219 878.210938 1146.5 C 879.03125 1146.109375 879.84375 1145.710938 880.660156 1145.308594 C 881.8125 1144.734375 882.960938 1144.15625 884.101562 1143.566406 C 884.917969 1143.144531 885.734375 1142.707031 886.550781 1142.277344 C 887.667969 1141.675781 888.785156 1141.0625 889.890625 1140.445312 C 890.703125 1139.996094 891.507812 1139.542969 892.308594 1139.078125 C 893.398438 1138.449219 894.480469 1137.808594 895.550781 1137.15625 C 896.355469 1136.675781 897.15625 1136.1875 897.945312 1135.695312 C 899.007812 1135.035156 900.054688 1134.363281 901.101562 1133.683594 C 901.882812 1133.171875 902.671875 1132.667969 903.445312 1132.148438 C 904.480469 1131.453125 905.5 1130.738281 906.523438 1130.023438 C 907.289062 1129.484375 908.054688 1128.957031 908.816406 1128.410156 C 909.828125 1127.671875 910.824219 1126.917969 911.824219 1126.164062 C 912.5625 1125.609375 913.304688 1125.058594 914.03125 1124.492188 C 915.039062 1123.707031 916.027344 1122.894531 917.019531 1122.089844 C 917.714844 1121.519531 918.417969 1120.960938 919.105469 1120.386719 C 920.125 1119.527344 921.121094 1118.648438 922.121094 1117.769531 C 922.757812 1117.207031 923.402344 1116.65625 924.03125 1116.089844 C 925.121094 1115.101562 926.179688 1114.089844 927.242188 1113.074219 C 927.761719 1112.582031 928.292969 1112.101562 928.804688 1111.601562 C 930.363281 1110.074219 931.90625 1108.507812 933.414062 1106.917969 C 926.820312 1076.171875 912.351562 1050.117188 892.675781 1028.292969 C 890.21875 1025.566406 887.675781 1022.902344 885.058594 1020.308594 C 877.210938 1012.511719 868.675781 1005.308594 859.59375 998.664062 C 854.125 994.660156 848.445312 990.867188 842.605469 987.265625 C 840.375 985.886719 838.125 984.527344 835.847656 983.207031 C 834.195312 982.253906 832.539062 981.316406 830.871094 980.390625 C 828.335938 978.988281 825.765625 977.628906 823.179688 976.296875 C 819.496094 974.394531 815.769531 972.558594 811.996094 970.796875 C 811.789062 970.699219 811.585938 970.601562 811.375 970.5 C 784.425781 985.339844 761.050781 1008 746.816406 1036.300781 C 729.855469 1069.761719 726.945312 1111.257812 740.34375 1148.449219 C 722.507812 1113.226562 719.425781 1069.695312 733.476562 1030.65625 C 743.332031 1003.105469 760.90625 978.484375 783.324219 958.90625 C 780.207031 957.765625 777.078125 956.675781 773.933594 955.617188 C 771.632812 954.84375 769.328125 954.085938 767.011719 953.355469 C 759.628906 951.019531 752.199219 948.90625 744.75 947 C 742.890625 946.523438 741.023438 946.058594 739.160156 945.609375 C 733.960938 944.347656 728.761719 943.195312 723.578125 942.136719 C 717.617188 940.925781 711.671875 939.828125 705.769531 938.875 C 702.089844 938.273438 698.425781 937.726562 694.777344 937.226562 C 691.136719 936.722656 687.515625 936.269531 683.914062 935.867188 C 680.6875 935.5 677.484375 935.183594 674.304688 934.890625 C 670.53125 930.265625 666.570312 925.804688 662.433594 921.546875 C 638.953125 897.351562 609.796875 879.523438 576.730469 873.289062 C 565.175781 871.109375 552.5625 870.527344 542.324219 876.300781 C 543.226562 877.476562 544.210938 878.585938 545.140625 879.742188 C 555.664062 892.894531 567.539062 904.96875 580.628906 915.582031 C 580.699219 915.644531 580.789062 915.714844 580.859375 915.773438 C 584.925781 919.082031 590.882812 924.21875 598.117188 930.332031 C 625.011719 953.09375 669.5 989.394531 699.777344 995.675781 C 661.09375 996.359375 588.320312 942.652344 563.121094 925.664062 C 538.3125 921.445312 514.464844 915.292969 491.933594 906.589844 C 490.074219 905.871094 488.230469 905.109375 486.390625 904.355469 C 482.75 902.867188 479.125 901.335938 475.554688 899.703125 C 467.488281 896.023438 459.609375 891.976562 451.945312 887.535156 C 449.386719 886.054688 446.855469 884.535156 444.34375 882.964844 C 436.816406 878.257812 429.496094 873.148438 422.414062 867.609375 C 415.71875 862.371094 409.234375 856.738281 402.96875 850.695312 C 400.886719 848.679688 398.816406 846.621094 396.78125 844.519531 C 391.984375 839.570312 387.308594 834.398438 382.796875 828.921875 C 379.160156 823.773438 375.964844 818.347656 373.210938 812.707031 C 367.582031 801.171875 363.792969 788.730469 361.730469 775.953125 C 361.101562 772.058594 360.617188 768.132812 360.3125 764.191406 C 359.984375 759.96875 359.839844 755.734375 359.878906 751.496094 C 359.898438 749.378906 359.960938 747.261719 360.070312 745.144531 C 360.285156 740.917969 360.679688 736.695312 361.257812 732.507812 C 361.828125 728.316406 362.578125 724.160156 363.5 720.050781 C 364.425781 715.945312 365.523438 711.882812 366.796875 707.898438 C 368.0625 703.90625 369.503906 699.988281 371.113281 696.15625 C 371.917969 694.238281 372.765625 692.347656 373.652344 690.480469 C 378.984375 679.269531 385.828125 668.949219 394.101562 660.035156 C 395.976562 658.015625 397.957031 656.101562 399.980469 654.234375 C 402.417969 651.980469 404.9375 649.8125 407.585938 647.796875 C 388.042969 655.023438 371.199219 665.464844 356.949219 678.359375 C 345.867188 688.386719 336.347656 699.898438 328.351562 712.535156 C 320.351562 725.175781 313.875 738.941406 308.867188 753.472656 C 306.722656 759.703125 304.84375 766.074219 303.238281 772.554688 C 300.550781 783.359375 298.613281 794.476562 297.386719 805.78125 C 296.902344 810.300781 296.527344 814.851562 296.269531 819.421875 C 295.753906 828.566406 295.691406 837.792969 296.082031 847.03125 C 296.273438 851.65625 296.578125 856.277344 296.996094 860.902344 " fill-opacity="1" fill-rule="nonzero"/><g clip-path="url(#90fcef9f2f)"><g clip-path="url(#8d8973400b)"><g clip-path="url(#aabf740a27)"><path fill="#545454" d="M 816.480469 820.746094 C 812.980469 819.949219 789.035156 818.609375 788.957031 818.609375 C 791.703125 798.535156 795.277344 783.769531 807.746094 766.496094 C 809.832031 763.578125 816.257812 755.632812 818.972656 753.347656 C 820.550781 751.984375 822 749.8125 820.605469 747.777344 C 818.523438 744.652344 815.652344 745.746094 813.066406 747.539062 C 806.246094 752.292969 802.097656 754.953125 795.835938 763.859375 C 780.101562 786.269531 775.878906 817.769531 776.03125 817.8125 C 763.121094 816.484375 764.207031 816.023438 728.894531 815.433594 C 727.59375 798.445312 723.097656 780.859375 714.882812 765.675781 C 708.765625 754.351562 705 751.132812 697.472656 744.390625 C 696.132812 743.199219 694.605469 741.773438 692.691406 741.710938 C 689.820312 741.621094 687.75 744.003906 688.394531 746.703125 C 689.003906 749.207031 689.789062 747.394531 698.46875 760.066406 C 711.214844 778.605469 714.15625 793.273438 715.878906 815.015625 C 715.875 815.132812 703.421875 815.003906 702.238281 814.964844 C 698.25 814.953125 694.253906 815.398438 690.269531 815.273438 C 686.210938 815.144531 684.441406 821.4375 687.238281 823.859375 C 688.648438 825.28125 690.105469 825.289062 692.089844 825.582031 C 692.164062 825.585938 716.261719 828.226562 716.335938 828.230469 C 716.167969 839.621094 713.546875 852.085938 710.019531 862.914062 C 698.6875 897.476562 687.429688 898.382812 688.667969 904.082031 C 689.367188 907.355469 693.90625 908 696.550781 906.859375 C 703.582031 903.871094 713.007812 888.292969 716.558594 881.40625 C 723.542969 867.9375 728.46875 855.238281 729.199219 828.675781 C 746.789062 829.886719 757.402344 829.996094 774.988281 830.097656 C 773.992188 857.761719 778.894531 880.640625 795.828125 903.632812 C 797.996094 906.570312 801.207031 910.421875 804.832031 910.921875 C 809.980469 911.660156 812.503906 907.035156 809.507812 903.6875 C 795.140625 887.964844 786.722656 851.511719 787.824219 830.164062 C 818.363281 830.257812 818.59375 829.039062 819.449219 826.160156 C 820.09375 823.960938 818.800781 821.28125 816.480469 820.746094 Z M 816.480469 820.746094 " fill-opacity="1" fill-rule="nonzero"/></g></g></g><g clip-path="url(#0405cb2a91)"><g clip-path="url(#96f0822da2)"><g clip-path="url(#d453c98261)"><path fill="#545454" d="M 736.570312 888.394531 C 736.082031 889.335938 736.878906 890.699219 737.789062 891.035156 C 738.773438 891.371094 739.945312 890.683594 740.308594 890.121094 C 741.59375 888.25 738.121094 885.421875 736.570312 888.394531 Z M 736.570312 888.394531 " fill-opacity="1" fill-rule="nonzero"/></g></g></g><g clip-path="url(#017fe9cf8e)"><g clip-path="url(#5c258d09fb)"><g clip-path="url(#97b08a89eb)"><path fill="#545454" d="M 755.414062 850.285156 C 754.921875 851.222656 755.722656 852.589844 756.632812 852.925781 C 757.617188 853.261719 758.789062 852.570312 759.152344 852.007812 C 760.4375 850.136719 756.964844 847.3125 755.414062 850.285156 Z M 755.414062 850.285156 " fill-opacity="1" fill-rule="nonzero"/></g></g></g><g clip-path="url(#a4c4cae7fb)"><g clip-path="url(#2cff71955e)"><g clip-path="url(#07552ea00f)"><path fill="#545454" d="M 696.871094 845.089844 C 698.15625 843.257812 694.683594 840.390625 693.132812 843.363281 C 692.640625 844.304688 693.441406 845.667969 694.351562 846.003906 C 695.296875 846.339844 696.46875 845.613281 696.871094 845.089844 Z M 696.871094 845.089844 " fill-opacity="1" fill-rule="nonzero"/></g></g></g><g clip-path="url(#f22c1b2322)"><g clip-path="url(#9dec333b8e)"><g clip-path="url(#6b515d7717)"><path fill="#545454" d="M 693.871094 870.664062 C 693.378906 871.601562 694.179688 872.96875 695.089844 873.300781 C 696.074219 873.640625 697.246094 872.949219 697.609375 872.386719 C 698.894531 870.515625 695.421875 867.691406 693.871094 870.664062 Z M 693.871094 870.664062 " fill-opacity="1" fill-rule="nonzero"/></g></g></g><g clip-path="url(#f8115236f1)"><g clip-path="url(#76aeee79d7)"><g clip-path="url(#df6252ce58)"><path fill="#545454" d="M 744.199219 788.492188 C 743.710938 789.433594 744.507812 790.796875 745.417969 791.132812 C 746.402344 791.46875 747.574219 790.78125 747.9375 790.21875 C 749.222656 788.382812 745.75 785.519531 744.199219 788.492188 Z M 744.199219 788.492188 " fill-opacity="1" fill-rule="nonzero"/></g></g></g><g clip-path="url(#afe2eb483b)"><g clip-path="url(#7f5b0aa71b)"><g clip-path="url(#f006b67dd6)"><path fill="#545454" d="M 787.6875 740.609375 C 787.199219 741.550781 787.996094 742.914062 788.90625 743.25 C 789.890625 743.585938 791.0625 742.894531 791.425781 742.335938 C 792.710938 740.5 789.199219 737.632812 787.6875 740.609375 Z M 787.6875 740.609375 " fill-opacity="1" fill-rule="nonzero"/></g></g></g><g clip-path="url(#1f19c50144)"><g clip-path="url(#dd72d1e107)"><g clip-path="url(#55fed80450)"><path fill="#545454" d="M 804.402344 810.109375 C 803.914062 811.050781 804.714844 812.417969 805.621094 812.75 C 806.609375 813.089844 807.78125 812.398438 808.140625 811.835938 C 809.425781 810.003906 805.914062 807.175781 804.402344 810.109375 Z M 804.402344 810.109375 " fill-opacity="1" fill-rule="nonzero"/></g></g></g><g clip-path="url(#253bd9028c)"><g clip-path="url(#af2233d83f)"><g clip-path="url(#f35a65e771)"><path fill="#545454" d="M 768.898438 917.769531 C 768.40625 918.710938 769.207031 920.074219 770.117188 920.410156 C 771.101562 920.75 772.273438 920.058594 772.636719 919.496094 C 773.921875 917.664062 770.410156 914.835938 768.898438 917.769531 Z M 768.898438 917.769531 " fill-opacity="1" fill-rule="nonzero"/></g></g></g><g clip-path="url(#1123479d23)"><g clip-path="url(#73bc56284c)"><g clip-path="url(#ccfee3571a)"><path fill="#545454" d="M 725.441406 746.964844 C 726.429688 747.300781 727.597656 746.613281 727.960938 746.050781 C 729.246094 744.214844 725.773438 741.351562 724.222656 744.324219 C 723.734375 745.265625 724.53125 746.628906 725.441406 746.964844 Z M 725.441406 746.964844 " fill-opacity="1" fill-rule="nonzero"/></g></g></g><g clip-path="url(#88764b9bb0)"><g clip-path="url(#7bb4e3c84b)"><g clip-path="url(#a8b91c96a9)"><path fill="#545454" d="M 751.324219 753.757812 C 751 751.871094 750.75 751.328125 750.355469 749.25 C 749.894531 746.824219 749.757812 745.136719 748.929688 744.652344 C 746.9375 743.441406 746.59375 745.878906 743.804688 753.976562 C 736.269531 755.878906 734.378906 756.351562 733.960938 757.449219 C 733.207031 759.492188 737.546875 760.316406 743.609375 761.277344 L 745.453125 769.636719 C 745.96875 771.410156 747.828125 772.082031 748.976562 768.445312 C 748.976562 768.410156 750.894531 762.347656 751.050781 762.316406 C 754.101562 761.570312 759.679688 759.683594 760.34375 759.285156 C 765.074219 756.335938 751.382812 754.332031 751.324219 753.757812 Z M 751.324219 753.757812 " fill-opacity="1" fill-rule="nonzero"/></g></g></g><g clip-path="url(#0c94e6e183)"><g clip-path="url(#806b8e7c7f)"><g clip-path="url(#567b706396)"><path fill="#545454" d="M 768.152344 775.253906 C 767.921875 773.984375 767.742188 773.597656 767.480469 772.210938 C 767.152344 770.554688 767.070312 769.445312 766.507812 769.082031 C 765.152344 768.273438 764.910156 769.910156 763.011719 775.398438 C 757.910156 776.6875 756.597656 776.992188 756.34375 777.746094 C 755.839844 779.148438 758.773438 779.699219 762.890625 780.328125 L 764.167969 786.03125 C 764.511719 787.226562 765.800781 787.6875 766.566406 785.226562 C 766.570312 785.1875 767.886719 781.097656 767.964844 781.0625 C 770.050781 780.554688 773.847656 779.261719 774.277344 779.007812 C 777.484375 777.007812 768.214844 775.640625 768.152344 775.253906 Z M 768.152344 775.253906 " fill-opacity="1" fill-rule="nonzero"/></g></g></g><g clip-path="url(#75032bebe5)"><g clip-path="url(#998d5ad804)"><g clip-path="url(#2e8c7b8b70)"><path fill="#545454" d="M 736.625 875.886719 C 736.96875 877.085938 738.257812 877.546875 739.027344 875.085938 C 739.027344 875.046875 740.34375 870.957031 740.421875 870.921875 C 742.507812 870.414062 746.304688 869.121094 746.734375 868.867188 C 749.941406 866.863281 740.671875 865.496094 740.609375 865.113281 C 740.378906 863.84375 740.199219 863.457031 739.9375 862.070312 C 739.609375 860.414062 739.527344 859.300781 738.964844 858.941406 C 737.613281 858.132812 737.367188 859.769531 735.46875 865.253906 C 730.367188 866.546875 729.054688 866.847656 728.800781 867.605469 C 728.296875 869.003906 731.230469 869.558594 735.347656 870.1875 Z M 736.625 875.886719 " fill-opacity="1" fill-rule="nonzero"/></g></g></g><g clip-path="url(#619ea10ede)"><g clip-path="url(#ce3c181777)"><g clip-path="url(#b4d8a40375)"><path fill="#545454" d="M 732.824219 916.925781 C 732.597656 915.65625 732.417969 915.269531 732.15625 913.882812 C 731.824219 912.230469 731.746094 911.117188 731.183594 910.753906 C 729.828125 909.945312 729.585938 911.582031 727.6875 917.070312 C 722.585938 918.359375 721.273438 918.664062 721.019531 919.421875 C 720.515625 920.820312 723.449219 921.371094 727.566406 922 L 728.839844 927.703125 C 729.1875 928.898438 730.476562 929.363281 731.242188 926.898438 C 731.246094 926.859375 732.5625 922.773438 732.640625 922.734375 C 734.726562 922.230469 738.523438 920.933594 738.953125 920.679688 C 742.160156 918.679688 732.890625 917.3125 732.824219 916.925781 Z M 732.824219 916.925781 " fill-opacity="1" fill-rule="nonzero"/></g></g></g><g clip-path="url(#34d03839f1)"><g clip-path="url(#04d8eec7e2)"><g clip-path="url(#23369b2a1b)"><path fill="#545454" d="M 683.042969 852.109375 C 682.8125 850.839844 682.636719 850.449219 682.371094 849.066406 C 682.042969 847.410156 681.960938 846.296875 681.398438 845.9375 C 680.046875 845.128906 679.800781 846.765625 677.902344 852.25 C 672.800781 853.542969 671.488281 853.84375 671.234375 854.601562 C 670.730469 856 673.664062 856.554688 677.785156 857.183594 L 679.058594 862.882812 C 679.402344 864.082031 680.691406 864.542969 681.460938 862.082031 C 681.460938 862.042969 682.777344 857.953125 682.855469 857.917969 C 684.941406 857.410156 688.738281 856.117188 689.167969 855.863281 C 692.375 853.898438 683.105469 852.492188 683.042969 852.109375 Z M 683.042969 852.109375 " fill-opacity="1" fill-rule="nonzero"/></g></g></g><g clip-path="url(#2aa94484c4)"><g clip-path="url(#cbf62e1776)"><g clip-path="url(#f90e7c002e)"><path fill="#545454" d="M 820.535156 796.96875 C 820.304688 795.699219 820.128906 795.3125 819.863281 793.925781 C 819.535156 792.269531 819.453125 791.160156 818.890625 790.796875 C 817.539062 789.988281 817.292969 791.625 815.394531 797.109375 C 810.292969 798.402344 808.980469 798.703125 808.726562 799.460938 C 808.222656 800.859375 811.15625 801.414062 815.277344 802.042969 L 816.550781 807.742188 C 816.894531 808.941406 818.183594 809.402344 818.953125 806.941406 C 818.953125 806.902344 820.269531 802.8125 820.347656 802.777344 C 822.433594 802.269531 826.230469 800.976562 826.660156 800.722656 C 829.867188 798.71875 820.597656 797.351562 820.535156 796.96875 Z M 820.535156 796.96875 " fill-opacity="1" fill-rule="nonzero"/></g></g></g><g clip-path="url(#f134700a5f)"><g clip-path="url(#f8f0d8bcac)"><g clip-path="url(#e84024d440)"><path fill="#545454" d="M 756.21875 920.007812 C 756.742188 920.367188 757.472656 920.277344 757.847656 919.40625 C 758.09375 918.84375 762.269531 904.4375 762.4375 903.984375 C 763.226562 904.507812 765.929688 906.316406 766.757812 906.761719 C 775.867188 911.949219 775.78125 912.214844 776.628906 912.089844 C 777.089844 912.027344 777.488281 911.542969 777.464844 911.082031 C 777.445312 910.429688 777.84375 911.171875 771.34375 902.316406 C 769.472656 899.773438 768.800781 899.175781 768.027344 898.15625 C 774.605469 896.1875 782.625 893.421875 782.898438 893.277344 C 783.640625 892.839844 783.71875 891.542969 782.15625 891.378906 C 781.695312 891.324219 773.199219 891.015625 765.800781 891.085938 C 765.554688 888.019531 766.445312 874.46875 766.449219 874.351562 C 766.472656 873.589844 765.988281 873.191406 765.453125 873.171875 C 764.761719 873.152344 764.394531 873.90625 764.066406 874.507812 C 761.457031 879.433594 758.277344 885.453125 756.875 889.769531 C 745.878906 878.9375 746.40625 877.960938 745 878.757812 C 743.910156 879.371094 744.808594 881.199219 746.992188 886.011719 C 751.003906 894.824219 750 892.609375 750.324219 893.308594 C 751.003906 894.785156 751.132812 894.40625 750.390625 894.804688 C 738.773438 901.089844 735.742188 901.183594 735.992188 902.875 C 736.1875 904.066406 737.609375 903.84375 738.839844 903.808594 C 745.511719 903.636719 752.855469 902.839844 754.4375 902.542969 C 754.902344 908.449219 755.46875 919.523438 756.21875 920.007812 Z M 756.21875 920.007812 " fill-opacity="1" fill-rule="nonzero"/></g></g></g></svg>