<svg xmlns="http://www.w3.org/2000/svg" xmlns:xlink="http://www.w3.org/1999/xlink" width="2000" zoomAndPan="magnify" viewBox="0 0 1500 1499.999933" height="2000" preserveAspectRatio="xMidYMid meet" version="1.0"><defs><clipPath id="efc5e7e54b"><path d="M 745 1178 L 893 1178 L 893 1231.910156 L 745 1231.910156 Z M 745 1178 " clip-rule="nonzero"/></clipPath><clipPath id="8a2017f276"><path d="M 791 455 L 1149.75 455 L 1149.75 834 L 791 834 Z M 791 455 " clip-rule="nonzero"/></clipPath><clipPath id="d04a7ed38a"><path d="M 841 408.132812 L 861 408.132812 L 861 427 L 841 427 Z M 841 408.132812 " clip-rule="nonzero"/></clipPath></defs><path fill="#545454" d="M 764.929688 830.082031 C 764.949219 830.335938 765.042969 830.558594 765.332031 830.511719 C 765.703125 830.449219 765.828125 830.148438 765.796875 829.820312 C 765.773438 829.585938 765.628906 829.34375 765.359375 829.371094 C 764.949219 829.417969 764.96875 829.777344 764.929688 830.082031 " fill-opacity="1" fill-rule="nonzero"/><path fill="#545454" d="M 765.136719 830.027344 C 765.265625 830.09375 765.398438 830.160156 765.535156 830.230469 C 765.574219 830.089844 765.679688 829.925781 765.640625 829.8125 C 765.613281 829.726562 765.390625 829.636719 765.265625 829.65625 C 765.070312 829.683594 765.03125 829.847656 765.136719 830.027344 " fill-opacity="1" fill-rule="nonzero"/><path fill="#545454" d="M 667.257812 1113.617188 C 666.699219 1092.65625 672.578125 1085.765625 678.214844 1067.871094 C 680.15625 1061.730469 679.445312 1061.039062 673.3125 1058.746094 C 655.527344 1052.101562 652.183594 1043.082031 638.355469 1026.386719 C 635.480469 1022.921875 631.179688 1026.226562 632.035156 1029.175781 C 633.082031 1032.828125 631.65625 1036.179688 630.738281 1039.5 C 623.589844 1065.277344 642.519531 1118.734375 658.195312 1137.957031 C 666.035156 1147.5625 666.921875 1133.292969 671.605469 1144.773438 C 698.96875 1211.832031 780.171875 1157.128906 850.976562 1166.363281 C 862.679688 1167.894531 881.484375 1164.382812 871.40625 1160.539062 C 774.433594 1123.539062 764.042969 1024.5 705.53125 1049.140625 C 684.953125 1057.800781 692.726562 1089.996094 684.960938 1095.34375 C 679.195312 1099.316406 674.132812 1104.265625 671 1110.808594 C 670.449219 1111.957031 669.757812 1113.207031 667.257812 1113.617188 " fill-opacity="1" fill-rule="nonzero"/><path fill="#545454" d="M 1119.011719 944.792969 C 1138.5 944.203125 1156.140625 964.261719 1170.957031 978.8125 C 1176.660156 984.40625 1180.664062 979.960938 1176.269531 974.519531 C 1028.734375 791.5625 1023.625 889.292969 975.183594 850.570312 C 951.207031 831.410156 924.835938 864.316406 955.050781 889.667969 C 968.199219 900.699219 978.382812 914.296875 987.722656 928.605469 C 1017.011719 973.464844 1086.722656 945.765625 1119.011719 944.792969 " fill-opacity="1" fill-rule="nonzero"/><path fill="#545454" d="M 731.714844 861.144531 C 733.964844 846.15625 707.480469 817.238281 678.570312 825.21875 C 629.210938 838.855469 597.574219 864.132812 587.820312 878.703125 C 581.445312 888.242188 572.347656 892.664062 582.320312 899.648438 C 591.375 905.984375 598 904.816406 597.863281 915.773438 C 597.628906 935.496094 629.535156 942.050781 629.855469 930.027344 C 630.3125 913.28125 662.863281 883.65625 695.152344 885.113281 C 698.457031 885.265625 700.179688 883.777344 701.105469 880.839844 C 703.382812 873.660156 715.179688 861.582031 724.539062 861.910156 C 726.875 861.992188 729.367188 862.339844 731.714844 861.144531 " fill-opacity="1" fill-rule="nonzero"/><path fill="#545454" d="M 492.3125 811.726562 C 494.898438 814.367188 496.648438 814.003906 499.160156 812.144531 C 522.847656 794.617188 586.214844 756.886719 614.628906 764.792969 C 634.558594 770.347656 604.246094 732.800781 584.03125 718.847656 C 546.785156 693.140625 428.316406 746.40625 492.3125 811.726562 " fill-opacity="1" fill-rule="nonzero"/><path fill="#545454" d="M 661.734375 593.691406 C 663.886719 598.339844 667.761719 610.40625 672.390625 609.617188 C 675.234375 609.140625 675.433594 606.675781 675.402344 604.574219 C 674.734375 559.839844 746.601562 574.128906 746.621094 527.6875 C 746.65625 432.789062 608.480469 478.535156 661.734375 593.691406 " fill-opacity="1" fill-rule="nonzero"/><path fill="#545454" d="M 533.953125 867.464844 C 545.03125 868.097656 535.007812 860.546875 542.675781 849.992188 C 552.414062 836.558594 623.886719 795.1875 642.207031 794.925781 C 651.800781 794.792969 659.585938 792.144531 654.464844 783.929688 C 614.242188 719.371094 406.285156 860.175781 533.953125 867.464844 " fill-opacity="1" fill-rule="nonzero"/><path fill="#545454" d="M 474.53125 667.746094 C 434.300781 685.140625 472.238281 763.8125 486.046875 735.722656 C 496.074219 715.300781 538.375 702.847656 559.160156 706.347656 C 583.097656 710.378906 549.640625 667.472656 525.515625 660.121094 C 499.90625 652.316406 494.746094 659.007812 474.53125 667.746094 " fill-opacity="1" fill-rule="nonzero"/><path fill="#545454" d="M 535.335938 600.601562 C 535.175781 598.039062 532.980469 595.785156 530.640625 594.261719 C 463.902344 550.625 444.484375 673.679688 469.074219 661.199219 C 541.269531 624.539062 541.371094 698.851562 535.335938 600.601562 " fill-opacity="1" fill-rule="nonzero"/><path fill="#545454" d="M 679.519531 818.902344 C 701.050781 816.523438 668.882812 789.867188 662.164062 793.382812 C 637.824219 806.113281 600.363281 810.015625 562.527344 842.625 C 542.304688 860.054688 574.183594 869.078125 554.644531 886.269531 C 546.464844 893.46875 565.207031 898.535156 570.964844 886.523438 C 582.558594 862.359375 639.417969 823.335938 679.519531 818.902344 " fill-opacity="1" fill-rule="nonzero"/><path fill="#545454" d="M 498.515625 535.199219 C 522.316406 530.523438 515.597656 533.882812 538.730469 540.511719 C 543.75 541.957031 546.511719 540.40625 547.519531 535.261719 C 549.171875 526.855469 552.699219 519.417969 557.808594 512.667969 C 565.199219 502.914062 568.316406 507.917969 570.84375 496.976562 C 572.367188 490.386719 572.199219 489.335938 566.539062 485.667969 C 554.847656 478.097656 543.546875 478.042969 528.167969 469.257812 C 515.257812 461.882812 490.847656 511.632812 486.226562 525.707031 C 482.902344 535.851562 485.925781 532.742188 498.515625 535.199219 " fill-opacity="1" fill-rule="nonzero"/><path fill="#545454" d="M 417.621094 927.3125 C 427.609375 930.800781 444.128906 935.84375 445.796875 925.226562 C 450.136719 897.613281 454.179688 895.316406 460.019531 874.304688 C 461.039062 870.636719 463.371094 869.78125 466.75 870.339844 C 474.503906 871.617188 513.382812 889.707031 519.570312 892.914062 C 536.183594 901.523438 550.039062 893.90625 543.929688 882.660156 C 538.011719 871.746094 532.890625 877.355469 520.625 873.035156 C 492.058594 862.972656 482.222656 861.902344 469.671875 849.515625 C 462.53125 842.476562 455.464844 833.929688 447.460938 839.761719 C 436.886719 847.460938 443.808594 848.21875 442.8125 860.082031 C 441.582031 874.746094 437.296875 888.6875 432.179688 902.351562 C 430.027344 908.085938 424.839844 910.539062 418.566406 910.042969 C 399.984375 908.558594 405.882812 920.085938 410.222656 940.554688 C 411.464844 946.433594 416.167969 944.886719 416.738281 940.015625 C 417.203125 936.054688 415.4375 931.96875 417.621094 927.3125 " fill-opacity="1" fill-rule="nonzero"/><path fill="#545454" d="M 643.816406 476.988281 C 643.574219 468.996094 646.082031 462.285156 651.800781 456.566406 C 659.195312 449.179688 650.160156 441.492188 640.445312 437.859375 C 615.898438 428.683594 585.726562 416.515625 578.738281 450.328125 C 575.855469 464.292969 575.867188 481.785156 590.246094 484.519531 C 608.511719 487.992188 644.355469 495.277344 643.816406 476.988281 " fill-opacity="1" fill-rule="nonzero"/><path fill="#545454" d="M 937.453125 878.636719 C 925.886719 856.675781 924.328125 851.757812 942.023438 838.191406 C 952.457031 830.1875 866.253906 831.59375 866.515625 843.550781 C 866.582031 846.867188 901.503906 851.804688 894.519531 868.703125 C 889.707031 880.328125 884.546875 887.242188 895.714844 892.933594 C 911.039062 900.746094 946.851562 896.480469 937.453125 878.636719 " fill-opacity="1" fill-rule="nonzero"/><path fill="#545454" d="M 681.65625 959.40625 C 686.359375 959.960938 688.59375 956.460938 685.140625 953.203125 C 674.636719 943.324219 707.734375 917.398438 724.335938 927.214844 C 732.0625 931.78125 728.796875 914.71875 713.230469 904.378906 C 659.914062 868.945312 614.902344 951.492188 681.65625 959.40625 " fill-opacity="1" fill-rule="nonzero"/><path fill="#545454" d="M 696.609375 965.699219 C 704.691406 971.804688 727.125 988.265625 737.109375 990.179688 C 754.644531 993.539062 740.9375 976.003906 758.003906 971.917969 C 769.585938 969.152344 768 964.261719 766.851562 959.746094 C 761.84375 940.117188 752.257812 944.867188 734.199219 938.648438 C 708.039062 929.632812 678.390625 951.921875 696.609375 965.699219 " fill-opacity="1" fill-rule="nonzero"/><path fill="#545454" d="M 879.105469 874.910156 C 903.769531 837.921875 804.558594 863.429688 816.566406 894.429688 C 818.226562 898.714844 820.074219 902.835938 815.417969 906.972656 C 813.527344 908.644531 814.652344 911.554688 817.78125 912.351562 C 855.773438 922.101562 859.097656 904.917969 879.105469 874.910156 " fill-opacity="1" fill-rule="nonzero"/><path fill="#545454" d="M 467.449219 582.773438 C 467.367188 583.628906 467.421875 584.472656 467.1875 585.226562 C 465.171875 591.695312 471.285156 593.945312 474.8125 589.820312 C 481.132812 582.410156 512.789062 574.027344 529.949219 584.667969 C 535.230469 587.941406 536.621094 586.941406 540.25 581.550781 C 571.796875 534.660156 463.699219 522.308594 467.449219 582.773438 " fill-opacity="1" fill-rule="nonzero"/><path fill="#545454" d="M 747.84375 755.097656 C 762.289062 768.964844 761.359375 755.542969 774.601562 765.886719 C 782.417969 771.992188 781.320312 758.96875 782.804688 748.023438 C 784.457031 735.859375 775.679688 748.171875 767.992188 744.429688 C 760.152344 740.621094 751.191406 739.109375 745.265625 731.382812 C 742.027344 727.164062 732.652344 730.472656 729.839844 735.476562 C 725.886719 742.476562 723.558594 750.441406 717.78125 756.359375 C 715.992188 758.195312 716.316406 760.363281 716.429688 762.441406 C 717.585938 782.648438 707.902344 789.175781 696.261719 805.015625 C 690.921875 812.285156 694.515625 810.34375 701.117188 812.601562 C 703.363281 813.375 705.230469 816.707031 707.421875 815.496094 C 720.828125 808.039062 740.722656 768.25 747.84375 755.097656 " fill-opacity="1" fill-rule="nonzero"/><path fill="#545454" d="M 661.6875 990.695312 C 656.972656 991.226562 648.9375 993.96875 640.480469 994.09375 C 632.566406 994.203125 623.617188 1007.027344 636.179688 1010.714844 C 660.734375 1017.921875 664.539062 1061.445312 691.660156 1039.585938 C 716.355469 1019.683594 686.242188 989.582031 661.6875 990.695312 " fill-opacity="1" fill-rule="nonzero"/><g clip-path="url(#efc5e7e54b)"><path fill="#545454" d="M 892.792969 1222.714844 C 890.863281 1220.75 889.125 1222.054688 887.429688 1222.558594 C 862 1230.097656 805.042969 1199.980469 790.484375 1180.640625 C 788.636719 1178.1875 785.359375 1178.921875 782.847656 1179.617188 C 777.839844 1181.007812 756.449219 1182.714844 752.332031 1181.582031 C 714.320312 1171.113281 839.253906 1249.457031 885.597656 1228.253906 C 888.316406 1227.003906 892.058594 1226.628906 892.792969 1222.714844 " fill-opacity="1" fill-rule="nonzero"/></g><path fill="#545454" d="M 551.515625 931.714844 C 563.84375 932.789062 562.59375 940.78125 571.964844 932.695312 C 586.585938 920.085938 574.835938 903.144531 560.316406 907.644531 C 538.480469 914.421875 517.003906 916.324219 496.726562 902.363281 C 475.25 887.570312 466.804688 926.984375 485.515625 927.023438 C 503.679688 927.050781 489.902344 926.339844 551.515625 931.714844 " fill-opacity="1" fill-rule="nonzero"/><path fill="#545454" d="M 514.128906 943.011719 C 512.359375 936.679688 511.449219 932.769531 496.101562 936.710938 C 489.398438 938.4375 489.054688 938.949219 492.691406 945.042969 C 529.417969 1006.5625 518.683594 1002.578125 494.132812 1004.132812 C 473.84375 1005.414062 492.617188 1022.34375 495.363281 1041.621094 C 495.734375 1044.203125 500.179688 1045.605469 501.734375 1041.132812 C 507.328125 1025.0625 490.101562 1019.238281 508.378906 1018.378906 C 552.84375 1016.285156 536.9375 1024.902344 514.128906 943.011719 " fill-opacity="1" fill-rule="nonzero"/><path fill="#545454" d="M 1080.789062 959.046875 C 1081.695312 962.738281 1083.800781 966.09375 1087.703125 967.9375 C 1116.445312 981.507812 1151.726562 1016.503906 1166.117188 1037.886719 C 1171.128906 1045.335938 1177.519531 1037.71875 1162.398438 1015.476562 C 1139.945312 982.445312 1116.371094 942.722656 1085.875 952.699219 C 1083.085938 953.613281 1081.386719 955.617188 1080.789062 959.046875 " fill-opacity="1" fill-rule="nonzero"/><path fill="#545454" d="M 803.242188 948.757812 C 800.84375 937.539062 800.839844 925.304688 793.019531 916.445312 C 787.480469 910.171875 779.394531 906.300781 769.828125 907.824219 C 736.449219 913.167969 737.175781 940.742188 750.113281 937.121094 C 758.675781 934.722656 764.09375 939.238281 768.691406 945.257812 C 772.34375 950.035156 773.433594 957.046875 777.886719 960.304688 C 781.832031 963.191406 783.597656 960.183594 784.976562 956.03125 C 788.464844 945.566406 790.859375 944.511719 800.738281 948.980469 C 801.140625 949.160156 801.746094 948.90625 803.242188 948.757812 " fill-opacity="1" fill-rule="nonzero"/><path fill="#545454" d="M 354.695312 857.941406 C 364.785156 852.632812 356.476562 837.496094 370.242188 845.746094 C 378.78125 850.867188 384.753906 859.8125 389.261719 849.628906 C 398.96875 827.691406 409.785156 794.746094 416.738281 771.140625 C 418.816406 764.105469 418.265625 763.617188 411.390625 761.21875 C 402.832031 758.222656 399.601562 756.777344 396.253906 780.027344 C 393.171875 801.410156 383.46875 841.378906 363.851562 832.558594 C 351.1875 826.863281 356.683594 835.507812 353.472656 846.605469 C 352.097656 851.371094 352.210938 851.410156 354.695312 857.941406 " fill-opacity="1" fill-rule="nonzero"/><path fill="#545454" d="M 709.710938 887.261719 C 705.574219 891.5 706.339844 895.203125 711.96875 896.753906 C 722.09375 899.554688 728.765625 906.167969 733.519531 915.085938 C 736.839844 921.300781 741.058594 919.378906 742.503906 914.871094 C 746.628906 901.960938 757.875 902.296875 768.148438 900.730469 C 770.335938 900.394531 772.890625 902.78125 774.722656 899.703125 C 776.597656 896.566406 776.308594 893.632812 774.574219 890.527344 C 762.289062 868.535156 735.148438 861.226562 709.710938 887.261719 " fill-opacity="1" fill-rule="nonzero"/><path fill="#545454" d="M 409.558594 753.082031 C 417.621094 754.386719 422.605469 760.996094 426.257812 767.390625 C 433.460938 779.988281 447.972656 798.066406 452.882812 802.855469 C 459.191406 809 459.355469 809.148438 466.113281 803.203125 C 468.09375 801.457031 472.808594 803.699219 472.402344 798.65625 C 472.402344 798.65625 435.140625 757.84375 429.902344 729.503906 C 427.601562 717.101562 417.792969 733.742188 406.5625 739.835938 C 401.457031 742.601562 401.355469 751.757812 409.558594 753.082031 " fill-opacity="1" fill-rule="nonzero"/><path fill="#545454" d="M 594.839844 962.460938 C 588.507812 960.257812 583.648438 959.214844 580.792969 954.75 C 579.160156 952.203125 577.03125 953.03125 575.316406 954.636719 C 562.089844 967.003906 542.660156 957.886719 551.152344 973.621094 C 557.609375 985.582031 558.347656 1011.292969 555.769531 1023.40625 C 554.472656 1029.496094 555.910156 1031.144531 562.125 1033.03125 C 571.113281 1035.765625 581.914062 1041.507812 579.058594 1032.347656 C 574.699219 1018.339844 573.753906 1003.722656 570.777344 989.480469 C 569.199219 981.894531 569.367188 982.292969 575.699219 977.121094 C 581.472656 972.410156 586.660156 966.988281 594.839844 962.460938 " fill-opacity="1" fill-rule="nonzero"/><path fill="#545454" d="M 839.46875 794.355469 C 822.203125 795.472656 802.699219 789.863281 790.027344 781.351562 C 770.34375 768.128906 762.039062 788.261719 787.359375 798.265625 C 796.398438 801.839844 805.730469 804.648438 814.484375 808.996094 C 824.390625 813.917969 824.238281 821.410156 833.601562 816.921875 C 839.5625 814.058594 840.375 814.328125 843.277344 820.394531 C 845.300781 824.632812 847.300781 832.816406 851.636719 832.285156 C 863.648438 830.800781 848.738281 793.757812 839.46875 794.355469 " fill-opacity="1" fill-rule="nonzero"/><path fill="#545454" d="M 674.089844 720.246094 C 676.441406 732.082031 673.675781 778.140625 661.804688 776.554688 C 658.445312 776.109375 658.25 780.71875 660.398438 781.511719 C 664.441406 783.003906 668.238281 784.890625 672.007812 787.039062 C 684.25 794.035156 691.390625 752.726562 693.742188 739.53125 C 696.988281 721.328125 707.925781 724.839844 683.375 713.152344 C 676.871094 710.054688 673.679688 712.359375 674.089844 720.246094 " fill-opacity="1" fill-rule="nonzero"/><path fill="#545454" d="M 572 481.148438 C 573.289062 479.011719 572.964844 477.105469 572.65625 475.25 C 571.121094 466 572.46875 456.984375 574.660156 448.011719 C 584.265625 408.582031 507.605469 469.125 542.769531 468.554688 C 561.585938 468.242188 556.753906 477.835938 572 481.148438 " fill-opacity="1" fill-rule="nonzero"/><path fill="#545454" d="M 652.820312 679.054688 C 660.894531 673.589844 649.058594 670.199219 639.378906 668.976562 C 634.316406 668.339844 634.492188 676.917969 627.726562 679.671875 C 625.683594 680.496094 625.011719 682.035156 625.878906 684.253906 C 629.132812 692.601562 629.320312 728.1875 629.320312 728.1875 C 633.417969 732.296875 638.53125 728.925781 643.167969 729.644531 C 645.828125 730.0625 646.304688 726.648438 646.257812 724.074219 C 646.042969 713.582031 644.128906 684.9375 652.820312 679.054688 " fill-opacity="1" fill-rule="nonzero"/><path fill="#545454" d="M 665.445312 484.527344 C 680.535156 474.457031 711.066406 472.988281 695.117188 460.308594 C 688.925781 455.378906 667.175781 448.566406 662.226562 455.445312 C 651.660156 470.132812 648.84375 495.613281 665.445312 484.527344 " fill-opacity="1" fill-rule="nonzero"/><path fill="#545454" d="M 643.664062 987.71875 C 655.515625 985.226562 667.03125 979.046875 677.992188 978.953125 C 685.027344 978.894531 684.035156 972.746094 680.191406 970.574219 C 665.425781 962.21875 652.605469 949.890625 643.863281 961.835938 C 637.535156 970.488281 632.53125 990.058594 643.664062 987.71875 " fill-opacity="1" fill-rule="nonzero"/><path fill="#545454" d="M 689.886719 989.441406 C 712.613281 1007.222656 699.574219 1035.820312 725.59375 1009.742188 C 728 1007.328125 726.417969 1004.003906 725.136719 1001.402344 C 711.90625 974.667969 671.140625 974.773438 689.886719 989.441406 " fill-opacity="1" fill-rule="nonzero"/><path fill="#545454" d="M 621.894531 953.257812 C 624.308594 938.660156 595.246094 942.066406 592.101562 926.75 C 590.425781 918.609375 578.8125 930.257812 581.4375 937.78125 C 586.664062 952.773438 618.988281 970.84375 621.894531 953.257812 " fill-opacity="1" fill-rule="nonzero"/><path fill="#545454" d="M 749.335938 816.660156 C 747.191406 821.839844 746.367188 826.628906 752.371094 829.921875 C 752.824219 830.167969 753.183594 830.652344 753.460938 831.101562 C 757.363281 837.382812 759.332031 836.035156 760.84375 829.683594 C 765.003906 812.265625 774.191406 771.21875 756.679688 776.257812 C 753.742188 777.105469 753.613281 779.726562 753.589844 782.222656 C 753.46875 793.886719 753.824219 805.789062 749.335938 816.660156 " fill-opacity="1" fill-rule="nonzero"/><path fill="#545454" d="M 697.160156 704.191406 C 693.0625 701.605469 688.9375 707.84375 693.875 710.921875 C 706.464844 718.753906 718.210938 742.675781 724.734375 730.316406 C 728.003906 724.117188 728.085938 724.035156 723.167969 718.75 C 714.160156 709.066406 726.824219 703.601562 711.5 704.675781 C 707.539062 704.957031 700.5 706.308594 697.160156 704.191406 " fill-opacity="1" fill-rule="nonzero"/><path fill="#545454" d="M 560.109375 1070.898438 C 560.921875 1072.277344 562.246094 1073.625 564.097656 1072.800781 C 567.714844 1071.207031 565.367188 1067.203125 564.378906 1063.328125 C 562.789062 1057.101562 562.800781 1057.113281 569.265625 1055.132812 C 577.878906 1052.5 578.730469 1043.859375 570.542969 1039.023438 C 561.511719 1033.6875 562.433594 1040.535156 551.878906 1043.617188 C 537.441406 1047.832031 553 1058.847656 560.109375 1070.898438 " fill-opacity="1" fill-rule="nonzero"/><path fill="#545454" d="M 491.574219 821.980469 C 485.3125 813.71875 480.625 804.171875 471.722656 808.886719 C 455.550781 817.4375 484.359375 853.125 486.253906 835.386719 C 486.792969 830.296875 486.796875 825.101562 491.574219 821.980469 " fill-opacity="1" fill-rule="nonzero"/><path fill="#545454" d="M 747.574219 857.832031 C 760.394531 855.925781 761.039062 853.867188 754.597656 843.335938 C 750.09375 835.972656 739.761719 825.667969 734.253906 832.734375 C 728.871094 839.640625 726.816406 839.445312 732.425781 844.820312 C 739.679688 851.773438 738.335938 859.210938 747.574219 857.832031 " fill-opacity="1" fill-rule="nonzero"/><path fill="#545454" d="M 805.714844 890.796875 C 794.242188 897.015625 796.820312 904.46875 800.582031 915.738281 C 805.574219 930.726562 804.632812 936.085938 818.453125 931.148438 C 822.136719 929.832031 823.242188 924.480469 819.90625 922.941406 C 802.253906 914.820312 810.410156 905.910156 805.714844 890.796875 " fill-opacity="1" fill-rule="nonzero"/><path fill="#545454" d="M 634.078125 760.902344 C 640.863281 761.257812 646.40625 766.476562 650.683594 761.84375 C 655.832031 756.28125 630.019531 727.210938 630.703125 740.371094 C 631.214844 750.175781 624.027344 760.371094 634.078125 760.902344 " fill-opacity="1" fill-rule="nonzero"/><path fill="#545454" d="M 763.746094 977.308594 C 755.804688 976.640625 751.054688 986.539062 758.292969 991.375 C 762.019531 993.875 764.652344 997.050781 766.0625 1001.296875 C 770.464844 1014.515625 779.257812 978.605469 763.746094 977.308594 " fill-opacity="1" fill-rule="nonzero"/><path fill="#545454" d="M 808.195312 965.316406 C 807.683594 946.078125 783.753906 954.910156 793.023438 964.804688 C 796.472656 968.492188 800.515625 971.824219 800.480469 977.582031 C 800.441406 985.515625 809.242188 976.386719 808.195312 965.316406 " fill-opacity="1" fill-rule="nonzero"/><g clip-path="url(#8a2017f276)"><path fill="#545454" d="M 1085.707031 702.777344 L 1068.269531 721.128906 L 1105.152344 756.1875 C 1054.632812 762.515625 1039.941406 741.371094 1031.878906 717.1875 C 1028.21875 706.195312 1029.449219 662.121094 1030.539062 623.226562 C 1032.894531 538.8125 1033.320312 486.292969 1019.359375 468.84375 C 1014.136719 462.3125 1006.875 458.804688 998.371094 458.695312 L 998.015625 458.695312 C 977.914062 458.695312 952.414062 479.78125 934.652344 497.339844 C 933.050781 486.132812 930.609375 476.953125 926.902344 470.464844 C 921.640625 461.246094 913.402344 455.929688 903.699219 455.414062 C 903.234375 455.394531 902.769531 455.382812 902.300781 455.382812 C 881.085938 455.382812 856.136719 479.320312 838.859375 499.539062 C 834.171875 481.683594 826.992188 469.628906 817.199219 463.148438 C 807.496094 456.746094 797.21875 457.410156 791.363281 459.917969 L 798.660156 484.136719 C 798.660156 484.136719 802.0625 483.273438 803.910156 484.746094 C 807.703125 487.769531 820.082031 502.492188 820.082031 565.164062 C 820.082031 591.046875 819.789062 611.757812 819.550781 628.402344 C 818.773438 683.082031 818.539062 699.582031 832.28125 722.492188 L 853.976562 709.472656 C 844.25 693.25 844.085938 682.597656 844.851562 628.757812 C 845.089844 612.03125 845.386719 591.21875 845.386719 565.164062 C 845.386719 553.636719 844.972656 543.117188 844.191406 533.492188 C 863.683594 507.164062 890.488281 480.695312 902.042969 480.695312 C 902.167969 480.695312 902.285156 480.695312 902.398438 480.695312 C 902.886719 480.71875 903.625 480.757812 904.917969 483.019531 C 913.050781 497.253906 912.394531 546.441406 911.816406 589.824219 C 910.871094 660.886719 911.421875 705.378906 926.988281 724.070312 L 946.421875 707.894531 C 935.714844 695.03125 936.527344 634.429688 937.132812 590.179688 C 937.417969 569.117188 937.667969 549.230469 937.179688 531.582031 C 957.792969 508 985.769531 484.011719 997.949219 484.011719 L 998.070312 484.011719 C 999.132812 484.011719 999.257812 484.195312 999.625 484.664062 C 1008.773438 496.242188 1006.566406 575.289062 1005.25 622.515625 C 1003.738281 676.730469 1003.054688 710.699219 1007.882812 725.183594 C 1020.800781 763.949219 1046.535156 782.683594 1087.820312 782.683594 C 1092.15625 782.683594 1096.703125 782.429688 1101.390625 782.015625 L 1071.503906 817.734375 L 1090.910156 833.984375 L 1149.742188 763.660156 Z M 1085.707031 702.777344 " fill-opacity="1" fill-rule="nonzero"/></g><path fill="#545454" d="M 795.640625 677.003906 C 796.09375 677.003906 796.539062 676.960938 796.984375 676.871094 C 797.425781 676.785156 797.855469 676.652344 798.273438 676.480469 C 798.6875 676.308594 799.085938 676.097656 799.460938 675.84375 C 799.835938 675.59375 800.183594 675.308594 800.5 674.992188 C 800.820312 674.671875 801.105469 674.324219 801.355469 673.949219 C 801.605469 673.574219 801.820312 673.175781 801.992188 672.761719 C 802.164062 672.34375 802.292969 671.914062 802.382812 671.46875 C 802.46875 671.027344 802.515625 670.582031 802.515625 670.128906 C 802.515625 669.675781 802.46875 669.230469 802.382812 668.789062 C 802.292969 668.34375 802.164062 667.914062 801.992188 667.496094 C 801.820312 667.082031 801.605469 666.683594 801.355469 666.308594 C 801.105469 665.933594 800.820312 665.585938 800.5 665.269531 C 800.183594 664.949219 799.835938 664.664062 799.460938 664.414062 C 799.085938 664.160156 798.6875 663.949219 798.273438 663.777344 C 797.855469 663.605469 797.425781 663.472656 796.984375 663.386719 C 796.539062 663.296875 796.09375 663.253906 795.640625 663.253906 C 795.191406 663.253906 794.742188 663.296875 794.300781 663.386719 C 793.859375 663.472656 793.429688 663.605469 793.011719 663.777344 C 792.59375 663.949219 792.199219 664.160156 791.824219 664.414062 C 791.449219 664.664062 791.101562 664.949219 790.78125 665.269531 C 790.464844 665.585938 790.179688 665.933594 789.929688 666.308594 C 789.675781 666.683594 789.464844 667.082031 789.292969 667.496094 C 789.121094 667.914062 788.988281 668.34375 788.902344 668.789062 C 788.8125 669.230469 788.769531 669.675781 788.769531 670.128906 C 788.769531 670.582031 788.8125 671.027344 788.902344 671.46875 C 788.988281 671.914062 789.121094 672.34375 789.292969 672.761719 C 789.464844 673.175781 789.675781 673.574219 789.929688 673.949219 C 790.179688 674.324219 790.464844 674.671875 790.78125 674.992188 C 791.101562 675.308594 791.449219 675.59375 791.824219 675.84375 C 792.199219 676.097656 792.59375 676.308594 793.011719 676.480469 C 793.429688 676.652344 793.859375 676.785156 794.300781 676.871094 C 794.742188 676.960938 795.191406 677.003906 795.640625 677.003906 Z M 795.640625 677.003906 " fill-opacity="1" fill-rule="nonzero"/><path fill="#545454" d="M 865.410156 577.929688 C 865.699219 577.929688 865.988281 577.902344 866.273438 577.84375 C 866.558594 577.789062 866.835938 577.703125 867.105469 577.589844 C 867.375 577.480469 867.628906 577.34375 867.871094 577.183594 C 868.113281 577.019531 868.335938 576.835938 868.542969 576.628906 C 868.746094 576.425781 868.929688 576.199219 869.09375 575.957031 C 869.253906 575.714844 869.390625 575.460938 869.5 575.191406 C 869.613281 574.921875 869.695312 574.644531 869.753906 574.359375 C 869.808594 574.074219 869.835938 573.785156 869.835938 573.496094 C 869.835938 573.203125 869.808594 572.917969 869.75 572.632812 C 869.691406 572.347656 869.609375 572.070312 869.496094 571.800781 C 869.386719 571.53125 869.25 571.277344 869.085938 571.035156 C 868.925781 570.792969 868.742188 570.570312 868.535156 570.363281 C 868.328125 570.160156 868.105469 569.976562 867.863281 569.8125 C 867.621094 569.652344 867.363281 569.515625 867.097656 569.40625 C 866.828125 569.296875 866.550781 569.210938 866.265625 569.15625 C 865.980469 569.097656 865.691406 569.070312 865.398438 569.074219 C 865.109375 569.074219 864.820312 569.101562 864.535156 569.160156 C 864.25 569.214844 863.972656 569.300781 863.707031 569.414062 C 863.4375 569.527344 863.183594 569.664062 862.941406 569.824219 C 862.699219 569.988281 862.476562 570.171875 862.269531 570.378906 C 862.066406 570.585938 861.882812 570.808594 861.722656 571.050781 C 861.5625 571.292969 861.425781 571.550781 861.316406 571.816406 C 861.203125 572.085938 861.121094 572.363281 861.066406 572.648438 C 861.007812 572.9375 860.980469 573.222656 860.984375 573.515625 C 860.984375 573.804688 861.011719 574.09375 861.070312 574.375 C 861.128906 574.660156 861.214844 574.9375 861.324219 575.203125 C 861.4375 575.472656 861.574219 575.726562 861.734375 575.96875 C 861.898438 576.207031 862.082031 576.429688 862.285156 576.636719 C 862.492188 576.839844 862.714844 577.023438 862.957031 577.183594 C 863.195312 577.34375 863.453125 577.480469 863.71875 577.59375 C 863.988281 577.703125 864.261719 577.789062 864.546875 577.84375 C 864.832031 577.902344 865.121094 577.929688 865.410156 577.929688 Z M 865.410156 577.929688 " fill-opacity="1" fill-rule="nonzero"/><path fill="#545454" d="M 984.835938 654.675781 C 985.285156 654.675781 985.734375 654.632812 986.175781 654.546875 C 986.617188 654.457031 987.046875 654.328125 987.464844 654.152344 C 987.882812 653.980469 988.277344 653.769531 988.652344 653.519531 C 989.027344 653.269531 989.375 652.984375 989.695312 652.664062 C 990.011719 652.34375 990.296875 651.996094 990.550781 651.621094 C 990.800781 651.246094 991.011719 650.851562 991.183594 650.433594 C 991.355469 650.015625 991.488281 649.585938 991.574219 649.144531 C 991.664062 648.699219 991.707031 648.253906 991.707031 647.800781 C 991.707031 647.351562 991.664062 646.902344 991.574219 646.460938 C 991.488281 646.019531 991.355469 645.589844 991.183594 645.171875 C 991.011719 644.753906 990.800781 644.359375 990.550781 643.984375 C 990.296875 643.609375 990.011719 643.261719 989.695312 642.941406 C 989.375 642.621094 989.027344 642.335938 988.652344 642.085938 C 988.277344 641.835938 987.882812 641.625 987.464844 641.449219 C 987.046875 641.277344 986.617188 641.148438 986.175781 641.058594 C 985.734375 640.972656 985.285156 640.925781 984.835938 640.925781 C 984.382812 640.925781 983.9375 640.972656 983.496094 641.058594 C 983.050781 641.148438 982.621094 641.277344 982.203125 641.449219 C 981.789062 641.625 981.390625 641.835938 981.015625 642.085938 C 980.640625 642.335938 980.292969 642.621094 979.976562 642.941406 C 979.65625 643.261719 979.371094 643.609375 979.121094 643.984375 C 978.871094 644.359375 978.660156 644.753906 978.484375 645.171875 C 978.3125 645.589844 978.183594 646.019531 978.09375 646.460938 C 978.007812 646.902344 977.960938 647.351562 977.960938 647.800781 C 977.960938 648.253906 978.007812 648.699219 978.09375 649.144531 C 978.183594 649.585938 978.3125 650.015625 978.484375 650.433594 C 978.660156 650.851562 978.871094 651.246094 979.121094 651.621094 C 979.371094 651.996094 979.65625 652.34375 979.976562 652.664062 C 980.292969 652.984375 980.640625 653.269531 981.015625 653.519531 C 981.390625 653.769531 981.789062 653.980469 982.203125 654.152344 C 982.621094 654.328125 983.050781 654.457031 983.496094 654.546875 C 983.9375 654.632812 984.382812 654.675781 984.835938 654.675781 Z M 984.835938 654.675781 " fill-opacity="1" fill-rule="nonzero"/><path fill="#545454" d="M 802.71875 601.074219 C 803.199219 601.074219 803.65625 600.984375 804.097656 600.800781 C 804.539062 600.617188 804.929688 600.355469 805.269531 600.019531 C 805.605469 599.679688 805.867188 599.289062 806.050781 598.847656 C 806.234375 598.40625 806.324219 597.945312 806.324219 597.46875 C 806.324219 596.992188 806.234375 596.53125 806.050781 596.089844 C 805.867188 595.648438 805.605469 595.257812 805.269531 594.917969 C 804.929688 594.582031 804.539062 594.320312 804.097656 594.136719 C 803.65625 593.953125 803.199219 593.863281 802.71875 593.863281 C 802.242188 593.863281 801.78125 593.953125 801.339844 594.136719 C 800.898438 594.320312 800.507812 594.582031 800.171875 594.917969 C 799.832031 595.257812 799.574219 595.648438 799.390625 596.089844 C 799.207031 596.53125 799.117188 596.992188 799.117188 597.46875 C 799.117188 597.945312 799.207031 598.40625 799.390625 598.847656 C 799.574219 599.289062 799.832031 599.679688 800.171875 600.019531 C 800.507812 600.355469 800.898438 600.617188 801.339844 600.800781 C 801.78125 600.984375 802.242188 601.074219 802.71875 601.074219 Z M 802.71875 601.074219 " fill-opacity="1" fill-rule="nonzero"/><path fill="#545454" d="M 1045.585938 557.242188 C 1046.0625 557.242188 1046.523438 557.148438 1046.964844 556.964844 C 1047.40625 556.78125 1047.796875 556.523438 1048.132812 556.183594 C 1048.472656 555.847656 1048.734375 555.457031 1048.917969 555.015625 C 1049.097656 554.574219 1049.191406 554.113281 1049.191406 553.632812 C 1049.191406 553.15625 1049.097656 552.695312 1048.917969 552.253906 C 1048.734375 551.8125 1048.472656 551.421875 1048.132812 551.085938 C 1047.796875 550.746094 1047.40625 550.488281 1046.964844 550.304688 C 1046.523438 550.121094 1046.0625 550.027344 1045.585938 550.027344 C 1045.109375 550.027344 1044.648438 550.121094 1044.207031 550.304688 C 1043.765625 550.488281 1043.375 550.746094 1043.039062 551.085938 C 1042.699219 551.421875 1042.4375 551.8125 1042.257812 552.253906 C 1042.074219 552.695312 1041.980469 553.15625 1041.980469 553.632812 C 1041.980469 554.113281 1042.074219 554.574219 1042.253906 555.015625 C 1042.4375 555.457031 1042.699219 555.847656 1043.039062 556.183594 C 1043.375 556.523438 1043.765625 556.78125 1044.207031 556.964844 C 1044.648438 557.148438 1045.109375 557.242188 1045.585938 557.242188 Z M 1045.585938 557.242188 " fill-opacity="1" fill-rule="nonzero"/><path fill="#545454" d="M 1080.363281 506.605469 C 1080.84375 506.609375 1081.304688 506.519531 1081.746094 506.335938 C 1082.1875 506.15625 1082.582031 505.894531 1082.917969 505.558594 C 1083.257812 505.222656 1083.519531 504.832031 1083.707031 504.390625 C 1083.890625 503.949219 1083.984375 503.488281 1083.984375 503.007812 C 1083.984375 502.53125 1083.894531 502.070312 1083.710938 501.628906 C 1083.53125 501.183594 1083.269531 500.792969 1082.933594 500.457031 C 1082.59375 500.117188 1082.207031 499.855469 1081.765625 499.671875 C 1081.324219 499.488281 1080.863281 499.394531 1080.382812 499.394531 C 1079.90625 499.394531 1079.445312 499.484375 1079.003906 499.667969 C 1078.5625 499.851562 1078.171875 500.109375 1077.832031 500.449219 C 1077.492188 500.785156 1077.234375 501.175781 1077.050781 501.617188 C 1076.867188 502.0625 1076.773438 502.523438 1076.773438 503 C 1076.773438 503.476562 1076.867188 503.9375 1077.046875 504.375 C 1077.230469 504.816406 1077.488281 505.207031 1077.824219 505.542969 C 1078.160156 505.882812 1078.550781 506.144531 1078.988281 506.328125 C 1079.429688 506.511719 1079.886719 506.605469 1080.363281 506.605469 Z M 1080.363281 506.605469 " fill-opacity="1" fill-rule="nonzero"/><path fill="#545454" d="M 1048.734375 661.171875 C 1049.210938 661.171875 1049.671875 661.082031 1050.113281 660.898438 C 1050.558594 660.714844 1050.945312 660.457031 1051.285156 660.117188 C 1051.625 659.78125 1051.886719 659.390625 1052.070312 658.945312 C 1052.253906 658.503906 1052.34375 658.042969 1052.34375 657.566406 C 1052.34375 657.085938 1052.253906 656.625 1052.070312 656.183594 C 1051.886719 655.742188 1051.628906 655.351562 1051.289062 655.011719 C 1050.949219 654.671875 1050.5625 654.414062 1050.117188 654.230469 C 1049.675781 654.046875 1049.214844 653.953125 1048.738281 653.953125 C 1048.257812 653.953125 1047.800781 654.046875 1047.355469 654.226562 C 1046.914062 654.410156 1046.523438 654.671875 1046.1875 655.011719 C 1045.847656 655.347656 1045.585938 655.738281 1045.402344 656.183594 C 1045.21875 656.625 1045.128906 657.085938 1045.128906 657.5625 C 1045.128906 658.042969 1045.21875 658.503906 1045.402344 658.945312 C 1045.585938 659.386719 1045.84375 659.777344 1046.183594 660.117188 C 1046.519531 660.453125 1046.910156 660.714844 1047.351562 660.898438 C 1047.792969 661.082031 1048.253906 661.171875 1048.734375 661.171875 Z M 1048.734375 661.171875 " fill-opacity="1" fill-rule="nonzero"/><path fill="#545454" d="M 859.632812 685.175781 C 860.109375 685.175781 860.570312 685.085938 861.015625 684.902344 C 861.457031 684.71875 861.847656 684.460938 862.1875 684.121094 C 862.523438 683.78125 862.785156 683.390625 862.96875 682.949219 C 863.152344 682.507812 863.242188 682.046875 863.242188 681.566406 C 863.246094 681.089844 863.152344 680.628906 862.96875 680.1875 C 862.785156 679.742188 862.527344 679.351562 862.1875 679.015625 C 861.847656 678.675781 861.457031 678.414062 861.015625 678.230469 C 860.574219 678.050781 860.113281 677.957031 859.636719 677.957031 C 859.15625 677.957031 858.695312 678.050781 858.253906 678.234375 C 857.8125 678.417969 857.421875 678.675781 857.082031 679.015625 C 856.746094 679.355469 856.484375 679.746094 856.300781 680.1875 C 856.117188 680.632812 856.027344 681.089844 856.027344 681.570312 C 856.027344 682.046875 856.121094 682.507812 856.300781 682.949219 C 856.484375 683.390625 856.746094 683.78125 857.082031 684.121094 C 857.421875 684.457031 857.8125 684.71875 858.253906 684.902344 C 858.695312 685.085938 859.15625 685.175781 859.632812 685.175781 Z M 859.632812 685.175781 " fill-opacity="1" fill-rule="nonzero"/><path fill="#545454" d="M 1060.472656 799.015625 C 1060.863281 798.738281 1061.1875 798.398438 1061.441406 797.996094 C 1061.699219 797.589844 1061.867188 797.152344 1061.949219 796.679688 C 1062.03125 796.207031 1062.019531 795.738281 1061.914062 795.273438 C 1061.808594 794.804688 1061.617188 794.375 1061.34375 793.984375 C 1061.066406 793.59375 1060.726562 793.269531 1060.320312 793.015625 C 1059.917969 792.757812 1059.480469 792.589844 1059.007812 792.507812 C 1058.535156 792.425781 1058.066406 792.4375 1057.601562 792.542969 C 1057.132812 792.648438 1056.703125 792.839844 1056.3125 793.117188 C 1055.921875 793.390625 1055.597656 793.730469 1055.34375 794.136719 C 1055.085938 794.542969 1054.917969 794.980469 1054.835938 795.449219 C 1054.757812 795.921875 1054.769531 796.390625 1054.875 796.859375 C 1054.980469 797.324219 1055.167969 797.753906 1055.445312 798.144531 C 1055.722656 798.539062 1056.0625 798.859375 1056.464844 799.117188 C 1056.871094 799.371094 1057.308594 799.539062 1057.777344 799.621094 C 1058.25 799.703125 1058.71875 799.691406 1059.1875 799.585938 C 1059.652344 799.480469 1060.082031 799.289062 1060.472656 799.015625 Z M 1060.472656 799.015625 " fill-opacity="1" fill-rule="nonzero"/><path fill="#545454" d="M 753.605469 610.390625 C 754.082031 610.390625 754.542969 610.296875 754.984375 610.113281 C 755.425781 609.929688 755.816406 609.671875 756.15625 609.332031 C 756.492188 608.992188 756.753906 608.601562 756.9375 608.160156 C 757.117188 607.71875 757.210938 607.257812 757.207031 606.777344 C 757.207031 606.300781 757.117188 605.839844 756.933594 605.398438 C 756.75 604.957031 756.488281 604.566406 756.148438 604.226562 C 755.808594 603.890625 755.417969 603.628906 754.976562 603.449219 C 754.535156 603.265625 754.074219 603.175781 753.59375 603.175781 C 753.117188 603.179688 752.65625 603.273438 752.214844 603.457031 C 751.773438 603.640625 751.382812 603.902344 751.046875 604.242188 C 750.710938 604.582031 750.449219 604.972656 750.269531 605.414062 C 750.085938 605.859375 750 606.320312 750 606.796875 C 750 607.273438 750.09375 607.734375 750.277344 608.171875 C 750.460938 608.613281 750.722656 609 751.0625 609.339844 C 751.398438 609.675781 751.789062 609.933594 752.226562 610.117188 C 752.667969 610.296875 753.128906 610.390625 753.605469 610.390625 Z M 753.605469 610.390625 " fill-opacity="1" fill-rule="nonzero"/><path fill="#545454" d="M 944.402344 475.933594 C 944.882812 475.933594 945.339844 475.839844 945.785156 475.65625 C 946.226562 475.476562 946.617188 475.214844 946.953125 474.875 C 947.292969 474.539062 947.554688 474.148438 947.734375 473.703125 C 947.917969 473.261719 948.011719 472.800781 948.011719 472.324219 C 948.011719 471.84375 947.917969 471.382812 947.734375 470.941406 C 947.554688 470.5 947.292969 470.109375 946.953125 469.769531 C 946.617188 469.433594 946.226562 469.171875 945.785156 468.988281 C 945.339844 468.804688 944.882812 468.714844 944.402344 468.714844 C 943.925781 468.714844 943.464844 468.804688 943.023438 468.988281 C 942.578125 469.171875 942.191406 469.433594 941.851562 469.769531 C 941.511719 470.109375 941.253906 470.5 941.070312 470.941406 C 940.886719 471.382812 940.792969 471.84375 940.792969 472.324219 C 940.792969 472.800781 940.886719 473.261719 941.070312 473.703125 C 941.253906 474.148438 941.511719 474.539062 941.851562 474.875 C 942.191406 475.214844 942.578125 475.476562 943.023438 475.65625 C 943.464844 475.839844 943.925781 475.933594 944.402344 475.933594 Z M 944.402344 475.933594 " fill-opacity="1" fill-rule="nonzero"/><path fill="#545454" d="M 845.542969 476.484375 C 846.023438 476.484375 846.480469 476.390625 846.921875 476.207031 C 847.367188 476.023438 847.753906 475.765625 848.09375 475.425781 C 848.429688 475.089844 848.691406 474.699219 848.875 474.257812 C 849.058594 473.816406 849.148438 473.355469 849.148438 472.875 C 849.148438 472.398438 849.058594 471.9375 848.875 471.496094 C 848.691406 471.054688 848.429688 470.664062 848.09375 470.328125 C 847.753906 469.988281 847.367188 469.726562 846.921875 469.546875 C 846.480469 469.363281 846.023438 469.269531 845.542969 469.269531 C 845.066406 469.269531 844.605469 469.363281 844.164062 469.546875 C 843.722656 469.726562 843.332031 469.988281 842.996094 470.328125 C 842.65625 470.664062 842.398438 471.054688 842.214844 471.496094 C 842.03125 471.9375 841.941406 472.398438 841.941406 472.875 C 841.941406 473.355469 842.03125 473.816406 842.214844 474.257812 C 842.398438 474.699219 842.65625 475.089844 842.996094 475.425781 C 843.332031 475.765625 843.722656 476.023438 844.164062 476.207031 C 844.605469 476.390625 845.066406 476.484375 845.542969 476.484375 Z M 845.542969 476.484375 " fill-opacity="1" fill-rule="nonzero"/><path fill="#545454" d="M 1043.277344 478.761719 C 1043.757812 478.761719 1044.21875 478.671875 1044.660156 478.488281 C 1045.101562 478.304688 1045.492188 478.046875 1045.832031 477.707031 C 1046.171875 477.367188 1046.429688 476.980469 1046.613281 476.535156 C 1046.796875 476.09375 1046.890625 475.632812 1046.890625 475.15625 C 1046.890625 474.675781 1046.800781 474.214844 1046.617188 473.773438 C 1046.433594 473.332031 1046.171875 472.941406 1045.835938 472.601562 C 1045.496094 472.261719 1045.105469 472.003906 1044.664062 471.820312 C 1044.222656 471.636719 1043.761719 471.542969 1043.285156 471.542969 C 1042.804688 471.542969 1042.34375 471.636719 1041.902344 471.816406 C 1041.460938 472 1041.070312 472.261719 1040.730469 472.601562 C 1040.394531 472.9375 1040.132812 473.328125 1039.949219 473.769531 C 1039.765625 474.214844 1039.675781 474.675781 1039.675781 475.152344 C 1039.671875 475.632812 1039.765625 476.089844 1039.949219 476.535156 C 1040.128906 476.976562 1040.390625 477.367188 1040.730469 477.703125 C 1041.066406 478.042969 1041.457031 478.304688 1041.898438 478.488281 C 1042.339844 478.671875 1042.800781 478.761719 1043.277344 478.761719 Z M 1043.277344 478.761719 " fill-opacity="1" fill-rule="nonzero"/><path fill="#545454" d="M 932.6875 418.390625 C 932.082031 418.683594 931.496094 419.007812 930.925781 419.367188 C 930.359375 419.726562 929.8125 420.117188 929.289062 420.539062 C 928.765625 420.960938 928.265625 421.410156 927.796875 421.890625 C 927.324219 422.367188 926.878906 422.871094 926.464844 423.402344 C 926.050781 423.933594 925.667969 424.484375 925.316406 425.058594 C 924.964844 425.632812 924.648438 426.222656 924.367188 426.832031 C 924.082031 427.441406 923.835938 428.066406 923.625 428.707031 C 923.414062 429.34375 923.238281 429.992188 923.101562 430.652344 C 922.964844 431.308594 922.863281 431.972656 922.804688 432.644531 C 922.742188 433.3125 922.71875 433.984375 922.734375 434.65625 C 922.75 435.328125 922.804688 436 922.898438 436.664062 C 922.988281 437.332031 923.121094 437.988281 923.289062 438.640625 C 923.457031 439.292969 923.660156 439.933594 923.902344 440.558594 C 924.144531 441.1875 924.421875 441.800781 924.730469 442.394531 C 925.042969 442.992188 925.386719 443.566406 925.765625 444.125 C 926.144531 444.679688 926.550781 445.214844 926.988281 445.722656 C 927.429688 446.234375 927.894531 446.714844 928.390625 447.171875 C 928.882812 447.628906 929.402344 448.054688 929.945312 448.453125 C 930.488281 448.847656 931.050781 449.214844 931.636719 449.546875 C 932.21875 449.875 932.824219 450.175781 933.441406 450.4375 C 934.058594 450.699219 934.691406 450.925781 935.335938 451.117188 C 935.980469 451.308594 936.636719 451.460938 937.296875 451.578125 C 937.960938 451.691406 938.625 451.769531 939.296875 451.808594 C 939.96875 451.847656 940.640625 451.847656 941.3125 451.808594 C 941.984375 451.769531 942.648438 451.695312 943.3125 451.578125 C 943.976562 451.464844 944.628906 451.3125 945.273438 451.125 C 945.917969 450.933594 946.550781 450.707031 947.171875 450.445312 C 947.789062 450.183594 948.390625 449.886719 948.976562 449.554688 C 949.5625 449.226562 950.125 448.859375 950.667969 448.464844 C 951.214844 448.070312 951.730469 447.644531 952.226562 447.1875 C 952.722656 446.730469 953.1875 446.25 953.628906 445.742188 C 954.066406 445.230469 954.476562 444.699219 954.855469 444.144531 C 954.472656 444.113281 954.089844 444.074219 953.710938 444.019531 C 953.332031 443.964844 952.953125 443.898438 952.578125 443.820312 C 952.199219 443.742188 951.828125 443.652344 951.457031 443.550781 C 951.089844 443.449219 950.722656 443.332031 950.359375 443.207031 C 950 443.078125 949.640625 442.941406 949.289062 442.789062 C 948.933594 442.640625 948.585938 442.480469 948.242188 442.304688 C 947.902344 442.132812 947.5625 441.949219 947.234375 441.753906 C 946.902344 441.558594 946.578125 441.355469 946.261719 441.136719 C 945.945312 440.921875 945.636719 440.695312 945.332031 440.457031 C 945.03125 440.222656 944.734375 439.976562 944.449219 439.71875 C 944.164062 439.464844 943.886719 439.199219 943.617188 438.925781 C 943.347656 438.652344 943.089844 438.367188 942.839844 438.078125 C 942.585938 437.789062 942.347656 437.488281 942.117188 437.183594 C 941.886719 436.875 941.664062 436.5625 941.453125 436.238281 C 941.242188 435.917969 941.042969 435.589844 940.855469 435.257812 C 940.667969 434.921875 940.488281 434.582031 940.324219 434.238281 C 940.15625 433.890625 940 433.539062 939.855469 433.183594 C 939.714844 432.828125 939.582031 432.46875 939.460938 432.101562 C 939.339844 431.738281 939.234375 431.371094 939.136719 431 C 939.042969 430.625 938.957031 430.25 938.886719 429.875 C 938.816406 429.496094 938.753906 429.117188 938.710938 428.738281 C 938.664062 428.355469 938.628906 427.972656 938.605469 427.589844 C 938.585938 427.207031 938.574219 426.824219 938.578125 426.441406 C 938.582031 426.054688 938.597656 425.671875 938.628906 425.289062 C 938.65625 424.90625 938.695312 424.523438 938.75 424.144531 C 938.804688 423.765625 938.871094 423.386719 938.949219 423.011719 C 939.027344 422.636719 939.117188 422.261719 939.21875 421.890625 C 939.324219 421.523438 939.4375 421.15625 939.5625 420.792969 C 939.691406 420.429688 939.828125 420.074219 939.980469 419.71875 C 940.128906 419.367188 940.289062 419.019531 940.464844 418.675781 C 940.636719 418.332031 940.820312 417.996094 941.015625 417.664062 C 941.210938 417.335938 941.414062 417.011719 941.632812 416.691406 C 938.496094 416.453125 935.515625 417.019531 932.6875 418.390625 Z M 932.6875 418.390625 " fill-opacity="1" fill-rule="nonzero"/><path fill="#545454" d="M 865.675781 553.171875 L 868.828125 542.117188 L 879.878906 538.960938 L 868.828125 535.804688 L 865.675781 524.75 L 862.515625 535.804688 L 851.46875 538.960938 L 862.515625 542.117188 Z M 865.675781 553.171875 " fill-opacity="1" fill-rule="nonzero"/><path fill="#545454" d="M 791.988281 649.675781 L 797.808594 629.289062 L 818.183594 623.46875 L 797.808594 617.644531 L 791.988281 597.261719 L 786.164062 617.644531 L 765.789062 623.46875 L 786.164062 629.289062 Z M 791.988281 649.675781 " fill-opacity="1" fill-rule="nonzero"/><path fill="#545454" d="M 966.515625 686.328125 L 969.671875 675.273438 L 980.71875 672.117188 L 969.671875 668.957031 L 966.515625 657.90625 L 963.355469 668.957031 L 952.308594 672.117188 L 963.355469 675.273438 Z M 966.515625 686.328125 " fill-opacity="1" fill-rule="nonzero"/><path fill="#545454" d="M 869.972656 457.707031 L 873.125 446.652344 L 884.175781 443.496094 L 873.125 440.339844 L 869.972656 429.285156 L 866.8125 440.339844 L 855.761719 443.496094 L 866.8125 446.652344 Z M 869.972656 457.707031 " fill-opacity="1" fill-rule="nonzero"/><path fill="#545454" d="M 1065.128906 558.636719 L 1067.203125 551.382812 L 1074.449219 549.3125 L 1067.203125 547.242188 L 1065.128906 539.992188 L 1063.058594 547.242188 L 1055.8125 549.3125 L 1063.058594 551.382812 Z M 1065.128906 558.636719 " fill-opacity="1" fill-rule="nonzero"/><path fill="#545454" d="M 1057.28125 588.890625 L 1059.355469 581.640625 L 1066.601562 579.566406 L 1059.355469 577.496094 L 1057.28125 570.246094 L 1055.210938 577.496094 L 1047.964844 579.566406 L 1055.210938 581.640625 Z M 1057.28125 588.890625 " fill-opacity="1" fill-rule="nonzero"/><path fill="#545454" d="M 763.785156 653.015625 L 765.851562 645.761719 L 773.101562 643.691406 L 765.851562 641.621094 L 763.785156 634.367188 L 761.714844 641.621094 L 754.464844 643.691406 L 761.714844 645.761719 Z M 763.785156 653.015625 " fill-opacity="1" fill-rule="nonzero"/><path fill="#545454" d="M 1102.273438 696.808594 L 1104.339844 689.554688 L 1111.589844 687.484375 L 1104.339844 685.414062 L 1102.273438 678.164062 L 1100.199219 685.414062 L 1092.949219 687.484375 L 1100.199219 689.554688 Z M 1102.273438 696.808594 " fill-opacity="1" fill-rule="nonzero"/><path fill="#545454" d="M 1009.644531 443.882812 L 1011.714844 436.632812 L 1018.960938 434.5625 L 1011.714844 432.492188 L 1009.644531 425.242188 L 1007.574219 432.492188 L 1000.328125 434.5625 L 1007.574219 436.632812 Z M 1009.644531 443.882812 " fill-opacity="1" fill-rule="nonzero"/><path fill="#545454" d="M 985.496094 720.546875 L 987.566406 713.296875 L 994.820312 711.226562 L 987.566406 709.152344 L 985.496094 701.902344 L 983.429688 709.152344 L 976.179688 711.226562 L 983.429688 713.296875 Z M 985.496094 720.546875 " fill-opacity="1" fill-rule="nonzero"/><path fill="#545454" d="M 1046.171875 798.769531 L 1043.683594 791.652344 L 1048.410156 785.777344 L 1041.292969 788.265625 L 1035.425781 783.535156 L 1037.914062 790.65625 L 1033.179688 796.53125 L 1040.296875 794.039062 Z M 1046.171875 798.769531 " fill-opacity="1" fill-rule="nonzero"/><path fill="#545454" d="M 772.367188 480.910156 L 774.4375 473.660156 L 781.6875 471.589844 L 774.4375 469.519531 L 772.367188 462.269531 L 770.296875 469.519531 L 763.050781 471.589844 L 770.296875 473.660156 Z M 772.367188 480.910156 " fill-opacity="1" fill-rule="nonzero"/><path fill="#545454" d="M 835.480469 455.417969 L 837.546875 448.167969 L 844.796875 446.097656 L 837.546875 444.023438 L 835.480469 436.773438 L 833.40625 444.023438 L 826.15625 446.097656 L 833.40625 448.167969 Z M 835.480469 455.417969 " fill-opacity="1" fill-rule="nonzero"/><g clip-path="url(#d04a7ed38a)"><path fill="#545454" d="M 851.296875 426.9375 L 853.367188 419.6875 L 860.613281 417.613281 L 853.367188 415.539062 L 851.296875 408.289062 L 849.222656 415.539062 L 841.976562 417.613281 L 849.222656 419.6875 Z M 851.296875 426.9375 " fill-opacity="1" fill-rule="nonzero"/></g><path fill="#545454" d="M 806.820312 720.6875 L 808.890625 713.4375 L 816.136719 711.367188 L 808.890625 709.296875 L 806.820312 702.042969 L 804.746094 709.296875 L 797.5 711.367188 L 804.746094 713.4375 Z M 806.820312 720.6875 " fill-opacity="1" fill-rule="nonzero"/><path fill="#545454" d="M 859.914062 667.859375 L 861.980469 660.609375 L 869.230469 658.539062 L 861.980469 656.46875 L 859.914062 649.21875 L 857.839844 656.46875 L 850.589844 658.539062 L 857.839844 660.609375 Z M 859.914062 667.859375 " fill-opacity="1" fill-rule="nonzero"/><path fill="#545454" d="M 1076.167969 686.160156 L 1061.789062 682.273438 L 1060.996094 667.394531 L 1052.859375 679.871094 L 1038.46875 676.03125 L 1047.816406 687.628906 L 1039.714844 700.136719 L 1053.636719 694.824219 L 1063.015625 706.394531 L 1062.273438 691.511719 Z M 1076.167969 686.160156 " fill-opacity="1" fill-rule="nonzero"/><path fill="#545454" d="M 900.3125 560.753906 L 893.222656 558.839844 L 892.828125 551.5 L 888.816406 557.65625 L 881.714844 555.761719 L 886.328125 561.480469 L 882.332031 567.652344 L 889.195312 565.03125 L 893.828125 570.734375 L 893.453125 563.394531 Z M 900.3125 560.753906 " fill-opacity="1" fill-rule="nonzero"/><path fill="#545454" d="M 1100.429688 656.328125 L 1093.335938 654.414062 L 1092.945312 647.074219 L 1088.929688 653.230469 L 1081.832031 651.335938 L 1086.445312 657.054688 L 1082.449219 663.226562 L 1089.3125 660.605469 L 1093.941406 666.308594 L 1093.574219 658.972656 Z M 1100.429688 656.328125 " fill-opacity="1" fill-rule="nonzero"/><path fill="#545454" d="M 986.226562 446.925781 L 979.140625 445.011719 L 978.746094 437.671875 L 974.730469 443.828125 L 967.636719 441.933594 L 972.246094 447.652344 L 968.25 453.824219 L 975.113281 451.203125 L 979.742188 456.90625 L 979.375 449.566406 Z M 986.226562 446.925781 " fill-opacity="1" fill-rule="nonzero"/><path fill="#545454" d="M 1057.535156 520.222656 L 1050.441406 518.304688 L 1050.046875 510.964844 L 1046.035156 517.117188 L 1038.9375 515.226562 L 1043.546875 520.945312 L 1039.554688 527.113281 L 1046.417969 524.492188 L 1051.046875 530.203125 L 1050.679688 522.859375 Z M 1057.535156 520.222656 " fill-opacity="1" fill-rule="nonzero"/></svg>