<svg xmlns="http://www.w3.org/2000/svg" xmlns:xlink="http://www.w3.org/1999/xlink" width="2000" zoomAndPan="magnify" viewBox="0 0 1500 1499.999933" height="2000" preserveAspectRatio="xMidYMid meet" version="1.0"><defs><clipPath id="e08eca2679"><path d="M 350.511719 281.347656 L 1206.019531 281.347656 L 1206.019531 1218.585938 L 350.511719 1218.585938 Z M 350.511719 281.347656 " clip-rule="nonzero"/></clipPath></defs><path fill="#545454" d="M 622.878906 427.75 C 613.277344 420.941406 578.15625 418.289062 556.4375 447.671875 C 537.371094 473.472656 537.300781 511.027344 508.054688 529.085938 C 493.9375 537.828125 474.796875 537.613281 459.53125 532.3125 C 423.40625 519.839844 421.398438 484.582031 406.492188 455.199219 C 392.800781 428.324219 370.507812 418.863281 341.410156 424.238281 C 335.890625 425.242188 327.71875 425.527344 324.921875 431.546875 C 322.703125 436.351562 326.789062 442.226562 332.089844 441.652344 C 334.3125 441.367188 336.605469 441.222656 338.828125 440.9375 C 359.613281 438.070312 374.378906 446.886719 381.761719 460.929688 C 392.800781 483.292969 395.453125 510.597656 421.328125 539.476562 C 432.867188 552.304688 438.457031 543.5625 421.398438 553.09375 C 345.710938 590.574219 341.121094 733.976562 450.429688 746.878906 C 476.660156 749.960938 509.703125 745.800781 532.785156 732.1875 C 581.453125 703.589844 599.441406 614.007812 547.765625 563.84375 C 535.9375 552.378906 529.628906 551.300781 522.105469 547.574219 C 538.660156 537.757812 546.472656 524.785156 559.089844 499.273438 C 574.070312 469.03125 575.644531 445.453125 608.617188 443.445312 C 613.707031 443.160156 620.800781 445.59375 625.101562 442.15625 C 629.117188 439 628.757812 431.835938 622.878906 427.75 Z M 522.964844 581.617188 C 554.5 604.191406 557.082031 652.925781 539.878906 684.957031 C 520.097656 721.867188 463.902344 734.265625 427.921875 713.910156 C 427.207031 713.480469 426.488281 713.050781 425.84375 712.621094 C 384.988281 686.390625 384.414062 624.257812 418.03125 589.714844 C 444.980469 562.050781 492.644531 559.902344 522.964844 581.617188 Z M 522.964844 581.617188 " fill-opacity="1" fill-rule="nonzero"/><path fill="#545454" d="M 601.808594 559.542969 C 593.707031 552.519531 593.921875 539.765625 596.648438 535.035156 C 597.792969 533.027344 600.875 530.734375 599.800781 531.664062 C 607.757812 525.144531 614.78125 528.941406 605.964844 525.644531 C 598.367188 523.210938 592.847656 524.5 588.117188 526.578125 C 568.695312 535.105469 576.292969 565.421875 604.316406 562.910156 C 608.6875 562.480469 606.109375 563.269531 601.808594 559.542969 Z M 601.808594 559.542969 " fill-opacity="1" fill-rule="nonzero"/><path fill="#545454" d="M 499.023438 690.976562 C 498.164062 692.839844 499.742188 695.492188 501.605469 696.066406 C 503.539062 696.640625 505.832031 695.207031 506.550781 694.132812 C 508.988281 690.40625 501.890625 685.03125 499.023438 690.976562 Z M 499.023438 690.976562 " fill-opacity="1" fill-rule="nonzero"/><path fill="#545454" d="M 434.085938 689.332031 C 433.226562 691.195312 434.804688 693.84375 436.667969 694.417969 C 438.601562 694.992188 440.894531 693.558594 441.613281 692.484375 C 443.976562 688.828125 436.882812 683.382812 434.085938 689.332031 Z M 434.085938 689.332031 " fill-opacity="1" fill-rule="nonzero"/><path fill="#545454" d="M 364.203125 580.542969 C 363.34375 582.40625 364.917969 585.054688 366.78125 585.628906 C 368.71875 586.203125 371.011719 584.769531 371.726562 583.695312 C 374.164062 579.96875 367.070312 574.59375 364.203125 580.542969 Z M 364.203125 580.542969 " fill-opacity="1" fill-rule="nonzero"/><path fill="#545454" d="M 373.304688 513.890625 C 375.242188 514.464844 377.535156 513.03125 378.25 511.957031 C 380.6875 508.230469 373.589844 502.855469 370.796875 508.804688 C 369.863281 510.667969 371.511719 513.320312 373.304688 513.890625 Z M 373.304688 513.890625 " fill-opacity="1" fill-rule="nonzero"/><path fill="#545454" d="M 297.617188 533.457031 C 296.753906 535.320312 298.332031 537.972656 300.195312 538.546875 C 302.128906 539.117188 304.425781 537.683594 305.140625 536.609375 C 307.578125 532.882812 300.480469 527.507812 297.617188 533.457031 Z M 297.617188 533.457031 " fill-opacity="1" fill-rule="nonzero"/><path fill="#545454" d="M 496.730469 492.824219 C 499.167969 489.097656 492.070312 483.722656 489.277344 489.667969 C 488.417969 491.53125 489.992188 494.183594 491.855469 494.757812 C 493.792969 495.332031 496.085938 493.898438 496.730469 492.824219 Z M 496.730469 492.824219 " fill-opacity="1" fill-rule="nonzero"/><path fill="#545454" d="M 455.445312 442.726562 C 457.378906 443.300781 459.675781 441.867188 460.390625 440.792969 C 462.828125 437.066406 455.730469 431.691406 452.9375 437.640625 C 452.003906 439.433594 453.652344 442.082031 455.445312 442.726562 Z M 455.445312 442.726562 " fill-opacity="1" fill-rule="nonzero"/><path fill="#545454" d="M 536.871094 412.988281 C 536.007812 414.851562 537.585938 417.503906 539.449219 418.074219 C 541.386719 418.648438 543.679688 417.214844 544.394531 416.140625 C 546.761719 412.414062 539.664062 407.039062 536.871094 412.988281 Z M 536.871094 412.988281 " fill-opacity="1" fill-rule="nonzero"/><path fill="#545454" d="M 586.109375 502.570312 C 588.046875 503.144531 590.339844 501.710938 591.054688 500.632812 C 593.492188 496.90625 586.398438 491.53125 583.601562 497.480469 C 582.671875 499.273438 584.246094 501.925781 586.109375 502.570312 Z M 586.109375 502.570312 " fill-opacity="1" fill-rule="nonzero"/><path fill="#545454" d="M 588.40625 580.253906 C 587.542969 582.117188 589.121094 584.769531 590.984375 585.34375 C 592.921875 585.917969 595.214844 584.484375 595.929688 583.410156 C 598.296875 579.679688 591.269531 574.308594 588.40625 580.253906 Z M 588.40625 580.253906 " fill-opacity="1" fill-rule="nonzero"/><path fill="#545454" d="M 647.824219 528.511719 C 646.964844 530.375 648.539062 533.027344 650.402344 533.601562 C 652.339844 534.175781 654.632812 532.742188 655.351562 531.664062 C 657.714844 527.9375 650.617188 522.5625 647.824219 528.511719 Z M 647.824219 528.511719 " fill-opacity="1" fill-rule="nonzero"/><path fill="#545454" d="M 362.839844 535.105469 C 362.050781 531.378906 361.550781 530.304688 360.617188 526.21875 C 359.542969 521.417969 359.183594 518.191406 357.464844 517.261719 C 353.449219 515.039062 352.878906 519.839844 347.933594 535.964844 C 333.167969 540.195312 329.511719 541.269531 328.722656 543.492188 C 327.359375 547.574219 335.960938 548.9375 348.003906 550.441406 L 352.160156 566.851562 C 353.308594 570.363281 357.035156 571.582031 359.042969 564.273438 C 359.042969 564.203125 362.480469 552.089844 362.695312 552.019531 C 368.644531 550.371094 379.613281 546.285156 380.902344 545.425781 C 390.148438 539.332031 363.054688 536.253906 362.839844 535.105469 Z M 362.839844 535.105469 " fill-opacity="1" fill-rule="nonzero"/><path fill="#545454" d="M 511.351562 425.386719 C 510.5625 421.660156 510.0625 420.582031 509.128906 416.5 C 508.054688 411.695312 507.699219 408.472656 505.976562 407.539062 C 501.964844 405.320312 501.390625 410.121094 496.445312 426.246094 C 481.679688 430.472656 478.023438 431.546875 477.234375 433.769531 C 475.875 437.855469 484.472656 439.21875 496.515625 440.722656 L 500.671875 457.132812 C 501.820312 460.644531 505.546875 461.863281 507.554688 454.554688 C 507.554688 454.480469 510.996094 442.371094 511.210938 442.296875 C 517.160156 440.648438 528.125 436.566406 529.414062 435.707031 C 538.734375 429.683594 511.566406 426.53125 511.351562 425.386719 Z M 511.351562 425.386719 " fill-opacity="1" fill-rule="nonzero"/><path fill="#545454" d="M 316.464844 505.792969 L 319.332031 516.972656 C 320.121094 519.339844 322.628906 520.199219 323.992188 515.253906 C 323.992188 515.183594 326.285156 507.011719 326.5 506.941406 C 330.515625 505.792969 337.96875 503.070312 338.828125 502.496094 C 345.066406 498.339844 326.644531 496.191406 326.5 495.402344 C 326 492.894531 325.640625 492.179688 324.996094 489.382812 C 324.277344 486.15625 323.992188 483.9375 322.84375 483.292969 C 320.121094 481.785156 319.761719 485.011719 316.394531 495.976562 C 306.359375 498.84375 303.851562 499.558594 303.347656 501.0625 C 302.488281 503.859375 308.296875 504.789062 316.464844 505.792969 Z M 316.464844 505.792969 " fill-opacity="1" fill-rule="nonzero"/><path fill="#545454" d="M 331.445312 619.597656 C 330.945312 617.089844 330.585938 616.375 329.941406 613.578125 C 329.222656 610.355469 328.9375 608.132812 327.789062 607.488281 C 325.066406 605.984375 324.707031 609.207031 321.339844 620.171875 C 311.304688 623.039062 308.796875 623.757812 308.296875 625.261719 C 307.363281 628.054688 313.242188 628.988281 321.410156 629.992188 L 324.277344 641.171875 C 325.066406 643.535156 327.574219 644.394531 328.9375 639.449219 C 328.9375 639.378906 331.230469 631.210938 331.445312 631.136719 C 335.460938 629.992188 342.914062 627.269531 343.773438 626.695312 C 349.9375 622.539062 331.589844 620.386719 331.445312 619.597656 Z M 331.445312 619.597656 " fill-opacity="1" fill-rule="nonzero"/><path fill="#545454" d="M 640.511719 498.484375 C 640.011719 495.976562 639.652344 495.257812 639.007812 492.464844 C 638.289062 489.238281 638.003906 487.019531 636.855469 486.371094 C 634.132812 484.867188 633.773438 488.09375 630.40625 499.058594 C 620.371094 501.925781 617.863281 502.640625 617.363281 504.144531 C 616.429688 506.941406 622.308594 507.871094 630.476562 508.875 L 633.34375 520.054688 C 634.132812 522.421875 636.640625 523.28125 638.003906 518.335938 C 638.003906 518.265625 640.296875 510.09375 640.511719 510.023438 C 644.527344 508.875 651.980469 506.152344 652.839844 505.578125 C 659.003906 501.351562 640.65625 499.273438 640.511719 498.484375 Z M 640.511719 498.484375 " fill-opacity="1" fill-rule="nonzero"/><path fill="#545454" d="M 467.773438 482.574219 C 471.789062 481.429688 479.242188 478.703125 480.101562 478.132812 C 486.339844 473.976562 467.917969 471.824219 467.773438 471.035156 C 467.273438 468.527344 466.914062 467.8125 466.269531 465.015625 C 465.550781 461.792969 465.265625 459.570312 464.117188 458.925781 C 461.394531 457.421875 461.035156 460.644531 457.667969 471.609375 C 447.632812 474.476562 445.125 475.191406 444.621094 476.699219 C 443.691406 479.492188 449.566406 480.425781 457.738281 481.429688 L 460.605469 492.609375 C 461.394531 494.972656 463.902344 495.832031 465.265625 490.886719 C 465.335938 490.816406 467.628906 482.574219 467.773438 482.574219 Z M 467.773438 482.574219 " fill-opacity="1" fill-rule="nonzero"/><path fill="#545454" d="M 625.890625 589.214844 C 625.390625 586.703125 625.03125 585.988281 624.386719 583.191406 C 623.667969 579.96875 623.382812 577.746094 622.234375 577.101562 C 619.511719 575.597656 619.152344 578.820312 615.785156 589.785156 C 605.75 592.652344 603.242188 593.371094 602.738281 594.875 C 601.808594 597.667969 607.683594 598.601562 615.855469 599.605469 L 618.722656 610.785156 C 619.511719 613.148438 622.019531 614.007812 623.382812 609.066406 C 623.382812 608.992188 625.675781 600.824219 625.890625 600.75 C 629.90625 599.605469 637.359375 596.882812 638.21875 596.308594 C 644.453125 592.152344 626.035156 590 625.890625 589.214844 Z M 625.890625 589.214844 " fill-opacity="1" fill-rule="nonzero"/><path fill="#545454" d="M 487.339844 670.769531 C 486.839844 668.261719 486.480469 667.542969 485.835938 664.75 C 485.121094 661.523438 484.832031 659.300781 483.6875 658.65625 C 480.960938 657.152344 480.605469 660.378906 477.234375 671.34375 C 467.199219 674.207031 464.691406 674.925781 464.191406 676.429688 C 463.257812 679.226562 469.136719 680.15625 477.308594 681.160156 L 480.171875 692.339844 C 480.960938 694.703125 483.472656 695.566406 484.832031 690.621094 C 484.832031 690.546875 487.125 682.378906 487.339844 682.308594 C 491.355469 681.160156 498.808594 678.4375 499.667969 677.863281 C 505.90625 673.636719 487.484375 671.558594 487.339844 670.769531 Z M 487.339844 670.769531 " fill-opacity="1" fill-rule="nonzero"/><path fill="#545454" d="M 763.785156 428.339844 C 774.152344 413.796875 801.507812 406.332031 808.429688 401.59375 C 794.207031 398.574219 774.226562 396.714844 753.171875 386.238281 C 730.460938 374.941406 712.519531 349.035156 719.804688 324.734375 C 711.257812 323.933594 694.324219 359.046875 713.21875 390.820312 C 728.523438 416.5625 756.535156 424.796875 763.785156 428.339844 " fill-opacity="1" fill-rule="nonzero"/><path fill="#545454" d="M 997.671875 954.179688 C 993.929688 956.949219 1001.433594 951.878906 997.671875 954.179688 " fill-opacity="1" fill-rule="nonzero"/><g clip-path="url(#e08eca2679)"><path fill="#545454" d="M 817.675781 497.125 C 811.324219 497.125 806.171875 491.972656 806.171875 485.617188 C 806.171875 479.261719 811.324219 474.113281 817.675781 474.113281 C 824.027344 474.113281 829.179688 479.261719 829.179688 485.617188 C 829.179688 491.972656 824.027344 497.125 817.675781 497.125 Z M 709.777344 528.609375 C 709.804688 546.675781 687.148438 532.300781 701.582031 522.039062 C 709.4375 515.351562 713.578125 521.980469 709.777344 528.609375 Z M 930.808594 480.105469 C 937.253906 477.347656 953.503906 465.253906 970.179688 471.480469 C 949.261719 472.675781 941.300781 484.730469 919.835938 491.359375 C 925.65625 492.113281 937.316406 490.71875 951.363281 486.324219 C 940.285156 495.996094 898.089844 505.753906 889.074219 483.40625 C 893.140625 483.925781 912.507812 487.949219 930.808594 480.105469 Z M 414.277344 935.375 C 394.953125 937.921875 372.238281 931.929688 364.695312 914.214844 C 367.453125 928.347656 390.398438 960.5 434.976562 947.96875 C 490.492188 925.824219 470.523438 786.273438 579.636719 819.726562 C 545.359375 898.222656 537.980469 980.683594 547.308594 1028.289062 C 542.136719 1022.378906 540.441406 1011.15625 539.203125 1003.246094 C 533.804688 1021.78125 518.246094 1030.789062 524.472656 1053.554688 C 529.496094 1072 516.335938 1116.964844 508.433594 1128.738281 C 499.867188 1142.003906 505.886719 1151.121094 506.550781 1152.347656 C 479.640625 1196.910156 498.417969 1221.726562 556.253906 1218.265625 C 555.839844 1215.628906 557.351562 1208.925781 554.554688 1182.652344 C 558.230469 1186.074219 564.410156 1208.863281 565.277344 1217.691406 C 583.113281 1215.808594 588.175781 1210.207031 589.191406 1208.777344 C 473.496094 973.757812 726.125 1080.570312 687.722656 886.375 C 687.722656 886.375 713.429688 933.859375 695.503906 980.296875 C 734.410156 972.167969 756.480469 1022.929688 828.0625 1020.195312 L 828.496094 1019.6875 L 829.097656 1020.195312 C 841.441406 1020.355469 881.085938 1008.878906 893.21875 1006.417969 C 862.492188 996 806.90625 968.28125 805.550781 920.597656 C 808.773438 951.605469 857.058594 977.03125 885.757812 985.894531 C 926.773438 999.332031 964.679688 1019.859375 979.070312 1066.949219 C 990.28125 1100.453125 999.441406 1133.378906 1023.804688 1159.550781 C 1028.925781 1170.230469 1025.472656 1182.597656 1034.070312 1191.347656 C 1043.511719 1208.242188 1090.054688 1208.605469 1091.601562 1203.4375 C 1091.601562 1203.4375 1090.90625 1193 1085.34375 1186.574219 C 1082.558594 1183.363281 1084.179688 1184.574219 1086.800781 1186.128906 C 1096.886719 1196.695312 1096.464844 1203.226562 1107.859375 1192.4375 C 1102.425781 1174.738281 1085.144531 1161.933594 1075.550781 1145.75 C 1066.808594 1134.300781 1073.207031 1117.324219 1057.292969 1111.363281 C 1035.804688 1099.15625 1019.820312 1078.109375 1012.085938 1054.824219 C 1008.21875 1040.730469 1009.660156 1026.949219 999.46875 1016.355469 C 993.144531 1009.152344 987.304688 1000.214844 986.078125 990.222656 C 972.761719 931.464844 975.925781 864.332031 919.195312 831.195312 C 968.3125 856.898438 990.074219 894.628906 997.671875 954.179688 C 1040.378906 922.578125 1045.171875 880.628906 1031.335938 828.539062 C 1030.945312 816.660156 993.863281 745.71875 1003.265625 750.832031 C 1021.660156 773.710938 1055.488281 808.667969 1051.761719 859.035156 C 1069.480469 857.171875 1117.511719 861.09375 1142.742188 855.898438 C 1149.828125 854.429688 1156.941406 857.949219 1160.054688 864.425781 C 1174.941406 894.324219 1153.742188 923.152344 1139.84375 961.464844 C 1142.691406 971.632812 1141.65625 981.511719 1131.28125 987.015625 C 1107.1875 998.828125 1134.011719 1043.167969 1158.734375 1056.59375 C 1168.929688 1059.183594 1166.332031 1047.796875 1169.933594 1038.273438 C 1173.347656 1023.714844 1175.054688 1048.894531 1172.652344 1062.625 C 1187.996094 1062.363281 1187.207031 1062.824219 1191.367188 995.769531 C 1199.742188 979.972656 1195.859375 957.335938 1196.84375 939.425781 C 1190.5625 905.507812 1214.328125 859.84375 1202.847656 829.65625 C 1197.15625 819.414062 1185.691406 813.769531 1175.160156 808.152344 C 1139.769531 789.238281 1094.660156 745.242188 1087.664062 727.050781 C 1078.34375 686.007812 1043.785156 575.285156 984.101562 508.128906 C 961.230469 496.066406 922.546875 542.171875 888.933594 501.664062 C 930.941406 528.183594 964.734375 488.730469 997.152344 477.347656 C 986.777344 465.367188 962.699219 457.101562 946.863281 460.429688 C 942.605469 461.4375 936.601562 464.140625 930.804688 466.585938 C 979.5 444.75 999.304688 381.730469 942.335938 353.476562 C 906.109375 332.363281 836.765625 333.464844 831.765625 281.347656 C 801.691406 330.511719 869.773438 355.152344 904.136719 372.351562 C 925.441406 381.820312 933.078125 407.910156 906.804688 416.125 C 889.023438 419.097656 875.269531 433.511719 875.824219 452.28125 C 870.324219 428.84375 877.511719 423.054688 882.027344 415.039062 C 876.429688 408.507812 858.40625 406.863281 847.863281 405.082031 C 811.148438 403.226562 783.605469 425.0625 779.4375 426.855469 C 762.074219 436.082031 753.160156 452.875 748.542969 467.03125 C 746.933594 471.96875 743.785156 476.269531 739.449219 479.128906 C 717.414062 493.6875 689.832031 508.589844 689.285156 508.9375 C 670.632812 520.753906 692.53125 556.28125 696.964844 569.050781 C 710.722656 587.902344 719.886719 584.585938 732.808594 581.074219 C 733.339844 580.722656 750.542969 568.804688 752.351562 568.699219 C 755.960938 568.488281 759.550781 568.441406 763.105469 568.535156 C 770.160156 568.722656 777.308594 569.546875 783.84375 570.730469 C 795.476562 572.886719 807.539062 573.878906 819.519531 573.273438 C 825.539062 573.066406 831.484375 572.214844 837.445312 571.160156 C 843.308594 569.863281 849.25 568.386719 854.871094 566.050781 C 866.214844 561.613281 876.917969 554.808594 885.753906 545.628906 C 880.78125 572.367188 834.628906 588.089844 816.121094 589.777344 C 818.269531 591.855469 834.230469 608.363281 837.257812 653.824219 C 838.503906 672.484375 808.703125 710.234375 804.617188 717.257812 C 774.773438 768.558594 655.402344 742.441406 598.675781 791.890625 C 530.007812 765.101562 467.269531 826.65625 458.523438 892.070312 C 455.007812 908.574219 434.394531 915.085938 422.511719 903.082031 C 394.707031 875.039062 425.472656 824.175781 350.511719 830.023438 C 398 838.09375 331.1875 921.476562 414.277344 935.375 " fill-opacity="1" fill-rule="nonzero"/></g><path fill="#545454" d="M 765.511719 1067.433594 L 765.742188 1067.289062 C 784.910156 1058.707031 802.472656 1046.5 817.378906 1031.675781 C 805.289062 1031.964844 787.378906 1031.0625 771.046875 1025.070312 C 753.558594 1018.65625 740.804688 1011.882812 730.96875 1007.242188 C 730.054688 1013.132812 730.023438 1019.601562 730.035156 1025.980469 C 730.058594 1037.824219 730.082031 1050.066406 724.375 1058.683594 C 723.351562 1060.222656 721.59375 1061.800781 719.730469 1063.460938 C 717.210938 1065.714844 714.355469 1068.265625 713.898438 1070.453125 C 711.902344 1079.976562 718.527344 1088.496094 724.933594 1096.734375 C 726.679688 1098.980469 728.488281 1101.304688 730.078125 1103.601562 C 735.9375 1112.0625 741.082031 1136.644531 742.039062 1146.894531 C 742.144531 1148.046875 742.222656 1149.210938 742.296875 1150.382812 C 742.597656 1154.921875 742.902344 1159.605469 745.128906 1163.40625 C 746.054688 1164.984375 747.273438 1166.363281 748.558594 1167.816406 C 749.914062 1169.34375 751.3125 1170.929688 752.359375 1172.78125 C 755.28125 1177.949219 754.992188 1184.535156 754.714844 1190.90625 C 754.355469 1199.042969 754.050781 1206.070312 760.035156 1208.984375 C 773.589844 1215.585938 797.164062 1218.898438 822.085938 1213.457031 C 817.117188 1197.835938 814.574219 1197.152344 811.574219 1192.660156 C 811.894531 1191.894531 820.8125 1198.574219 828.203125 1210.769531 C 830.808594 1209.941406 837.761719 1208.917969 840.363281 1207.882812 C 841.125 1207.574219 841.574219 1207.09375 841.777344 1206.367188 C 843.199219 1201.273438 833.191406 1187.96875 828.382812 1181.574219 L 827.269531 1180.09375 C 825.210938 1177.34375 822.683594 1174.789062 820.246094 1172.320312 C 815.890625 1167.917969 811.390625 1163.367188 809.199219 1157.398438 C 808.742188 1156.148438 808.390625 1154.847656 808.054688 1153.59375 C 807.398438 1151.164062 806.777344 1148.867188 805.4375 1146.960938 C 803.96875 1144.878906 801.777344 1143.457031 799.457031 1141.945312 L 798.207031 1141.128906 C 786.757812 1133.5 764.097656 1089.40625 762.628906 1085.476562 C 760.03125 1078.523438 760.058594 1071.699219 765.511719 1067.433594 " fill-opacity="1" fill-rule="nonzero"/></svg>