<svg xmlns="http://www.w3.org/2000/svg" xmlns:xlink="http://www.w3.org/1999/xlink" width="2000" zoomAndPan="magnify" viewBox="0 0 1500 1499.999933" height="2000" preserveAspectRatio="xMidYMid meet" version="1.0"><defs><clipPath id="606009fe3e"><path d="M 342.535156 477 L 1145 477 L 1145 1290.699219 L 342.535156 1290.699219 Z M 342.535156 477 " clip-rule="nonzero"/></clipPath><clipPath id="07abb5c7c9"><path d="M 1120.597656 409 L 1157.714844 409 L 1157.714844 519 L 1120.597656 519 Z M 1120.597656 409 " clip-rule="nonzero"/></clipPath></defs><path fill="#000000" d="M 860.808594 448.015625 C 854.503906 457.296875 850.414062 467.320312 848.5 477.71875 C 857.410156 476.589844 866.449219 477.4375 874.613281 481.476562 C 872.144531 458.535156 877.652344 438.53125 888.058594 422.5 C 877.429688 428.761719 867.988281 437.433594 860.808594 448.015625 " fill-opacity="1" fill-rule="nonzero"/><path fill="#000000" d="M 957.382812 303.394531 C 957.902344 304.175781 958.394531 304.980469 958.894531 305.769531 C 963.246094 306.164062 967.570312 306.726562 971.832031 307.480469 L 974.695312 307.980469 L 974.546875 306.992188 L 990.441406 311.636719 C 1011.738281 317.867188 1032.121094 327.328125 1050.738281 339.507812 C 1052.238281 331.359375 1052.8125 323.074219 1052.320312 314.90625 C 1022.972656 300.886719 989.203125 296.992188 957.382812 303.394531 " fill-opacity="1" fill-rule="nonzero"/><path fill="#000000" d="M 1083.753906 365.726562 L 1084.042969 365.21875 L 1093.828125 377.394531 C 1103.046875 388.867188 1110.589844 401.8125 1116.363281 415.769531 C 1124.796875 409.515625 1132.152344 401.941406 1137.742188 393.265625 C 1120.457031 365.226562 1096.121094 340.75 1068.105469 323.34375 C 1067.109375 331.339844 1064.789062 339.3125 1061.503906 347.003906 C 1068.121094 351.902344 1074.480469 357.140625 1080.515625 362.730469 L 1083.753906 365.726562 " fill-opacity="1" fill-rule="nonzero"/><g clip-path="url(#606009fe3e)"><path fill="#000000" d="M 1041.210938 590.816406 C 1057.714844 591.933594 1055.574219 617.8125 1039.109375 616.207031 C 1022.609375 615.085938 1024.746094 589.207031 1041.210938 590.816406 Z M 935.136719 493.824219 C 945.292969 497.671875 953.296875 504.875 958.8125 513.738281 C 963.742188 521.660156 965.863281 532.183594 966.5 541.601562 C 960.792969 523.679688 937.917969 495.21875 935.136719 493.824219 Z M 971.773438 509.957031 C 965.25 495.898438 955.019531 483.921875 939.890625 478.824219 C 916.574219 470.402344 915.882812 503.265625 923.191406 517.433594 C 924.691406 520.949219 926.519531 524.210938 928.605469 527.289062 C 938.109375 541.304688 953.085938 551.085938 967.667969 559.539062 C 954.292969 557.914062 927.324219 542.613281 917.320312 523.710938 C 901.15625 533.730469 887.984375 544.328125 877.113281 554.96875 C 885.683594 562.078125 895.890625 567.824219 907.316406 571.785156 L 907.664062 571.902344 L 908 572.046875 C 909.449219 572.664062 910.785156 573.183594 912.023438 573.664062 C 918.097656 576.035156 924.378906 578.480469 928.886719 586.324219 L 931.476562 590.839844 L 929.488281 595.648438 C 925.082031 606.300781 914.28125 608.535156 905.996094 608.535156 C 901.773438 608.535156 897.449219 608.039062 893.628906 607.597656 C 891.277344 607.328125 889.0625 607.074219 887.269531 606.980469 L 886.753906 606.953125 L 886.246094 606.875 C 872.261719 604.777344 858.773438 600.328125 846.3125 593.925781 C 832.167969 617.78125 827.519531 637.996094 824.425781 647.019531 C 820.886719 657.097656 819.277344 663.414062 819.277344 663.414062 C 803.484375 668.238281 777.835938 681.335938 759.871094 694.390625 C 716.996094 725.558594 725.835938 734.957031 683.945312 763.742188 C 634.730469 797.5625 561.316406 785.894531 515.605469 820.683594 C 444.636719 791.988281 392.296875 896.546875 342.535156 889.488281 C 348.480469 902.667969 414.199219 921.890625 438.4375 900.859375 C 431.300781 915.703125 409.875 924.390625 409.875 924.390625 C 411.394531 924.296875 412.894531 924.175781 414.363281 924.03125 C 443.253906 921.253906 468.546875 903.109375 481.207031 877.003906 C 488.25 862.484375 493.679688 856.679688 493.679688 856.679688 C 478.265625 888.839844 481.960938 923.34375 481.960938 923.34375 C 488.949219 978.246094 526.425781 1029.6875 464.464844 1070.601562 C 453.988281 1077.144531 452.207031 1092.878906 456.441406 1100.144531 C 480.492188 1133.03125 495.550781 1213.175781 490.363281 1233.867188 C 489.691406 1237.902344 492.792969 1258.917969 494.453125 1259.175781 C 497.894531 1259.714844 503.949219 1254.664062 504.925781 1251.324219 C 508.300781 1256.136719 507.898438 1273.816406 510.160156 1279.238281 C 513.347656 1286.878906 536.015625 1293.527344 556.964844 1289.597656 C 554.964844 1280.214844 547.46875 1266.375 547.46875 1266.375 C 547.46875 1266.375 551.222656 1268.96875 562.789062 1284.445312 C 565.425781 1288.914062 572.578125 1286.613281 575.617188 1285.347656 C 572.488281 1272.332031 564.964844 1255.6875 531.796875 1217.304688 C 529.875 1215.078125 512 1147.285156 511.589844 1111.167969 C 511.589844 1111.167969 512.035156 1096.515625 527.304688 1092.847656 C 574.363281 1080.328125 629.371094 1057.753906 645.167969 1007.445312 C 648.398438 994.183594 651.125 977.328125 653.871094 963.90625 C 659.4375 940.132812 661.199219 907.507812 687.007812 896.574219 C 664.210938 908.570312 664.503906 937.546875 661.460938 960 C 687.921875 947.765625 717.75 948.488281 746.296875 948.691406 C 786.535156 950.421875 837.121094 947.882812 867.929688 928.457031 C 815.949219 931.445312 811.839844 928.144531 808.507812 926.332031 C 794.558594 918.765625 794 889.988281 802.726562 853.019531 C 801.761719 860.644531 807.632812 896.753906 811.398438 903.152344 C 816.996094 912.660156 834.15625 916.277344 849.039062 914.527344 C 892.058594 909.46875 963.75 899.429688 974.296875 899.984375 C 997.695312 905.214844 940.324219 968.554688 933.738281 975.515625 C 926.980469 986.664062 888.050781 965.652344 909.933594 984.601562 C 864.261719 985.550781 860.953125 977.519531 850.847656 1019.796875 C 857.710938 1019.640625 872.765625 1017.355469 872.765625 1017.355469 C 859.503906 1022.792969 853.101562 1025.039062 849.53125 1027.820312 C 849.28125 1029.992188 846.820312 1035.90625 847.566406 1038.289062 C 845.71875 1044.277344 912.355469 1036.175781 943.640625 1011.753906 C 978.285156 969.152344 988.269531 949.585938 1017.667969 904.710938 C 1023.820312 895.296875 1014.003906 869.457031 986.511719 865.527344 C 966.195312 861.632812 927.125 864.765625 907.292969 852.890625 C 896.46875 846.414062 894.382812 835.71875 897.261719 816.386719 C 897.765625 825.554688 902.265625 836.871094 910.5 840.859375 C 917.386719 844.191406 928.285156 844.757812 933.753906 843.65625 C 941.851562 825.550781 947.492188 806.09375 949.851562 785.730469 C 952.140625 765.914062 948.527344 746.035156 941.207031 727.484375 C 937.722656 718.65625 936.65625 708.628906 942.019531 699.53125 C 943.066406 720.796875 957.1875 730.664062 963.421875 737.910156 C 965.472656 729.34375 955.320312 710.867188 966.621094 688.527344 C 970.371094 681.113281 977.371094 675.769531 985.503906 674.070312 C 968.507812 665.265625 950.273438 632.476562 974.859375 594.859375 C 956.023438 636.234375 985.070312 663.269531 1003.105469 670.703125 C 1015.832031 674.984375 1032.035156 679.160156 1044.28125 687.714844 C 1070.726562 709.84375 1098.386719 751.246094 1130.664062 710.503906 C 1096.515625 709.707031 1108.53125 674.355469 1115.269531 692.746094 C 1118.03125 701.828125 1126.242188 704.972656 1133.695312 705.292969 C 1139.613281 693.140625 1140.152344 676.933594 1130.328125 659.039062 C 1113.464844 630.101562 1120.453125 609.875 1111.308594 579.992188 C 1111.460938 579.925781 1111.613281 579.867188 1111.769531 579.789062 C 1125.023438 572.28125 1138.574219 550.859375 1145 534.003906 C 1137.910156 534.4375 1130.535156 533.730469 1123.144531 532.117188 C 1119.226562 544.832031 1113.40625 557.046875 1105.847656 564.632812 L 1105.585938 564.898438 L 1105.300781 565.148438 C 1098.496094 571.070312 1089.640625 574.304688 1079.632812 574.628906 C 1079.09375 574.644531 1078.566406 574.691406 1078.019531 574.691406 C 1077.421875 574.691406 1076.796875 574.621094 1076.1875 574.601562 C 1048.257812 573.640625 1013.566406 550.945312 998.015625 523.113281 C 994.039062 516.007812 991.601562 508.941406 990.679688 502.140625 C 987.667969 502.210938 980.386719 503.640625 977.429688 503.882812 C 977.429688 503.882812 982.949219 524.335938 980.140625 538.929688 C 978.746094 529.257812 976.046875 519.167969 971.773438 509.957031 " fill-opacity="1" fill-rule="nonzero"/></g><g clip-path="url(#07abb5c7c9)"><path fill="#000000" d="M 1129.773438 485.226562 L 1129.765625 488.894531 L 1130.140625 488.765625 L 1128.621094 505.117188 C 1128.226562 509.371094 1127.523438 513.988281 1126.5625 518.722656 C 1135.160156 519.226562 1143.515625 518.410156 1151.148438 516.050781 C 1160.863281 481.53125 1160.332031 443.164062 1145.914062 409.582031 C 1138.652344 416.816406 1130.0625 422.828125 1120.746094 427.519531 C 1126.71875 445.632812 1129.832031 465.148438 1129.773438 485.226562 " fill-opacity="1" fill-rule="nonzero"/></g><path fill="#000000" d="M 852.855469 520.769531 L 853.558594 522.632812 C 854.527344 525.179688 855.652344 527.664062 856.902344 530.089844 C 860.953125 534.78125 865.320312 539.195312 870.042969 543.210938 C 874.425781 539.753906 882.304688 531.878906 890.898438 524.992188 C 881.957031 512.316406 876.09375 497.679688 874.664062 481.871094 C 865.214844 480.253906 855.765625 482.628906 847.382812 487.085938 C 846.765625 498.152344 848.574219 509.519531 852.855469 520.769531 " fill-opacity="1" fill-rule="nonzero"/><path fill="#000000" d="M 661.6875 974.035156 C 659.015625 1005.804688 657.136719 1024.464844 639.613281 1046.234375 C 627.214844 1061.640625 606.730469 1081.417969 605.25 1083.351562 C 597.351562 1093.667969 591.695312 1101.78125 599.023438 1114.796875 C 603.28125 1121.570312 605.066406 1118.980469 626.945312 1138.347656 C 654.371094 1162.628906 678.421875 1190.464844 687.019531 1201.851562 C 684.417969 1217.179688 677.214844 1252.78125 695.683594 1227.550781 C 693.183594 1269.777344 707.570312 1276.992188 746.441406 1278.902344 C 744.210938 1267.289062 740.839844 1250.441406 740.839844 1250.441406 C 750.574219 1259.8125 754.273438 1283.976562 774.003906 1275.738281 C 765.574219 1223.074219 698.5625 1152.894531 663.605469 1117.410156 C 634.882812 1087.566406 795.273438 1064.550781 751.859375 960.050781 C 722.285156 957.988281 687.949219 959.886719 661.6875 974.035156 " fill-opacity="1" fill-rule="nonzero"/><path fill="#000000" d="M 751.859375 960.050781 C 752.371094 961.183594 751.394531 958.925781 751.859375 960.050781 " fill-opacity="1" fill-rule="nonzero"/><path fill="#000000" d="M 1116.035156 934.859375 C 1117.34375 936.988281 1127.03125 939.042969 1127.164062 938.789062 C 1133.269531 926.574219 1126.285156 887.316406 1128.035156 869 C 1127.164062 828.871094 1107.085938 838.464844 1079.984375 757.753906 C 1064.863281 713.933594 995.066406 764.730469 964.917969 768.382812 C 962.65625 796.527344 957.308594 821.367188 949.003906 842.84375 C 968.554688 832.664062 995.96875 816.175781 1033.097656 789.722656 C 1038.050781 786.195312 1046.027344 780.320312 1051.535156 784.714844 C 1058.84375 790.535156 1079.363281 821.730469 1089.769531 852.386719 C 1089.4375 852.429688 1089.242188 852.460938 1089.242188 852.460938 C 1089.242188 852.460938 1087.296875 858.683594 1082.589844 869.191406 C 1079.25 876.644531 1085.136719 872.683594 1093.125 867.257812 C 1081.285156 904.058594 1066.175781 910.292969 1109.484375 933.878906 C 1113.292969 925.925781 1117.921875 901.632812 1117.558594 910.652344 C 1117.34375 916.152344 1116.6875 920.25 1116.035156 934.859375 " fill-opacity="1" fill-rule="nonzero"/><path fill="#000000" d="M 975.480469 353.257812 C 975.675781 341.1875 973.859375 329.140625 969.996094 317.917969 C 968.429688 317.636719 966.859375 317.410156 965.289062 317.1875 C 964.800781 317.117188 964.308594 317.03125 963.816406 316.96875 C 963.128906 316.875 962.4375 316.820312 961.75 316.738281 C 960.371094 316.574219 958.988281 316.410156 957.601562 316.285156 C 956.777344 316.210938 955.949219 316.171875 955.128906 316.117188 C 953.878906 316.023438 952.632812 315.929688 951.378906 315.871094 C 950.492188 315.832031 949.601562 315.820312 948.714844 315.796875 C 948.519531 315.789062 948.316406 315.785156 948.117188 315.777344 C 947.132812 315.753906 946.140625 315.722656 945.148438 315.722656 C 944.949219 315.714844 944.753906 315.707031 944.554688 315.707031 C 944.179688 315.707031 943.808594 315.734375 943.433594 315.742188 C 941.214844 315.757812 939 315.820312 936.785156 315.9375 C 936.144531 315.972656 935.503906 316 934.863281 316.039062 C 932.246094 316.207031 929.636719 316.433594 927.03125 316.738281 C 926.574219 316.789062 926.121094 316.863281 925.660156 316.917969 C 923.425781 317.203125 921.195312 317.535156 918.96875 317.917969 C 918.308594 318.03125 917.648438 318.136719 916.992188 318.261719 C 915.078125 318.613281 913.175781 319.003906 911.277344 319.433594 C 910.613281 319.582031 909.941406 319.71875 909.28125 319.875 C 908.929688 319.957031 908.578125 320.058594 908.230469 320.144531 C 905.96875 320.699219 903.71875 321.316406 901.484375 321.976562 C 900.824219 322.167969 900.164062 322.359375 899.507812 322.5625 C 896.988281 323.34375 894.484375 324.164062 892.003906 325.070312 C 891.800781 325.148438 891.601562 325.234375 891.398438 325.3125 C 889.09375 326.164062 886.816406 327.085938 884.554688 328.050781 C 883.921875 328.320312 883.292969 328.59375 882.660156 328.875 C 880.234375 329.953125 877.816406 331.070312 875.445312 332.273438 C 877.582031 334.121094 879.65625 336.0625 881.671875 338.066406 C 898.289062 354.550781 910.1875 376.089844 909.316406 399.730469 C 909.304688 400.074219 909.320312 400.414062 909.300781 400.757812 C 909.257812 400.453125 909.1875 400.164062 909.136719 399.867188 C 905.519531 377.191406 889.855469 359.070312 870.71875 347.230469 C 867.160156 345.027344 863.496094 343.015625 859.746094 341.257812 C 834.378906 357.636719 812.867188 380.3125 798.378906 406.808594 C 809.289062 409.894531 819.980469 414.617188 829.355469 421.027344 C 837.679688 426.722656 844.964844 433.746094 850.394531 442.191406 C 843.976562 435.699219 836.453125 430.765625 828.328125 427.144531 C 817.078125 422.132812 804.660156 419.660156 792.378906 419.214844 C 788.722656 427.660156 786.261719 436.550781 784.945312 445.617188 C 779.804688 477.210938 785.6875 510.65625 802.15625 538.1875 C 803.261719 537.367188 804.398438 536.570312 805.554688 535.800781 C 805.769531 535.65625 805.980469 535.511719 806.195312 535.367188 C 807.039062 534.820312 807.890625 534.28125 808.753906 533.765625 C 809.042969 533.585938 809.335938 533.417969 809.625 533.25 C 809.851562 533.121094 810.078125 532.992188 810.300781 532.867188 C 811.519531 532.175781 812.75 531.507812 814.007812 530.894531 C 815.265625 530.277344 816.539062 529.726562 817.820312 529.199219 C 818.054688 529.097656 818.292969 529.003906 818.527344 528.90625 C 819.773438 528.414062 821.03125 527.972656 822.304688 527.574219 C 822.550781 527.496094 822.792969 527.421875 823.035156 527.351562 C 824.363281 526.957031 825.699219 526.597656 827.042969 526.3125 C 828.40625 526.023438 829.753906 525.820312 831.101562 525.65625 C 831.359375 525.628906 831.609375 525.59375 831.859375 525.566406 C 833.175781 525.433594 834.496094 525.359375 835.820312 525.347656 C 836.128906 525.347656 836.433594 525.355469 836.742188 525.359375 C 837.554688 525.371094 838.367188 525.410156 839.179688 525.46875 C 839.507812 525.5 839.835938 525.515625 840.167969 525.550781 C 841.277344 525.660156 842.382812 525.804688 843.492188 526.019531 C 842.75 524.160156 842.09375 522.304688 841.476562 520.457031 C 841.371094 520.128906 841.257812 519.800781 841.152344 519.476562 C 840.800781 518.371094 840.46875 517.269531 840.160156 516.171875 C 839.964844 515.503906 839.789062 514.839844 839.613281 514.179688 C 839.527344 513.84375 839.445312 513.503906 839.363281 513.167969 C 838.910156 511.359375 838.507812 509.554688 838.167969 507.761719 C 838.15625 507.683594 838.144531 507.613281 838.136719 507.535156 C 837.808594 505.773438 837.554688 504.019531 837.335938 502.277344 C 837.296875 501.984375 837.257812 501.699219 837.226562 501.410156 C 837.082031 500.132812 836.957031 498.855469 836.867188 497.585938 C 836.878906 497.214844 836.816406 496.730469 836.792969 496.25 C 836.773438 495.929688 836.761719 495.609375 836.75 495.289062 C 836.730469 494.945312 836.738281 494.605469 836.730469 494.265625 C 836.652344 492.886719 836.636719 491.484375 836.65625 490.097656 C 836.660156 489.976562 836.667969 489.863281 836.671875 489.746094 C 836.699219 488.066406 836.792969 486.40625 836.917969 484.75 C 836.9375 484.519531 836.949219 484.28125 836.96875 484.046875 C 837.082031 482.726562 837.214844 481.414062 837.390625 480.113281 C 837.472656 479.765625 837.496094 479.425781 837.542969 479.085938 C 837.585938 478.792969 837.632812 478.5 837.679688 478.203125 C 837.9375 476.550781 838.230469 474.910156 838.578125 473.285156 C 838.609375 473.152344 838.644531 473.015625 838.675781 472.882812 C 839.027344 471.292969 839.421875 469.71875 839.859375 468.160156 C 839.90625 467.984375 839.953125 467.808594 840.003906 467.632812 C 840.457031 466.050781 840.964844 464.488281 841.503906 462.945312 C 841.59375 462.691406 841.683594 462.429688 841.777344 462.167969 C 842.332031 460.625 842.921875 459.097656 843.558594 457.597656 C 843.621094 457.453125 843.6875 457.3125 843.75 457.167969 C 844.390625 455.679688 845.070312 454.210938 845.789062 452.765625 C 845.84375 452.652344 845.894531 452.535156 845.953125 452.425781 C 846.683594 450.960938 847.464844 449.523438 848.28125 448.105469 C 848.410156 447.875 848.535156 447.648438 848.667969 447.429688 C 849.484375 446.027344 850.332031 444.644531 851.21875 443.292969 C 851.320312 443.144531 851.417969 443 851.515625 442.847656 C 852.417969 441.492188 853.351562 440.160156 854.320312 438.855469 C 854.363281 438.796875 854.402344 438.738281 854.445312 438.679688 C 855.425781 437.359375 856.449219 436.082031 857.5 434.8125 C 857.65625 434.625 857.816406 434.433594 857.976562 434.246094 C 859.011719 433.015625 860.082031 431.808594 861.171875 430.636719 C 861.3125 430.484375 861.453125 430.34375 861.59375 430.199219 C 862.722656 429 863.886719 427.824219 865.078125 426.6875 C 866.296875 425.519531 867.527344 424.425781 868.769531 423.355469 C 868.957031 423.191406 869.140625 423.035156 869.328125 422.875 C 870.542969 421.84375 871.785156 420.847656 873.046875 419.878906 C 873.230469 419.742188 873.414062 419.605469 873.597656 419.464844 C 876.210938 417.496094 878.921875 415.664062 881.710938 413.972656 C 881.921875 413.84375 882.136719 413.714844 882.351562 413.585938 C 883.699219 412.785156 885.070312 412.011719 886.453125 411.28125 C 886.683594 411.160156 886.914062 411.046875 887.144531 410.925781 C 888.582031 410.179688 890.03125 409.460938 891.5 408.796875 C 892.992188 408.117188 894.472656 407.503906 895.960938 406.917969 C 896.191406 406.828125 896.421875 406.730469 896.65625 406.640625 C 898.101562 406.089844 899.558594 405.578125 901.027344 405.09375 C 901.300781 405.007812 901.570312 404.921875 901.84375 404.835938 C 902.480469 404.636719 903.121094 404.46875 903.757812 404.285156 C 904.667969 403.988281 905.523438 403.746094 906.386719 403.527344 C 906.484375 403.5 906.585938 403.476562 906.6875 403.453125 C 908.160156 403.078125 909.644531 402.75 911.132812 402.453125 C 911.378906 402.402344 911.617188 402.351562 911.863281 402.308594 C 913.367188 402.023438 914.878906 401.78125 916.394531 401.574219 C 916.699219 401.539062 917.003906 401.5 917.308594 401.460938 C 918.84375 401.273438 920.390625 401.113281 921.941406 401.011719 C 922.097656 401.003906 922.261719 401 922.425781 400.988281 C 923.910156 400.898438 925.398438 400.855469 926.890625 400.84375 C 927.136719 400.839844 927.378906 400.835938 927.625 400.835938 C 928.84375 400.839844 930.054688 400.863281 931.273438 400.925781 C 931.488281 400.9375 931.699219 400.953125 931.914062 400.96875 C 932.921875 401.027344 933.929688 401.097656 934.9375 401.195312 C 935.339844 401.234375 935.746094 401.28125 936.148438 401.324219 C 936.996094 401.421875 937.835938 401.527344 938.683594 401.648438 C 939.097656 401.710938 939.511719 401.769531 939.925781 401.835938 C 940.875 401.988281 941.828125 402.164062 942.78125 402.351562 C 943.050781 402.402344 943.320312 402.449219 943.585938 402.503906 C 944.789062 402.753906 945.988281 403.039062 947.183594 403.351562 C 947.523438 403.4375 947.859375 403.539062 948.199219 403.636719 C 948.308594 403.664062 948.417969 403.695312 948.523438 403.726562 C 949.292969 403.941406 950.066406 404.167969 950.835938 404.40625 C 951.25 404.535156 951.664062 404.671875 952.078125 404.8125 C 952.921875 405.089844 953.757812 405.382812 954.601562 405.695312 C 954.972656 405.835938 955.347656 405.964844 955.722656 406.109375 C 956.914062 406.574219 958.105469 407.058594 959.285156 407.585938 C 964.753906 399.261719 968.824219 390.066406 971.53125 380.472656 C 974.027344 371.625 975.335938 362.441406 975.480469 353.257812 " fill-opacity="1" fill-rule="nonzero"/><path fill="#000000" d="M 987.464844 321.8125 C 989.03125 332.375 988.371094 343.519531 986.054688 354.457031 C 984.113281 363.601562 981.003906 372.582031 976.988281 380.964844 C 972.203125 390.96875 966.171875 400.121094 959.335938 407.601562 C 962.492188 409.015625 965.609375 410.664062 968.675781 412.542969 C 973.421875 415.445312 978.03125 418.945312 982.464844 423.039062 C 985.976562 426.273438 989.386719 429.855469 992.640625 433.878906 C 1007.996094 433.113281 1022.9375 427.683594 1035.878906 419.109375 C 1041.382812 415.464844 1046.503906 411.242188 1051.152344 406.5625 C 1061.289062 396.34375 1069.136719 383.960938 1073.308594 370.503906 C 1068.0625 365.644531 1062.527344 361.058594 1056.777344 356.730469 C 1053.9375 354.59375 1051.046875 352.515625 1048.097656 350.515625 C 1029.5 337.894531 1008.863281 328.066406 987.464844 321.8125 " fill-opacity="1" fill-rule="nonzero"/><path fill="#000000" d="M 1111.300781 506.082031 C 1109.394531 506.535156 1107.453125 506.910156 1105.484375 507.222656 C 1105.109375 507.285156 1104.730469 507.339844 1104.355469 507.394531 C 1102.367188 507.683594 1100.359375 507.914062 1098.316406 508.070312 C 1098.03125 508.09375 1097.742188 508.105469 1097.457031 508.121094 C 1095.402344 508.261719 1093.324219 508.34375 1091.226562 508.34375 C 1091.101562 508.347656 1090.976562 508.355469 1090.84375 508.355469 C 1089.851562 508.355469 1088.851562 508.316406 1087.84375 508.285156 C 1087.378906 508.277344 1086.90625 508.273438 1086.425781 508.253906 C 1086.035156 508.238281 1085.644531 508.203125 1085.257812 508.183594 C 1084.15625 508.121094 1083.058594 508.054688 1081.953125 507.964844 C 1081.40625 507.914062 1080.855469 507.851562 1080.308594 507.800781 C 1079.363281 507.703125 1078.414062 507.609375 1077.46875 507.492188 C 1076.863281 507.414062 1076.265625 507.328125 1075.664062 507.246094 C 1075.136719 507.167969 1074.613281 507.113281 1074.09375 507.03125 C 1073.757812 506.980469 1073.421875 506.914062 1073.089844 506.863281 C 1072.351562 506.738281 1071.734375 506.628906 1071.117188 506.519531 C 1070.222656 506.359375 1069.335938 506.1875 1068.4375 506.007812 C 1067.835938 505.882812 1067.230469 505.757812 1066.621094 505.628906 C 1065.707031 505.433594 1064.796875 505.214844 1063.890625 504.992188 C 1063.3125 504.855469 1062.734375 504.71875 1062.164062 504.574219 C 1061.175781 504.320312 1060.191406 504.046875 1059.210938 503.765625 C 1058.726562 503.632812 1058.242188 503.5 1057.761719 503.363281 C 1056.304688 502.929688 1054.851562 502.476562 1053.414062 501.988281 C 1046.902344 499.765625 1040.554688 497.035156 1034.542969 493.804688 C 1023.53125 487.894531 1013.691406 480.242188 1006.355469 470.460938 C 1006.34375 473.941406 1005.964844 477.421875 1005.113281 480.804688 C 1004.753906 481.378906 1004.425781 481.960938 1004.117188 482.550781 C 1003.933594 482.894531 1003.773438 483.246094 1003.605469 483.597656 C 1003.523438 483.773438 1003.4375 483.949219 1003.359375 484.128906 C 1002.945312 485.039062 1002.589844 485.960938 1002.28125 486.894531 C 1002.222656 487.074219 1002.175781 487.253906 1002.117188 487.4375 C 1001.824219 488.394531 1001.570312 489.355469 1001.382812 490.339844 C 1001.179688 491.378906 1001.058594 492.382812 1000.972656 493.394531 C 1000.957031 493.582031 1000.9375 493.769531 1000.921875 493.960938 C 1000.855469 494.941406 1000.835938 495.929688 1000.859375 496.925781 C 1000.867188 497.101562 1000.875 497.28125 1000.886719 497.460938 C 1000.929688 498.46875 1001.003906 499.480469 1001.136719 500.5 C 1001.285156 501.628906 1001.476562 502.671875 1001.707031 503.722656 C 1001.746094 503.910156 1001.785156 504.097656 1001.828125 504.285156 C 1002.066406 505.3125 1002.339844 506.332031 1002.65625 507.351562 C 1002.710938 507.519531 1002.769531 507.691406 1002.828125 507.859375 C 1003.160156 508.898438 1003.519531 509.933594 1003.933594 510.96875 C 1004.390625 512.117188 1004.863281 513.171875 1005.359375 514.226562 C 1005.445312 514.410156 1005.53125 514.589844 1005.621094 514.773438 C 1006.121094 515.796875 1006.652344 516.824219 1007.21875 517.84375 C 1007.300781 517.996094 1007.390625 518.152344 1007.484375 518.304688 C 1008.0625 519.324219 1008.667969 520.347656 1009.3125 521.363281 C 1009.339844 521.402344 1009.363281 521.441406 1009.386719 521.476562 C 1010.046875 522.511719 1010.746094 523.539062 1011.472656 524.558594 C 1011.59375 524.734375 1011.71875 524.90625 1011.84375 525.078125 C 1012.5625 526.074219 1013.300781 527.0625 1014.078125 528.039062 C 1014.183594 528.179688 1014.300781 528.320312 1014.410156 528.453125 C 1015.191406 529.425781 1015.988281 530.394531 1016.824219 531.347656 C 1016.863281 531.394531 1016.902344 531.449219 1016.945312 531.492188 C 1017.796875 532.46875 1018.679688 533.425781 1019.578125 534.375 C 1019.734375 534.539062 1019.886719 534.703125 1020.039062 534.867188 C 1020.933594 535.792969 1021.84375 536.710938 1022.777344 537.609375 C 1022.902344 537.730469 1023.035156 537.855469 1023.164062 537.976562 C 1024.085938 538.863281 1025.027344 539.734375 1025.988281 540.585938 C 1026.058594 540.644531 1026.125 540.707031 1026.191406 540.769531 C 1027.179688 541.640625 1028.195312 542.496094 1029.214844 543.339844 C 1029.398438 543.488281 1029.582031 543.636719 1029.769531 543.789062 C 1030.78125 544.609375 1031.8125 545.421875 1032.859375 546.210938 C 1032.996094 546.316406 1033.140625 546.417969 1033.28125 546.523438 C 1034.304688 547.28125 1035.339844 548.03125 1036.382812 548.757812 C 1036.476562 548.820312 1036.570312 548.886719 1036.664062 548.949219 C 1037.742188 549.695312 1038.839844 550.414062 1039.9375 551.117188 C 1040.144531 551.246094 1040.351562 551.375 1040.558594 551.503906 C 1041.652344 552.1875 1042.757812 552.859375 1043.863281 553.492188 C 1044.011719 553.585938 1044.167969 553.664062 1044.316406 553.75 C 1045.390625 554.359375 1046.464844 554.949219 1047.542969 555.511719 C 1047.664062 555.574219 1047.785156 555.640625 1047.910156 555.703125 C 1049.03125 556.28125 1050.164062 556.828125 1051.296875 557.359375 C 1051.519531 557.464844 1051.738281 557.566406 1051.960938 557.667969 C 1053.089844 558.183594 1054.210938 558.675781 1055.335938 559.132812 C 1055.496094 559.195312 1055.65625 559.25 1055.8125 559.320312 C 1056.886719 559.746094 1057.957031 560.148438 1059.03125 560.523438 C 1059.105469 560.550781 1059.179688 560.574219 1059.253906 560.605469 C 1059.332031 560.632812 1059.398438 560.652344 1059.464844 560.675781 C 1060.585938 561.0625 1061.703125 561.414062 1062.824219 561.734375 C 1063.054688 561.804688 1063.285156 561.871094 1063.511719 561.933594 C 1064.625 562.246094 1065.738281 562.53125 1066.839844 562.777344 C 1066.988281 562.808594 1067.136719 562.839844 1067.289062 562.871094 C 1068.332031 563.09375 1069.367188 563.289062 1070.402344 563.453125 C 1070.558594 563.480469 1070.710938 563.507812 1070.867188 563.53125 C 1071.949219 563.695312 1073.019531 563.816406 1074.082031 563.90625 C 1074.304688 563.925781 1074.527344 563.945312 1074.742188 563.960938 C 1075.808594 564.039062 1076.863281 564.085938 1077.902344 564.089844 C 1078.164062 564.09375 1078.292969 564.082031 1078.433594 564.082031 C 1079.121094 564.070312 1079.8125 564.046875 1080.488281 564.007812 C 1080.75 563.992188 1081.011719 563.972656 1081.273438 563.957031 C 1081.945312 563.898438 1082.609375 563.824219 1083.265625 563.734375 C 1083.441406 563.710938 1083.628906 563.695312 1083.808594 563.667969 C 1084.617188 563.542969 1085.417969 563.386719 1086.207031 563.203125 C 1086.414062 563.15625 1086.621094 563.097656 1086.828125 563.046875 C 1087.425781 562.902344 1088.011719 562.734375 1088.597656 562.550781 C 1088.835938 562.472656 1089.078125 562.394531 1089.320312 562.3125 C 1089.964844 562.09375 1090.605469 561.851562 1091.230469 561.582031 C 1091.347656 561.535156 1091.460938 561.492188 1091.578125 561.441406 C 1092.304688 561.121094 1093.011719 560.761719 1093.707031 560.382812 C 1093.902344 560.273438 1094.097656 560.15625 1094.289062 560.042969 C 1094.808594 559.738281 1095.324219 559.410156 1095.824219 559.074219 C 1096.019531 558.9375 1096.214844 558.808594 1096.414062 558.667969 C 1097.070312 558.191406 1097.714844 557.695312 1098.335938 557.15625 C 1104.453125 551.019531 1109.449219 540.527344 1112.929688 529.320312 C 1114.144531 525.402344 1115.167969 521.40625 1116 517.472656 C 1116.972656 512.855469 1117.679688 508.324219 1118.0625 504.140625 C 1116.160156 504.796875 1114.195312 505.351562 1112.207031 505.851562 C 1111.902344 505.925781 1111.609375 506.007812 1111.300781 506.082031 " fill-opacity="1" fill-rule="nonzero"/><path fill="#000000" d="M 1111.003906 431.886719 C 1109.898438 428.460938 1108.652344 425.078125 1107.320312 421.734375 C 1101.949219 408.230469 1094.742188 395.453125 1085.5625 384.027344 C 1084.46875 385.953125 1083.292969 387.84375 1082.058594 389.695312 C 1081.644531 390.316406 1081.1875 390.902344 1080.757812 391.515625 C 1079.910156 392.726562 1079.058594 393.945312 1078.148438 395.121094 C 1077.605469 395.828125 1077.015625 396.5 1076.449219 397.195312 C 1075.601562 398.234375 1074.753906 399.28125 1073.863281 400.285156 C 1073.222656 401.007812 1072.550781 401.695312 1071.890625 402.394531 C 1071.011719 403.328125 1070.140625 404.265625 1069.222656 405.167969 C 1068.511719 405.871094 1067.773438 406.542969 1067.042969 407.226562 C 1066.121094 408.082031 1065.207031 408.933594 1064.257812 409.753906 C 1063.488281 410.425781 1062.695312 411.066406 1061.90625 411.710938 C 1060.949219 412.496094 1059.984375 413.269531 1059.003906 414.019531 C 1058.789062 414.179688 1058.570312 414.328125 1058.363281 414.488281 C 1058.300781 414.550781 1058.238281 414.613281 1058.179688 414.675781 C 1057.628906 415.085938 1057.058594 415.457031 1056.503906 415.851562 C 1055.5 416.566406 1054.496094 417.269531 1053.46875 417.949219 C 1052.605469 418.527344 1051.734375 419.085938 1050.851562 419.628906 C 1049.8125 420.28125 1048.761719 420.910156 1047.699219 421.523438 C 1046.796875 422.042969 1045.898438 422.546875 1044.980469 423.039062 C 1043.902344 423.621094 1042.808594 424.175781 1041.707031 424.71875 C 1041.027344 425.050781 1040.359375 425.410156 1039.664062 425.730469 C 1039.417969 425.84375 1039.167969 425.9375 1038.921875 426.050781 C 1037.796875 426.5625 1036.664062 427.042969 1035.523438 427.515625 C 1034.582031 427.90625 1033.644531 428.296875 1032.695312 428.65625 C 1031.523438 429.101562 1030.34375 429.5 1029.164062 429.894531 C 1028.21875 430.210938 1027.28125 430.542969 1026.332031 430.832031 C 1025.101562 431.203125 1023.867188 431.519531 1022.628906 431.84375 C 1021.703125 432.085938 1020.78125 432.34375 1019.851562 432.554688 C 1018.542969 432.855469 1017.226562 433.089844 1015.914062 433.335938 C 1015.035156 433.496094 1014.167969 433.683594 1013.292969 433.816406 C 1011.808594 434.050781 1010.316406 434.199219 1008.828125 434.351562 C 1008.109375 434.425781 1007.398438 434.539062 1006.679688 434.59375 C 1004.46875 434.765625 1002.253906 434.859375 1000.039062 434.859375 C 997.75 434.859375 995.457031 434.765625 993.171875 434.574219 C 994.707031 436.589844 996.117188 438.714844 997.441406 440.894531 C 998.046875 441.890625 998.636719 442.902344 999.191406 443.9375 C 1003.574219 452.019531 1006.351562 460.972656 1006.363281 470.199219 C 1007.300781 471.171875 1008.285156 472.113281 1009.296875 473.03125 C 1009.613281 473.320312 1009.945312 473.597656 1010.273438 473.882812 C 1010.984375 474.507812 1011.714844 475.128906 1012.460938 475.730469 C 1012.839844 476.039062 1013.230469 476.347656 1013.625 476.652344 C 1014.367188 477.230469 1015.128906 477.792969 1015.898438 478.347656 C 1016.277344 478.617188 1016.65625 478.894531 1017.039062 479.160156 C 1018.007812 479.828125 1018.996094 480.480469 1020.007812 481.109375 C 1020.199219 481.230469 1020.382812 481.359375 1020.582031 481.480469 C 1021.785156 482.226562 1023.023438 482.945312 1024.28125 483.636719 C 1024.640625 483.828125 1025.007812 484.015625 1025.367188 484.210938 C 1026.285156 484.699219 1027.214844 485.175781 1028.152344 485.640625 C 1028.609375 485.867188 1029.078125 486.082031 1029.539062 486.304688 C 1030.425781 486.722656 1031.328125 487.128906 1032.230469 487.515625 C 1032.695312 487.71875 1033.152344 487.921875 1033.617188 488.113281 C 1034.539062 488.5 1035.46875 488.867188 1036.40625 489.222656 C 1036.523438 489.269531 1036.644531 489.3125 1036.765625 489.359375 C 1037.09375 489.480469 1037.410156 489.617188 1037.742188 489.738281 C 1039.128906 490.246094 1040.535156 490.730469 1041.957031 491.179688 C 1042.28125 491.285156 1042.601562 491.375 1042.929688 491.476562 C 1044.03125 491.816406 1045.140625 492.144531 1046.261719 492.453125 C 1046.753906 492.585938 1047.246094 492.710938 1047.742188 492.84375 C 1048.722656 493.097656 1049.707031 493.34375 1050.699219 493.570312 C 1051.210938 493.6875 1051.71875 493.804688 1052.234375 493.914062 C 1053.285156 494.148438 1054.339844 494.355469 1055.398438 494.550781 C 1055.828125 494.632812 1056.257812 494.71875 1056.6875 494.792969 C 1058.160156 495.050781 1059.644531 495.28125 1061.125 495.484375 C 1061.199219 495.496094 1061.277344 495.5 1061.347656 495.507812 C 1061.488281 495.527344 1061.628906 495.542969 1061.761719 495.558594 C 1063.039062 495.722656 1064.320312 495.867188 1065.601562 495.984375 C 1066.09375 496.027344 1066.585938 496.066406 1067.074219 496.105469 C 1067.480469 496.140625 1067.878906 496.171875 1068.285156 496.203125 C 1068.902344 496.246094 1069.511719 496.28125 1070.128906 496.308594 C 1070.652344 496.335938 1071.183594 496.363281 1071.714844 496.378906 C 1072.746094 496.425781 1073.769531 496.441406 1074.796875 496.453125 C 1074.917969 496.453125 1075.042969 496.453125 1075.164062 496.457031 C 1075.402344 496.460938 1075.601562 496.476562 1075.796875 496.476562 C 1075.917969 496.476562 1076.035156 496.46875 1076.15625 496.460938 C 1077.898438 496.457031 1079.632812 496.410156 1081.363281 496.316406 C 1081.734375 496.300781 1082.101562 496.269531 1082.472656 496.242188 C 1083.992188 496.144531 1085.5 496.015625 1087 495.847656 C 1087.300781 495.8125 1087.609375 495.789062 1087.90625 495.753906 C 1089.601562 495.546875 1091.277344 495.292969 1092.9375 495 C 1093.320312 494.929688 1093.703125 494.855469 1094.082031 494.78125 C 1095.570312 494.5 1097.039062 494.179688 1098.488281 493.824219 C 1098.722656 493.765625 1098.953125 493.71875 1099.179688 493.660156 C 1100.78125 493.25 1102.363281 492.785156 1103.917969 492.285156 C 1104.289062 492.164062 1104.65625 492.035156 1105.027344 491.90625 C 1106.476562 491.414062 1107.902344 490.886719 1109.296875 490.308594 C 1109.429688 490.257812 1109.558594 490.214844 1109.6875 490.15625 C 1111.171875 489.53125 1112.613281 488.839844 1114.027344 488.121094 C 1114.371094 487.945312 1114.707031 487.769531 1115.042969 487.589844 C 1116.457031 486.832031 1117.84375 486.050781 1119.171875 485.195312 C 1119.21875 467.277344 1116.546875 449.121094 1111.003906 431.886719 " fill-opacity="1" fill-rule="nonzero"/><path fill="#000000" d="M 815.425781 542.15625 C 813.34375 544.480469 811.433594 546.941406 809.738281 549.484375 C 828.300781 574.613281 856.914062 591.757812 887.820312 596.398438 C 888.480469 596.433594 889.160156 596.480469 889.863281 596.542969 C 890.136719 596.566406 890.433594 596.597656 890.714844 596.625 C 891.152344 596.667969 891.582031 596.707031 892.035156 596.753906 C 892.332031 596.789062 892.640625 596.824219 892.9375 596.855469 C 893.722656 596.945312 894.515625 597.035156 895.324219 597.125 C 895.746094 597.175781 896.171875 597.222656 896.605469 597.269531 C 896.917969 597.308594 897.230469 597.339844 897.550781 597.371094 C 898.027344 597.425781 898.507812 597.476562 898.988281 597.527344 C 899.339844 597.558594 899.691406 597.589844 900.042969 597.621094 C 900.488281 597.660156 900.929688 597.703125 901.375 597.742188 C 901.738281 597.765625 902.101562 597.785156 902.460938 597.808594 C 902.890625 597.835938 903.320312 597.867188 903.742188 597.886719 C 904.097656 597.902344 904.449219 597.902344 904.804688 597.910156 C 905.226562 597.921875 905.65625 597.941406 906.074219 597.933594 C 906.46875 597.933594 906.851562 597.914062 907.238281 597.902344 C 907.609375 597.890625 907.980469 597.886719 908.34375 597.867188 C 908.726562 597.84375 909.09375 597.796875 909.464844 597.753906 C 909.816406 597.71875 910.171875 597.695312 910.515625 597.644531 C 910.882812 597.59375 911.21875 597.511719 911.574219 597.4375 C 911.898438 597.375 912.234375 597.324219 912.546875 597.246094 C 912.890625 597.160156 913.203125 597.035156 913.53125 596.929688 C 913.824219 596.832031 914.136719 596.75 914.421875 596.640625 C 914.746094 596.511719 915.027344 596.335938 915.332031 596.1875 C 915.585938 596.058594 915.863281 595.945312 916.097656 595.796875 C 916.402344 595.613281 916.660156 595.382812 916.941406 595.167969 C 917.144531 595.007812 917.371094 594.875 917.558594 594.699219 C 917.847656 594.429688 918.085938 594.109375 918.335938 593.800781 C 918.476562 593.632812 918.636719 593.488281 918.765625 593.308594 C 919.121094 592.792969 919.429688 592.226562 919.691406 591.597656 C 916.382812 585.839844 911.605469 585.101562 903.84375 581.792969 C 880.855469 573.828125 860.796875 558.699219 849.058594 537.867188 C 847 534.203125 845.160156 530.390625 843.644531 526.382812 C 832.5 527.523438 822.820312 533.917969 815.425781 542.15625 " fill-opacity="1" fill-rule="nonzero"/><path fill="#000000" d="M 714.613281 390.539062 C 698.023438 385.300781 680.640625 383.949219 665.320312 393.242188 C 626.589844 416.75 610.15625 467.261719 593.726562 506.574219 C 532.53125 652.867188 543.328125 662.082031 539.039062 645.878906 C 517.769531 565.1875 508.878906 549.621094 487.609375 490.53125 C 482.132812 475.363281 465.859375 422.867188 447.367188 403.882812 C 410.300781 366 350.054688 397.925781 351.722656 452.964844 C 351.960938 459.558594 354.738281 468.375 362.597656 470.675781 C 385.695312 477.425781 368.3125 425.722656 400.855469 416.433594 C 423.792969 409.839844 440.222656 449.789062 446.574219 465.992188 C 481.257812 553.832031 523.085938 737.292969 540.46875 745.789062 C 545.628906 750 553.40625 747.617188 555.234375 741.105469 C 564.914062 717.199219 570.394531 651.28125 640.875 485.132812 C 639.921875 487.355469 651.90625 458.761719 667.703125 437.242188 C 675.324219 426.835938 693.738281 415.398438 706.832031 421.832031 C 718.183594 427.472656 721.597656 443.59375 722.546875 455.03125 C 723.898438 471.074219 741.359375 469.167969 743.582031 458.367188 C 748.898438 432.632812 740.328125 398.640625 714.613281 390.539062 Z M 714.613281 390.539062 " fill-opacity="1" fill-rule="nonzero"/><path fill="#000000" d="M 548.40625 442.324219 C 539.4375 439.464844 533.007812 440.972656 527.453125 443.433594 C 504.59375 453.441406 513.5625 489.183594 546.5 486.242188 C 551.660156 485.765625 548.566406 486.800781 543.484375 482.351562 C 533.960938 474.089844 534.199219 459.082031 537.453125 453.441406 C 538.800781 451.140625 542.453125 448.4375 541.183594 449.472656 C 550.46875 441.765625 558.726562 446.214844 548.40625 442.324219 Z M 548.40625 442.324219 " fill-opacity="1" fill-rule="nonzero"/><path fill="#000000" d="M 660.875 626.339844 C 663.734375 621.972656 655.398438 615.621094 652.066406 622.609375 C 651.035156 624.832031 652.941406 627.929688 655.082031 628.644531 C 657.382812 629.359375 660.003906 627.613281 660.875 626.339844 Z M 660.875 626.339844 " fill-opacity="1" fill-rule="nonzero"/><path fill="#000000" d="M 610.714844 670.816406 C 613.570312 666.449219 605.238281 660.09375 601.902344 667.085938 C 600.871094 669.308594 602.777344 672.40625 604.917969 673.121094 C 607.222656 673.835938 609.839844 672.089844 610.714844 670.816406 Z M 610.714844 670.816406 " fill-opacity="1" fill-rule="nonzero"/><path fill="#000000" d="M 657.78125 684.238281 C 656.75 686.464844 658.65625 689.5625 660.796875 690.277344 C 663.097656 690.988281 665.71875 689.242188 666.589844 687.972656 C 669.449219 683.605469 661.113281 677.25 657.78125 684.238281 Z M 657.78125 684.238281 " fill-opacity="1" fill-rule="nonzero"/><path fill="#000000" d="M 741.042969 542.632812 C 743.34375 543.347656 745.964844 541.597656 746.835938 540.328125 C 749.695312 535.960938 741.359375 529.605469 738.027344 536.597656 C 736.996094 538.742188 738.898438 541.917969 741.042969 542.632812 Z M 741.042969 542.632812 " fill-opacity="1" fill-rule="nonzero"/><path fill="#000000" d="M 530.390625 426.4375 C 532.691406 427.152344 535.308594 425.40625 536.183594 424.136719 C 539.039062 419.769531 530.707031 413.414062 527.371094 420.402344 C 526.339844 422.628906 528.246094 425.804688 530.390625 426.4375 Z M 530.390625 426.4375 " fill-opacity="1" fill-rule="nonzero"/><path fill="#000000" d="M 527.371094 519.363281 C 526.339844 521.585938 528.246094 524.683594 530.390625 525.398438 C 532.691406 526.113281 535.308594 524.363281 536.183594 523.09375 C 539.039062 518.726562 530.707031 512.371094 527.371094 519.363281 Z M 527.371094 519.363281 " fill-opacity="1" fill-rule="nonzero"/><path fill="#000000" d="M 627.859375 397.769531 C 630.160156 398.484375 632.777344 396.734375 633.652344 395.464844 C 636.507812 391.097656 628.175781 384.742188 624.84375 391.730469 C 623.808594 393.957031 625.714844 397.132812 627.859375 397.769531 Z M 627.859375 397.769531 " fill-opacity="1" fill-rule="nonzero"/><path fill="#000000" d="M 414.1875 634.125 C 413.15625 636.347656 415.0625 639.445312 417.203125 640.160156 C 419.507812 640.875 422.125 639.128906 423 637.859375 C 425.855469 633.410156 417.523438 627.054688 414.1875 634.125 Z M 414.1875 634.125 " fill-opacity="1" fill-rule="nonzero"/><path fill="#000000" d="M 442.921875 590.207031 C 445.777344 585.835938 437.445312 579.484375 434.109375 586.472656 C 433.078125 588.695312 434.984375 591.792969 437.128906 592.507812 C 439.429688 593.222656 442.046875 591.476562 442.921875 590.207031 Z M 442.921875 590.207031 " fill-opacity="1" fill-rule="nonzero"/><path fill="#000000" d="M 379.898438 538.34375 C 382.203125 539.058594 384.820312 537.3125 385.695312 536.039062 C 388.550781 531.671875 380.21875 525.316406 376.882812 532.308594 C 375.851562 534.453125 377.757812 537.628906 379.898438 538.34375 Z M 379.898438 538.34375 " fill-opacity="1" fill-rule="nonzero"/><path fill="#000000" d="M 472.921875 638.414062 C 471.890625 640.636719 473.796875 643.734375 475.941406 644.449219 C 478.242188 645.164062 480.859375 643.417969 481.734375 642.144531 C 484.589844 637.699219 476.257812 631.425781 472.921875 638.414062 Z M 472.921875 638.414062 " fill-opacity="1" fill-rule="nonzero"/><path fill="#000000" d="M 394.1875 602.59375 C 393.234375 598.226562 392.679688 596.957031 391.566406 592.191406 C 390.296875 586.550781 389.902344 582.738281 387.917969 581.628906 C 383.234375 579.007812 382.519531 584.644531 376.644531 603.707031 C 359.261719 608.710938 354.898438 609.902344 354.023438 612.523438 C 352.4375 617.367188 362.515625 618.957031 376.726562 620.703125 L 381.644531 640.082031 C 382.996094 644.210938 387.359375 645.640625 389.742188 637.0625 C 389.742188 636.90625 393.710938 622.769531 394.105469 622.6875 C 401.09375 620.703125 414.03125 615.9375 415.457031 614.90625 C 426.332031 607.675781 394.425781 603.945312 394.1875 602.59375 Z M 394.1875 602.59375 " fill-opacity="1" fill-rule="nonzero"/><path fill="#000000" d="M 721.199219 667.71875 C 720.566406 664.78125 720.167969 663.90625 719.453125 660.652344 C 718.582031 656.839844 718.261719 654.21875 716.914062 653.503906 C 713.738281 651.757812 713.261719 655.570312 709.292969 668.433594 C 697.546875 671.851562 694.53125 672.644531 693.976562 674.46875 C 692.941406 677.726562 699.769531 678.839844 709.371094 680.03125 L 712.707031 693.132812 C 713.660156 695.914062 716.597656 696.867188 718.183594 691.070312 C 718.183594 690.988281 720.882812 681.378906 721.121094 681.300781 C 725.882812 679.949219 734.613281 676.695312 735.644531 676.058594 C 743.027344 671.136719 721.359375 668.671875 721.199219 667.71875 Z M 721.199219 667.71875 " fill-opacity="1" fill-rule="nonzero"/><path fill="#000000" d="M 583.332031 408.332031 C 582.695312 405.394531 582.296875 404.519531 581.585938 401.261719 C 580.710938 397.449219 580.394531 394.828125 579.042969 394.113281 C 575.871094 392.367188 575.394531 396.179688 571.425781 409.046875 C 559.675781 412.460938 556.660156 413.253906 556.105469 415.082031 C 555.074219 418.339844 561.898438 419.449219 571.503906 420.640625 L 574.835938 433.746094 C 575.789062 436.527344 578.726562 437.480469 580.3125 431.679688 C 580.3125 431.601562 583.011719 421.992188 583.25 421.914062 C 588.011719 420.5625 596.742188 417.304688 597.777344 416.671875 C 605.15625 411.746094 583.488281 409.203125 583.332031 408.332031 Z M 583.332031 408.332031 " fill-opacity="1" fill-rule="nonzero"/><path fill="#000000" d="M 635.238281 699.25 C 634.605469 696.3125 634.207031 695.4375 633.492188 692.179688 C 632.621094 688.371094 632.304688 685.75 630.953125 685.035156 C 627.777344 683.285156 627.300781 687.097656 623.332031 699.964844 C 611.585938 703.378906 608.570312 704.175781 608.015625 706 C 606.984375 709.257812 613.808594 710.367188 623.414062 711.558594 L 626.746094 724.664062 C 627.699219 727.445312 630.636719 728.398438 632.222656 722.601562 C 632.222656 722.519531 634.921875 712.910156 635.160156 712.832031 C 639.921875 711.480469 648.652344 708.222656 649.683594 707.589844 C 657.066406 702.664062 635.398438 700.203125 635.238281 699.25 Z M 635.238281 699.25 " fill-opacity="1" fill-rule="nonzero"/><path fill="#000000" d="M 463.242188 659.140625 C 462.605469 656.203125 462.207031 655.332031 461.496094 652.074219 C 460.621094 648.261719 460.304688 645.640625 458.953125 644.925781 C 455.78125 643.179688 455.304688 646.992188 451.335938 659.855469 C 439.585938 663.273438 436.570312 664.066406 436.015625 665.894531 C 434.984375 669.148438 441.808594 670.261719 451.414062 671.453125 L 454.746094 684.558594 C 455.699219 687.335938 458.636719 688.289062 460.222656 682.492188 C 460.222656 682.414062 462.921875 672.804688 463.160156 672.722656 C 467.921875 671.375 476.652344 668.117188 477.6875 667.480469 C 485.066406 662.558594 463.398438 660.015625 463.242188 659.140625 Z M 463.242188 659.140625 " fill-opacity="1" fill-rule="nonzero"/><path fill="#000000" d="M 428.476562 550.890625 C 427.839844 547.953125 427.445312 547.078125 426.730469 543.824219 C 425.855469 540.011719 425.539062 537.390625 424.1875 536.675781 C 421.015625 534.929688 420.539062 538.742188 416.570312 551.605469 C 404.824219 555.023438 401.804688 555.816406 401.25 557.640625 C 400.21875 560.898438 407.046875 562.011719 416.648438 563.203125 L 419.984375 576.304688 C 420.933594 579.085938 423.871094 580.039062 425.460938 574.242188 C 425.460938 574.160156 428.15625 564.550781 428.394531 564.472656 C 433.160156 563.121094 441.890625 559.867188 442.921875 559.230469 C 450.304688 554.308594 428.714844 551.84375 428.476562 550.890625 Z M 428.476562 550.890625 " fill-opacity="1" fill-rule="nonzero"/><path fill="#000000" d="M 745.566406 568.921875 C 744.535156 568.839844 724.769531 568.761719 707.625 569.476562 C 706.832031 562.328125 707.863281 530.71875 707.863281 530.480469 C 707.863281 528.734375 706.675781 527.859375 705.484375 527.859375 C 703.894531 527.859375 703.101562 529.605469 702.386719 531.117188 C 696.753906 542.789062 689.6875 557.007812 686.753906 567.171875 C 660.402344 542.789062 661.589844 540.488281 658.417969 542.394531 C 655.875 543.902344 658.097656 548.113281 663.574219 559.070312 C 673.578125 579.246094 671.035156 574.242188 671.828125 575.828125 C 673.578125 579.246094 673.8125 578.292969 672.066406 579.324219 C 645.480469 594.890625 638.574219 595.289062 639.289062 599.179688 C 639.765625 601.878906 643.175781 601.324219 645.953125 601.164062 C 661.511719 600.292969 678.417969 597.910156 682.070312 597.113281 C 683.65625 610.773438 685.800781 636.507812 687.546875 637.621094 C 688.816406 638.414062 690.484375 638.175781 691.277344 636.109375 C 691.753906 634.761719 700.402344 600.925781 700.800781 599.894531 C 702.707031 601.007812 709.054688 605.058594 711.039062 606.089844 C 732.628906 617.445312 732.390625 618.082031 734.375 617.683594 C 735.488281 617.445312 736.28125 616.335938 736.199219 615.300781 C 736.121094 613.792969 737.074219 615.539062 721.359375 595.367188 C 716.832031 589.570312 715.246094 588.21875 713.339844 585.996094 C 728.421875 580.914062 746.914062 573.921875 747.472656 573.527344 C 749.136719 572.175781 749.21875 569.078125 745.566406 568.921875 Z M 745.566406 568.921875 " fill-opacity="1" fill-rule="nonzero"/></svg>