<svg xmlns="http://www.w3.org/2000/svg" xmlns:xlink="http://www.w3.org/1999/xlink" width="2000" zoomAndPan="magnify" viewBox="0 0 1500 1499.999933" height="2000" preserveAspectRatio="xMidYMid meet" version="1.0"><defs><clipPath id="7d9b3e93a2"><path d="M 576.007812 1063.445312 L 678 1063.445312 L 678 1127.355469 L 576.007812 1127.355469 Z M 576.007812 1063.445312 " clip-rule="nonzero"/></clipPath><clipPath id="affdb35e22"><path d="M 1179 879.019531 L 1218.953125 879.019531 L 1218.953125 944.753906 L 1179 944.753906 Z M 1179 879.019531 " clip-rule="nonzero"/></clipPath><clipPath id="af1fc64646"><path d="M 826 1063.445312 L 927.707031 1063.445312 L 927.707031 1127.355469 L 826 1127.355469 Z M 826 1063.445312 " clip-rule="nonzero"/></clipPath></defs><path fill="#000000" d="M 468.105469 895.09375 C 466.722656 895.855469 465.40625 898.703125 468.1875 899.105469 C 502.300781 904.039062 559.636719 922.195312 559.636719 922.195312 C 568.460938 923.171875 576.859375 914.917969 577.710938 910.816406 C 578.105469 908.925781 577.089844 907.035156 575.289062 906.324219 C 564.109375 901.90625 525.59375 888.585938 492.933594 883.375 C 482.492188 881.710938 471.234375 878.4375 463.496094 879.71875 C 461.992188 879.96875 462.265625 881.328125 464.15625 882.089844 C 466.410156 883 469.191406 883.164062 470.488281 887.546875 C 470.980469 889.207031 469.242188 894.472656 468.105469 895.09375 " fill-opacity="1" fill-rule="nonzero"/><path fill="#000000" d="M 587.996094 926.386719 C 590.164062 926.871094 598.449219 926.289062 606.542969 925.316406 C 598.929688 918.71875 591.394531 911.414062 584.160156 904.089844 C 583.546875 904.367188 583.082031 904.632812 582.925781 904.863281 C 580.492188 908.535156 588.625 911.679688 586.195312 921.269531 C 585.863281 922.578125 586.679688 926.09375 587.996094 926.386719 " fill-opacity="1" fill-rule="nonzero"/><path fill="#000000" d="M 325.425781 881.65625 C 326.320312 883.800781 327.507812 885.742188 328.777344 887.425781 C 329.90625 888.910156 331.097656 890.203125 332.210938 891.179688 C 333.082031 891.953125 333.832031 892.539062 334.496094 893.027344 C 335.523438 893.503906 336.5 893.902344 337.285156 894.121094 C 368.109375 902.824219 379.828125 914.003906 395.707031 915.992188 C 406.164062 917.296875 407.128906 908.796875 407.472656 908.152344 C 408.710938 905.824219 355.625 877.144531 329.207031 872.734375 C 324.199219 871.898438 323.421875 872.167969 323.40625 875.058594 C 323.472656 875.382812 323.546875 875.703125 323.621094 876.035156 C 324.039062 877.910156 324.601562 879.835938 325.425781 881.65625 " fill-opacity="1" fill-rule="nonzero"/><path fill="#000000" d="M 323.28125 899.582031 C 325.449219 897.703125 326.886719 895.132812 327.757812 892.382812 C 325.828125 889.703125 323.988281 886.226562 323.019531 882.492188 C 322.53125 880.792969 322.261719 879.09375 322.078125 877.429688 C 305.953125 893.011719 281.207031 924.570312 290.152344 942.445312 C 290.265625 942.679688 300.546875 919.285156 323.28125 899.582031 " fill-opacity="1" fill-rule="nonzero"/><path fill="#000000" d="M 417.929688 909.457031 C 431 911.625 464.542969 894.96875 464.542969 894.96875 C 464.542969 894.96875 471.460938 883.988281 460.941406 883.304688 C 454.625 882.890625 427.6875 886.066406 411.394531 897.699219 C 402.242188 904.234375 404.859375 907.289062 417.929688 909.457031 " fill-opacity="1" fill-rule="nonzero"/><path fill="#000000" d="M 579.703125 911.726562 C 575.804688 920.867188 568.058594 922.433594 568.058594 922.433594 C 562.789062 926.433594 580.28125 928.058594 583.015625 925.230469 C 585.753906 922.40625 583.648438 920.597656 582.507812 914.136719 C 581.359375 907.671875 579.703125 911.726562 579.703125 911.726562 " fill-opacity="1" fill-rule="nonzero"/><path fill="#000000" d="M 417.277344 913.050781 C 413.679688 913.050781 409.105469 911.414062 409.105469 911.414062 C 408.453125 914.359375 406.492188 916.96875 406.492188 916.96875 C 412.699219 916.644531 417.277344 913.050781 417.277344 913.050781 " fill-opacity="1" fill-rule="nonzero"/><path fill="#000000" d="M 497.871094 945.617188 C 532.328125 946.585938 591.378906 958.019531 591.378906 958.019531 C 600.25 957.980469 607.640625 948.808594 608.015625 944.640625 C 608.191406 942.714844 606.96875 940.957031 605.097656 940.457031 C 593.480469 937.355469 553.683594 928.558594 520.640625 927.144531 C 510.078125 926.691406 498.519531 924.730469 490.980469 926.898438 C 489.515625 927.316406 489.941406 928.636719 491.90625 929.175781 C 494.25 929.816406 497.035156 929.660156 498.828125 933.867188 C 499.507812 935.460938 498.386719 940.890625 497.324219 941.644531 C 496.042969 942.554688 495.066406 945.535156 497.871094 945.617188 " fill-opacity="1" fill-rule="nonzero"/><path fill="#000000" d="M 650.746094 950.277344 C 640.609375 949.039062 629.652344 943.171875 618.585938 935.003906 C 615.882812 936.019531 613.847656 937.070312 613.523438 937.710938 C 611.527344 941.640625 619.96875 943.828125 618.660156 953.632812 C 618.480469 954.96875 619.699219 958.367188 621.039062 958.511719 C 624.859375 958.914062 646.492188 954.042969 653.863281 951.109375 C 652.324219 950.636719 651.203125 950.335938 650.746094 950.277344 " fill-opacity="1" fill-rule="nonzero"/><path fill="#000000" d="M 494.238281 941.953125 C 494.238281 941.953125 496.0625 929.109375 486.179688 932.777344 C 480.246094 934.980469 455.824219 950.976562 445.707031 968.25 C 440.023438 977.949219 443.660156 979.667969 456.480469 976.3125 C 469.296875 972.957031 494.238281 941.953125 494.238281 941.953125 " fill-opacity="1" fill-rule="nonzero"/><path fill="#000000" d="M 611.109375 944.898438 C 608.292969 954.425781 600.777344 956.875 600.777344 956.875 C 596.003906 961.457031 613.570312 961.058594 615.960938 957.9375 C 618.351562 954.816406 616.054688 953.261719 614.171875 946.972656 C 612.292969 940.679688 611.109375 944.898438 611.109375 944.898438 " fill-opacity="1" fill-rule="nonzero"/><path fill="#000000" d="M 452.1875 844.109375 C 450.175781 843.808594 449.25 844.839844 450.417969 845.816406 C 456.4375 850.847656 467.796875 853.730469 477.640625 857.59375 C 503.226562 867.628906 542.75 877.359375 562.210938 881.4375 C 559.207031 878.355469 556.320312 875.441406 553.605469 872.804688 C 552.808594 872.03125 552.570312 870.859375 553.015625 869.820312 C 553.492188 868.707031 554.671875 868.027344 555.855469 868.035156 C 556.992188 868.078125 558.972656 868.035156 561.839844 867.570312 C 562.234375 867.503906 562.609375 867.300781 562.996094 866.945312 C 564.15625 865.882812 564.285156 864.132812 563.304688 862.78125 C 560.570312 859.03125 558.527344 856.214844 556.964844 853.921875 C 535.769531 850.257812 488.578125 841.421875 464.304688 831.492188 C 461.703125 830.429688 461.390625 833.550781 462.195312 834.902344 C 462.859375 836.019531 461.683594 841.4375 460.417969 842.617188 C 457.074219 845.742188 454.59375 844.46875 452.1875 844.109375 " fill-opacity="1" fill-rule="nonzero"/><path fill="#000000" d="M 392.082031 802.300781 C 392.597656 801.78125 406.691406 803.3125 410.394531 805 C 424.953125 811.636719 383.464844 771.675781 365.929688 744.886719 C 365.304688 743.925781 364.285156 742.738281 363.089844 741.554688 C 361.894531 740.53125 360.347656 739.476562 358.566406 738.574219 C 357.445312 738 356.273438 737.476562 355.007812 737.105469 C 353.472656 736.605469 351.871094 736.347656 350.320312 736.226562 C 349.707031 736.199219 349.105469 736.179688 348.640625 736.164062 C 348.347656 736.164062 348.050781 736.15625 347.765625 736.167969 C 346.785156 736.203125 345.839844 736.277344 345.003906 736.425781 C 344.730469 736.476562 344.515625 736.527344 344.257812 736.578125 C 344.484375 736.71875 344.714844 736.839844 344.941406 736.957031 C 340.886719 738.0625 340.46875 738.410156 343.09375 743.578125 C 355.210938 767.453125 390.230469 804.175781 392.082031 802.300781 " fill-opacity="1" fill-rule="nonzero"/><path fill="#000000" d="M 343.585938 736.125 C 343.980469 735.972656 344.359375 735.820312 344.8125 735.65625 C 347.546875 734.691406 351.539062 734.027344 355.539062 734.617188 C 358.558594 734.984375 361.480469 736 363.859375 737.191406 C 365.113281 736.679688 366.34375 736.085938 367.492188 735.347656 C 410.683594 707.496094 423.230469 708.964844 423.117188 708.730469 C 419.316406 700.820312 397.453125 704.203125 383.625 710.546875 C 370.898438 716.386719 360.671875 723.007812 344.59375 731.195312 C 343.761719 731.617188 341.714844 734.433594 342.363281 735.101562 C 342.75 735.5 343.164062 735.820312 343.585938 736.125 " fill-opacity="1" fill-rule="nonzero"/><path fill="#000000" d="M 399.628906 815.449219 C 414.871094 828.429688 445.507812 840.316406 451.8125 840.890625 C 462.308594 841.839844 457.183594 829.925781 457.183594 829.925781 C 457.183594 829.925781 430.527344 809.394531 417.277344 809.507812 C 404.027344 809.625 384.378906 802.472656 399.628906 815.449219 " fill-opacity="1" fill-rule="nonzero"/><path fill="#000000" d="M 698.363281 987.847656 C 702.285156 979.027344 707.1875 976.089844 707.1875 976.089844 C 696.40625 975.109375 688.5625 970.210938 677.773438 963.347656 C 666.992188 956.492188 668.460938 956.492188 660.617188 953.550781 C 652.773438 950.609375 651.796875 956.492188 651.796875 956.492188 C 661.109375 961.390625 658.660156 963.347656 668.953125 975.109375 C 676.257812 983.449219 663.675781 982.738281 667.972656 986.867188 C 674.855469 993.480469 698.753906 990.023438 698.363281 987.847656 " fill-opacity="1" fill-rule="nonzero"/><path fill="#000000" d="M 632.1875 1001.074219 C 654.066406 995.851562 660.128906 985.890625 664.050781 983.433594 C 666.816406 981.710938 650.578125 973.167969 640.757812 968.273438 C 635.53125 965.671875 629.757812 964.328125 623.921875 964.535156 C 620.601562 964.652344 618.847656 965.1875 623.851562 966.78125 C 634.640625 970.210938 631.902344 993.296875 627.285156 996.667969 C 622.847656 999.902344 611.101562 1006.105469 632.1875 1001.074219 " fill-opacity="1" fill-rule="nonzero"/><path fill="#000000" d="M 648.363281 958.941406 C 646.40625 957.960938 637.582031 963.839844 637.582031 963.839844 C 638.5625 962.371094 658.660156 974.128906 663.5625 977.070312 C 668.460938 980.007812 661.597656 970.699219 657.1875 965.800781 C 652.773438 960.898438 650.324219 959.917969 648.363281 958.941406 " fill-opacity="1" fill-rule="nonzero"/><path fill="#000000" d="M 589.539062 968.738281 C 570.421875 972.65625 563.070312 977.558594 559.636719 984.910156 C 556.207031 992.253906 571.628906 1006.515625 586.109375 1005.484375 C 599.835938 1004.507812 607.1875 1004.507812 616.992188 999.605469 C 626.796875 994.707031 631.207031 975.109375 619.929688 968.25 C 619.929688 968.25 606.3125 965.300781 589.539062 968.738281 " fill-opacity="1" fill-rule="nonzero"/><path fill="#000000" d="M 566.992188 1028.511719 C 566.992188 1028.511719 577.773438 1012.832031 574.835938 1009.894531 C 571.894531 1006.957031 555.714844 998.136719 556.207031 989.316406 C 556.695312 980.496094 553.757812 982.457031 553.757812 982.457031 C 553.757812 982.457031 533.429688 996.347656 545.914062 1017.734375 C 552.773438 1029.492188 566.992188 1028.511719 566.992188 1028.511719 " fill-opacity="1" fill-rule="nonzero"/><path fill="#000000" d="M 570.914062 1082.894531 C 575.144531 1084.898438 579.925781 1080.394531 584.148438 1081.914062 C 596.402344 1086.324219 604.933594 1082.039062 610.617188 1071.625 C 616.5 1060.847656 607.675781 1046.152344 598.363281 1029.980469 C 588.625 1013.074219 578.265625 1013.320312 578.265625 1013.320312 C 578.265625 1019.203125 568.949219 1031.449219 566.007812 1031.9375 C 563.070312 1032.429688 559.636719 1031.449219 558.660156 1035.859375 C 557.675781 1040.269531 551.304688 1073.585938 570.914062 1082.894531 " fill-opacity="1" fill-rule="nonzero"/><g clip-path="url(#7d9b3e93a2)"><path fill="#000000" d="M 638.070312 1126.988281 C 684.640625 1123.066406 677.285156 1091.710938 677.285156 1091.710938 C 677.285156 1091.710938 646.40625 1066.238281 616.007812 1063.785156 C 616.007812 1063.785156 614.84375 1081.902344 601.570312 1087.355469 C 608.972656 1095.265625 617.804688 1096.800781 627.285156 1098.082031 C 619.847656 1098.6875 613.558594 1099.550781 601.9375 1094.398438 C 597.285156 1092.328125 592.789062 1089.855469 587.851562 1088.617188 C 581.984375 1087.144531 586.652344 1082.1875 581.695312 1084.855469 C 577.71875 1086.992188 575.324219 1090.734375 576.792969 1097.59375 C 578.265625 1104.449219 591.503906 1130.90625 638.070312 1126.988281 " fill-opacity="1" fill-rule="nonzero"/></g><path fill="#000000" d="M 372.292969 1025.839844 C 369.246094 1029.222656 368.796875 1030.214844 370.488281 1031.515625 C 370.679688 1031.777344 370.902344 1031.882812 371.136719 1031.972656 C 373.203125 1032.792969 375.464844 1033.484375 377.785156 1033.824219 C 379.660156 1034.148438 381.519531 1034.214844 383.292969 1034.144531 C 385.601562 1034.0625 387.753906 1033.726562 389.46875 1033.226562 C 390.59375 1032.910156 391.488281 1032.585938 392.253906 1032.296875 C 393.210938 1031.683594 394.070312 1031.074219 394.683594 1030.53125 C 418.597656 1009.238281 434.332031 1005.375 444.542969 993.0625 C 451.269531 984.953125 444.617188 979.574219 444.257812 978.933594 C 442.957031 976.636719 390.222656 1005.949219 372.292969 1025.839844 " fill-opacity="1" fill-rule="nonzero"/><path fill="#000000" d="M 412.230469 1090.015625 C 412.484375 1090.066406 403.019531 1071.765625 392.628906 1043.539062 C 391.777344 1041.226562 390.234375 1039.257812 388.386719 1037.597656 C 385.035156 1037.832031 380.988281 1037.527344 377.199219 1036.300781 C 374.714844 1035.566406 372.425781 1034.480469 370.390625 1033.320312 C 370.449219 1034.1875 370.625 1035.03125 370.839844 1035.375 C 380.445312 1050.640625 394.851562 1086.25 412.230469 1090.015625 " fill-opacity="1" fill-rule="nonzero"/><path fill="#000000" d="M 457.453125 979.890625 C 454.398438 981.785156 449.648438 982.808594 449.648438 982.808594 C 450.648438 985.648438 450.359375 988.90625 450.359375 988.90625 C 455.460938 985.355469 457.453125 979.890625 457.453125 979.890625 " fill-opacity="1" fill-rule="nonzero"/><path fill="#000000" d="M 1039.667969 882.089844 C 1041.558594 881.328125 1041.828125 879.96875 1040.324219 879.71875 C 1032.589844 878.4375 1021.332031 881.710938 1010.890625 883.375 C 978.230469 888.585938 939.710938 901.90625 928.53125 906.324219 C 926.730469 907.035156 925.71875 908.925781 926.113281 910.816406 C 926.964844 914.917969 935.363281 923.171875 944.183594 922.195312 C 944.183594 922.195312 1001.523438 904.039062 1035.636719 899.105469 C 1038.417969 898.703125 1037.101562 895.855469 1035.71875 895.09375 C 1034.582031 894.472656 1032.84375 889.207031 1033.335938 887.546875 C 1034.632812 883.164062 1037.414062 883 1039.667969 882.089844 " fill-opacity="1" fill-rule="nonzero"/><path fill="#000000" d="M 920.898438 904.863281 C 920.78125 904.6875 920.464844 904.492188 920.082031 904.289062 C 912.875 911.570312 905.367188 918.824219 897.789062 925.378906 C 905.71875 926.316406 913.707031 926.863281 915.828125 926.386719 C 917.144531 926.09375 917.960938 922.578125 917.628906 921.269531 C 915.199219 911.679688 923.332031 908.535156 920.898438 904.863281 " fill-opacity="1" fill-rule="nonzero"/><path fill="#000000" d="M 1183.59375 877.667969 C 1183.667969 877.339844 1183.742188 877.015625 1183.804688 876.691406 C 1183.792969 873.800781 1183.015625 873.53125 1178.007812 874.367188 C 1151.589844 878.777344 1098.503906 907.457031 1099.742188 909.78125 C 1100.085938 910.429688 1101.050781 918.929688 1111.507812 917.621094 C 1127.386719 915.636719 1139.101562 904.457031 1169.929688 895.753906 C 1170.714844 895.535156 1171.695312 895.132812 1172.722656 894.660156 C 1173.382812 894.171875 1174.132812 893.585938 1175.003906 892.8125 C 1176.121094 891.832031 1177.308594 890.542969 1178.4375 889.058594 C 1179.707031 887.375 1180.894531 885.433594 1181.789062 883.289062 C 1182.609375 881.46875 1183.175781 879.542969 1183.59375 877.667969 " fill-opacity="1" fill-rule="nonzero"/><g clip-path="url(#affdb35e22)"><path fill="#000000" d="M 1185.136719 879.0625 C 1184.953125 880.726562 1184.683594 882.425781 1184.195312 884.128906 C 1183.222656 887.859375 1181.386719 891.335938 1179.457031 894.015625 C 1180.328125 896.769531 1181.769531 899.335938 1183.933594 901.214844 C 1206.667969 920.917969 1216.945312 944.3125 1217.066406 944.078125 C 1226.007812 926.207031 1201.261719 894.644531 1185.136719 879.0625 " fill-opacity="1" fill-rule="nonzero"/></g><path fill="#000000" d="M 1095.820312 899.332031 C 1079.523438 887.699219 1049.199219 882.890625 1042.882812 883.304688 C 1032.363281 883.988281 1039.28125 894.96875 1039.28125 894.96875 C 1039.28125 894.96875 1076.214844 913.257812 1089.289062 911.089844 C 1102.355469 908.917969 1104.96875 905.863281 1095.820312 899.332031 " fill-opacity="1" fill-rule="nonzero"/><path fill="#000000" d="M 935.765625 922.433594 C 935.765625 922.433594 928.019531 920.867188 924.121094 911.726562 C 924.121094 911.726562 922.464844 907.671875 921.316406 914.136719 C 920.175781 920.597656 918.070312 922.40625 920.808594 925.230469 C 923.542969 928.058594 941.035156 926.433594 935.765625 922.433594 " fill-opacity="1" fill-rule="nonzero"/><path fill="#000000" d="M 1089.941406 914.683594 C 1089.941406 914.683594 1094.515625 918.277344 1100.722656 918.601562 C 1100.722656 918.601562 1098.761719 915.992188 1098.109375 913.050781 C 1098.109375 913.050781 1093.535156 914.683594 1089.941406 914.683594 " fill-opacity="1" fill-rule="nonzero"/><path fill="#000000" d="M 1011.917969 929.175781 C 1013.882812 928.636719 1014.308594 927.316406 1012.839844 926.898438 C 1005.304688 924.730469 993.746094 926.691406 983.183594 927.144531 C 950.140625 928.558594 910.339844 937.355469 898.726562 940.457031 C 896.855469 940.957031 895.632812 942.714844 895.804688 944.640625 C 896.183594 948.808594 903.570312 957.980469 912.445312 958.019531 C 912.445312 958.019531 971.496094 946.585938 1005.953125 945.617188 C 1008.757812 945.535156 1007.777344 942.554688 1006.5 941.644531 C 1005.433594 940.890625 1004.316406 935.460938 1004.996094 933.867188 C 1006.789062 929.660156 1009.574219 929.816406 1011.917969 929.175781 " fill-opacity="1" fill-rule="nonzero"/><path fill="#000000" d="M 890.300781 937.710938 C 889.992188 937.105469 888.109375 936.125 885.605469 935.148438 C 874.648438 943.203125 863.792969 948.992188 853.738281 950.277344 C 853.242188 950.34375 851.996094 950.679688 850.257812 951.226562 C 857.90625 954.167969 879.015625 958.90625 882.785156 958.511719 C 884.125 958.367188 885.339844 954.96875 885.164062 953.632812 C 883.855469 943.828125 892.296875 941.640625 890.300781 937.710938 " fill-opacity="1" fill-rule="nonzero"/><path fill="#000000" d="M 1058.457031 967.269531 C 1048.339844 949.996094 1023.578125 934.980469 1017.640625 932.777344 C 1007.761719 929.109375 1009.585938 941.953125 1009.585938 941.953125 C 1009.585938 941.953125 1034.867188 971.976562 1047.6875 975.332031 C 1060.5 978.6875 1064.136719 976.964844 1058.457031 967.269531 " fill-opacity="1" fill-rule="nonzero"/><path fill="#000000" d="M 892.714844 944.898438 C 892.714844 944.898438 891.53125 940.679688 889.652344 946.972656 C 887.769531 953.261719 885.472656 954.816406 887.863281 957.9375 C 890.253906 961.058594 907.820312 961.457031 903.046875 956.875 C 903.046875 956.875 895.53125 954.425781 892.714844 944.898438 " fill-opacity="1" fill-rule="nonzero"/><path fill="#000000" d="M 1039.519531 831.492188 C 1015.535156 841.304688 969.144531 850.054688 947.597656 853.792969 C 946.023438 856.105469 943.957031 858.960938 941.171875 862.78125 C 940.195312 864.132812 940.320312 865.882812 941.484375 866.949219 C 941.867188 867.300781 942.246094 867.503906 942.636719 867.570312 C 945.5 868.035156 947.472656 868.078125 948.621094 868.035156 C 949.863281 868.035156 950.984375 868.703125 951.460938 869.816406 C 951.90625 870.855469 951.675781 872.027344 950.875 872.804688 C 948.199219 875.402344 945.367188 878.253906 942.421875 881.269531 C 962.167969 877.09375 1000.960938 867.484375 1026.179688 857.59375 C 1036.027344 853.730469 1047.386719 850.847656 1053.402344 845.816406 C 1054.570312 844.839844 1053.648438 843.808594 1051.632812 844.109375 C 1049.230469 844.46875 1046.75 845.742188 1043.40625 842.617188 C 1042.140625 841.4375 1040.964844 836.019531 1041.628906 834.902344 C 1042.429688 833.550781 1042.117188 830.429688 1039.519531 831.492188 " fill-opacity="1" fill-rule="nonzero"/><path fill="#000000" d="M 1157.941406 736.519531 C 1157.6875 736.46875 1157.472656 736.414062 1157.195312 736.363281 C 1156.363281 736.222656 1155.421875 736.144531 1154.4375 736.109375 C 1154.152344 736.097656 1153.855469 736.105469 1153.5625 736.109375 C 1153.097656 736.117188 1152.496094 736.144531 1151.882812 736.164062 C 1150.332031 736.285156 1148.734375 736.542969 1147.195312 737.042969 C 1145.933594 737.417969 1144.753906 737.941406 1143.636719 738.511719 C 1141.855469 739.417969 1140.304688 740.472656 1139.113281 741.492188 C 1137.921875 742.679688 1136.898438 743.867188 1136.273438 744.824219 C 1118.738281 771.613281 1077.25 811.582031 1091.808594 804.941406 C 1095.511719 803.253906 1109.605469 801.71875 1110.125 802.238281 C 1111.976562 804.117188 1146.992188 767.394531 1159.109375 743.523438 C 1161.734375 738.355469 1161.320312 738.003906 1157.257812 736.894531 C 1157.488281 736.777344 1157.71875 736.652344 1157.941406 736.519531 " fill-opacity="1" fill-rule="nonzero"/><path fill="#000000" d="M 1138.34375 737.132812 C 1140.726562 735.941406 1143.644531 734.925781 1146.664062 734.558594 C 1150.667969 733.972656 1154.65625 734.632812 1157.390625 735.59375 C 1157.847656 735.757812 1158.226562 735.910156 1158.617188 736.070312 C 1159.039062 735.757812 1159.457031 735.4375 1159.839844 735.042969 C 1160.492188 734.375 1158.441406 731.558594 1157.609375 731.136719 C 1141.53125 722.949219 1131.304688 716.328125 1118.582031 710.488281 C 1104.746094 704.140625 1082.882812 700.761719 1079.085938 708.667969 C 1078.976562 708.902344 1091.519531 707.433594 1134.710938 735.289062 C 1135.859375 736.027344 1137.089844 736.613281 1138.34375 737.132812 " fill-opacity="1" fill-rule="nonzero"/><path fill="#000000" d="M 1084.925781 809.453125 C 1071.679688 809.335938 1046.636719 829.925781 1046.636719 829.925781 C 1046.636719 829.925781 1041.515625 841.839844 1052.011719 840.890625 C 1058.316406 840.316406 1087.328125 828.367188 1102.574219 815.390625 C 1117.820312 802.410156 1098.175781 809.566406 1084.925781 809.453125 " fill-opacity="1" fill-rule="nonzero"/><path fill="#000000" d="M 835.851562 986.867188 C 840.148438 982.738281 827.566406 983.449219 834.871094 975.109375 C 845.164062 963.347656 842.714844 961.390625 852.027344 956.492188 C 852.027344 956.492188 851.078125 951.351562 844.394531 953.222656 C 842.648438 953.855469 840.746094 954.574219 838.695312 955.375 C 835.324219 956.929688 834.105469 958.222656 826.046875 963.347656 C 815.332031 970.167969 807.511719 975.039062 796.828125 976.058594 C 796.925781 976.265625 801.640625 979.253906 805.460938 987.847656 C 805.074219 990.023438 828.96875 993.480469 835.851562 986.867188 " fill-opacity="1" fill-rule="nonzero"/><path fill="#000000" d="M 871.636719 1001.074219 C 892.722656 1006.105469 880.972656 999.902344 876.539062 996.667969 C 871.921875 993.296875 869.183594 970.210938 879.972656 966.78125 C 884.976562 965.1875 883.222656 964.652344 879.902344 964.535156 C 874.066406 964.328125 868.292969 965.671875 863.066406 968.273438 C 853.246094 973.167969 837.007812 981.710938 839.773438 983.433594 C 843.695312 985.890625 849.757812 995.851562 871.636719 1001.074219 " fill-opacity="1" fill-rule="nonzero"/><path fill="#000000" d="M 846.636719 965.800781 C 842.226562 970.699219 835.359375 980.007812 840.261719 977.070312 C 845.164062 974.128906 865.261719 962.371094 866.242188 963.839844 C 866.242188 963.839844 857.417969 957.960938 855.460938 958.941406 C 853.496094 959.917969 851.050781 960.898438 846.636719 965.800781 " fill-opacity="1" fill-rule="nonzero"/><path fill="#000000" d="M 917.714844 1005.484375 C 932.195312 1006.515625 947.617188 992.253906 944.183594 984.910156 C 940.753906 977.558594 933.402344 972.65625 914.285156 968.738281 C 897.511719 965.300781 883.890625 968.25 883.890625 968.25 C 872.617188 975.109375 877.027344 994.707031 886.832031 999.605469 C 896.636719 1004.507812 903.988281 1004.507812 917.714844 1005.484375 " fill-opacity="1" fill-rule="nonzero"/><path fill="#000000" d="M 957.910156 1017.734375 C 970.394531 996.347656 950.066406 982.457031 950.066406 982.457031 C 950.066406 982.457031 947.128906 980.496094 947.617188 989.316406 C 948.109375 998.136719 931.929688 1006.957031 928.988281 1009.894531 C 926.050781 1012.832031 936.832031 1028.511719 936.832031 1028.511719 C 936.832031 1028.511719 951.050781 1029.492188 957.910156 1017.734375 " fill-opacity="1" fill-rule="nonzero"/><path fill="#000000" d="M 932.910156 1082.894531 C 952.519531 1073.585938 946.148438 1040.269531 945.164062 1035.859375 C 944.183594 1031.449219 940.753906 1032.429688 937.816406 1031.9375 C 934.875 1031.449219 925.558594 1019.203125 925.558594 1013.320312 C 925.558594 1013.320312 915.199219 1013.074219 905.460938 1029.980469 C 896.148438 1046.152344 887.320312 1060.847656 893.207031 1071.625 C 898.886719 1082.039062 907.417969 1086.324219 919.675781 1081.914062 C 923.898438 1080.394531 928.679688 1084.898438 932.910156 1082.894531 " fill-opacity="1" fill-rule="nonzero"/><g clip-path="url(#af1fc64646)"><path fill="#000000" d="M 865.753906 1126.988281 C 912.320312 1130.90625 925.558594 1104.449219 927.03125 1097.59375 C 928.496094 1090.734375 926.105469 1086.992188 922.128906 1084.855469 C 917.171875 1082.1875 921.839844 1087.144531 915.972656 1088.617188 C 911.035156 1089.855469 906.539062 1092.328125 901.882812 1094.398438 C 890.261719 1099.550781 883.976562 1098.6875 876.539062 1098.082031 C 886.019531 1096.800781 894.851562 1095.265625 902.253906 1087.355469 C 888.980469 1081.902344 887.816406 1063.785156 887.816406 1063.785156 C 857.417969 1066.238281 826.539062 1091.710938 826.539062 1091.710938 C 826.539062 1091.710938 819.183594 1123.066406 865.753906 1126.988281 " fill-opacity="1" fill-rule="nonzero"/></g><path fill="#000000" d="M 1131.867188 1024.859375 C 1113.941406 1004.96875 1061.207031 975.660156 1059.910156 977.953125 C 1059.546875 978.59375 1052.898438 983.96875 1059.621094 992.085938 C 1069.832031 1004.394531 1085.566406 1008.257812 1109.484375 1029.554688 C 1110.09375 1030.09375 1110.953125 1030.707031 1111.910156 1031.316406 C 1112.679688 1031.609375 1113.574219 1031.929688 1114.695312 1032.246094 C 1116.410156 1032.746094 1118.5625 1033.078125 1120.875 1033.167969 C 1122.644531 1033.238281 1124.503906 1033.171875 1126.378906 1032.84375 C 1128.703125 1032.503906 1130.957031 1031.808594 1133.023438 1030.996094 C 1133.265625 1030.902344 1133.480469 1030.796875 1133.71875 1030.703125 C 1135.371094 1029.234375 1134.917969 1028.242188 1131.867188 1024.859375 " fill-opacity="1" fill-rule="nonzero"/><path fill="#000000" d="M 1115.777344 1036.617188 C 1113.925781 1038.277344 1112.390625 1040.25 1111.535156 1042.5625 C 1101.140625 1070.789062 1091.679688 1089.085938 1091.933594 1089.035156 C 1109.308594 1085.265625 1123.71875 1049.660156 1133.328125 1034.390625 C 1133.539062 1034.054688 1133.714844 1033.207031 1133.777344 1032.339844 C 1131.742188 1033.5 1129.449219 1034.585938 1126.964844 1035.320312 C 1123.179688 1036.546875 1119.128906 1036.851562 1115.777344 1036.617188 " fill-opacity="1" fill-rule="nonzero"/><path fill="#000000" d="M 1046.714844 978.90625 C 1046.714844 978.90625 1048.699219 984.375 1053.804688 987.925781 C 1053.804688 987.925781 1053.519531 984.671875 1054.515625 981.832031 C 1054.515625 981.832031 1049.769531 980.804688 1046.714844 978.90625 " fill-opacity="1" fill-rule="nonzero"/><path fill="#000000" d="M 534.71875 626.050781 C 532.191406 625.113281 529.328125 626.179688 528.128906 628.59375 C 527.957031 628.933594 527.789062 629.304688 527.621094 629.710938 C 525.503906 634.859375 535.027344 639.082031 539.402344 635.523438 C 542.320312 633.070312 541.414062 628.539062 537.996094 627.273438 L 534.71875 626.050781 " fill-opacity="1" fill-rule="nonzero"/><path fill="#000000" d="M 638.019531 597.390625 C 635.808594 597.253906 638.53125 605.574219 632.699219 609.796875 C 626.863281 614.023438 622.664062 611.796875 622.664062 611.796875 C 622.664062 611.796875 623.890625 619.382812 618.074219 623.257812 C 613.097656 626.867188 605.503906 624.226562 605.503906 624.226562 C 605.503906 624.226562 605.9375 629.691406 600.089844 633.832031 C 590.640625 640.523438 587.664062 634.171875 587.664062 634.171875 C 587.664062 634.171875 580.257812 638.851562 576.488281 644.164062 C 571.671875 650.949219 562.539062 653.332031 555.324219 649.171875 C 554.882812 648.917969 554.441406 648.640625 553.996094 648.34375 C 546.992188 643.628906 547.738281 640.488281 544.558594 635.992188 C 543.632812 634.6875 541.660156 634.847656 540.863281 636.226562 C 540.144531 637.472656 538.742188 638.757812 536.042969 639.515625 C 529.605469 641.3125 521.941406 633.011719 525.984375 627.632812 C 529.945312 622.359375 533.199219 624.597656 533.199219 624.597656 C 533.199219 624.597656 536.484375 621.265625 529.363281 617.949219 C 526.78125 616.742188 525.214844 614.296875 522.875 611.738281 C 521.089844 609.789062 518.109375 609.449219 516 611.050781 C 514.683594 612.050781 513.402344 613.070312 512.117188 614.089844 C 512.203125 614.367188 512.335938 614.59375 512.398438 614.894531 C 512.75 617.089844 511.800781 618.75 510.945312 620.160156 C 507.152344 625.675781 501.742188 629.042969 501.742188 629.042969 C 501.742188 629.042969 502.949219 628.019531 504.457031 626.210938 C 505.953125 624.425781 507.894531 621.886719 509.089844 619.167969 C 509.34375 618.605469 509.523438 618.015625 509.640625 617.464844 C 509.945312 616.847656 510.027344 616.324219 509.832031 615.941406 C 508.261719 613.542969 507.875 610.910156 507.839844 608.621094 C 507.804688 606.472656 508.089844 604.632812 508.035156 603.679688 C 508.007812 603.230469 507.414062 603 507.089844 603.316406 C 498.25 611.933594 496.578125 623.625 496.257812 628.128906 C 480.410156 643.683594 468.0625 660.777344 459.808594 676.882812 C 460.703125 677.570312 461.550781 678.367188 462.257812 679.523438 C 463.324219 681.480469 462.980469 683.359375 462.636719 684.972656 C 460.898438 691.429688 456.914062 696.410156 456.914062 696.410156 C 456.914062 696.410156 457.710938 695.042969 458.53125 692.835938 C 459.351562 690.652344 460.335938 687.617188 460.5625 684.65625 C 460.613281 684.042969 460.585938 683.429688 460.511719 682.867188 C 460.597656 682.132812 460.507812 681.566406 460.136719 681.289062 C 459.484375 680.800781 458.9375 680.238281 458.4375 679.65625 C 457.238281 678.246094 456.4375 676.636719 455.875 675.121094 C 455.128906 673.105469 454.78125 671.277344 454.417969 670.402344 C 454.242188 669.980469 453.601562 669.960938 453.398438 670.367188 C 448 681.289062 450.179688 692.707031 451.390625 697.191406 C 449.792969 702.34375 447.945312 707.578125 447.425781 712.105469 C 452.945312 703.785156 464.730469 707.4375 469.492188 709.316406 C 475.152344 711.546875 478.140625 713.742188 481.605469 714.40625 C 485.058594 715.070312 484.210938 711.15625 483.5 708.988281 C 483.261719 708.269531 483.816406 707.546875 484.574219 707.542969 C 495.539062 707.414062 499.550781 717.976562 502.132812 728.847656 C 503.144531 733.121094 504.734375 736.621094 506.128906 739.164062 C 551.558594 727.851562 589.8125 679.085938 589.8125 679.085938 C 589.8125 679.085938 606.347656 666.011719 626.296875 646.671875 C 652.917969 620.878906 641.28125 597.59375 638.019531 597.390625 " fill-opacity="1" fill-rule="nonzero"/><path fill="#000000" d="M 588.289062 597.40625 C 592.707031 594.167969 599.179688 595.449219 599.179688 595.449219 C 599.179688 595.449219 600 590.953125 604.140625 587.6875 C 609.035156 583.824219 615.078125 586.09375 615.078125 586.09375 C 615.078125 586.09375 615.765625 582.121094 619.601562 579.320312 C 626.605469 574.210938 634.949219 578.148438 637.53125 579.183594 C 638.183594 579.445312 638.878906 578.777344 638.605469 578.128906 C 633.882812 566.972656 598.628906 543.859375 534.09375 601.605469 C 530.910156 604.453125 529.144531 606.386719 526.199219 609.390625 C 528.707031 612.023438 529.085938 613.816406 533.121094 615.277344 C 537.5625 616.890625 535.980469 621.007812 535.980469 621.007812 C 538.003906 622.371094 542.609375 621.09375 545.015625 630.082031 C 546.648438 636.148438 551.855469 642.730469 554.949219 644.761719 C 560.167969 648.191406 563.925781 647.773438 565.257812 647.375 C 564.671875 644.535156 564.75 641.617188 566.511719 639.476562 C 566.511719 639.476562 560.148438 634.660156 560.851562 629.929688 C 562.199219 620.816406 571.183594 620.644531 571.183594 620.644531 C 571.183594 620.644531 567.894531 615.195312 573.585938 610.292969 C 578.03125 606.460938 583.496094 607.921875 583.496094 607.921875 C 583.496094 607.921875 582.59375 601.578125 588.289062 597.40625 " fill-opacity="1" fill-rule="nonzero"/><path fill="#000000" d="M 503.46875 811.695312 C 502.378906 811.835938 501.527344 812.203125 500.789062 812.609375 C 500.203125 813.210938 499.589844 813.726562 498.863281 814.152344 C 497.242188 815.105469 495.253906 815.628906 493.371094 815.320312 C 492.28125 815.144531 491.835938 816.792969 492.640625 817.464844 C 500.347656 823.882812 514.949219 825.25 521.347656 825.605469 C 535.554688 832.808594 551.082031 837.828125 564.609375 840.808594 C 564.996094 840.488281 565.253906 840.160156 565.371094 839.824219 C 565.820312 838.578125 564.78125 836.421875 563.6875 834.132812 C 562.285156 831.214844 560.691406 827.902344 560.6875 824.046875 C 560.6875 823.054688 561.179688 822.101562 562.015625 821.511719 C 562.890625 820.890625 564.015625 820.726562 565.039062 821.085938 C 566.898438 821.734375 570.308594 822.511719 572.238281 820.457031 C 573.183594 819.453125 572.917969 818.300781 571.910156 815.277344 C 571.164062 813.035156 570.238281 810.238281 570.289062 806.886719 C 570.304688 805.847656 570.871094 804.914062 571.796875 804.390625 C 572.773438 803.835938 573.980469 803.835938 574.949219 804.398438 C 577.882812 806.089844 579.589844 805.210938 580.152344 804.917969 L 580.902344 804.644531 C 583.035156 804.257812 583.171875 800.890625 583.128906 796.53125 C 583.09375 793.4375 583.070312 791 584.375 789.535156 C 586.078125 787.632812 587.765625 787.203125 589.386719 788.25 C 590.679688 789.082031 592.738281 790.089844 595.726562 789.199219 C 596.285156 789.03125 596.757812 788.832031 597.164062 788.578125 C 596.621094 787.59375 596.046875 786.632812 595.382812 785.71875 C 594.867188 784.710938 594.304688 783.761719 593.714844 782.84375 C 591.683594 778.535156 585.144531 766.039062 573.757812 757.046875 C 572.933594 756.398438 571.410156 757.113281 571.785156 758.15625 C 572.835938 761.078125 573.097656 764.253906 572.199219 765.824219 C 572.25 766.332031 572.371094 766.890625 572.714844 767.503906 C 573.664062 769.425781 575.53125 770.917969 575.53125 770.917969 C 575.53125 770.917969 575.304688 770.839844 574.996094 770.714844 C 574.230469 770.414062 572.753906 769.730469 571.421875 768.496094 C 571.027344 768.179688 570.75 767.777344 570.46875 767.382812 C 570.308594 767.148438 570.148438 766.9375 570.023438 766.691406 C 569.878906 766.410156 569.761719 766.128906 569.664062 765.847656 C 567.40625 764.660156 564.976562 763.496094 562.378906 762.386719 C 560.953125 758.289062 557.691406 751.613281 550.207031 748.027344 C 549.640625 747.757812 549.027344 748.320312 549.277344 748.898438 C 550.265625 751.144531 550.625 754.058594 549.160156 755.929688 C 549.171875 756.523438 549.300781 757.175781 549.570312 757.890625 C 549.609375 757.996094 549.601562 758.089844 549.648438 758.195312 C 549.914062 758.902344 550.269531 759.574219 550.648438 760.191406 C 551.742188 761.96875 553.050781 763.242188 553.050781 763.242188 C 553.050781 763.242188 552.351562 762.855469 551.292969 762.277344 C 550.253906 761.652344 548.910156 760.6875 547.75 759.378906 C 547.644531 759.265625 547.582031 759.113281 547.484375 758.992188 C 547.113281 758.542969 546.78125 758.0625 546.492188 757.554688 C 546.371094 757.339844 546.257812 757.144531 546.15625 756.929688 C 543.796875 756.285156 541.421875 755.679688 539.074219 755.132812 C 537.238281 751.472656 532.875 744.527344 524.195312 742.019531 C 523.59375 741.847656 523.078125 742.507812 523.421875 743.035156 C 524.914062 745.316406 525.734375 748.511719 523.960938 750.632812 C 524.050781 751.125 524.253906 751.664062 524.609375 752.25 C 524.695312 752.390625 524.722656 752.527344 524.832031 752.671875 C 525.101562 753.074219 525.425781 753.425781 525.746094 753.769531 C 526.996094 755.097656 528.425781 755.976562 528.425781 755.976562 C 528.425781 755.976562 525.886719 755.5625 523.570312 753.949219 C 523.25 753.734375 522.988281 753.433594 522.699219 753.164062 C 522.347656 752.832031 522.03125 752.511719 521.746094 752.132812 C 521.664062 752.023438 521.609375 751.914062 521.539062 751.800781 C 517.824219 751.320312 515.105469 751.183594 514.046875 751.488281 C 513.59375 751.613281 511.046875 753.898438 513.066406 756.875 C 515.273438 760.136719 521.25 764.273438 516.988281 771.082031 C 512.085938 778.921875 500.421875 778.488281 498.359375 781.371094 C 491.007812 791.664062 495.910156 803.910156 495.671875 808.183594 C 496.117188 808.597656 496.613281 808.980469 497.070312 809.386719 C 497.363281 809.28125 497.675781 809.179688 498.023438 809.085938 C 499.152344 808.800781 500.539062 808.761719 501.929688 808.878906 C 502.195312 808.902344 502.457031 808.921875 502.726562 808.964844 C 503.015625 809.007812 503.3125 808.988281 503.597656 809.058594 C 505.492188 809.496094 507.15625 810.28125 508.292969 811.003906 C 509.433594 811.707031 510.125 812.242188 510.125 812.242188 C 510.125 812.242188 508.101562 811.601562 505.738281 811.542969 C 504.996094 811.527344 504.226562 811.5625 503.46875 811.695312 " fill-opacity="1" fill-rule="nonzero"/><path fill="#000000" d="M 504.089844 775.425781 C 511.460938 773.460938 515.472656 770.507812 515.027344 764.714844 C 514.535156 758.34375 508.164062 756.386719 508.164062 756.386719 C 508.164062 756.386719 501.789062 753.9375 498.847656 763.246094 C 497.691406 766.914062 497.457031 769.523438 497.707031 771.386719 C 498.109375 774.355469 501.195312 776.199219 504.089844 775.425781 " fill-opacity="1" fill-rule="nonzero"/><path fill="#000000" d="M 430.585938 741.578125 C 430.921875 753.730469 435.167969 769.15625 446.511719 782.683594 C 452.25 789.523438 459.769531 795.886719 469.601562 801.078125 C 475.964844 804.441406 482.925781 805.824219 489.585938 805.710938 C 490.433594 803.386719 489.792969 799.246094 490.117188 791.648438 C 490.613281 779.898438 494.636719 777.617188 494.636719 777.617188 C 494.636719 777.617188 491.804688 770.613281 496 759.746094 C 496.15625 759.347656 496.25 758.980469 496.421875 758.570312 C 499.234375 751.9375 503.402344 751.335938 506.449219 752.027344 C 505.507812 750.558594 504.484375 748.53125 503.550781 746.515625 C 503.507812 746.421875 503.460938 746.332031 503.414062 746.242188 C 501.601562 742.304688 500.25 738.175781 499.214844 733.972656 C 496.082031 721.226562 492.46875 714.160156 489.023438 713.140625 C 485.761719 712.179688 491.464844 717.855469 485.242188 721.316406 C 480.6875 723.855469 466.664062 715.476562 456.613281 713.730469 C 445.414062 711.789062 440.230469 721.519531 439.464844 724.777344 C 438.933594 727.046875 439.617188 732.109375 439.816406 736.382812 C 439.847656 737.125 439.871094 737.851562 439.863281 738.527344 C 439.828125 743.320312 434.679688 745.171875 430.585938 741.578125 " fill-opacity="1" fill-rule="nonzero"/><path fill="#000000" d="M 925.230469 629.390625 C 930.46875 631.949219 938.824219 625.648438 935.578125 621.09375 C 935.324219 620.734375 935.074219 620.410156 934.832031 620.117188 C 933.105469 618.027344 930.058594 617.640625 927.800781 619.132812 L 924.875 621.066406 C 921.816406 623.089844 921.964844 627.730469 925.230469 629.390625 " fill-opacity="1" fill-rule="nonzero"/><path fill="#000000" d="M 1012.683594 651.808594 C 1000.929688 637.933594 984.953125 624.019531 965.902344 612.40625 C 964.566406 608.074219 960.261719 597.015625 949.652344 590.59375 C 949.261719 590.359375 948.730469 590.71875 948.808594 591.167969 C 948.976562 592.109375 949.667969 593.847656 950.128906 595.957031 C 950.613281 598.203125 950.835938 600.871094 949.847656 603.480469 C 949.738281 603.988281 949.945312 604.480469 950.382812 605.019531 C 950.621094 605.535156 950.929688 606.070312 951.304688 606.5625 C 953.09375 608.949219 955.574219 610.992188 957.449219 612.394531 C 959.332031 613.824219 960.75 614.550781 960.75 614.550781 C 960.75 614.550781 954.683594 612.480469 949.71875 607.953125 C 948.554688 606.773438 947.253906 605.359375 947.097656 603.128906 C 947.09375 602.820312 947.167969 602.574219 947.1875 602.28125 C 945.699219 601.574219 944.210938 600.871094 942.695312 600.191406 C 940.269531 599.109375 937.429688 600.113281 936.125 602.433594 C 934.421875 605.464844 933.445312 608.214844 931.191406 609.980469 C 924.984375 614.851562 928.957031 617.359375 928.957031 617.359375 C 928.957031 617.359375 931.628906 614.429688 936.707031 618.6875 C 941.890625 623.03125 936.285156 632.898438 929.574219 632.605469 C 926.757812 632.480469 925.097656 631.539062 924.109375 630.484375 C 923.011719 629.316406 921.046875 629.609375 920.445312 631.09375 C 918.351562 636.222656 919.800781 639.121094 914.023438 645.328125 C 913.652344 645.722656 913.28125 646.09375 912.90625 646.445312 C 906.800781 652.15625 897.316406 651.902344 891.058594 646.359375 C 886.164062 642.027344 877.847656 639.132812 877.847656 639.132812 C 877.847656 639.132812 876.386719 646.023438 865.613281 641.625 C 858.949219 638.910156 858.125 633.460938 858.125 633.460938 C 858.125 633.460938 851.304688 637.769531 845.609375 635.371094 C 839.03125 632.910156 838.503906 625.207031 838.503906 625.207031 C 838.503906 625.207031 834.902344 628.339844 828.234375 625.535156 C 821.566406 622.726562 822.332031 613.96875 820.203125 614.605469 C 817.054688 615.550781 810.976562 640.976562 842.898438 660.152344 C 866.828125 674.53125 885.980469 683.558594 885.980469 683.558594 C 885.980469 683.558594 934.527344 722.566406 981.550781 723.289062 C 982.339844 720.484375 983.09375 716.699219 983.109375 712.289062 C 983.15625 701.066406 982.691406 689.472656 993.445312 687.101562 C 994.1875 686.9375 994.894531 687.515625 994.824219 688.273438 C 994.621094 690.558594 994.6875 694.582031 997.914062 693.148438 C 1001.152344 691.707031 1003.574219 688.875 1008.601562 685.40625 C 1012.839844 682.484375 1024.671875 676.410156 1031.972656 683.292969 C 1030.433594 678.976562 1028.28125 674.441406 1025.542969 669.761719 C 1025.707031 665.101562 1025.234375 653.429688 1017.464844 643.976562 C 1017.171875 643.625 1016.554688 643.789062 1016.480469 644.238281 C 1016.320312 645.179688 1016.398438 647.050781 1016.128906 649.191406 C 1015.925781 650.804688 1015.503906 652.558594 1014.652344 654.207031 C 1014.296875 654.894531 1013.890625 655.566406 1013.363281 656.195312 C 1013.0625 656.550781 1013.101562 657.125 1013.355469 657.824219 C 1013.410156 658.390625 1013.523438 658.996094 1013.714844 659.582031 C 1014.609375 662.429688 1016.265625 665.179688 1017.566406 667.125 C 1018.871094 669.101562 1019.960938 670.257812 1019.960938 670.257812 C 1019.960938 670.257812 1014.929688 666.292969 1011.753906 660.367188 C 1011.050781 658.867188 1010.289062 657.109375 1010.882812 654.949219 C 1011.316406 653.65625 1011.960938 652.683594 1012.683594 651.808594 " fill-opacity="1" fill-rule="nonzero"/><path fill="#000000" d="M 812.664062 605.425781 C 812.613281 606.128906 813.496094 606.535156 814.03125 606.074219 C 816.140625 604.25 822.785156 597.785156 831.105469 600.347656 C 835.667969 601.757812 837.617188 605.300781 837.617188 605.300781 C 837.617188 605.300781 842.617188 601.175781 848.53125 603.246094 C 853.53125 604.996094 855.777344 608.996094 855.777344 608.996094 C 855.777344 608.996094 861.507812 605.667969 866.761719 607.300781 C 873.539062 609.402344 874.757812 615.722656 874.757812 615.722656 C 874.757812 615.722656 879.472656 612.550781 884.945312 614.734375 C 891.953125 617.535156 890.613281 623.789062 890.613281 623.789062 C 890.613281 623.789062 899.203125 621.015625 903.464844 629.230469 C 905.679688 633.5 901.207031 640.148438 901.207031 640.148438 C 903.582031 641.605469 904.613281 644.355469 904.984375 647.238281 C 906.378906 647.183594 910.085938 646.355469 913.921875 641.390625 C 916.195312 638.449219 918.25 630.507812 918.550781 624.199219 C 918.929688 616.402344 923.972656 614.558594 925.445312 612.601562 C 925.445312 612.601562 923.65625 609.34375 927.347656 606.363281 C 930.699219 603.65625 930.988281 602.085938 932.507812 598.765625 C 928.726562 596.875 923.972656 594.460938 920.019531 592.796875 C 839.835938 559.019531 813.5 593.285156 812.664062 605.425781 " fill-opacity="1" fill-rule="nonzero"/><path fill="#000000" d="M 999.523438 789.828125 C 999.78125 789.695312 1000.078125 789.648438 1000.351562 789.535156 C 1000.601562 789.4375 1000.851562 789.359375 1001.105469 789.277344 C 1002.433594 788.847656 1003.792969 788.574219 1004.957031 788.59375 C 1005.316406 788.601562 1005.644531 788.628906 1005.957031 788.667969 C 1006.304688 788.167969 1006.707031 787.6875 1007.039062 787.179688 C 1005.839844 783.070312 1007.835938 770.027344 998.339844 761.675781 C 995.679688 759.332031 984.417969 762.398438 977.867188 755.875 C 972.171875 750.207031 977.046875 744.824219 978.460938 741.148438 C 979.753906 737.792969 976.757812 736.148438 976.285156 736.121094 C 975.183594 736.070312 972.566406 736.816406 969.058594 738.128906 C 969.011719 738.25 968.984375 738.371094 968.929688 738.496094 C 968.742188 738.929688 968.507812 739.3125 968.234375 739.71875 C 968.011719 740.046875 967.828125 740.398438 967.5625 740.679688 C 965.679688 742.777344 963.296875 743.753906 963.296875 743.753906 C 963.296875 743.753906 964.488281 742.578125 965.40625 740.996094 C 965.640625 740.589844 965.875 740.171875 966.046875 739.722656 C 966.121094 739.558594 966.117188 739.417969 966.167969 739.261719 C 966.382812 738.613281 966.460938 738.042969 966.433594 737.539062 C 964.226562 735.875 964.296875 732.578125 965.234375 730.011719 C 965.449219 729.421875 964.796875 728.898438 964.25 729.203125 C 956.371094 733.613281 953.695312 741.363281 952.730469 745.34375 C 950.570312 746.414062 948.394531 747.539062 946.242188 748.699219 C 946.191406 748.9375 946.125 749.148438 946.058594 749.382812 C 945.898438 749.945312 945.679688 750.492188 945.417969 751.015625 C 945.351562 751.152344 945.324219 751.316406 945.25 751.449219 C 944.414062 752.988281 943.324219 754.230469 942.453125 755.074219 C 941.558594 755.875 940.960938 756.410156 940.960938 756.410156 C 940.960938 756.410156 941.945312 754.875 942.605469 752.894531 C 942.839844 752.210938 943.03125 751.472656 943.132812 750.722656 C 943.152344 750.609375 943.125 750.523438 943.136719 750.414062 C 943.238281 749.652344 943.214844 748.988281 943.09375 748.410156 C 941.238281 746.917969 940.929688 744 941.378906 741.585938 C 941.496094 740.964844 940.769531 740.554688 940.277344 740.953125 C 933.804688 746.140625 932.140625 753.375 931.679688 757.691406 C 929.402344 759.359375 927.304688 761.046875 925.375 762.714844 C 925.339844 763.011719 925.292969 763.308594 925.214844 763.617188 C 925.148438 763.882812 925.039062 764.125 924.9375 764.390625 C 924.753906 764.839844 924.574219 765.296875 924.257812 765.691406 C 923.242188 767.195312 921.960938 768.195312 921.285156 768.664062 C 921.011719 768.859375 920.8125 768.984375 920.8125 768.984375 C 920.8125 768.984375 922.289062 767.105469 922.769531 765.039062 C 922.972656 764.347656 922.964844 763.773438 922.898438 763.265625 C 921.667969 761.941406 921.199219 758.785156 921.5625 755.707031 C 921.691406 754.605469 920.042969 754.25 919.390625 755.070312 C 910.339844 766.410156 906.804688 780.0625 905.804688 784.71875 C 905.757812 785.277344 905.761719 785.648438 905.804688 785.941406 C 905.84375 786.1875 905.898438 786.414062 905.960938 786.621094 C 906.375 788.105469 907.289062 788.761719 908.753906 789.199219 C 911.734375 790.089844 913.800781 789.082031 915.089844 788.25 C 916.722656 787.199219 918.40625 787.632812 920.101562 789.535156 C 921.40625 791 921.382812 793.4375 921.355469 796.53125 C 921.308594 800.894531 921.441406 804.257812 923.578125 804.644531 L 924.324219 804.917969 C 924.886719 805.210938 926.59375 806.089844 929.527344 804.398438 C 930.5 803.835938 931.703125 803.835938 932.679688 804.390625 C 933.605469 804.914062 934.171875 805.847656 934.1875 806.886719 C 934.238281 810.238281 933.316406 813.035156 932.566406 815.277344 C 931.5625 818.300781 931.296875 819.453125 932.242188 820.457031 C 934.167969 822.515625 937.578125 821.734375 939.445312 821.085938 C 940.449219 820.734375 941.582031 820.886719 942.460938 821.511719 C 943.292969 822.101562 943.792969 823.054688 943.789062 824.046875 C 943.785156 827.902344 942.195312 831.214844 940.789062 834.132812 C 940.066406 835.644531 939.410156 837.074219 939.148438 838.242188 C 953.402344 832.328125 971.054688 822.492188 985.988281 809.964844 C 992.136719 808.171875 1006.050781 803.53125 1012.101562 795.53125 C 1012.734375 794.695312 1011.925781 793.1875 1010.902344 793.609375 C 1009.140625 794.335938 1007.085938 794.273438 1005.304688 793.71875 C 1004.488281 793.464844 1003.773438 793.101562 1003.136719 792.671875 C 1002.253906 792.421875 1001.339844 792.257812 1000.242188 792.367188 C 999.476562 792.40625 998.71875 792.550781 998 792.734375 C 995.714844 793.328125 993.886719 794.40625 993.886719 794.40625 C 993.886719 794.40625 994.4375 793.726562 995.394531 792.785156 C 996.335938 791.824219 997.78125 790.679688 999.523438 789.828125 " fill-opacity="1" fill-rule="nonzero"/><path fill="#000000" d="M 983.121094 739.558594 C 983.121094 739.558594 977.363281 742.917969 978.328125 749.230469 C 979.210938 754.972656 983.789062 756.941406 991.40625 757.183594 C 994.40625 757.273438 996.992188 754.785156 996.710938 751.800781 C 996.53125 749.929688 995.710938 747.441406 993.753906 744.132812 C 988.773438 735.730469 983.121094 739.558594 983.121094 739.558594 " fill-opacity="1" fill-rule="nonzero"/><path fill="#000000" d="M 1023.652344 686.339844 C 1014.261719 690.3125 1002.503906 701.648438 997.492188 700.210938 C 990.648438 698.25 994.910156 691.429688 991.957031 693.105469 C 988.832031 694.875 986.914062 702.578125 986.757812 715.699219 C 986.703125 720.035156 986.320312 724.359375 985.445312 728.605469 C 985.425781 728.703125 985.398438 728.800781 985.378906 728.898438 C 984.925781 731.074219 984.386719 733.285156 983.804688 734.929688 C 986.617188 733.566406 990.808594 733.203125 995.054688 739.027344 C 995.320312 739.390625 995.492188 739.722656 995.734375 740.078125 C 1002.285156 749.710938 1001.117188 757.175781 1001.117188 757.175781 C 1001.117188 757.175781 1005.550781 758.484375 1008.699219 769.8125 C 1010.738281 777.140625 1011.058594 781.316406 1012.410156 783.390625 C 1018.917969 781.992188 1025.386719 779.066406 1030.824219 774.351562 C 1039.21875 767.066406 1045.101562 759.164062 1049.136719 751.199219 C 1057.117188 735.457031 1057.753906 719.46875 1055.484375 707.5 C 1052.152344 711.984375 1046.714844 711.347656 1045.589844 706.683594 C 1045.433594 706.03125 1045.289062 705.320312 1045.152344 704.589844 C 1044.375 700.382812 1043.894531 695.296875 1042.859375 693.207031 C 1041.375 690.207031 1034.121094 681.90625 1023.652344 686.339844 " fill-opacity="1" fill-rule="nonzero"/><path fill="#000000" d="M 682.464844 739.398438 C 683.371094 740.359375 685.273438 741.566406 687.539062 742.675781 C 689.207031 742.605469 691.027344 742.394531 692.984375 741.921875 C 694.671875 741.164062 696.332031 740.171875 697.4375 738.875 C 698.347656 737.800781 698.882812 736.570312 699.191406 735.367188 C 693.699219 732.71875 688.753906 728.324219 688.753906 728.324219 C 687.0625 727.585938 685.484375 728.574219 685.160156 730.460938 C 684.914062 731.902344 683.5625 734.226562 681.636719 734.839844 C 679.773438 735.433594 680.867188 737.714844 682.464844 739.398438 " fill-opacity="1" fill-rule="nonzero"/><path fill="#000000" d="M 677.097656 724.21875 C 675.746094 724.15625 674.703125 723.015625 674.761719 721.667969 C 674.824219 720.320312 675.964844 719.273438 677.3125 719.335938 C 678.660156 719.394531 679.703125 720.535156 679.644531 721.886719 C 679.585938 723.234375 678.445312 724.277344 677.097656 724.21875 Z M 681.476562 721.019531 C 680.523438 718.53125 677.703125 717.285156 675.214844 718.242188 C 672.730469 719.199219 671.480469 722.015625 672.4375 724.503906 L 674.605469 730.117188 C 675.5625 732.601562 678.378906 733.855469 680.863281 732.894531 C 683.351562 731.9375 684.605469 729.121094 683.644531 726.636719 L 681.476562 721.019531 " fill-opacity="1" fill-rule="nonzero"/><path fill="#000000" d="M 805.734375 738.875 C 806.839844 740.171875 808.5 741.164062 810.1875 741.921875 C 812.144531 742.394531 813.960938 742.605469 815.625 742.675781 C 817.894531 741.566406 819.792969 740.359375 820.703125 739.398438 C 822.304688 737.714844 823.398438 735.433594 821.53125 734.839844 C 819.605469 734.226562 818.257812 731.902344 818.011719 730.460938 C 817.6875 728.574219 816.105469 727.585938 814.417969 728.324219 C 814.417969 728.324219 809.472656 732.71875 803.980469 735.367188 C 804.285156 736.570312 804.820312 737.800781 805.734375 738.875 " fill-opacity="1" fill-rule="nonzero"/><path fill="#000000" d="M 826.074219 724.21875 C 824.726562 724.277344 823.585938 723.234375 823.523438 721.886719 C 823.464844 720.535156 824.507812 719.394531 825.855469 719.335938 C 827.207031 719.273438 828.347656 720.320312 828.410156 721.667969 C 828.464844 723.015625 827.421875 724.15625 826.074219 724.21875 Z M 827.953125 718.242188 C 825.46875 717.285156 822.648438 718.53125 821.6875 721.019531 L 819.523438 726.636719 C 818.566406 729.121094 819.816406 731.9375 822.304688 732.894531 C 824.789062 733.855469 827.609375 732.601562 828.566406 730.117188 L 830.730469 724.503906 C 831.691406 722.015625 830.4375 719.199219 827.953125 718.242188 " fill-opacity="1" fill-rule="nonzero"/><path fill="#000000" d="M 681.550781 831.476562 C 683.007812 832.679688 684.402344 833.992188 685.964844 835.15625 C 687.507812 836.34375 689.066406 837.539062 690.636719 838.75 C 693.914062 841.046875 697.242188 843.378906 700.574219 845.714844 C 707.386719 850.523438 713.648438 856.664062 717.542969 864.039062 C 721.40625 871.421875 721.320312 880.222656 717.492188 887.484375 C 712.898438 896.207031 702.40625 904.785156 700.332031 905.339844 C 702.207031 902.769531 710.234375 894.859375 713.476562 884.882812 C 714.890625 879.679688 714.765625 873.152344 711.914062 866.761719 C 709.113281 860.367188 703.914062 854.316406 697.785156 849.335938 C 694.613281 846.761719 691.445312 844.191406 688.324219 841.660156 C 686.808594 840.316406 685.304688 838.980469 683.820312 837.660156 C 682.316406 836.367188 680.972656 834.917969 679.574219 833.589844 C 674.109375 828.144531 669.496094 822.550781 666.214844 817.3125 C 662.910156 812.089844 661.007812 807.246094 660.214844 803.753906 C 659.414062 800.234375 659.714844 798.171875 659.714844 798.171875 C 659.714844 798.171875 659.566406 800.253906 660.597656 803.652344 C 661.617188 807.039062 663.816406 811.644531 667.402344 816.511719 C 670.957031 821.402344 675.84375 826.535156 681.550781 831.476562 Z M 789.613281 864.148438 C 793.566406 856.664062 799.824219 850.523438 806.640625 845.714844 C 809.972656 843.378906 813.300781 841.046875 816.574219 838.75 C 818.148438 837.539062 819.710938 836.34375 821.25 835.15625 C 822.808594 833.992188 824.207031 832.679688 825.664062 831.476562 C 831.371094 826.535156 836.253906 821.402344 839.8125 816.511719 C 843.394531 811.644531 845.601562 807.039062 846.617188 803.652344 C 847.648438 800.253906 847.5 798.171875 847.5 798.171875 C 847.5 798.171875 847.800781 800.234375 847 803.753906 C 846.210938 807.246094 844.300781 812.089844 840.996094 817.3125 C 837.71875 822.550781 833.105469 828.144531 827.636719 833.589844 C 826.242188 834.917969 824.898438 836.367188 823.398438 837.660156 C 821.910156 838.980469 820.40625 840.316406 818.886719 841.660156 C 815.769531 844.191406 812.601562 846.761719 809.433594 849.335938 C 803.300781 854.316406 798.097656 860.367188 795.300781 866.761719 C 792.449219 873.152344 792.320312 879.679688 793.742188 884.882812 C 796.980469 894.859375 805.007812 902.769531 806.878906 905.339844 C 804.808594 904.785156 794.316406 896.207031 789.71875 887.484375 C 785.894531 880.222656 785.804688 871.421875 789.613281 864.148438 Z M 664.488281 742.105469 C 662.207031 743.785156 661.765625 746.402344 661.257812 749.417969 C 660.640625 753.039062 659.878906 757.539062 654.125 758.972656 C 648.160156 760.464844 644.007812 756.742188 642.117188 752.878906 C 640.230469 755.453125 640.253906 757.472656 640.273438 759.785156 C 640.28125 760.324219 640.285156 760.855469 640.269531 761.398438 C 640.179688 764.519531 638.328125 767.398438 635.4375 768.910156 C 629.210938 772.179688 624.5625 767.816406 622.1875 765.203125 C 621.09375 767.621094 620.605469 770.234375 620.871094 772.347656 C 621.339844 776.097656 618.960938 780.050781 615.449219 781.34375 C 611.019531 782.980469 606.757812 781.449219 603.570312 777.140625 C 602.46875 779.078125 602.566406 781.078125 602.664062 783.015625 L 602.707031 783.953125 C 602.789062 786.613281 602.414062 790.167969 598.800781 792.140625 C 598.226562 792.449219 597.59375 792.730469 596.851562 792.953125 C 593.589844 793.933594 590.578125 793.546875 587.644531 791.785156 C 587.558594 791.867188 587.449219 791.984375 587.300781 792.144531 C 587.007812 792.648438 587.03125 794.960938 587.046875 796.488281 C 587.089844 800.878906 587.164062 807.503906 581.59375 808.5 C 579.054688 809.886719 576.363281 809.367188 574.269531 808.441406 C 574.464844 810.519531 575.078125 812.367188 575.632812 814.046875 C 576.664062 817.136719 577.722656 820.335938 575.097656 823.140625 C 572.707031 825.6875 569.023438 826.351562 564.664062 825.082031 C 564.929688 827.65625 566.089844 830.082031 567.222656 832.441406 C 568.6875 835.484375 570.066406 838.363281 569.0625 841.148438 C 568.996094 841.339844 568.882812 841.503906 568.796875 841.679688 C 568.085938 843.148438 566.777344 844.339844 564.730469 845.285156 C 562.320312 846.390625 560.007812 846.566406 558.175781 846.410156 C 559.148438 848.039062 560.570312 850.101562 562.40625 852.675781 C 563.578125 854.320312 564.890625 856.128906 566.472656 858.304688 C 566.542969 858.402344 566.558594 858.523438 566.625 858.621094 C 567.804688 860.414062 568.039062 862.519531 567.496094 864.445312 C 567.164062 865.640625 566.617188 866.777344 565.648438 867.664062 C 564.691406 868.542969 563.621094 869.082031 562.46875 869.265625 C 560.976562 869.507812 559.582031 869.667969 558.296875 869.746094 C 560.953125 872.367188 563.761719 875.238281 566.648438 878.210938 C 567.40625 878.988281 568.195312 879.808594 568.960938 880.605469 C 570.496094 882.199219 571.929688 883.675781 573.433594 885.246094 C 578.199219 890.203125 583.203125 895.398438 588.335938 900.566406 C 595.9375 908.214844 603.835938 915.792969 611.742188 922.457031 C 615.5625 925.679688 619.382812 928.671875 623.175781 931.363281 C 632.933594 938.285156 642.480469 943.144531 651.230469 944.21875 C 651.605469 944.265625 652.242188 944.414062 653.003906 944.613281 C 660.292969 946.53125 683.949219 955.234375 699.964844 965.90625 C 706.042969 969.964844 712.875 972.09375 719.96875 971.902344 C 732.875 971.652344 738.691406 971.59375 751.601562 971.59375 C 764.511719 971.59375 771.605469 971.652344 784.507812 971.902344 C 791.398438 972.039062 798.421875 969.964844 804.507812 965.90625 C 819.722656 955.769531 842.105469 947.320312 850.4375 944.902344 C 851.722656 944.53125 852.699219 944.289062 853.238281 944.21875 C 861.917969 943.105469 871.375 938.300781 881.046875 931.472656 C 884.867188 928.773438 888.71875 925.773438 892.574219 922.53125 C 900.480469 915.886719 908.371094 908.328125 915.964844 900.695312 C 921.144531 895.492188 926.1875 890.261719 930.992188 885.273438 C 932.582031 883.617188 934.101562 882.054688 935.640625 880.460938 C 935.734375 880.371094 935.824219 880.273438 935.914062 880.179688 C 936.273438 879.808594 936.640625 879.429688 936.996094 879.0625 C 940.171875 875.785156 943.269531 872.613281 946.183594 869.746094 C 944.894531 869.667969 943.5 869.507812 942.007812 869.265625 C 940.859375 869.082031 939.792969 868.542969 938.832031 867.667969 C 937.566406 866.507812 936.863281 864.960938 936.679688 863.351562 C 936.527344 861.984375 936.855469 860.609375 937.511719 859.320312 C 937.6875 858.980469 937.773438 858.617188 938.003906 858.304688 C 939.648438 856.046875 940.980469 854.207031 942.160156 852.550781 C 943.980469 850 945.359375 847.996094 946.304688 846.410156 C 944.476562 846.582031 942.160156 846.394531 939.75 845.285156 C 937.449219 844.21875 936.035156 842.871094 935.417969 841.148438 C 935.257812 840.703125 935.246094 840.25 935.199219 839.800781 C 934.945312 837.433594 936.027344 835 937.253906 832.441406 C 938.386719 830.082031 939.550781 827.65625 939.8125 825.082031 C 935.445312 826.359375 931.769531 825.683594 929.378906 823.140625 C 926.753906 820.335938 927.816406 817.136719 928.84375 814.046875 C 929.398438 812.367188 930.019531 810.515625 930.210938 808.441406 C 928.101562 809.371094 925.355469 809.867188 922.527344 808.398438 C 917.316406 807.503906 917.386719 800.878906 917.433594 796.492188 C 917.445312 794.960938 917.46875 792.648438 917.140625 792.101562 C 917.015625 791.964844 916.914062 791.859375 916.835938 791.785156 C 913.902344 793.546875 910.886719 793.933594 907.625 792.953125 C 905.914062 792.441406 904.730469 791.648438 903.859375 790.730469 C 901.960938 788.726562 901.703125 786.066406 901.769531 783.953125 L 901.8125 783.015625 C 901.910156 781.078125 902.007812 779.078125 900.90625 777.144531 C 897.71875 781.449219 893.464844 782.980469 889.027344 781.34375 C 885.515625 780.050781 883.136719 776.097656 883.609375 772.347656 C 883.871094 770.234375 883.382812 767.625 882.289062 765.203125 C 879.828125 767.902344 875.203125 772.140625 869.039062 768.914062 C 866.148438 767.398438 864.300781 764.523438 864.210938 761.398438 C 864.195312 760.859375 864.199219 760.324219 864.203125 759.792969 C 864.226562 757.472656 864.246094 755.453125 862.363281 752.875 C 860.46875 756.742188 856.292969 760.464844 850.351562 758.972656 C 844.597656 757.539062 843.835938 753.039062 843.222656 749.417969 C 842.730469 746.523438 842.304688 743.988281 839.90625 742.304688 C 839.113281 744.046875 837.621094 746.257812 834.820312 748.121094 C 832.101562 749.324219 826.667969 749.875 823.40625 744.507812 C 820.355469 745.082031 814.476562 745.796875 807.324219 744.054688 C 804.46875 742.863281 802.613281 741.667969 801.351562 740.292969 C 798.328125 737.007812 798.410156 732.773438 798.699219 730.621094 C 797.664062 730.546875 794.648438 731.089844 787.777344 735.210938 C 785.4375 736.605469 782.40625 736.171875 780.582031 734.171875 C 779.027344 732.457031 778.257812 731.308594 777.753906 730.546875 C 776.722656 730.96875 775.25 732.347656 774.378906 733.164062 C 773.523438 733.96875 772.738281 734.691406 772.199219 735.105469 C 769.753906 736.984375 766.292969 736.589844 764.324219 734.199219 L 762.90625 732.445312 C 761.503906 730.703125 760.398438 729.320312 759.8125 729.269531 C 759.8125 729.449219 758.828125 730.867188 758.242188 731.71875 C 757.351562 732.992188 756.511719 734.195312 755.574219 734.882812 C 753.582031 736.332031 750.902344 736.332031 748.90625 734.882812 C 747.945312 734.183594 747.027344 732.964844 746.054688 731.683594 C 745.417969 730.835938 744.351562 729.425781 743.898438 729.179688 C 743.929688 729.410156 742.867188 730.761719 741.9375 731.960938 C 741.414062 732.628906 740.824219 733.382812 740.152344 734.195312 C 738.183594 736.585938 734.726562 736.988281 732.277344 735.105469 C 731.738281 734.691406 730.976562 734 730.140625 733.234375 C 729.285156 732.449219 727.664062 730.972656 726.726562 730.335938 C 726.191406 731.214844 725.449219 732.453125 723.882812 734.15625 C 722.058594 736.152344 719.046875 736.578125 716.710938 735.183594 C 709.816406 731.066406 706.71875 730.589844 705.773438 730.613281 C 706.070312 732.765625 706.152344 737.003906 703.128906 740.292969 C 701.859375 741.667969 700.007812 742.863281 697.460938 743.953125 C 689.992188 745.789062 684.117188 745.078125 681.257812 744.496094 C 677.8125 749.871094 672.378906 749.324219 669.96875 748.289062 C 666.78125 746.203125 665.257812 743.878906 664.488281 742.105469 " fill-opacity="1" fill-rule="nonzero"/><path fill="#000000" d="M 752.078125 990.324219 C 769.328125 990.308594 787.003906 991.769531 799.949219 990.03125 C 799.949219 990.03125 796.652344 979.132812 789.511719 977.679688 C 789.097656 977.59375 788.71875 977.417969 788.273438 977.40625 C 780.230469 977.113281 757.179688 977.382812 750.175781 977.675781 C 743.171875 977.382812 723.640625 977.113281 715.597656 977.40625 C 715.222656 977.417969 714.90625 977.574219 714.554688 977.640625 C 707.273438 978.9375 703.925781 990.03125 703.925781 990.03125 C 717.179688 991.8125 734.417969 990.347656 752.078125 990.324219 " fill-opacity="1" fill-rule="nonzero"/><path fill="#000000" d="M 745.085938 317.617188 C 759.652344 263.507812 710.167969 216.289062 652.925781 236.097656 C 708.585938 175.886719 783.644531 176.441406 826 208.84375 C 829.722656 210.984375 834.234375 210.347656 837.164062 207.417969 C 841.042969 203.535156 840.410156 196.960938 837.164062 194.425781 C 830.515625 189.117188 817.6875 176.046875 789.582031 167.171875 C 746.828125 153.785156 675.492188 165.507812 629.886719 212.410156 C 583.808594 259.707031 584.996094 321.023438 612.546875 351.367188 C 649.757812 392.246094 728.539062 379.171875 745.085938 317.617188 Z M 711.671875 320.707031 C 696.867188 342.890625 668.683594 354.851562 644.851562 338.769531 C 618.40625 320.863281 626.324219 287.671875 637.488281 276.5 C 644.613281 270.082031 658.46875 263.746094 673.351562 262.082031 C 709.773438 257.804688 727.351562 297.335938 711.671875 320.707031 Z M 711.671875 320.707031 " fill-opacity="1" fill-rule="nonzero"/><path fill="#000000" d="M 907.3125 324.351562 C 870.101562 283.472656 791.324219 296.464844 774.773438 358.101562 C 760.207031 412.210938 809.691406 459.425781 866.933594 439.621094 C 811.273438 499.828125 736.21875 499.273438 693.859375 466.871094 C 690.136719 464.734375 685.625 465.367188 682.695312 468.296875 C 678.816406 472.179688 679.449219 478.757812 682.695312 481.292969 C 689.347656 486.597656 702.171875 499.671875 730.28125 508.542969 C 773.035156 521.933594 844.371094 510.207031 889.972656 463.308594 C 936.054688 416.011719 934.785156 354.691406 907.3125 324.351562 Z M 882.214844 399.296875 C 875.089844 405.710938 861.234375 412.050781 846.347656 413.714844 C 810.007812 417.914062 792.429688 378.460938 808.027344 355.089844 C 822.832031 332.90625 851.019531 320.945312 874.851562 337.027344 C 901.296875 354.929688 893.378906 388.125 882.214844 399.296875 Z M 882.214844 399.296875 " fill-opacity="1" fill-rule="nonzero"/><path fill="#000000" d="M 645.089844 460.058594 C 650.074219 459.585938 647.148438 460.613281 642.160156 456.257812 C 632.816406 448.175781 633.054688 433.441406 636.21875 427.894531 C 637.566406 425.597656 641.128906 422.984375 639.863281 424.011719 C 649.046875 416.488281 657.121094 420.84375 646.988281 417.042969 C 638.199219 414.191406 631.867188 415.773438 626.402344 418.152344 C 603.917969 427.972656 612.785156 462.992188 645.089844 460.058594 Z M 645.089844 460.058594 " fill-opacity="1" fill-rule="nonzero"/><path fill="#000000" d="M 596 382.738281 C 594.972656 384.878906 596.871094 387.96875 598.929688 388.679688 C 601.144531 389.394531 603.757812 387.648438 604.628906 386.460938 C 607.480469 382.023438 599.324219 375.847656 596 382.738281 Z M 596 382.738281 " fill-opacity="1" fill-rule="nonzero"/><path fill="#000000" d="M 704.390625 530.171875 C 703.359375 532.3125 705.261719 535.402344 707.320312 536.113281 C 709.535156 536.828125 712.148438 535.082031 713.019531 533.894531 C 715.789062 529.539062 707.636719 523.359375 704.390625 530.171875 Z M 704.390625 530.171875 " fill-opacity="1" fill-rule="nonzero"/><path fill="#000000" d="M 710.960938 427.023438 C 709.929688 429.164062 711.832031 432.253906 713.890625 432.964844 C 716.105469 433.679688 718.71875 431.9375 719.589844 430.746094 C 722.363281 426.390625 714.207031 420.132812 710.960938 427.023438 Z M 710.960938 427.023438 " fill-opacity="1" fill-rule="nonzero"/><path fill="#000000" d="M 861.867188 274.125 C 860.835938 276.261719 862.738281 279.351562 864.796875 280.066406 C 867.011719 280.777344 869.625 279.035156 870.496094 277.847656 C 873.347656 273.410156 865.113281 267.230469 861.867188 274.125 Z M 861.867188 274.125 " fill-opacity="1" fill-rule="nonzero"/><path fill="#000000" d="M 775.644531 225.324219 C 774.617188 227.460938 776.515625 230.550781 778.574219 231.265625 C 780.792969 231.976562 783.40625 230.234375 784.277344 229.046875 C 787.046875 224.6875 778.890625 218.429688 775.644531 225.324219 Z M 775.644531 225.324219 " fill-opacity="1" fill-rule="nonzero"/><path fill="#000000" d="M 933.042969 195.691406 C 935.261719 196.40625 937.875 194.664062 938.746094 193.476562 C 941.59375 189.195312 933.359375 182.9375 930.113281 189.832031 C 929.085938 191.890625 930.984375 194.980469 933.042969 195.691406 Z M 933.042969 195.691406 " fill-opacity="1" fill-rule="nonzero"/><path fill="#000000" d="M 935.816406 312.308594 C 934.785156 314.449219 936.6875 317.539062 938.746094 318.25 C 940.960938 318.964844 943.574219 317.222656 944.445312 316.03125 C 947.214844 311.597656 939.0625 305.417969 935.816406 312.308594 Z M 935.816406 312.308594 " fill-opacity="1" fill-rule="nonzero"/><path fill="#000000" d="M 551.425781 455.78125 C 550.394531 457.921875 552.296875 461.011719 554.355469 461.722656 C 556.570312 462.4375 559.183594 460.695312 560.054688 459.503906 C 562.824219 455.148438 554.671875 448.96875 551.425781 455.78125 Z M 551.425781 455.78125 " fill-opacity="1" fill-rule="nonzero"/><path fill="#000000" d="M 577.789062 406.347656 C 577.15625 403.414062 576.761719 402.625 576.046875 399.375 C 575.175781 395.652344 574.941406 393.039062 573.59375 392.324219 C 570.425781 390.582031 570.03125 394.304688 566.074219 406.980469 C 554.511719 410.308594 551.582031 411.101562 551.027344 412.84375 C 550 416.089844 556.730469 417.121094 566.152344 418.308594 L 569.398438 431.222656 C 570.269531 433.996094 573.199219 434.945312 574.78125 429.242188 C 574.78125 429.164062 577.472656 419.734375 577.632812 419.65625 C 582.304688 418.308594 590.855469 415.140625 591.882812 414.507812 C 599.167969 409.753906 577.949219 407.296875 577.789062 406.347656 Z M 577.789062 406.347656 " fill-opacity="1" fill-rule="nonzero"/><path fill="#000000" d="M 818.71875 260.023438 C 818.082031 257.089844 817.6875 256.296875 816.976562 253.050781 C 816.105469 249.328125 815.867188 246.710938 814.519531 246 C 811.355469 244.257812 810.957031 247.980469 807 260.65625 C 795.441406 263.984375 792.511719 264.773438 791.957031 266.519531 C 790.925781 269.765625 797.65625 270.796875 807.078125 271.984375 L 810.324219 284.898438 C 811.195312 287.671875 814.125 288.621094 815.707031 282.917969 C 815.707031 282.839844 818.398438 273.410156 818.558594 273.332031 C 823.230469 271.984375 831.78125 268.816406 832.808594 268.183594 C 840.171875 263.347656 818.875 260.894531 818.71875 260.023438 Z M 818.71875 260.023438 " fill-opacity="1" fill-rule="nonzero"/><path fill="#000000" d="M 879.363281 172.640625 L 882.609375 185.550781 C 883.480469 188.324219 886.410156 189.277344 887.992188 183.570312 C 887.992188 183.492188 890.6875 174.066406 890.84375 173.984375 C 895.515625 172.640625 904.066406 169.46875 905.097656 168.835938 C 912.300781 164.003906 891.082031 161.546875 890.921875 160.675781 C 890.289062 157.746094 889.894531 156.875 889.183594 153.703125 C 888.3125 149.980469 888.074219 147.367188 886.726562 146.652344 C 883.558594 144.910156 883.164062 148.632812 879.207031 161.308594 C 867.644531 164.636719 864.71875 165.429688 864.164062 167.171875 C 863.132812 170.421875 869.863281 171.449219 879.363281 172.640625 Z M 879.363281 172.640625 " fill-opacity="1" fill-rule="nonzero"/><path fill="#000000" d="M 652.769531 515.199219 C 652.132812 512.265625 651.738281 511.476562 651.027344 508.226562 C 650.15625 504.503906 649.917969 501.890625 648.570312 501.175781 C 645.40625 499.433594 645.007812 503.15625 641.050781 515.832031 C 629.492188 519.160156 626.5625 519.953125 626.007812 521.695312 C 624.976562 524.941406 631.707031 525.972656 641.128906 527.160156 L 644.375 540.074219 C 645.246094 542.847656 648.175781 543.796875 649.757812 538.09375 C 649.757812 538.015625 652.453125 528.585938 652.609375 528.507812 C 657.28125 527.160156 665.832031 523.992188 666.859375 523.359375 C 674.222656 518.527344 652.925781 516.070312 652.769531 515.199219 Z M 652.769531 515.199219 " fill-opacity="1" fill-rule="nonzero"/><path fill="#000000" d="M 918.160156 240.375 C 917.289062 236.097656 916.65625 234.828125 915.625 230.15625 C 914.359375 224.609375 913.964844 220.808594 911.984375 219.777344 C 907.390625 217.164062 906.679688 222.707031 900.980469 241.40625 C 883.957031 246.316406 879.679688 247.503906 878.808594 250.039062 C 877.226562 254.792969 887.203125 256.378906 901.058594 258.042969 L 905.886719 277.054688 C 907.234375 281.09375 911.507812 282.519531 913.882812 274.125 C 913.882812 273.964844 917.84375 260.101562 918.160156 260.023438 C 925.046875 258.121094 937.714844 253.367188 939.140625 252.417969 C 949.75 245.367188 918.398438 241.722656 918.160156 240.375 Z M 918.160156 240.375 " fill-opacity="1" fill-rule="nonzero"/></svg>