<svg xmlns="http://www.w3.org/2000/svg" xmlns:xlink="http://www.w3.org/1999/xlink" width="2000" zoomAndPan="magnify" viewBox="0 0 1500 1499.999933" height="2000" preserveAspectRatio="xMidYMid meet" version="1.0"><defs><clipPath id="9e677864a7"><path d="M 428 264.015625 L 1186.71875 264.015625 L 1186.71875 1236.371094 L 428 1236.371094 Z M 428 264.015625 " clip-rule="nonzero"/></clipPath></defs><path fill="#000000" d="M 732.675781 987.660156 C 729.316406 980.175781 714.054688 981.414062 707.101562 981.117188 C 694.902344 980.644531 682.703125 980.644531 670.566406 981.117188 C 634.089844 982.414062 630.023438 984.949219 627.546875 991.078125 C 626.132812 994.613281 628.550781 999.679688 634.03125 1000.742188 C 641.042969 1002.15625 682.882812 1002.035156 694.726562 1001.625 C 694.195312 1001.625 695.078125 1000.5625 643.871094 1047.410156 C 633.207031 1057.191406 576.28125 1115.824219 575.160156 1116.945312 C 558.425781 1098.148438 542.574219 1085.714844 531.910156 1079.113281 C 527.785156 1076.578125 522.363281 1076.640625 519.296875 1080.765625 C 510.871094 1092.429688 533.734375 1106.457031 558.425781 1134.917969 C 560.136719 1136.921875 514.585938 1174.753906 503.917969 1193.964844 C 501.324219 1198.617188 501.445312 1205.691406 507.808594 1207.046875 C 513.699219 1208.28125 515.292969 1207.988281 573.867188 1151.183594 C 581.878906 1159.078125 611.285156 1189.660156 621.890625 1191.84375 C 628.078125 1193.140625 633.558594 1186.480469 630.90625 1180.527344 C 628.019531 1173.988281 599.910156 1144.109375 590.835938 1134.269531 C 665.203125 1060.140625 700.089844 1031.027344 713.820312 1014.648438 C 714.40625 1035.152344 717.234375 1063.675781 719.179688 1075.519531 C 719.828125 1079.46875 719.886719 1083.296875 723.601562 1085.832031 C 726.839844 1088.011719 732.5 1086.363281 733.792969 1081.175781 C 736.742188 1069.390625 734.679688 992.136719 732.675781 987.660156 Z M 732.675781 987.660156 " fill-opacity="1" fill-rule="nonzero"/><path fill="#000000" d="M 576.046875 1023.78125 C 577.046875 1022.011719 579.816406 1020.007812 578.816406 1020.777344 C 585.828125 1015.058594 592.074219 1018.359375 584.238281 1015.414062 C 577.519531 1013.234375 572.628906 1014.410156 568.445312 1016.238281 C 551.238281 1023.78125 558.015625 1050.59375 582.765625 1048.355469 C 586.59375 1048 584.355469 1048.765625 580.464844 1045.464844 C 573.453125 1039.277344 573.628906 1027.964844 576.046875 1023.78125 Z M 576.046875 1023.78125 " fill-opacity="1" fill-rule="nonzero"/><path fill="#000000" d="M 558.839844 1063.96875 C 558.074219 1065.621094 559.488281 1067.976562 561.078125 1068.507812 C 562.789062 1069.039062 564.789062 1067.742188 565.4375 1066.796875 C 567.621094 1063.5 561.3125 1058.726562 558.839844 1063.96875 Z M 558.839844 1063.96875 " fill-opacity="1" fill-rule="nonzero"/><path fill="#000000" d="M 540.75 1001.976562 C 539.980469 1003.628906 541.398438 1005.984375 542.988281 1006.515625 C 544.695312 1007.046875 546.699219 1005.75 547.347656 1004.804688 C 549.527344 1001.507812 543.28125 996.734375 540.75 1001.976562 Z M 540.75 1001.976562 " fill-opacity="1" fill-rule="nonzero"/><path fill="#000000" d="M 592.429688 949.121094 C 591.660156 950.769531 593.074219 953.125 594.667969 953.65625 C 596.375 954.1875 598.378906 952.890625 599.027344 951.949219 C 601.207031 948.648438 594.960938 943.875 592.429688 949.121094 Z M 592.429688 949.121094 " fill-opacity="1" fill-rule="nonzero"/><path fill="#000000" d="M 490.484375 1103.980469 C 489.71875 1105.632812 491.132812 1107.988281 492.722656 1108.519531 C 494.429688 1109.050781 496.433594 1107.753906 497.082031 1106.808594 C 499.261719 1103.511719 493.015625 1098.738281 490.484375 1103.980469 Z M 490.484375 1103.980469 " fill-opacity="1" fill-rule="nonzero"/><path fill="#000000" d="M 463.964844 1029.792969 C 465.675781 1030.320312 467.679688 1029.027344 468.328125 1028.082031 C 470.507812 1024.78125 464.203125 1020.007812 461.726562 1025.253906 C 460.960938 1026.902344 462.375 1029.261719 463.964844 1029.792969 Z M 463.964844 1029.792969 " fill-opacity="1" fill-rule="nonzero"/><path fill="#000000" d="M 657.894531 1174.871094 C 659.605469 1175.402344 661.609375 1174.105469 662.257812 1173.164062 C 664.4375 1169.863281 658.132812 1165.089844 655.65625 1170.332031 C 654.832031 1171.984375 656.246094 1174.339844 657.894531 1174.871094 Z M 657.894531 1174.871094 " fill-opacity="1" fill-rule="nonzero"/><path fill="#000000" d="M 649.292969 1121.71875 C 651 1122.25 653.003906 1120.953125 653.652344 1120.007812 C 655.832031 1116.710938 649.527344 1111.9375 647.054688 1117.179688 C 646.230469 1118.832031 647.644531 1121.1875 649.292969 1121.71875 Z M 649.292969 1121.71875 " fill-opacity="1" fill-rule="nonzero"/><path fill="#000000" d="M 729.730469 1133.210938 C 731.4375 1133.738281 733.441406 1132.441406 734.089844 1131.5 C 736.269531 1128.199219 729.964844 1123.425781 727.488281 1128.671875 C 726.664062 1130.320312 728.078125 1132.679688 729.730469 1133.210938 Z M 729.730469 1133.210938 " fill-opacity="1" fill-rule="nonzero"/><path fill="#000000" d="M 586.710938 1200.503906 C 585.945312 1202.15625 587.359375 1204.511719 588.949219 1205.042969 C 590.660156 1205.574219 592.664062 1204.277344 593.3125 1203.332031 C 595.433594 1200.03125 589.1875 1195.261719 586.710938 1200.503906 Z M 586.710938 1200.503906 " fill-opacity="1" fill-rule="nonzero"/><path fill="#000000" d="M 503.386719 1150.238281 C 502.621094 1151.890625 504.035156 1154.246094 505.628906 1154.777344 C 507.335938 1155.308594 509.339844 1154.011719 509.988281 1153.066406 C 512.167969 1149.769531 505.863281 1144.996094 503.386719 1150.238281 Z M 503.386719 1150.238281 " fill-opacity="1" fill-rule="nonzero"/><path fill="#000000" d="M 686.003906 1130.851562 C 685.296875 1127.550781 684.824219 1126.609375 684.058594 1123.015625 C 683.117188 1118.773438 682.765625 1115.882812 681.289062 1115.058594 C 677.753906 1113.054688 677.222656 1117.300781 672.863281 1131.617188 C 659.839844 1135.390625 656.539062 1136.273438 655.894531 1138.277344 C 654.714844 1141.929688 662.316406 1143.109375 672.980469 1144.40625 L 676.695312 1158.960938 C 677.695312 1162.082031 680.996094 1163.144531 682.765625 1156.722656 C 682.765625 1156.605469 685.769531 1145.996094 686.003906 1145.878906 C 691.308594 1144.40625 700.972656 1140.8125 702.09375 1140.046875 C 710.164062 1134.625 686.179688 1131.855469 686.003906 1130.851562 Z M 686.003906 1130.851562 " fill-opacity="1" fill-rule="nonzero"/><path fill="#000000" d="M 481.289062 1064.027344 C 480.582031 1060.730469 480.113281 1059.785156 479.347656 1056.191406 C 478.402344 1051.949219 478.050781 1049.0625 476.578125 1048.234375 C 473.039062 1046.230469 472.511719 1050.476562 468.148438 1064.792969 C 455.125 1068.566406 451.828125 1069.449219 451.179688 1071.453125 C 450 1075.105469 457.601562 1076.285156 468.265625 1077.582031 L 471.980469 1092.136719 C 472.980469 1095.261719 476.28125 1096.320312 478.050781 1089.898438 C 478.050781 1089.78125 481.054688 1079.171875 481.289062 1079.054688 C 486.59375 1077.582031 496.257812 1073.988281 497.378906 1073.222656 C 505.449219 1067.800781 481.46875 1065.089844 481.289062 1064.027344 Z M 481.289062 1064.027344 " fill-opacity="1" fill-rule="nonzero"/><path fill="#000000" d="M 733.617188 1164.675781 C 733.148438 1162.4375 732.851562 1161.789062 732.261719 1159.375 C 731.613281 1156.484375 731.378906 1154.542969 730.378906 1153.953125 C 727.960938 1152.597656 727.609375 1155.484375 724.660156 1165.207031 C 715.820312 1167.742188 713.582031 1168.390625 713.113281 1169.683594 C 712.285156 1172.160156 717.472656 1172.984375 724.71875 1173.871094 L 727.253906 1183.769531 C 727.960938 1185.890625 730.140625 1186.597656 731.378906 1182.238281 C 731.378906 1182.179688 733.441406 1174.929688 733.617188 1174.871094 C 737.210938 1173.871094 743.753906 1171.394531 744.519531 1170.921875 C 750 1167.210938 733.734375 1165.382812 733.617188 1164.675781 Z M 733.617188 1164.675781 " fill-opacity="1" fill-rule="nonzero"/><path fill="#000000" d="M 656.894531 1214.292969 C 656.421875 1212.054688 656.128906 1211.40625 655.539062 1208.988281 C 654.890625 1206.101562 654.65625 1204.15625 653.652344 1203.570312 C 651.238281 1202.214844 650.882812 1205.101562 647.9375 1214.824219 C 639.097656 1217.359375 636.859375 1218.007812 636.386719 1219.300781 C 635.5625 1221.777344 640.75 1222.601562 647.996094 1223.488281 L 650.53125 1233.328125 C 651.238281 1235.449219 653.417969 1236.15625 654.65625 1231.796875 C 654.65625 1231.734375 656.71875 1224.488281 656.894531 1224.429688 C 660.488281 1223.425781 667.03125 1220.953125 667.796875 1220.480469 C 673.277344 1216.886719 657.011719 1215 656.894531 1214.292969 Z M 656.894531 1214.292969 " fill-opacity="1" fill-rule="nonzero"/><path fill="#000000" d="M 530.847656 1030.085938 C 530.378906 1027.847656 530.082031 1027.199219 529.492188 1024.78125 C 528.84375 1021.894531 528.609375 1019.949219 527.609375 1019.363281 C 525.191406 1018.007812 524.839844 1020.894531 521.890625 1030.617188 C 513.050781 1033.152344 510.8125 1033.796875 510.339844 1035.09375 C 509.515625 1037.570312 514.703125 1038.394531 521.949219 1039.277344 L 524.484375 1049.121094 C 525.191406 1051.242188 527.371094 1051.949219 528.609375 1047.585938 C 528.609375 1047.527344 530.671875 1040.28125 530.847656 1040.222656 C 534.441406 1039.21875 540.984375 1036.746094 541.75 1036.273438 C 547.230469 1032.679688 530.964844 1030.792969 530.847656 1030.085938 Z M 530.847656 1030.085938 " fill-opacity="1" fill-rule="nonzero"/><path fill="#000000" d="M 542.632812 956.25 C 542.164062 954.011719 541.867188 953.363281 541.277344 950.945312 C 540.628906 948.058594 540.394531 946.113281 539.394531 945.523438 C 536.976562 944.171875 536.625 947.058594 533.675781 956.78125 C 524.839844 959.3125 522.597656 959.960938 522.128906 961.257812 C 521.300781 963.734375 526.488281 964.558594 533.734375 965.441406 L 536.269531 975.285156 C 536.976562 977.40625 539.15625 978.113281 540.394531 973.75 C 540.394531 973.691406 542.457031 966.445312 542.632812 966.386719 C 546.230469 965.382812 552.769531 962.910156 553.535156 962.4375 C 559.074219 958.84375 542.8125 956.957031 542.632812 956.25 Z M 542.632812 956.25 " fill-opacity="1" fill-rule="nonzero"/><path fill="#000000" d="M 471.566406 1121.070312 C 471.097656 1118.832031 470.800781 1118.183594 470.210938 1115.765625 C 469.5625 1112.878906 469.328125 1110.933594 468.328125 1110.34375 C 465.910156 1108.988281 465.558594 1111.878906 462.609375 1121.601562 C 453.769531 1124.132812 451.53125 1124.78125 451.0625 1126.078125 C 450.234375 1128.554688 455.421875 1129.378906 462.667969 1130.261719 L 465.203125 1140.164062 C 465.910156 1142.285156 468.089844 1142.992188 469.328125 1138.628906 C 469.328125 1138.570312 471.390625 1131.324219 471.566406 1131.265625 C 475.160156 1130.261719 481.703125 1127.789062 482.46875 1127.316406 C 487.949219 1123.664062 471.683594 1121.777344 471.566406 1121.070312 Z M 471.566406 1121.070312 " fill-opacity="1" fill-rule="nonzero"/><path fill="#000000" d="M 342.171875 935.609375 C 347.273438 937.019531 368.828125 900.636719 359.742188 887.53125 C 357.355469 884.917969 354.296875 875.894531 352.011719 873.1875 C 349.71875 870.484375 348.863281 865.894531 351.617188 863.667969 C 364.464844 856.945312 346.554688 840.058594 361.121094 825.378906 C 368.847656 815.0625 382.460938 799.019531 390.195312 788.703125 C 396.171875 785.632812 403.238281 790.179688 414.007812 780.585938 C 435.949219 792.046875 472.382812 808.75 500.414062 816.535156 C 489.863281 799.300781 486.183594 779.878906 489.78125 759.414062 C 489.253906 757.878906 488.742188 756.054688 488.257812 754.011719 C 470.292969 757.070312 424.5625 755.636719 417.875 754.324219 C 393.144531 747.257812 381.035156 758.363281 375.667969 769.746094 C 354.792969 801.285156 339.753906 814.46875 332.75 821.652344 C 313.679688 841.898438 324.527344 848.246094 330.839844 863.605469 C 329.359375 898.777344 312.984375 899.28125 342.171875 935.609375 " fill-opacity="1" fill-rule="nonzero"/><path fill="#000000" d="M 704.546875 354.449219 C 706.273438 356.933594 705.265625 360.902344 702.5625 362.261719 L 694.464844 356.046875 Z M 663.539062 341.503906 C 668.527344 331.25 682.324219 337.890625 684.167969 322.621094 C 687.109375 317.222656 700.359375 322.230469 703.542969 315.035156 C 704.242188 313.742188 705.792969 313.167969 707.164062 313.695312 C 711.652344 315.257812 718.136719 313.890625 722.578125 311.925781 C 726.28125 309.578125 729.664062 305.800781 728.386719 300.226562 C 725.613281 288.140625 714.667969 289.203125 709.636719 288.417969 C 697.386719 286.191406 698.3125 275.644531 682.125 278.988281 C 668.582031 280.207031 652.78125 263.785156 638.457031 277.800781 C 630.683594 280.832031 619.015625 273.628906 613.925781 285.671875 C 610.910156 290.722656 608.367188 288.914062 603.738281 296.328125 C 599.039062 301.84375 595.492188 311.390625 598.648438 319.949219 C 595.804688 328.292969 594.332031 338.890625 600.035156 346.347656 C 596.59375 360.359375 601.292969 356.996094 603.277344 368.585938 C 600.21875 375.804688 602.585938 386.820312 611.398438 387.992188 C 609.039062 393.507812 606.929688 398.320312 604.886719 402.75 C 595.929688 402.871094 587.875 405.285156 582.679688 405.804688 C 553.492188 394.640625 532.769531 401.214844 520.945312 410.679688 C 515.066406 412.070312 508.386719 411.019531 500.585938 414.753906 C 514.496094 419.171875 533.84375 427.007812 543.335938 429.351562 C 552.828125 431.699219 560.03125 433.039062 570.421875 432.886719 C 598.855469 431.289062 637.472656 417.90625 649.375 454.636719 L 682.261719 432.433594 C 678.3125 431.15625 675.320312 430.917969 672.789062 430.679688 C 664.496094 410.65625 656.382812 415.785156 658.246094 391.917969 C 659.289062 401.472656 670.863281 421.851562 699.101562 420.460938 C 700.953125 413.050781 700.953125 403.324219 704.109375 388.816406 C 706.421875 384.390625 714.066406 391.519531 714.457031 382.550781 C 714.839844 373.679688 713.917969 367.65625 713.453125 357.003906 C 713.363281 354.914062 718.855469 354.917969 719.9375 352.375 C 723.835938 343.207031 721.246094 325.535156 720.890625 318.773438 C 716.527344 320.070312 711.472656 320.652344 707.339844 319.808594 C 702.75 325.21875 694.660156 325.589844 689.351562 325.976562 C 686.089844 337.523438 678.539062 339.90625 671.035156 341.316406 C 667.035156 346.425781 662.265625 355.179688 654.105469 350.933594 C 650.207031 347.59375 653.898438 343.925781 653.402344 338.066406 C 653.34375 330.921875 645.296875 328.429688 640.445312 332.140625 C 634.765625 337.140625 636.070312 354.546875 644.695312 352.171875 C 653.867188 351.320312 647.097656 362.105469 638.539062 357.398438 C 629.394531 353.015625 629.074219 332.949219 636.765625 327.601562 C 650.285156 317.761719 663.539062 332.753906 658.332031 346.003906 C 660.707031 345.699219 662.199219 344.15625 663.539062 341.503906 " fill-opacity="1" fill-rule="nonzero"/><path fill="#000000" d="M 581.46875 475.796875 C 595.046875 480.539062 607.617188 493.203125 622.910156 489.652344 C 634.28125 485.449219 644.757812 473.390625 645.363281 461.003906 C 644.613281 444.324219 626.980469 432.722656 611.222656 433.359375 C 591.316406 435.214844 571.523438 440.3125 551.421875 436.46875 C 525.839844 434.320312 503.601562 415.476562 477.394531 419.027344 C 462.957031 421.644531 427.359375 437.550781 435.441406 456.058594 C 444.410156 465.558594 458.351562 470.792969 470.121094 476.433594 C 483.5625 481.570312 498.210938 478.652344 512.011719 476.683594 C 534.832031 473.046875 559.058594 467.328125 581.46875 475.796875 " fill-opacity="1" fill-rule="nonzero"/><g clip-path="url(#9e677864a7)"><path fill="#000000" d="M 583.375 650.789062 C 575.667969 654.371094 570.085938 658.824219 565.65625 663.738281 C 558.273438 671.929688 554.109375 681.414062 548.824219 690.394531 C 543.953125 698.664062 538.121094 706.496094 527.886719 712.453125 C 532.707031 708.675781 536.554688 703.953125 539.890625 698.753906 C 540.824219 697.292969 541.714844 695.796875 542.578125 694.273438 C 548.035156 684.613281 552.226562 673.816406 557.589844 664.398438 C 559.046875 661.964844 561.300781 658.945312 564.046875 655.882812 C 568.40625 651.023438 574.003906 646.054688 579.65625 643.132812 C 581.648438 641.671875 583.570312 641.828125 584.894531 642.773438 C 587.210938 644.429688 587.679688 648.523438 583.375 650.789062 Z M 526.269531 634.941406 C 516.121094 625.480469 530.902344 593.003906 531 592.898438 C 529.234375 572.316406 544.917969 541.71875 545.703125 556.378906 C 540.765625 564.25 534.734375 580.488281 535.960938 593.230469 C 532.25 602.722656 525.769531 618.191406 528.6875 631.992188 C 529.003906 633.5 527.800781 634.960938 526.269531 634.941406 Z M 661.007812 468.992188 C 707.933594 515.308594 715.21875 531.160156 791.691406 533.339844 C 861.699219 568.640625 894.019531 537.058594 958.574219 553.929688 C 939.289062 601.960938 875.515625 627.195312 874.980469 682.441406 C 845.117188 653.554688 679.488281 493.285156 653.71875 468.34375 Z M 661.230469 457.535156 L 729.613281 463.640625 C 729.613281 463.640625 715.703125 445.988281 693.011719 436.074219 L 909.90625 289.636719 C 896.734375 351.367188 984.132812 389.148438 977.171875 490.488281 C 902.605469 483.863281 727.476562 468.300781 654.847656 461.84375 Z M 976.566406 497.320312 C 965.757812 497.417969 953.457031 514.355469 937.828125 514.289062 C 912.835938 512.6875 871.234375 500.699219 853.175781 495.746094 C 805.597656 484.042969 813.898438 501.742188 787.019531 480.1875 L 976.59375 497.035156 C 976.585938 497.132812 976.574219 497.226562 976.566406 497.320312 Z M 1091.210938 969.285156 C 1082.9375 934.949219 1096.789062 902.210938 1105.988281 869.902344 C 1114.621094 837.625 1097.835938 777.238281 1034.765625 774.007812 C 968.414062 765.128906 950.816406 850.667969 915.277344 814.566406 C 841.953125 723.777344 752.882812 791.753906 687.175781 680.257812 C 679.773438 667.703125 670.347656 656.382812 658.894531 647.375 C 649.738281 640.179688 639.59375 634.308594 629.335938 630.773438 C 629.335938 630.773438 619.765625 626.960938 603.265625 625.464844 C 576.117188 623.8125 572.214844 620.214844 597.316406 621.742188 C 622.300781 620.589844 641.023438 629.941406 641.023438 629.941406 C 627.660156 573.472656 673.261719 558.488281 692.210938 512.453125 L 876.164062 690.449219 C 876.441406 700.222656 898.917969 725.539062 887.066406 701.460938 C 868.800781 643.769531 958.453125 610.085938 977.425781 558.226562 C 986.015625 559.5625 990.167969 553.492188 993.480469 546.835938 C 999.746094 534.167969 1012.28125 513.066406 996.273438 503.351562 C 996.460938 501.945312 996.640625 500.414062 996.804688 498.832031 L 1016.722656 500.601562 L 1007.082031 518.667969 L 1061.28125 501.261719 L 1010.996094 474.566406 C 1012.171875 478.203125 1016.203125 490.648438 1017.304688 494.050781 L 997.386719 492.28125 C 1004.355469 375.019531 891.296875 335.476562 925.050781 273.476562 C 940.984375 251.78125 914.429688 272.984375 912.625 281.851562 C 886.441406 299.53125 669.976562 445.683594 650.160156 459.058594 C 650.878906 474.128906 639.640625 486.96875 626.78125 493.566406 C 611.3125 499.753906 596.414062 487.890625 582.792969 481.65625 C 560.867188 471.558594 530.820312 478.675781 507.371094 482.316406 C 505.257812 488.558594 503.636719 504.382812 505.378906 512.183594 C 507.058594 519.730469 510.425781 522.902344 514.496094 524.410156 C 526.371094 528.828125 541.660156 526.960938 552.789062 526.589844 C 561.140625 537.519531 606.445312 552.277344 623.996094 543.023438 C 621.378906 548.519531 604.070312 552.589844 585.410156 549.535156 C 569.4375 546.917969 553.027344 538.277344 549.785156 531.878906 C 529.765625 535.617188 515.515625 532.222656 509.992188 531.351562 C 502.292969 548.867188 497.566406 580.152344 498.929688 617.535156 C 491.011719 644.832031 492.042969 679.8125 495.164062 698.550781 C 490.121094 718.335938 490 739.945312 496.101562 758.867188 C 492.125 780.464844 495.820312 797.675781 506.472656 814.742188 C 513.445312 807.5 524.367188 801.6875 526.660156 791.332031 C 527.976562 767.683594 533.296875 742.320312 549.089844 724.027344 C 532.613281 746.453125 537.441406 774.527344 534.261719 799.871094 C 524.585938 812.765625 469.535156 848.421875 454.640625 855.019531 C 446.640625 856.832031 439.070312 857.339844 433.015625 866.425781 C 424.4375 883.597656 429.214844 888.527344 431.503906 899.25 C 435.191406 916.542969 438.625 935.535156 442.3125 952.828125 C 443.628906 964.902344 450.945312 973.832031 460.503906 980.757812 C 477.5 995.953125 488.53125 1020.757812 510.914062 1025.058594 C 519.359375 1000.097656 514.152344 962.316406 480.394531 969.34375 C 458.519531 955.167969 453.535156 899.226562 453.707031 898.746094 C 456.117188 895.46875 463.296875 892.683594 467.976562 879.488281 C 473.46875 877.878906 502.222656 869.320312 511.015625 866.679688 C 525.222656 862.40625 539.261719 857.257812 553.84375 857.066406 C 573.035156 855.425781 586.238281 853.71875 592.128906 832.578125 C 592.394531 820.976562 637.929688 819.703125 653.558594 780.078125 C 644.914062 805.542969 622.835938 822.203125 599.660156 832.679688 C 600.679688 860.175781 567.300781 865.832031 568.785156 866.964844 C 641.058594 922.304688 700.441406 908.597656 762.796875 912.199219 C 781.386719 893.773438 795.167969 879.789062 793.109375 851.632812 C 800.734375 886.6875 781.390625 899.554688 769.410156 920.605469 C 749.953125 954.796875 763.347656 979.59375 771.566406 994.207031 C 785.261719 1018.558594 809.671875 1039.828125 825.839844 1068.394531 C 826.890625 1070.285156 827.160156 1072.558594 826.429688 1074.59375 C 821.785156 1087.601562 824.730469 1095.046875 823.128906 1098.714844 C 816.066406 1114.875 800.585938 1127.328125 791.652344 1137.488281 C 767.554688 1165.554688 752.332031 1163.277344 750.433594 1189.707031 C 745.921875 1194.953125 739.5625 1202.0625 735.570312 1205.261719 C 731.859375 1208.816406 715.292969 1234.148438 730.113281 1236.0625 C 767.566406 1235.363281 785.800781 1244.839844 785.703125 1195.871094 C 805.707031 1191.234375 793.246094 1179.671875 803.421875 1164.847656 C 805.09375 1162.410156 832.339844 1128.269531 847.136719 1117.613281 C 873.585938 1105.464844 874.949219 1089.59375 861.339844 1065.410156 C 854.136719 1043.910156 848.183594 1017.375 860.78125 996.710938 C 870.359375 980.085938 886.765625 971.410156 900.375 959.089844 C 928.5 931.382812 943.625 888.472656 932.214844 849.761719 C 953.042969 890.269531 928.15625 948.648438 893.433594 976.667969 C 874.546875 992.617188 855.273438 1009.609375 861.558594 1037.078125 C 868.039062 1041.328125 895.191406 1049.3125 910.5 1058.425781 C 925.578125 1067.402344 921.433594 1081.046875 920.65625 1086.03125 C 914.71875 1124.019531 864.675781 1153.964844 860.664062 1182.109375 C 859.421875 1189.007812 849.992188 1195.503906 846.597656 1199.203125 C 842.839844 1202.863281 826.34375 1228.015625 841.140625 1230 C 878.632812 1229.28125 896.808594 1238.808594 896.730469 1189.808594 C 913.546875 1182.792969 903.601562 1173.042969 909.632812 1158.675781 C 910.960938 1155.519531 936.453125 1112.902344 951.316406 1100.058594 C 967.957031 1092.074219 976.734375 1069.476562 959.777344 1053.527344 C 875.832031 973.472656 984.703125 931.570312 934.515625 839.445312 C 950.351562 845.285156 965.480469 831.527344 982.101562 832.171875 C 1056.226562 843.359375 977.015625 945.246094 975.609375 976.777344 C 959.460938 1067.953125 1045.472656 1108.269531 1113.316406 1086.59375 C 1015.691406 1080.480469 989.492188 1009.972656 1023.929688 922.449219 C 1009.136719 961.855469 1010.511719 1013.191406 1040.566406 1043.59375 C 1086.066406 1089.625 1147.128906 1075.988281 1154.703125 1064.371094 C 1150.441406 1070.910156 1099.691406 1070.9375 1069.566406 1030.929688 C 1046.800781 1000.683594 1041.460938 955.609375 1051.828125 915.433594 C 1063.238281 865.058594 1081.613281 816.4375 1011.878906 804.820312 C 1055.152344 805.164062 1082.027344 831.082031 1067.511719 881.636719 C 1036.066406 991.144531 1088.722656 1057.214844 1138.132812 1060.5625 C 1170.566406 1065.28125 1181.003906 1033.214844 1186.757812 1004.144531 C 1156.300781 1044.234375 1100.273438 1006.503906 1091.210938 969.285156 " fill-opacity="1" fill-rule="nonzero"/></g></svg>