<svg xmlns="http://www.w3.org/2000/svg" xmlns:xlink="http://www.w3.org/1999/xlink" width="2000" zoomAndPan="magnify" viewBox="0 0 1500 1499.999933" height="2000" preserveAspectRatio="xMidYMid meet" version="1.0"><defs><clipPath id="4c88f22ddf"><path d="M 302.40625 403.195312 L 1197.476562 403.195312 L 1197.476562 1369.140625 L 302.40625 1369.140625 Z M 302.40625 403.195312 " clip-rule="nonzero"/></clipPath></defs><path fill="#000000" d="M 873.367188 249.246094 C 856.882812 249.246094 842.179688 266.515625 832.488281 279.894531 C 834.269531 257.945312 836.578125 219.453125 831.828125 197.96875 C 825.632812 170.023438 799.128906 168.242188 786.996094 173.382812 C 772.6875 179.445312 764.910156 188.871094 754.691406 202.121094 C 756.273438 200.078125 750.074219 207.65625 746.515625 213.589844 C 745.523438 209.171875 744.601562 191.773438 738.339844 182.414062 C 734.183594 176.152344 728.25 169.824219 720.867188 168.109375 C 700.03125 163.429688 686.515625 180.832031 673.859375 193.816406 C 672.867188 194.871094 662.648438 206.996094 659.15625 212.46875 C 654.9375 219.058594 657.507812 218.402344 654.078125 205.679688 C 639.242188 150.378906 622.300781 165.605469 626.191406 176.414062 C 658.429688 266.582031 629.75 395.769531 645.835938 405.65625 C 649.132812 407.699219 654.605469 406.246094 655.992188 399.457031 C 658.5625 387.199219 661.398438 344.226562 661.460938 343.238281 C 662.320312 315.222656 659.945312 248.125 659.878906 246.742188 C 668.386719 227.824219 688.691406 201.132812 697.988281 193.421875 C 707.085938 186.695312 710.054688 186.761719 714.601562 187.222656 C 742.425781 192.429688 721.789062 388.980469 730.359375 403.082031 C 732.140625 407.367188 740.117188 409.742188 742.820312 405.191406 C 747.304688 397.546875 748.953125 251.289062 748.953125 251.222656 C 749.085938 245.621094 748.359375 248.457031 751.855469 240.546875 C 760.558594 224.332031 753.964844 235.140625 763.921875 220.3125 C 772.160156 208.050781 782.183594 191.441406 798.203125 189.269531 C 819.234375 186.367188 813.367188 213.128906 807.765625 291.824219 C 805.851562 319.046875 803.542969 354.902344 805.917969 382.191406 C 806.117188 384.167969 809.808594 404.007812 809.414062 404.269531 C 785.347656 419.824219 760.160156 427.40625 756.074219 428.988281 C 748.753906 431.820312 748.425781 440.390625 755.875 441.90625 C 774.269531 445.792969 800.90625 435.117188 816.996094 424.835938 C 821.410156 434.589844 828.003906 446.914062 835.652344 454.429688 C 862.816406 481.253906 869.671875 464.644531 863.675781 458.515625 C 861.433594 456.207031 845.609375 448.101562 833.742188 413.300781 C 863.144531 389.636719 880.816406 365.644531 891.695312 337.566406 C 898.882812 318.914062 904.222656 300.59375 902.113281 280.355469 C 900.398438 265 890.96875 249.246094 873.367188 249.246094 Z M 883.253906 288.332031 C 881.804688 333.085938 859.652344 359.847656 828.402344 390.824219 C 827.742188 386.210938 827.808594 385.816406 827.542969 380.804688 C 825.894531 345.476562 829.851562 318.191406 829.917969 317.136719 C 837.566406 302.570312 847.917969 281.742188 863.675781 273.171875 C 867.367188 271.128906 873.5625 267.503906 877.914062 269.941406 C 883.320312 272.910156 883.386719 283.125 883.253906 288.332031 Z M 883.253906 288.332031 " fill-opacity="1" fill-rule="nonzero"/><path fill="#000000" d="M 704.582031 417.78125 C 698.648438 415.871094 694.429688 416.925781 690.800781 418.507812 C 675.769531 425.097656 681.703125 448.5625 703.328125 446.585938 C 706.691406 446.320312 704.714844 446.914062 701.351562 444.015625 C 695.085938 438.609375 695.21875 428.722656 697.394531 425.03125 C 698.253906 423.515625 700.691406 421.738281 699.835938 422.394531 C 705.902344 417.386719 711.371094 420.351562 704.582031 417.78125 Z M 704.582031 417.78125 " fill-opacity="1" fill-rule="nonzero"/><path fill="#000000" d="M 851.148438 229.144531 C 850.488281 230.59375 851.742188 232.636719 853.125 233.097656 C 854.640625 233.558594 856.355469 232.441406 856.949219 231.582031 C 858.859375 228.683594 853.386719 224.53125 851.148438 229.144531 Z M 851.148438 229.144531 " fill-opacity="1" fill-rule="nonzero"/><path fill="#000000" d="M 836.839844 181.292969 C 836.179688 182.742188 837.433594 184.785156 838.816406 185.246094 C 840.335938 185.707031 842.046875 184.589844 842.640625 183.730469 C 844.488281 180.898438 839.015625 176.746094 836.839844 181.292969 Z M 836.839844 181.292969 " fill-opacity="1" fill-rule="nonzero"/><path fill="#000000" d="M 888.398438 172.527344 C 887.738281 173.976562 888.992188 176.019531 890.375 176.480469 C 891.890625 176.941406 893.605469 175.820312 894.199219 174.964844 C 896.046875 172.066406 890.574219 167.914062 888.398438 172.527344 Z M 888.398438 172.527344 " fill-opacity="1" fill-rule="nonzero"/><path fill="#000000" d="M 624.476562 323.265625 C 623.816406 324.714844 625.070312 326.757812 626.453125 327.21875 C 627.96875 327.679688 629.683594 326.5625 630.277344 325.703125 C 632.125 322.871094 626.652344 318.71875 624.476562 323.265625 Z M 624.476562 323.265625 " fill-opacity="1" fill-rule="nonzero"/><path fill="#000000" d="M 658.363281 437.621094 C 659.878906 438.082031 661.59375 436.960938 662.1875 436.105469 C 664.101562 433.207031 658.628906 429.054688 656.386719 433.667969 C 655.726562 435.117188 656.980469 437.160156 658.363281 437.621094 Z M 658.363281 437.621094 " fill-opacity="1" fill-rule="nonzero"/><path fill="#000000" d="M 694.824219 403.941406 C 696.339844 404.402344 698.054688 403.28125 698.648438 402.425781 C 700.558594 399.523438 695.085938 395.371094 692.847656 399.984375 C 692.121094 401.4375 693.375 403.480469 694.824219 403.941406 Z M 694.824219 403.941406 " fill-opacity="1" fill-rule="nonzero"/><path fill="#000000" d="M 877.125 202.121094 C 876.53125 199.21875 876.136719 198.429688 875.410156 195.265625 C 874.550781 191.574219 874.289062 189.003906 872.96875 188.277344 C 869.871094 186.566406 869.410156 190.257812 865.585938 202.78125 C 854.179688 206.074219 851.277344 206.867188 850.75 208.578125 C 849.695312 211.742188 856.355469 212.796875 865.652344 213.917969 L 868.882812 226.640625 C 869.738281 229.339844 872.640625 230.265625 874.222656 224.660156 C 874.222656 224.597656 876.859375 215.238281 877.058594 215.171875 C 881.671875 213.851562 890.113281 210.753906 891.101562 210.09375 C 898.222656 205.414062 877.253906 202.976562 877.125 202.121094 Z M 877.125 202.121094 " fill-opacity="1" fill-rule="nonzero"/><path fill="#000000" d="M 856.289062 172.65625 C 856.289062 172.59375 858.070312 166.265625 858.203125 166.265625 C 861.367188 165.40625 867.101562 163.234375 867.761719 162.835938 C 872.574219 159.609375 858.332031 157.960938 858.265625 157.367188 C 857.871094 155.390625 857.609375 154.863281 857.082031 152.6875 C 856.488281 150.183594 856.289062 148.46875 855.433594 147.941406 C 853.324219 146.753906 853.058594 149.257812 850.421875 157.761719 C 842.707031 160.003906 840.730469 160.53125 840.335938 161.714844 C 839.609375 163.890625 844.160156 164.617188 850.488281 165.34375 L 852.664062 173.976562 C 853.257812 175.820312 855.167969 176.480469 856.289062 172.65625 Z M 856.289062 172.65625 " fill-opacity="1" fill-rule="nonzero"/><path fill="#000000" d="M 671.21875 459.109375 C 670.824219 457.132812 670.5625 456.605469 670.035156 454.429688 C 669.441406 451.925781 669.242188 450.210938 668.386719 449.683594 C 666.277344 448.496094 666.011719 451 663.375 459.503906 C 655.660156 461.746094 653.683594 462.273438 653.289062 463.457031 C 652.5625 465.632812 657.113281 466.359375 663.441406 467.082031 L 665.617188 475.71875 C 666.210938 477.5625 668.1875 478.222656 669.242188 474.398438 C 669.242188 474.335938 671.023438 468.007812 671.15625 468.007812 C 674.320312 467.148438 680.054688 464.976562 680.714844 464.578125 C 685.527344 461.347656 671.285156 459.703125 671.21875 459.109375 Z M 671.21875 459.109375 " fill-opacity="1" fill-rule="nonzero"/><path fill="#000000" d="M 614.652344 341.65625 C 614.257812 339.675781 613.992188 339.148438 613.464844 336.976562 C 612.871094 334.46875 612.671875 332.757812 611.816406 332.230469 C 609.707031 331.042969 609.441406 333.546875 606.804688 342.050781 C 599.09375 344.292969 597.113281 344.816406 596.71875 346.003906 C 595.992188 348.179688 600.542969 348.90625 606.871094 349.628906 L 609.046875 358.265625 C 609.640625 360.109375 611.617188 360.769531 612.671875 356.945312 C 612.671875 356.878906 614.453125 350.550781 614.585938 350.550781 C 617.75 349.695312 623.488281 347.519531 624.144531 347.125 C 628.957031 343.894531 614.71875 342.246094 614.652344 341.65625 Z M 614.652344 341.65625 " fill-opacity="1" fill-rule="nonzero"/><g clip-path="url(#4c88f22ddf)"><path fill="#000000" d="M 863.898438 788.882812 C 871.429688 812.234375 895.519531 871.746094 900.039062 888.316406 C 904.554688 904.890625 904.554688 926.734375 903.804688 932.761719 C 903.050781 938.789062 897.78125 962.894531 895.519531 968.167969 C 895.519531 968.167969 888.746094 964.402344 889.496094 960.636719 C 890.253906 956.867188 893.265625 940.296875 893.265625 935.777344 C 893.265625 931.253906 887.242188 915.4375 887.242188 915.4375 C 887.242188 915.4375 881.21875 918.449219 880.460938 922.972656 C 879.710938 927.492188 877.449219 938.039062 874.441406 939.542969 C 874.441406 939.542969 874.441406 921.464844 874.441406 917.695312 C 874.441406 913.929688 880.460938 898.863281 880.460938 895.851562 C 880.460938 892.839844 876.699219 870.992188 865.402344 852.914062 C 854.113281 834.835938 842.066406 815.25 836.796875 794.15625 C 831.523438 773.066406 824.75 736.152344 820.230469 723.347656 C 818.472656 718.363281 815.804688 707.554688 813.417969 695.199219 C 811.722656 686.390625 810.167969 676.800781 809.195312 667.953125 C 808.910156 665.378906 808.671875 662.863281 808.496094 660.453125 C 808.476562 660.164062 808.457031 659.875 808.441406 659.589844 C 807.957031 652.417969 808.023438 646.199219 808.9375 641.992188 C 808.9375 641.992188 810.917969 641.890625 813.90625 642.144531 C 819.191406 642.597656 827.636719 644.179688 834.019531 649.429688 C 837.710938 652.464844 840.699219 656.734375 841.980469 662.726562 C 842.003906 662.847656 842.042969 662.957031 842.066406 663.082031 C 843.304688 669.296875 844.953125 679.855469 846.832031 692.363281 C 851.796875 725.339844 858.441406 771.953125 863.898438 788.882812 Z M 804.457031 564.664062 C 803.796875 572.347656 803.886719 580.242188 803.730469 586.335938 C 803.6875 588.003906 804.140625 592.207031 802.042969 593.488281 C 797.226562 596.433594 779.5625 594.261719 767.308594 592.777344 C 771.726562 595.464844 780.371094 598.355469 780.269531 598.90625 C 778.773438 606.980469 777.601562 612.472656 776.113281 619.789062 C 775.484375 622.875 776.835938 626.078125 779.546875 627.671875 C 782.699219 629.527344 786.359375 631.171875 790.203125 632.722656 C 790.527344 634.953125 791.363281 642.9375 788.730469 652.339844 C 785.546875 649.152344 781.519531 646.613281 777.546875 644.324219 C 763.605469 636.269531 752.347656 629.273438 745.296875 610.210938 C 742.277344 602.050781 748.027344 581.222656 748.058594 578.539062 C 743.769531 578.132812 740.058594 574.320312 739.769531 570.019531 C 748.078125 570.0625 754.804688 562.964844 758.25 555.398438 C 761.507812 548.242188 762.761719 540.367188 765.988281 533.207031 C 769.667969 525.050781 783.546875 510.035156 791.753906 521.824219 C 795.71875 527.523438 794.832031 536.421875 796.488281 543.65625 C 797.429688 547.78125 807.519531 555.460938 807.476562 557.546875 C 807.460938 558.4375 804.917969 563.035156 804.457031 564.664062 Z M 699.089844 658.289062 C 697.769531 680.695312 690.703125 713.460938 687.21875 723.347656 C 682.699219 736.152344 675.921875 773.066406 670.652344 794.15625 C 665.378906 815.25 653.335938 834.835938 642.039062 852.914062 C 630.746094 870.992188 626.980469 892.839844 626.980469 895.851562 C 626.980469 898.863281 633.003906 913.929688 633.003906 917.695312 C 633.003906 921.464844 633.003906 939.542969 633.003906 939.542969 C 629.992188 938.039062 627.734375 927.492188 626.980469 922.972656 C 626.226562 918.449219 620.207031 915.4375 620.207031 915.4375 C 620.207031 915.4375 614.183594 931.253906 614.183594 935.777344 C 614.183594 940.296875 617.195312 956.867188 617.945312 960.636719 C 618.703125 964.402344 611.921875 968.167969 611.921875 968.167969 C 609.667969 962.894531 604.394531 938.789062 603.644531 932.761719 C 602.886719 926.734375 602.886719 904.890625 607.40625 888.316406 C 611.921875 871.746094 636.015625 812.234375 643.546875 788.882812 C 648.980469 772.023438 655.59375 725.722656 660.550781 692.773438 C 662.460938 680.082031 664.125 669.367188 665.378906 663.082031 C 666.335938 658.308594 668.371094 654.617188 670.980469 651.753906 C 678.0625 643.980469 689.386719 642.347656 695.054688 642.039062 C 697.175781 641.921875 698.507812 641.992188 698.507812 641.992188 C 699.367188 645.941406 699.476562 651.667969 699.089844 658.289062 Z M 1107.964844 652.265625 C 1106.503906 450.382812 974.460938 400.292969 927.429688 403.328125 C 898.621094 405.1875 847.023438 413.957031 898.605469 529.316406 C 923.316406 584.585938 885.09375 620.667969 850.871094 640.609375 C 849.914062 633.628906 867.261719 603.0625 838.277344 571.5 C 823.261719 555.152344 813.066406 541.53125 810.144531 525.4375 C 806.734375 506.671875 783.117188 491.976562 762.980469 503.277344 C 712.101562 500.703125 708.796875 546.847656 702.824219 574.214844 C 695.050781 609.882812 676.292969 604.765625 652.820312 642.777344 C 617.730469 623.339844 575.648438 586.648438 601.28125 529.316406 C 652.863281 413.957031 601.257812 405.1875 572.457031 403.328125 C 525.425781 400.292969 393.378906 450.382812 391.917969 652.265625 C 390.398438 861.738281 361.574219 948.257812 302.40625 1005.941406 C 372.199219 972.546875 425.210938 905.753906 431.367188 796.46875 C 437.429688 688.699219 428.328125 585.480469 498.117188 550.566406 C 438.949219 618.316406 471.871094 718.164062 461.703125 799.503906 C 455.636719 848.078125 442.570312 899.105469 409.257812 940.042969 C 409.464844 939.898438 409.667969 939.75 409.875 939.605469 C 455.304688 906.710938 486.945312 857.960938 498.5625 803.066406 C 513.230469 733.769531 492.046875 659.855469 546.664062 621.90625 C 516.320312 676.554688 537.402344 746.976562 525.144531 809.519531 C 524.75 810.9375 524.335938 812.351562 523.921875 813.765625 C 561.835938 772.183594 554.25 697.808594 606.832031 668.136719 C 593.480469 685.496094 587.566406 705.277344 584.222656 725.996094 C 597.253906 711.882812 611.535156 701.253906 628.894531 695.699219 C 622.421875 720.707031 619.234375 747.515625 613.523438 771.304688 C 605.464844 804.863281 587.667969 835.125 574.128906 866.871094 C 560.589844 898.617188 551.210938 934.375 561.023438 967.46875 C 569.757812 996.929688 593.269531 1020.703125 621.042969 1033.808594 C 638.027344 1041.824219 656.464844 1046.132812 675.222656 1047.664062 C 674.558594 1030.128906 673.148438 1012.410156 671.621094 994.550781 C 670.09375 976.535156 668.375 958.382812 667.472656 939.9375 C 666.984375 930.734375 666.871094 921.386719 667.140625 911.976562 C 667.429688 902.3125 668.902344 892.796875 670.941406 883.636719 C 675.070312 865.273438 680.261719 847.941406 687.367188 831.101562 C 690.925781 822.679688 711.789062 776.238281 711.691406 774.085938 C 711.558594 773.019531 699.777344 738.417969 696.957031 725.414062 C 696.960938 725.414062 712.289062 765.453125 715.460938 771 C 720.324219 779.523438 675.753906 853.601562 675.753906 910.800781 C 675.753906 947.445312 686.125 998.691406 690.132812 1048.3125 C 692.386719 1076.164062 692.644531 1103.503906 687.921875 1127.453125 C 658.886719 1274.625 561.488281 1321.238281 559.917969 1337.613281 C 570.199219 1354.066406 594.863281 1372.578125 656.53125 1349.953125 C 712.949219 1329.257812 747.527344 1404.953125 850.929688 1346.53125 C 871.382812 1334.972656 917.835938 1363.566406 953.742188 1332.484375 C 931.980469 1306.765625 838.191406 1226.9375 820.515625 1127.453125 C 813.867188 1090.015625 819.621094 1044.511719 825.976562 1001.667969 C 830.96875 968 836.332031 935.976562 836.332031 910.800781 C 836.332031 853.601562 785.28125 780.207031 790.144531 771.6875 C 793.359375 766.0625 804.105469 742.550781 810.246094 725.316406 C 810.246094 725.316406 796.640625 771.472656 795.285156 774.433594 C 795.027344 775.214844 830.609375 847.097656 839.820312 875.207031 C 846.675781 896.117188 845.578125 922.191406 845.410156 925.808594 C 845.148438 940.445312 843.886719 954.769531 842.515625 968.964844 L 839.554688 998.148438 C 857.542969 995.542969 876.546875 999.5 894.171875 994.660156 C 918.800781 987.898438 935.921875 965.25 945.976562 941.769531 C 966.429688 894.007812 968.476562 817.632812 883.332031 728.011719 C 873.140625 717.285156 865.769531 705.097656 860.683594 693.265625 C 863.789062 693.742188 866.910156 694.425781 869.992188 695.371094 C 887.804688 700.832031 902.378906 711.609375 915.660156 725.996094 C 912.316406 705.277344 906.402344 685.496094 893.054688 668.136719 C 945.632812 697.808594 938.046875 772.183594 975.960938 813.765625 C 975.546875 812.351562 975.136719 810.9375 974.742188 809.519531 C 962.488281 746.976562 983.5625 676.554688 953.222656 621.90625 C 1007.835938 659.855469 986.652344 733.769531 1001.320312 803.066406 C 1012.9375 857.960938 1044.578125 906.710938 1090.011719 939.605469 C 1090.214844 939.75 1090.421875 939.898438 1090.621094 940.042969 C 1057.3125 899.105469 1044.246094 848.078125 1038.175781 799.503906 C 1028.015625 718.164062 1060.929688 618.316406 1001.765625 550.566406 C 1071.558594 585.480469 1062.453125 688.699219 1068.519531 796.46875 C 1074.675781 905.753906 1127.6875 972.546875 1197.476562 1005.941406 C 1138.308594 948.257812 1109.484375 861.738281 1107.964844 652.265625 " fill-opacity="1" fill-rule="nonzero"/></g></svg>